<?xml version="1.0" standalone="no"?>
<!DOCTYPE svg PUBLIC "-//W3C//DTD SVG 1.1//EN" "http://www.w3.org/Graphics/SVG/1.1/DTD/svg11.dtd" >
<svg xmlns="http://www.w3.org/2000/svg" xmlns:xlink="http://www.w3.org/1999/xlink" version="1.1">
<metadata>
Created by FontForge 20141024 at Fri Oct 23 13:20:21 2015
 By Jimmy Warting
Copyright (c) 2013 by Mariya Pigoulevskaya. All rights reserved.
</metadata>
<defs>
<font id="Merel-Light" horiz-adv-x="537" >
  <font-face 
    font-family="Merel-Light"
    font-weight="400"
    font-stretch="normal"
    units-per-em="1000"
    panose-1="0 0 4 0 0 0 0 0 0 0"
    ascent="789"
    descent="-211"
    x-height="400"
    cap-height="650"
    bbox="-53 -253.002 1136 1032"
    underline-thickness="50"
    underline-position="-50"
    unicode-range="U+0020-25CA"
  />
<missing-glyph horiz-adv-x="500" 
d="M0 0v700h500v-700h-500zM250 395l170 255h-340zM280 350l170 -255v510zM80 50h340l-170 255zM50 605v-510l170 255z" />
    <glyph glyph-name=".notdef" horiz-adv-x="500" 
d="M0 0v700h500v-700h-500zM250 395l170 255h-340zM280 350l170 -255v510zM80 50h340l-170 255zM50 605v-510l170 255z" />
    <glyph glyph-name="space" unicode=" " horiz-adv-x="210" 
 />
    <glyph glyph-name="exclam" unicode="!" horiz-adv-x="160" 
d="M103 537l-9 -325c-10 -4 -19.667 -4 -29 0l-9 325v113c16 6.66699 31.667 6.66699 47 0v-113zM81 51c9.33301 0 17.166 -3.16699 23.499 -9.5s9.5 -14.166 9.5 -23.499s-3.16699 -17.166 -9.5 -23.499s-14.166 -9.5 -23.499 -9.5c-10 0 -18.333 3.16699 -25 9.5
s-10 14.166 -10 23.499s3.33301 17.166 10 23.499s15 9.5 25 9.5z" />
    <glyph glyph-name="quotedbl" unicode="&#x22;" horiz-adv-x="267" 
d="M93 650l-13.001 -197c-11.333 -4.66699 -22.666 -4.66699 -33.999 0v197c15.333 6.66699 31 6.66699 47 0zM220.999 650l-13.001 -197c-11.333 -4.66699 -22.666 -4.66699 -33.999 0v197c16 6.66699 31.667 6.66699 47 0z" />
    <glyph glyph-name="numbersign" unicode="#" horiz-adv-x="514" 
d="M332 272h97c0.666992 -4 -0.166016 -9.33301 -2.49902 -16s-4.83301 -11.334 -7.5 -14.001h-96l-69 -242c-12 -6 -23.333 -6 -34 0l70 242h-113l-70 -242c-10.667 -6 -21.667 -6 -33 0l69 242h-96c-0.666992 4 0.166016 9.33301 2.49902 16s4.83301 11.334 7.5 14.001h95
l31 106h-97c-0.666992 3.33301 0 8.5 2 15.5s4.33301 11.833 7 14.5h96l70 242c11.333 6 22.333 6 33 0l-69 -242h113l69 242c10.667 6 22 6 34 0l-70 -242h97c1.33203 -11.333 -1.33496 -21.333 -8 -30h-98zM216 378l-31 -106h113l30 106h-112z" />
    <glyph glyph-name="dollar" unicode="$" horiz-adv-x="569" 
d="M500 164c0 -51.333 -19.1689 -93.5039 -57.502 -126.504s-87.5 -50.5 -147.5 -52.5v-93c-8 -6.66699 -16.667 -6.66699 -26 0v93c-72 3.33301 -134.333 25.333 -187 66c-2.66699 3.33301 -4 11.5 -4 24.5s1.33301 21.167 4 24.5c59.333 -49.333 126.333 -74 201 -74
c50 0 90.667 12.667 122 38s47 57.666 47 96.999c0 42.667 -14 73.834 -42 93.501s-75.667 39.834 -143 60.501c-32.667 10 -59 19.333 -79 28s-40.167 19.834 -60.5 33.501s-35.166 30.334 -44.499 50.001s-14 42.5 -14 68.5c0 46 18 85.5 54 118.5s84.667 50.167 146 51.5
v93c9.33301 6.66699 18 6.66699 26 0v-93c69.333 -4 126.333 -25.333 171 -64c2.66699 -4 4 -12.333 4 -25s-1.33301 -20.667 -4 -24c-52 48 -114.667 72 -188 72c-49.333 0 -88.5 -12.167 -117.5 -36.5c-29 -24.334 -43.5 -54.167 -43.5 -89.499
c0 -37.333 12.833 -65 38.5 -83s74.5 -38.667 146.5 -62c25.333 -8 45.833 -15.167 61.5 -21.5s33.167 -14.833 52.5 -25.5s34.333 -22 45 -34s19.834 -27.167 27.501 -45.5c7.66699 -18.334 11.5 -39.167 11.5 -62.5z" />
    <glyph glyph-name="percent" unicode="%" horiz-adv-x="766" 
d="M181 665c41.333 0 74 -15.5 98 -46.5s36 -72.167 36 -123.5s-12 -92.5 -36 -123.5s-56.667 -46.5 -98 -46.5s-74.166 15.5 -98.499 46.5s-36.5 72.167 -36.5 123.5s12.167 92.5 36.5 123.5s57.166 46.5 98.499 46.5zM555 650l-308 -650c-12 -6 -23.667 -6 -35 0l308 650
c11.333 6 23 6 35 0zM181 633c-30 0 -53.833 -12.168 -71.5 -36.501c-17.667 -24.334 -26.5 -58.167 -26.5 -101.499c0 -43.333 8.83301 -77.166 26.5 -101.499s41.5 -36.5 71.5 -36.5s53.667 12.167 71 36.5c17.333 24.334 26 58.167 26 101.5s-8.66699 77.166 -26 101.499
s-41 36.5 -71 36.5zM585 324.999c41.333 0 74 -15.5 98 -46.5s36 -72.167 36 -123.5s-12 -92.5 -36 -123.5s-56.667 -46.5 -98 -46.5s-74.166 15.5 -98.499 46.5s-36.5 72.167 -36.5 123.5s12.167 92.5 36.5 123.5s57.166 46.5 98.499 46.5zM585 292.999
c-30 0 -53.833 -12.167 -71.5 -36.5s-26.5 -58.166 -26.5 -101.499s8.83301 -77.166 26.5 -101.499s41.5 -36.5 71.5 -36.5s53.667 12.167 71 36.5s26 58.166 26 101.499s-8.66699 77.166 -26 101.499s-41 36.5 -71 36.5z" />
    <glyph glyph-name="ampersand" unicode="&#x26;" horiz-adv-x="635" 
d="M271 665c50.667 0 90.666 -13.8369 119.999 -41.5039s44 -63.167 44 -106.5c0 -12 -1.83301 -23.667 -5.5 -35s-7.5 -21.166 -11.5 -29.499s-11.5 -17.333 -22.5 -27s-19.5 -17.167 -25.5 -22.5s-17.167 -13 -33.5 -23s-28 -17 -35 -21s-20.5 -11.333 -40.5 -22l188 -191
c42.667 58.667 65 127 67 205c16 6.66699 31.667 6.66699 47 0c-4 -90 -31.333 -169 -82 -237l115 -114c-6 -2.66699 -15.833 -4 -29.5 -4s-23.5 1.33301 -29.5 4l-85 83c-61.333 -65.333 -133.666 -98 -216.999 -98c-54 0 -100.333 14.667 -139 44s-58 69 -58 119
c0 44.667 13 81.334 39 110.001s65.333 58.334 118 89.001c-58 68.667 -87 126.667 -87 174c0 40.668 15 74.835 45 102.501c30 27.667 69.333 41.5 118 41.5zM270.999 623.996c-35.333 0 -63.501 -9.99902 -84.501 -29.999s-31.5 -44.667 -31.5 -74
c0 -40.667 26 -91.334 78 -152.001c32.667 18 55.834 31 69.501 39s28.667 18.167 45 30.5c16.334 12.333 27.167 24.333 32.5 36s8 25.5 8 41.5c0 31.333 -10 57.333 -30 78s-49 31 -87 31zM421.998 112.997l-198 202c-48.667 -28 -83.834 -53.5 -105.501 -76.5
s-32.5 -52.5 -32.5 -88.5c0 -38.667 14.833 -69.167 44.5 -91.5s64.834 -33.5 105.501 -33.5c72 0 134 29.333 186 88z" />
    <glyph glyph-name="quotesingle" unicode="'" horiz-adv-x="139" 
d="M93 650l-13.001 -197c-11.333 -4.66699 -22.666 -4.66699 -33.999 0v197c15.333 6.66699 31 6.66699 47 0z" />
    <glyph glyph-name="parenleft" unicode="(" horiz-adv-x="228" 
d="M181 650c-27.333 -53.334 -49.333 -114.67 -66 -184.003s-25 -135 -25 -197s8.33301 -127.667 25 -197s38.667 -130.666 66 -183.999c-14 -6 -28.333 -6 -43 0c-27.333 50 -49.5 109.833 -66.5 179.5s-25.5 136.834 -25.5 201.501s8.5 131.834 25.5 201.501
s39.167 129.5 66.5 179.5c14.667 6 29 6 43 0z" />
    <glyph glyph-name="parenright" unicode=")" horiz-adv-x="228" 
d="M89 650c27.333 -50 49.5 -109.829 66.5 -179.496s25.5 -136.834 25.5 -201.501s-8.5 -131.834 -25.5 -201.501s-39.167 -129.5 -66.5 -179.5c-14 -6 -28.333 -6 -43 0c27.333 53.333 49.333 114.666 66 183.999s25 135 25 197s-8.33301 127.667 -25 197
s-38.667 130.666 -66 183.999c14 6 28.333 6 43 0z" />
    <glyph glyph-name="asterisk" unicode="*" horiz-adv-x="408" 
d="M217 507l133 54c9.33301 -10 13.333 -22 12 -36l-136 -42l96 -107c-7.33301 -12 -17 -19.667 -29 -23l-89 118l-88 -118c-12 3.33301 -21.667 11 -29 23l96 107l-136 42c-1.33301 14 2.66699 26 12 36l133 -54l-7 143c12.667 5.33301 25 5.33301 37 0z" />
    <glyph glyph-name="plus" unicode="+" horiz-adv-x="443" 
d="M239 300h155c6 -12.667 6 -24.667 0 -36h-155v-154c-11.333 -6 -23 -6 -35 0v154h-154c-6 11.333 -6 23.333 0 36h154v154c12 4.66699 23.667 4.66699 35 0v-154z" />
    <glyph glyph-name="comma" unicode="," horiz-adv-x="168" 
d="M83 51c10 0 18.498 -3.49902 25.498 -10.499s10.833 -17.167 11.5 -30.5c2.66699 -22 -0.5 -49.667 -9.5 -83s-19.167 -55.333 -30.5 -66c-9.33301 -5.33301 -19.666 -5.33301 -30.999 0c12 13.333 22.167 33.166 30.5 59.499s11.833 48.166 10.5 65.499
c-2.66699 -0.666992 -5.66699 -1 -9 -1c-9.33301 0 -17.166 3 -23.499 9s-9.5 14 -9.5 24c0 8.66699 3.16699 16.334 9.5 23.001s14.833 10 25.5 10z" />
    <glyph glyph-name="hyphen" unicode="-" horiz-adv-x="374" 
d="M50 300h275c6 -12.667 6 -24.667 0 -36h-275c-6 11.333 -6 23.333 0 36z" />
    <glyph glyph-name="period" unicode="." horiz-adv-x="160" 
d="M81 -15c-10 0 -18.333 3.16699 -25 9.5s-10 14.166 -10 23.499s3.33301 17.166 10 23.499s15 9.5 25 9.5c9.33301 0 17.166 -3.16699 23.499 -9.5s9.5 -14.166 9.5 -23.499s-3.16699 -17.166 -9.5 -23.499s-14.166 -9.5 -23.499 -9.5z" />
    <glyph glyph-name="slash" unicode="/" horiz-adv-x="306" 
d="M260 650l-171 -650c-14.667 -6 -29 -6 -43 0l171 650c14 6 28.333 6 43 0z" />
    <glyph glyph-name="zero" unicode="0" horiz-adv-x="659" 
d="M330 665c79.333 0 142.5 -31.167 189.5 -93.5s70.5 -144.5 70.5 -246.5s-23.5 -184.167 -70.5 -246.5s-110.167 -93.5 -189.5 -93.5s-142.666 31.167 -189.999 93.5s-71 144.5 -71 246.5s23.667 184.167 71 246.5s110.666 93.5 189.999 93.5zM330 624
c-65.333 0 -117.166 -26.5 -155.499 -79.5s-57.5 -126.167 -57.5 -219.5s19.167 -166.5 57.5 -219.5s90.166 -79.5 155.499 -79.5c64.667 0 116.167 26.5 154.5 79.5s57.5 126.167 57.5 219.5s-19.167 166.5 -57.5 219.5s-89.833 79.5 -154.5 79.5z" />
    <glyph glyph-name="one" unicode="1" horiz-adv-x="340" 
d="M42 533l164.002 117c13.333 5.33301 26.666 5.33301 39.999 0v-650c-16 -6.66699 -31.667 -6.66699 -47 0v598l-157 -112c-2.66699 3.33301 -3.83398 11 -3.50098 23s1.5 20 3.5 24z" />
    <glyph glyph-name="two" unicode="2" horiz-adv-x="527" 
d="M129 41h338c5.33301 -14 5.33301 -27.667 0 -41h-421v9c106 103.333 185 184.333 237 243s86 103.5 102 134.5s24 62.5 24 94.5c0 39.333 -14.167 73 -42.5 101s-67.833 42 -118.5 42c-68 0 -127 -24 -177 -72c-2.66699 2.66699 -4 10.5 -4 23.5s1.33301 21.5 4 25.5
c48 42.667 108 64 180 64c64.667 0 115.167 -18 151.5 -54s54.5 -78.667 54.5 -128c0 -54 -21.5 -109.833 -64.5 -167.5s-130.833 -149.167 -263.5 -274.5z" />
    <glyph glyph-name="three" unicode="3" horiz-adv-x="557" 
d="M280 665c64 0 114.331 -16.667 150.998 -50s55 -74 55 -122c0 -35.333 -9.66699 -66.833 -29 -94.5s-45.666 -47.834 -78.999 -60.5c42.667 -11.333 75.334 -32.166 98.001 -62.499s34 -64.833 34 -103.5c0 -56 -20.833 -101.167 -62.5 -135.5s-95.5 -51.5 -161.5 -51.5
c-35.333 0 -70.5 5.66699 -105.5 17s-64.167 26.666 -87.5 45.999c-2 4 -3.16699 12.5 -3.5 25.5s0.833984 21.167 3.50098 24.5c24.667 -22.667 54.167 -40.5 88.5 -53.5s68.166 -19.5 101.499 -19.5c53.333 0 96.5 13.667 129.5 41s49.5 64 49.5 110
c0 39.333 -13.833 72.333 -41.5 99s-68.5 40 -122.5 40h-88c-5.33301 12.667 -5.33301 25.667 0 39h88c42 0 75.833 12.833 101.5 38.5s38.5 57.5 38.5 95.5s-14 70.167 -42 96.5s-67 39.5 -117 39.5c-68.667 0 -129 -24 -181 -72c-2.66699 3.33301 -3.83398 11.333 -3.5 24
c0.333008 12.667 1.5 21 3.5 25c50 42.667 110.667 64 182 64z" />
    <glyph glyph-name="four" unicode="4" horiz-adv-x="573" 
d="M432 189h98c5.33301 -13.333 5.33301 -26.666 0 -39.999h-98v-149c-16 -6.66699 -31.667 -6.66699 -47 0v149h-343c-5.33301 13.333 -5.33301 26.666 0 39.999l349 461c14 5.33301 27.667 5.33301 41 0v-461zM385 580l-297 -391h297v391z" />
    <glyph glyph-name="five" unicode="5" horiz-adv-x="527" 
d="M154 650h293.999c5.33301 -13.333 5.33301 -27 0 -41h-257l-38 -249c34.667 16.667 69.667 25 105 25c66.667 0 120.334 -18.167 161.001 -54.5s61 -83.833 61 -142.5c0 -59.333 -21 -108 -63 -146s-96.333 -57 -163 -57c-77.333 0 -141.333 21 -192 63
c-2 4 -3.16699 12.5 -3.5 25.5s0.833984 21.167 3.5 24.5c52.667 -48.667 116 -73 190 -73c53.334 0 96.667 15.167 130 45.5s50 69.5 50 117.5s-17 86.5 -51 115.5s-79.667 43.5 -137 43.5c-46.667 0 -94 -13.667 -142 -41z" />
    <glyph glyph-name="six" unicode="6" horiz-adv-x="583" 
d="M306 415c64 0 114.665 -20.168 151.998 -60.501s56 -90.833 56 -151.5c0 -62 -20.667 -113.833 -62 -155.5s-94.666 -62.5 -159.999 -62.5c-66.667 0 -120.5 21.167 -161.5 63.5s-61.5 98.5 -61.5 168.5c0 45.333 7.83301 89.833 23.5 133.5
s34.834 81.334 57.501 113.001s48.167 61 76.5 88s53.5 48 75.5 63s42 26.833 60 35.5c6 2.66699 18.167 4 36.5 4s30.5 -1.33301 36.5 -4c-23.333 -11.333 -47 -25 -71 -41s-50.5 -36 -79.5 -60s-56 -52.833 -81 -86.5s-44.167 -69.167 -57.5 -106.5
c44 39.333 97.333 59 160 59zM290.998 25.999c51.333 0 93.332 16.501 125.999 49.501s49 75.167 49 126.5s-15.333 93.333 -46 126s-72.667 49 -126 49c-37.333 0 -70.666 -8 -99.999 -24s-51.333 -33 -66 -51c-7.33301 -29.333 -11 -59.333 -11 -90
c0 -56.667 16 -101.834 48 -135.501s74 -50.5 126 -50.5z" />
    <glyph glyph-name="seven" unicode="7" horiz-adv-x="527" 
d="M488 641l-328 -641c-16.667 -6.66699 -34 -6.66699 -52 0l314 609h-365c-5.33301 14 -5.33301 27.667 0 41h431v-9z" />
    <glyph glyph-name="eight" unicode="8" horiz-adv-x="543" 
d="M272 665c61.333 0 109.999 -16.833 145.999 -50.5s54 -74.167 54 -121.5c0 -34.667 -10 -66.167 -30 -94.5s-46.333 -48.5 -79 -60.5c42 -12 74.667 -33.667 98 -65s35 -66.333 35 -105c0 -55.333 -21 -99.666 -63 -132.999s-95.667 -50 -161 -50
s-119.166 16.667 -161.499 50s-63.5 77.666 -63.5 132.999c0 38.667 11.667 73.667 35 105s56 53 98 65c-32.667 12 -59 32.167 -79 60.5s-30 59.833 -30 94.5c0 47.333 18 87.833 54 121.5s85 50.5 147 50.5zM270.999 624c-47.333 0 -84.666 -13.333 -111.999 -40
s-41 -58.667 -41 -96c0 -36.667 13.167 -68.167 39.5 -94.5s59.166 -39.5 98.499 -39.5h30c40 0 73 13.167 99 39.5s39 57.833 39 94.5c0 37.333 -13.5 69.333 -40.5 96s-64.5 40 -112.5 40zM285.999 315h-28.999c-50 0 -89.5 -14 -118.5 -42s-43.5 -61.667 -43.5 -101
c0 -44.667 16.667 -80.334 50 -107.001s75.666 -40 126.999 -40s93.5 13.333 126.5 40s49.5 62.334 49.5 107.001c0 39.333 -14.5 73 -43.5 101s-68.5 42 -118.5 42z" />
    <glyph glyph-name="nine" unicode="9" horiz-adv-x="583" 
d="M291 665c66.667 0 120.501 -21.166 161.501 -63.499s61.5 -98.5 61.5 -168.5c0 -45.333 -7.83301 -89.833 -23.5 -133.5s-34.834 -81.334 -57.5 -113.001c-22.667 -31.667 -48.167 -61 -76.5 -88s-53.5 -48 -75.5 -63s-42 -26.833 -60 -35.5
c-6 -2.66699 -18.167 -4 -36.5 -4s-30.5 1.33301 -36.5 4c23.333 11.333 47 25 71 41s50.5 36 79.5 60s56 52.833 81 86.5s44.167 69.167 57.5 106.5c-44 -39.333 -97.333 -59 -160 -59c-64 0 -114.667 20.167 -152 60.5s-56 90.833 -56 151.5c0 62 20.667 113.833 62 155.5
s94.666 62.5 159.999 62.5zM291.001 624.001c-50.667 0 -92.333 -16.501 -125 -49.501s-49 -75.167 -49 -126.5s15.333 -93.333 46 -126s72.667 -49 126 -49c37.334 0 70.667 8 100 24s51.333 33 66 51c7.33301 29.333 11 59.333 11 90
c0 56.667 -16.167 101.834 -48.5 135.501s-74.5 50.5 -126.5 50.5z" />
    <glyph glyph-name="colon" unicode=":" horiz-adv-x="160" 
d="M81 349c-10 0 -18.333 3.16504 -25 9.49805c-6.66699 6.33496 -10 14.168 -10 23.5c0 9.33496 3.33301 17.168 10 23.5c6.66699 6.33301 15 9.5 25 9.5c9.33301 0 17.166 -3.16699 23.499 -9.5s9.5 -14.166 9.5 -23.499s-3.16699 -17.166 -9.5 -23.499
s-14.166 -9.5 -23.499 -9.5zM81 -15.002c-10 0 -18.333 3.16699 -25 9.5s-10 14.166 -10 23.499s3.33301 17.166 10 23.499s15 9.5 25 9.5c9.33301 0 17.166 -3.16699 23.499 -9.5s9.5 -14.166 9.5 -23.499s-3.16699 -17.166 -9.5 -23.499s-14.166 -9.5 -23.499 -9.5z" />
    <glyph glyph-name="semicolon" unicode=";" horiz-adv-x="168" 
d="M83 415c9.33301 0 17.166 -3.16895 23.499 -9.50195s9.5 -14.166 9.5 -23.499s-3.16699 -17.166 -9.5 -23.499s-14.166 -9.5 -23.499 -9.5c-10 0 -18.333 3.16699 -25 9.5c-6.66699 6.33496 -10 14.168 -10 23.5c0 9.33496 3.33301 17.168 10 23.5
c6.66699 6.33301 15 9.5 25 9.5zM83 50.998c10 0 18.498 -3.49902 25.498 -10.499s10.833 -17.167 11.5 -30.5c2.66699 -22 -0.5 -49.667 -9.5 -83s-19.167 -55.333 -30.5 -66c-9.33301 -5.33301 -19.666 -5.33301 -30.999 0c12 13.333 22.167 33.166 30.5 59.499
s11.833 48.166 10.5 65.499c-2.66699 -0.666992 -5.66699 -1 -9 -1c-9.33301 0 -17.166 3 -23.499 9s-9.5 14 -9.5 24c0 8.66699 3.16699 16.334 9.5 23.001s14.833 10 25.5 10z" />
    <glyph glyph-name="less" unicode="&#x3c;" horiz-adv-x="456" 
d="M50 289l357 181c6.66699 -14.667 6.66699 -28.667 0 -42l-304 -152l304 -152c6.66699 -14.667 6.66699 -28.667 0 -42l-357 180c-2.66699 3.33301 -4 7.83301 -4 13.5s1.33301 10.167 4 13.5z" />
    <glyph glyph-name="equal" unicode="=" horiz-adv-x="443" 
d="M50 356h344c6 -12 6 -24 0 -36h-344c-6 12 -6 24 0 36zM50 227h344c6 -11.333 6 -23.333 0 -36l-344 1c-6 12 -6 23.667 0 35z" />
    <glyph glyph-name="greater" unicode="&#x3e;" horiz-adv-x="456" 
d="M50 470l357 -181c2.66699 -2.66699 4 -7.16699 4 -13.5s-1.33301 -10.833 -4 -13.5l-357 -180c-6.66699 13.333 -6.66699 27.333 0 42l303 152l-303 152c-6.66699 13.333 -6.66699 27.333 0 42z" />
    <glyph glyph-name="question" unicode="?" horiz-adv-x="493" 
d="M238 212c-16 -5.33301 -31.666 -5.33203 -46.999 0.000976562c0 37.333 6.33301 64.666 19 81.999s34.334 35.666 65 54.999c47.333 29.333 79.833 53.333 97.5 72s26.5 44.334 26.5 77.001c0 35.333 -14.5 65.166 -43.5 89.499s-68.167 36.5 -117.5 36.5
c-72.667 0 -135.667 -24 -189 -72c-2.66699 3.33301 -3.83398 11.333 -3.50098 24s1.5 21 3.5 25c51.333 42.667 115.333 64 192 64c63.333 0 113.5 -16 150.5 -48s55.5 -70.667 55.5 -116c0 -39.333 -10.333 -70.666 -31 -93.999s-54 -49.333 -100 -78
c-20 -12.667 -34.5 -22.5 -43.5 -29.5s-17 -17.833 -24 -32.5s-10.5 -33 -10.5 -55zM216.001 -14.999c-10 0 -18.332 3.16699 -24.999 9.5s-10 14.166 -10 23.499s3.33301 17.166 10 23.499s15 9.5 25 9.5c9.33301 0 17.166 -3.16699 23.499 -9.5s9.5 -14.166 9.5 -23.499
s-3.16699 -17.166 -9.5 -23.499c-6.33398 -6.33301 -14.167 -9.5 -23.5 -9.5z" />
    <glyph glyph-name="at" unicode="@" horiz-adv-x="944" 
d="M478 611c121.333 0 217.835 -36.668 289.502 -110.001s107.5 -167 107.5 -281c0 -44.667 -5.66699 -83.5 -17 -116.5s-26 -57.333 -44 -73s-35.333 -27.167 -52 -34.5s-33 -11 -49 -11c-55.333 1.33301 -87.333 26.333 -96 75c-42.667 -50 -96.334 -75 -161.001 -75
c-61.333 0 -110.5 20.333 -147.5 61s-55.5 92 -55.5 154s18.5 113.333 55.5 154s86.167 61 147.5 61c64 0 117.333 -24.333 160 -73l2 58c13.333 5.33301 26.666 5.33301 39.999 0v-310c0 -45.333 18.333 -68 55 -68c34.667 0 64 17 88 51s36 83 36 147
c0 106.667 -32.5 192.834 -97.5 258.501s-152.167 98.5 -261.5 98.5c-104 0 -191.833 -34.833 -263.5 -104.5s-107.5 -157.834 -107.5 -264.5c0 -90 26.333 -166.333 79 -229s119 -102 199 -118c2.66699 -3.33301 4 -9 4 -17s-1.33301 -14 -4 -18
c-91.333 16 -166.833 59.167 -226.5 129.5s-89.5 154.833 -89.5 253.5c0 114 39.333 209.5 118 286.5s175.667 115.5 291 115.5zM464.002 375.999c-50 0 -90.167 -16.5 -120.5 -49.5s-45.5 -75.167 -45.5 -126.5s15.167 -93.5 45.5 -126.5s70.5 -49.5 120.5 -49.5
c32.667 0 62.334 7.83301 89.001 23.5s47 32.167 61 49.5v206c-14 17.333 -34.333 33.833 -61 49.5s-56.334 23.5 -89.001 23.5z" />
    <glyph glyph-name="A" unicode="A" horiz-adv-x="670" 
d="M356 650l275 -650c-16.667 -6.66699 -33 -6.66699 -49 0l-85 200h-325l-85 -200c-16.667 -6.66699 -33 -6.66699 -49 0l275 650c14.667 6 29 6 43 0zM188 241h295l-148 349z" />
    <glyph glyph-name="B" unicode="B" horiz-adv-x="611" 
d="M94 650h248c57.333 0 104.5 -15 141.5 -45s55.5 -69.667 55.5 -119c0 -35.333 -9 -66 -27 -92s-43.333 -44.667 -76 -56c42 -11.333 73.833 -31 95.5 -59s32.5 -61.667 32.5 -101c0 -52.667 -19.5 -95.5 -58.5 -128.5s-92.833 -49.5 -161.5 -49.5h-250v650zM142 609v-256
h210c43.334 0 77.667 11.667 103 35s38 54.333 38 93c0 39.333 -14.333 70.5 -43 93.5s-65.667 34.5 -111 34.5h-197zM142 317v-276h200c55.334 0 98.167 12.833 128.5 38.5s45.5 59.5 45.5 101.5c0 40.667 -13.5 73.5 -40.5 98.5s-68.167 37.5 -123.5 37.5h-210z" />
    <glyph glyph-name="C" unicode="C" horiz-adv-x="727" 
d="M414 26c84.667 0 157.667 23.3311 219 69.998c2.66699 -3.33301 4 -11.166 4 -23.499s-1.33301 -20.166 -4 -23.499c-58.667 -42.667 -132 -64 -220 -64c-100.667 0 -183.167 32.833 -247.5 98.5s-96.5 146.167 -96.5 241.5s32.167 175.833 96.5 241.5
s146.833 98.5 247.5 98.5c88 0 161.333 -21.333 220 -64c2.66699 -3.33789 4 -11.1709 4 -23.5c0 -12.3379 -1.33301 -20.1709 -4 -23.5c-61.333 46.667 -134.333 70 -219 70c-86 0 -157 -28.667 -213 -86s-84 -128.333 -84 -213s28 -155.667 84 -213s127 -86 213 -86z" />
    <glyph glyph-name="D" unicode="D" horiz-adv-x="713" 
d="M94 650h207c109.333 0 193.833 -31 253.5 -93s89.5 -139.333 89.5 -232s-29.833 -170 -89.5 -232s-144.167 -93 -253.5 -93h-207v650zM142 41h159c95.333 0 168.5 26.667 219.5 80s76.5 121.333 76.5 204s-25.5 150.667 -76.5 204s-124.167 80 -219.5 80h-159v-568z" />
    <glyph glyph-name="E" unicode="E" horiz-adv-x="577" 
d="M141 41h385c5.33301 -14 5.33301 -27.667 0 -41h-432v650h432c5.33301 -13.333 5.33301 -27 0 -41h-385v-255h356c5.33301 -13.333 5.33301 -27 0 -41h-356v-272z" />
    <glyph glyph-name="F" unicode="F" horiz-adv-x="577" 
d="M141 349h356c5.33301 -14 5.33301 -27.667 0 -41h-356v-308c-15.333 -6.66699 -31 -6.66699 -47 0v650h432c5.33301 -13.333 5.33301 -27 0 -41h-385v-260z" />
    <glyph glyph-name="G" unicode="G" horiz-adv-x="735" 
d="M599 73v235.999c16 6 31.333 6 46 0v-260c-28 -20 -63 -35.667 -105 -47s-84.333 -17 -127 -17c-100.667 0 -183.167 32.833 -247.5 98.5s-96.5 146.167 -96.5 241.5s32.167 175.833 96.5 241.5s146.833 98.5 247.5 98.5c88 0 161.333 -21.333 220 -64
c2.66699 -3.33789 4 -11.1709 4 -23.5c0 -12.3379 -1.33301 -20.1709 -4 -23.5c-61.333 46.667 -134.333 70 -219 70c-86 0 -157 -28.667 -213 -86s-84 -128.333 -84 -213c0 -85.333 28 -156.666 84 -213.999s127 -86 213 -86c71.333 0 133 16 185 48z" />
    <glyph glyph-name="H" unicode="H" horiz-adv-x="723" 
d="M581 354v296c15.333 6.66699 31 6.66699 47 0v-650c-16 -6.66699 -31.667 -6.66699 -47 0v313h-440v-313c-15.333 -6.66699 -31 -6.66699 -47 0v650c15.333 6.66699 31 6.66699 47 0v-296h440z" />
    <glyph glyph-name="I" unicode="I" horiz-adv-x="236" 
d="M141 650v-650c-15.333 -6.66699 -31 -6.66699 -47 0v650c15.333 6.66699 31 6.66699 47 0z" />
    <glyph glyph-name="J" unicode="J" horiz-adv-x="412" 
d="M318 650l-0.000976562 -470c0 -65.333 -14.5 -114.166 -43.5 -146.499s-68.833 -48.5 -119.5 -48.5c-40 0 -77.667 11 -113 33c-2 4 -3.16699 11.667 -3.5 23s0.833984 18.666 3.50098 21.999c34 -24 68.667 -36 104 -36c83.333 0 125 52 125 156v467
c15.333 6.66699 31 6.66699 47 0z" />
    <glyph glyph-name="K" unicode="K" horiz-adv-x="609" 
d="M191 335l379 -335c-6 -2.66699 -16.167 -4 -30.5 -4s-24.5 1.33301 -30.5 4l-368 323v-323c-15.333 -6.66699 -31 -6.66699 -47 0v650c15.333 6.66699 31 6.66699 47 0v-304l347 304c6.66699 2.66699 17.167 4 31.5 4s24.5 -1.33301 30.5 -4z" />
    <glyph glyph-name="L" unicode="L" horiz-adv-x="554" 
d="M141 41h371c5.33301 -14 5.33301 -27.667 0 -41h-418v650c15.333 6.66699 31 6.66699 47 0v-609z" />
    <glyph glyph-name="M" unicode="M" horiz-adv-x="875" 
d="M686 650l150 -650c-15.333 -6 -31 -6 -47 0l-129 567l-202 -567c-14 -5.33301 -28 -5.33301 -42 0l-202 567l-129 -567c-16 -6 -31.667 -6 -47 0l150 650c14 6 28 6 42 0l207 -578l207 578c14 6 28 6 42 0z" />
    <glyph glyph-name="N" unicode="N" horiz-adv-x="713" 
d="M624 650v-650c-13.3379 -5.33301 -26.6709 -5.33301 -40 0l-447 572v-572c-15.333 -6.66699 -31 -6.66699 -47 0v650c13.333 5.33301 27 5.33301 41 0l446 -572v572c15.333 6.66699 31 6.66699 47 0z" />
    <glyph glyph-name="O" unicode="O" horiz-adv-x="817" 
d="M408 665c98.667 0 180 -32.833 244 -98.5s96 -146.167 96 -241.5s-32 -175.833 -96 -241.5s-145.333 -98.5 -244 -98.5s-179.834 32.833 -243.501 98.5s-95.5 146.167 -95.5 241.5s31.833 175.833 95.5 241.5s144.834 98.5 243.501 98.5zM408 624
c-84 0 -153.5 -28.5 -208.5 -85.5s-82.5 -128.167 -82.5 -213.5s27.5 -156.5 82.5 -213.5s124.5 -85.5 208.5 -85.5c84.667 0 154.5 28.5 209.5 85.5s82.5 128.167 82.5 213.5s-27.5 156.5 -82.5 213.5s-124.833 85.5 -209.5 85.5z" />
    <glyph glyph-name="P" unicode="P" horiz-adv-x="624" 
d="M94 650h223.999c76.667 0 135.334 -20 176.001 -60s61 -89.333 61 -148c0 -58 -20.333 -107 -61 -147s-99.334 -60 -176 -60h-177v-235c-15.333 -6.66699 -31 -6.66699 -47 0v650zM141.999 275l177 0.000976562c62 0 108.833 16 140.5 48s47.5 71.667 47.5 119
c0 48 -15.833 87.833 -47.5 119.499c-31.667 31.667 -78.5 47.5 -140.5 47.5h-177v-334z" />
    <glyph glyph-name="Q" unicode="Q" horiz-adv-x="817" 
d="M408 665c98.667 0 179.999 -32.835 243.999 -98.502s96 -146.167 96 -241.5c0 -81.333 -24 -152.5 -72 -213.5s-111.333 -99.833 -190 -116.5l120 -158c-6 -2.66699 -14.667 -4 -26 -4s-20 1.33301 -26 4l-114 150c-14.667 -1.33301 -25.667 -2 -33 -2
c-98.667 0.666992 -179.667 33.834 -243 99.501s-95 145.834 -95 240.501c0 95.333 31.833 175.833 95.5 241.5s144.834 98.5 243.501 98.5zM407.999 623.998c-84 0 -153.5 -28.5 -208.5 -85.5s-82.5 -128.167 -82.5 -213.5s27.5 -156.5 82.5 -213.5
s124.5 -85.5 208.5 -85.5c84.667 0 154.5 28.5 209.5 85.5s82.5 128.167 82.5 213.5s-27.5 156.5 -82.5 213.5s-124.833 85.5 -209.5 85.5z" />
    <glyph glyph-name="R" unicode="R" horiz-adv-x="624" 
d="M94 650l233.001 -0.00195312c76.667 0 135.334 -19.333 176.001 -58s61 -87 61 -145c0 -49.333 -15 -92.166 -45 -128.499s-74.333 -59.166 -133 -68.499l192 -250c-6.66699 -2.66699 -15.834 -4 -27.501 -4s-20.834 1.33301 -27.501 4l-187 244h-195v-244
c-15.333 -6.66699 -31 -6.66699 -47 0v650zM142.001 608.998v-324.002h186c62.667 0 109.667 15.333 141 46s47 69.334 47 116.001s-15.667 85.334 -47 116.001s-78.333 46 -141 46h-186z" />
    <glyph glyph-name="S" unicode="S" horiz-adv-x="569" 
d="M277 665c76 0 138.997 -21.3369 188.997 -64.0039c2.66699 -4 4 -12.333 4 -25s-1.33301 -20.667 -4 -24c-52 48 -114.667 72 -188 72c-49.333 0 -88.5 -12.167 -117.5 -36.5c-29 -24.334 -43.5 -54.167 -43.5 -89.499c0 -37.333 12.833 -65 38.5 -83
s74.5 -38.667 146.5 -62c25.333 -8 45.833 -15.167 61.5 -21.5s33.167 -14.833 52.5 -25.5s34.333 -22 45 -34s19.834 -27.167 27.501 -45.5c7.66699 -18.334 11.5 -39.167 11.5 -62.5c0 -53.333 -20.333 -96.5 -61 -129.5s-92.334 -49.5 -155 -49.5
c-77.333 0 -144.666 22 -201.999 66c-2.66699 3.33301 -4 11.5 -4 24.5s1.33301 21.167 4 24.5c59.333 -49.333 126.333 -74 201 -74c50 0 90.667 12.667 122 38s47 57.666 47 96.999c0 42.667 -14 73.834 -42 93.501s-75.667 39.834 -143 60.501
c-32.667 10 -59 19.333 -79 28s-40.167 19.834 -60.5 33.501s-35.166 30.334 -44.499 50.001s-14 42.5 -14 68.5c0 46.667 18.667 86.667 56 120s88 50 152 50z" />
    <glyph glyph-name="T" unicode="T" horiz-adv-x="585" 
d="M42 650h501c4.66699 -13.333 4.66699 -27 0 -41h-227v-609c-15.333 -6.66699 -31.333 -6.66699 -48 0v609h-226c-5.33301 14 -5.33301 27.667 0 41z" />
    <glyph glyph-name="U" unicode="U" horiz-adv-x="697" 
d="M560 239v411c16 6.66699 32 6.66699 48 0v-406c0 -81.333 -23.167 -144.833 -69.5 -190.5s-108.833 -68.5 -187.5 -68.5c-79.333 0 -142 22.667 -188 68s-69 109 -69 191v406c16 6.66699 32 6.66699 48 0v-411c0 -66 18.833 -118 56.5 -156s88.5 -57 152.5 -57
s114.833 19 152.5 57s56.5 90 56.5 156z" />
    <glyph glyph-name="V" unicode="V" horiz-adv-x="660" 
d="M330 67l242 583c16 6.66699 32.333 6.66699 49 0l-270 -650c-14 -6 -28.333 -6 -43 0l-270 650c16.667 6.66699 33 6.66699 49 0z" />
    <glyph glyph-name="W" unicode="W" horiz-adv-x="1002" 
d="M963 650l-224 -650c-14 -6 -28 -6 -42 0l-196 575l-197 -575c-14 -6 -28 -6 -42 0l-224 650c16 6.66699 32 6.66699 48 0l197 -580l197 580c13.333 6 27 6 41 0l197 -580l197 580c16 6.66699 32 6.66699 48 0z" />
    <glyph glyph-name="X" unicode="X" horiz-adv-x="603" 
d="M334 335l231 -335c-6.66699 -2.66699 -16 -4 -28 -4s-21.333 1.33301 -28 4l-209 302l-207 -302c-6 -2.66699 -15.167 -4 -27.5 -4s-21.5 1.33301 -27.5 4l231 335l-219 315c6 2.66699 15.167 4 27.5 4s21.5 -1.33301 27.5 -4l197 -282l195 282
c6.66699 2.66699 16 4 28 4s21 -1.33301 27 -4z" />
    <glyph glyph-name="Y" unicode="Y" horiz-adv-x="626" 
d="M337 251v-251c-15.333 -6.66699 -31.333 -6.66699 -48 0v250l-251 400c6 2.66699 14.667 4 26 4s20 -1.33301 26 -4l223 -354l223 354c16.667 6.66699 34 6.66699 52 0z" />
    <glyph glyph-name="Z" unicode="Z" horiz-adv-x="547" 
d="M117 41h379c5.33301 -14 5.33301 -27.667 0 -41h-449v9l383 600h-371c-4.66699 14 -4.66699 27.667 0 41h441v-9z" />
    <glyph glyph-name="bracketleft" unicode="[" horiz-adv-x="248" 
d="M90 -73h108c5.33301 -12.667 5.33301 -25.667 0 -39h-152v762h152c5.33301 -12.667 5.33301 -25.667 0 -39h-108v-684z" />
    <glyph glyph-name="backslash" unicode="\" horiz-adv-x="306" 
d="M217 0l-171 650c14 6 28.333 6 43 0l171 -650c-14.667 -6 -29 -6 -43 0z" />
    <glyph glyph-name="bracketright" unicode="]" horiz-adv-x="248" 
d="M202 -112h-152c-5.33301 12.667 -5.33301 25.667 0 39h107v684h-107c-5.33301 13.333 -5.33301 26.333 0 39h152v-762z" />
    <glyph glyph-name="asciicircum" unicode="^" horiz-adv-x="430" 
d="M214 650l165.001 -166c2.66699 -4 4 -12.833 4 -26.5s-1.33301 -22.167 -4 -25.5l-165 167l-165 -167c-2.66699 3.33301 -3.83398 11.833 -3.50098 25.5s1.5 22.5 3.5 26.5z" />
    <glyph glyph-name="underscore" unicode="_" horiz-adv-x="492" 
d="M50 -69h393c6 -12.667 6 -24.667 0 -36h-393c-6 11.333 -6 23.333 0 36z" />
    <glyph glyph-name="grave" unicode="`" horiz-adv-x="239" 
d="M76 860l116.001 -131.001c-1.33301 -4 -4.33301 -8.16699 -9 -12.5s-9.33398 -6.83301 -14.001 -7.5l-123 126c0.666992 4.67969 4.66699 9.84668 12 15.501c7.33301 5.67969 13.333 8.84668 18 9.5z" />
    <glyph glyph-name="a" unicode="a" horiz-adv-x="488" 
d="M241 415c57.333 0 100.832 -15.501 130.499 -46.501s44.5 -73.5 44.5 -127.5v-241c-13.333 -5.33301 -26.666 -5.33301 -39.999 0l-2 52c-18.667 -17.333 -43.167 -32.833 -73.5 -46.5s-62.5 -20.5 -96.5 -20.5c-45.333 0 -81.833 12 -109.5 36s-41.5 55.333 -41.5 94
s13.833 69.834 41.5 93.501s64.5 35.5 110.5 35.5c34 0 66 -6.5 96 -19.5s53.667 -27.167 71 -42.5v62c0 42 -11.5 74.833 -34.5 98.5s-57.167 35.5 -102.5 35.5c-48 0 -95 -16 -141 -48c-2.66699 2.66699 -4 9.16699 -4 19.5c0 10.335 1.33301 17.168 4 20.5
c38 30 87 45 147 45zM211.999 212.999c-35.333 0 -63.334 -9 -84.001 -27s-31 -41 -31 -69s10.167 -51 30.5 -69s48.5 -27 84.5 -27c32 0 63.333 7.33301 94 22s52.334 29 65.001 43v62c-12.667 14 -34.334 28.333 -65 43c-30.667 14.667 -62 22 -94 22z" />
    <glyph glyph-name="b" unicode="b" 
d="M278 415c60.667 0 109.499 -20.333 146.499 -61s55.5 -92 55.5 -154s-18.5 -113.333 -55.5 -154s-85.833 -61 -146.5 -61c-64 0 -117.333 24.333 -160 73l-2 -58c-14 -5.33301 -27.667 -5.33301 -41 0v650c14.667 6 29.334 6 44.001 0v-306
c42.667 47.333 95.667 71 159 71zM270.999 24c50 0 90 16.5 120 49.5s45 75.167 45 126.5s-15 93.5 -45 126.5s-70 49.5 -120 49.5c-32.667 0 -62.334 -7.83301 -89.001 -23.5s-47.334 -32.167 -62.001 -49.5v-206c14.667 -17.333 35.334 -33.833 62.001 -49.5
s56.334 -23.5 89.001 -23.5z" />
    <glyph glyph-name="c" unicode="c" horiz-adv-x="501" 
d="M283 23c49.333 0 96.666 16.3301 141.999 48.9971c2.66699 -2.66699 4 -9.33398 4 -20.001s-1.33301 -17.667 -4 -21c-38.667 -30.667 -87 -46 -145 -46c-66 0 -119.833 20.333 -161.5 61s-62.5 92 -62.5 154s20.833 113.333 62.5 154s95.5 61 161.5 61
c58 0 106.333 -15.333 145 -46c2.66699 -3.33301 4 -10.166 4 -20.499s-1.33301 -17.166 -4 -20.499c-45.333 32.667 -92.666 49 -141.999 49c-53.333 0 -97.166 -16.667 -131.499 -50s-51.5 -75.666 -51.5 -126.999s17.167 -93.666 51.5 -126.999s78.166 -50 131.499 -50z
" />
    <glyph glyph-name="d" unicode="d" 
d="M417 344l-0.00195312 306c14.667 6 29.334 6 44.001 0v-650c-13.333 -5.33301 -26.666 -5.33301 -39.999 0l-2 58c-42.667 -48.667 -96.334 -73 -161 -73c-60.667 0 -109.5 20.333 -146.5 61s-55.5 92 -55.5 154s18.5 113.333 55.5 154s85.833 61 146.5 61
c63.333 0 116.333 -23.667 159 -71zM416.998 97l-0.000976562 206c-14 17.333 -34.333 33.833 -61 49.5s-56.334 23.5 -89 23.5c-50 0 -90.167 -16.5 -120.5 -49.5s-45.5 -75.167 -45.5 -126.5s15.167 -93.5 45.5 -126.5s70.5 -49.5 120.5 -49.5
c32.667 0 62.334 7.83301 89.001 23.5s47 32.167 61 49.5z" />
    <glyph glyph-name="e" unicode="e" horiz-adv-x="515" 
d="M268 415c64 0 114.167 -22.002 150.5 -66.002s49.833 -95 40.5 -153h-358c0.666992 -52.667 17.667 -94.667 51 -126s76.333 -47 129 -47c50 0 97.667 16.333 143 49c2.66699 -3.33301 4 -10.166 4 -20.499s-1.33301 -17.166 -4 -20.499
c-37.333 -30.667 -86.333 -46 -147 -46c-66 0 -119.333 19.833 -160 59.5s-61 91.5 -61 155.5c0 62 19.667 113.333 59 154s90.333 61 153 61zM268 378.998c-46.667 0 -84.833 -14.167 -114.5 -42.5s-46.5 -65.5 -50.5 -111.5h316c1.33301 44 -12.334 80.667 -41 110
c-28.667 29.333 -65.334 44 -110 44z" />
    <glyph glyph-name="f" unicode="f" horiz-adv-x="375" 
d="M237 627c-56 0 -84.001 -31.667 -84.001 -95v-132h153c6 -13.333 6 -26 0 -38h-153v-362c-15.333 -6 -30.333 -6 -45 0v362h-66c-6 12 -6 24.667 0 38h66v138c0 42 11.5 73.667 34.5 95s51.833 32 86.5 32c36 0 71 -10.333 105 -31c2 -4 3.16699 -11.333 3.5 -22
c0.323242 -10.667 -0.84375 -17.667 -3.5 -21c-33.333 24 -65.666 36 -96.999 36z" />
    <glyph glyph-name="g" unicode="g" horiz-adv-x="534" 
d="M258 415c64.667 0 118.334 -24.333 161.001 -73l2 58c13.334 5.33301 26.667 5.33301 39.999 0v-396c0 -54 -16.333 -97.833 -49 -131.5s-79.334 -50.5 -140.001 -50.5c-63.333 0 -113.333 15 -150 45c-2.66699 4 -4 11 -4 21s1.33301 16.667 4 20
c44.667 -32 92.334 -48 143.001 -48c48.667 0 86.167 13 112.5 39s39.5 60.667 39.5 104v55c-42.667 -47.333 -95.667 -71 -159 -71c-60.667 0 -109.5 20.333 -146.5 61s-55.5 91.667 -55.5 153s18.5 112.333 55.5 153s85.833 61 146.5 61zM267 376
c-50 0 -90.167 -16.5 -120.5 -49.5s-45.5 -74.833 -45.5 -125.5s15.167 -92.5 45.5 -125.5s70.5 -49.5 120.5 -49.5c32.667 0 62.5 7.83301 89.5 23.5s47.167 32.167 60.5 49.5v204c-14 17.333 -34.333 33.833 -61 49.5s-56.334 23.5 -89 23.5z" />
    <glyph glyph-name="h" unicode="h" horiz-adv-x="515" 
d="M282 415c53.333 0 93.332 -15.168 119.999 -45.501s40 -69.833 40 -118.5v-251c-14.668 -6 -29.335 -6 -44 0v244c0 40.667 -10.333 72.834 -31 96.501s-52.334 35.5 -95 35.5c-29.333 0 -57.666 -8.66699 -84.999 -26s-49.333 -35 -66 -53v-297
c-14.667 -6 -29.334 -6 -44.001 0v650c14.667 6 29.334 6 44.001 0v-313c52 52 105.667 78 161 78z" />
    <glyph glyph-name="i" unicode="i" horiz-adv-x="220" 
d="M112 575c9.33301 0 17.166 -3.16504 23.499 -9.49805c6.33301 -6.33789 9.5 -14.1709 9.5 -23.5c0 -9.33789 -3.16699 -17.1709 -9.5 -23.5c-6.33301 -6.33691 -14.166 -9.50391 -23.499 -9.5c-10 0 -18.333 3.16699 -25 9.5s-10 14.166 -10 23.499
s3.33301 17.166 10 23.499s15 9.5 25 9.5zM132 400.002v-400c-14.667 -6 -29.334 -6 -44.001 0v400c14.667 6 29.334 6 44.001 0z" />
    <glyph glyph-name="j" unicode="j" horiz-adv-x="273" 
d="M167 570c8.66699 0 16 -2.83203 22 -8.49902s9 -12.834 9 -21.501s-3 -16 -9 -22s-13.333 -9 -22 -9c-9.33301 0 -17 3 -23 9s-9 13.333 -9 22c0 8.66895 3 15.8359 9 21.5c6 5.66699 13.667 8.5 23 8.5zM188 400.001v-478c0 -32.667 -8.5 -57.5 -25.5 -74.5
s-39.5 -25.5 -67.5 -25.5c-28.667 0 -57.667 8 -87 24c-2 4 -3.16699 11.333 -3.5 22s0.833984 17.667 3.50098 21c29.333 -19.333 55.666 -29 78.999 -29c37.333 0 56 22 56 66v474c14.667 6 29.667 6 45 0z" />
    <glyph glyph-name="k" unicode="k" horiz-adv-x="454" 
d="M164 206l252 -206c-6 -2.66699 -15.667 -4 -29 -4s-23.333 1.33301 -30 4l-236 192v-192c-14.667 -6 -29.334 -6 -44.001 0v650c14.667 6 29.334 6 44.001 0v-431l228 181c6 2.66699 15.667 4 29 4s23 -1.33301 29 -4z" />
    <glyph glyph-name="l" unicode="l" horiz-adv-x="194" 
d="M121 650v-650c-14.667 -6 -29.334 -6 -44.001 0v650c14.667 6 29.334 6 44.001 0z" />
    <glyph glyph-name="m" unicode="m" horiz-adv-x="814" 
d="M590 415c50.667 0 88.6689 -15.1689 114.002 -45.502s38 -69.833 38 -118.5v-251c-14.667 -6 -29.334 -6 -44.001 0v244c0 40.667 -9.83301 72.834 -29.5 96.501s-49.167 35.5 -88.5 35.5c-30 0 -58.5 -8.83301 -85.5 -26.5s-48.167 -35.5 -63.5 -53.5v-296
c-15.333 -6 -30.333 -6 -45 0v244c0 40.667 -9.66699 72.834 -29 96.501s-49 35.5 -89 35.5c-29.333 0 -57.5 -8.66699 -84.5 -26s-48.5 -35.333 -64.5 -54v-296c-14.667 -6 -29.334 -6 -44.001 0v400c13.333 5.33301 27 5.33301 41 0l2 -66c48.667 54 102 81 160 81
c72.667 0 119.667 -30.667 141 -92c56 61.333 113 92 171 92z" />
    <glyph glyph-name="n" unicode="n" horiz-adv-x="514" 
d="M281 415c53.333 0 93.335 -15.168 120.002 -45.501s40 -69.833 40 -118.5v-251c-14.668 -6 -29.335 -6 -44.001 0v244c0 40.667 -10.333 72.834 -31 96.501s-52.334 35.5 -95 35.5c-30 0 -58.833 -8.83301 -86.5 -26.5s-49.5 -35.5 -65.5 -53.5v-296
c-14.667 -6 -29.334 -6 -44.001 0v400c13.333 5.33301 27 5.33301 41 0l2 -66c48.667 54 103 81 163 81z" />
    <glyph glyph-name="o" unicode="o" horiz-adv-x="542" 
d="M271 415c61.333 0 112.5 -20.667 153.5 -62s61.5 -92.333 61.5 -153s-20.5 -111.667 -61.5 -153s-92.167 -62 -153.5 -62c-62 0 -113.333 20.667 -154 62s-61 92.333 -61 153s20.333 111.667 61 153s92 62 154 62zM271 376c-48.667 0 -89.168 -16.667 -121.501 -50
s-48.5 -75.333 -48.5 -126s16.167 -92.667 48.5 -126s72.833 -50 121.5 -50c49.334 0 90.167 16.667 122.5 50s48.5 75.333 48.5 126s-16.167 92.667 -48.5 126s-73.166 50 -122.499 50z" />
    <glyph glyph-name="p" unicode="p" horiz-adv-x="539" 
d="M280 415c60.667 0 109.501 -20.333 146.501 -61s55.5 -92 55.5 -154s-18.5 -113.333 -55.5 -154s-85.833 -61 -146.5 -61c-63.333 0 -116.333 23.667 -159 71v-219c-14.667 -6 -29.334 -6 -44.001 0v563c13.333 5.33301 27 5.33301 41 0l2 -58
c42.667 48.667 96 73 160 73zM273.001 24c50 0 90 16.5 120 49.5s45 75.167 45 126.5s-15 93.5 -45 126.5s-70 49.5 -120 49.5c-32.667 0 -62.334 -7.83301 -89.001 -23.5s-47.334 -32.167 -62.001 -49.5v-206c14.667 -17.333 35.334 -33.833 62.001 -49.5
s56.334 -23.5 89.001 -23.5z" />
    <glyph glyph-name="q" unicode="q" 
d="M419 342l2.00098 58c13.334 5.33301 26.667 5.33301 39.999 0v-563c-14.668 -6 -29.335 -6 -44.001 0v219c-42.667 -47.333 -95.667 -71 -159 -71c-60.667 0 -109.5 20.333 -146.5 61s-55.5 92 -55.5 154s18.5 113.333 55.5 154s85.833 61 146.5 61
c64.667 0 118.334 -24.333 161.001 -73zM417.001 97l-0.000976562 206c-14 17.333 -34.333 33.833 -61 49.5s-56.334 23.5 -89 23.5c-50 0 -90.167 -16.5 -120.5 -49.5s-45.5 -75.167 -45.5 -126.5s15.167 -93.5 45.5 -126.5s70.5 -49.5 120.5 -49.5
c32.667 0 62.334 7.83301 89.001 23.5s47 32.167 61 49.5z" />
    <glyph glyph-name="r" unicode="r" horiz-adv-x="395" 
d="M353 396c2.66699 -3.33301 4.00195 -10.833 4.00195 -22.5s-1.33301 -19.5 -4 -23.5c-23.333 16 -52.333 24 -87 24c-48 0 -97 -33 -147 -99v-275c-14.667 -6 -29.334 -6 -44.001 0v400c13.333 5.33301 27 5.33301 41 0l3 -83c44 65.333 94.667 98 152 98
c33.333 0 60.666 -6.33301 81.999 -19z" />
    <glyph glyph-name="s" unicode="s" horiz-adv-x="404" 
d="M214 221c49.333 -16 85.333 -32.4971 108 -49.4971s34 -41.167 34 -72.5c0 -36.667 -15.167 -64.834 -45.5 -84.501s-66.166 -29.5 -107.499 -29.5c-26.667 0 -53.5 4.16699 -80.5 12.5s-48.5 18.833 -64.5 31.5c-2.66699 3.33301 -4 10 -4 20s1.33301 16.333 4 19
c45.333 -33.333 93 -50 143 -50c29.333 0 55.166 6.16699 77.499 18.5s33.5 31.5 33.5 57.5c0 15.333 -5.5 28.666 -16.5 39.999s-23.167 19.666 -36.5 24.999c-13.334 5.33301 -35.667 13.333 -67 24c-50.667 17.333 -87.5 34 -110.5 50s-34.5 39.333 -34.5 70
c0 34.667 14.5 62 43.5 82s63.833 30 104.5 30c26.667 0 53.334 -4.16699 80.001 -12.5s48 -18.833 64 -31.5c2.66699 -3.33301 4 -10 4 -20s-1.33301 -16.333 -4 -19c-45.333 33.333 -92 50 -140 50c-28.667 0 -53.834 -6.33301 -75.501 -19s-32.5 -31 -32.5 -55
c0 -11.333 2.5 -21 7.5 -29s14.167 -15.667 27.5 -23s25.333 -13 36 -17s28 -10 52 -18z" />
    <glyph glyph-name="t" unicode="t" horiz-adv-x="357" 
d="M304 65c2.66699 -3.33301 3.83301 -10.167 3.5 -20.5s-1.5 -17.5 -3.5 -21.5c-32 -25.333 -66 -38 -102 -38c-28 0 -50.667 8.5 -68 25.5s-26 41.833 -26 74.5v277h-66c-6 12 -6 24.667 0 38h66v130c14.667 6 29.667 6 45 0v-130h141c6 -13.333 6 -26 0 -38h-141v-273
c0 -44 18.667 -66 56 -66c25.333 0 57 14 95 42z" />
    <glyph glyph-name="u" unicode="u" horiz-adv-x="511" 
d="M394 104l-0.00390625 296.001c14.667 6 29.334 6 44.001 0v-400c-13.333 -5.33301 -26.666 -5.33301 -39.999 0l-3 66c-48.667 -54 -103 -81 -163 -81c-53.333 0 -93.333 15.167 -120 45.5s-40 69.833 -40 118.5v251c14.667 6 29.334 6 44.001 0v-244
c0 -40.667 10.333 -72.834 31 -96.501s52.334 -35.5 95.001 -35.5c30 0 58.833 8.83301 86.5 26.5s49.5 35.5 65.5 53.5z" />
    <glyph glyph-name="v" unicode="v" horiz-adv-x="494" 
d="M247 56l161 344c16.667 6.66699 32.667 6.66699 48 0l-189 -400c-13.334 -6.66699 -26.667 -6.66699 -40 0l-189 400c15.333 6.66699 31 6.66699 47 0z" />
    <glyph glyph-name="w" unicode="w" horiz-adv-x="690" 
d="M183 0l-145 400c15.333 6.66699 31 6.66699 47 0l119 -338l121 338c13.334 6.66699 26.667 6.66699 40 0l122 -338l117 338c16 6 31.667 6 47 0l-145 -400c-13.333 -6.66699 -26.333 -6.66699 -39 0l-122 340l-122 -340c-13.334 -6.66699 -26.667 -6.66699 -40 0z" />
    <glyph glyph-name="x" unicode="x" horiz-adv-x="475" 
d="M268 206l169 -206c-6 -2.66699 -14.667 -4 -26 -4s-20 1.33301 -26 4l-148 177l-147 -177c-6 -2.66699 -14.667 -4 -26 -4s-20 1.33301 -26 4l169 206l-160 194c6 2.66699 14.667 4 26 4s20 -1.33301 26 -4l140 -167l138 167c16.667 6.66699 34 6.66699 52 0z" />
    <glyph glyph-name="y" unicode="y" horiz-adv-x="494" 
d="M248 79l160 321c16.667 6.66699 32.667 6.66699 48 0l-283 -563c-15.333 -6 -31 -6 -47 0l99 195l-187 368c15.333 6.66699 31 6.66699 47 0z" />
    <glyph glyph-name="z" unicode="z" horiz-adv-x="419" 
d="M111 39h262c4.66699 -12.667 4.66699 -25.667 0 -39h-330v8l266 353h-253c-5.33301 13.333 -5.33301 26.333 0 39h320v-8z" />
    <glyph glyph-name="braceleft" unicode="{" horiz-adv-x="288" 
d="M92 269c20.667 -8.66699 35.499 -18.502 44.499 -29.502s14.833 -25.833 17.5 -44.5c6 -43.333 11 -76.166 15 -98.499s12 -52.333 24 -90s28 -77.167 48 -118.5c-14 -6 -28.333 -6 -43 0c-44 84 -73.667 186.667 -89 308c-1.33301 16 -6.16602 28.667 -14.499 38
s-24.5 18.333 -48.5 27v16c24 8.66699 40.167 17.667 48.5 27c8.33398 9.33301 13.167 22 14.5 38c15.333 121.333 45 224 89 308c14.667 6 29 6 43 0c-20 -41.333 -36 -80.833 -48 -118.5s-20 -67.667 -24 -90s-9 -55.166 -15 -98.499
c-2.66699 -18.667 -8.5 -33.5 -17.5 -44.5s-23.833 -20.833 -44.5 -29.5z" />
    <glyph glyph-name="bar" unicode="|" horiz-adv-x="126" 
d="M80 650v-710c-11.333 -5.33301 -22.666 -5.33301 -33.999 0v710c11.333 5.33301 22.666 5.33301 33.999 0z" />
    <glyph glyph-name="braceright" unicode="}" horiz-adv-x="288" 
d="M178 342c1.33301 -16 6.16895 -28.667 14.502 -38s24.5 -18.333 48.5 -27v-16c-24 -8.66699 -40.167 -17.667 -48.5 -27c-8.33398 -9.33301 -13.167 -22 -14.5 -38c-13.333 -120 -43 -222.667 -89 -308c-14 -6 -28.333 -6 -43 0c20 41.333 36.167 80.833 48.5 118.5
s20.5 67.667 24.5 90s9 55.166 15 98.499c2.66699 19.333 8.33398 34.333 17 45c8.66699 10.667 23.334 20.334 44 29.001c-20.667 8.66699 -35.334 18.334 -44.001 29.001s-14.334 25.667 -17.001 45c-6 43.334 -11 76.167 -15 98.5s-12.167 52.333 -24.5 90
s-28.5 77.167 -48.5 118.5c14 6 28.333 6 43 0c46 -85.334 75.667 -188.001 89 -308.001z" />
    <glyph glyph-name="asciitilde" unicode="~" horiz-adv-x="481" 
d="M164 299c22.667 0 49.333 -8.16699 79.999 -24.5c30.667 -16.333 55.667 -24.5 75 -24.5c8.66699 0 17.167 0.833008 25.5 2.5c8.33496 1.66699 17.168 4.5 26.5 8.5c9.33301 4 16.5 7.16699 21.5 9.5c5 2.33496 12.5 6.16797 22.5 11.499
c10 5.33301 15.667 8.33301 17 9c6 -12.667 6 -24.667 0 -36c-1.33301 -0.666992 -8.66602 -4.66699 -21.999 -12s-23 -12.333 -29 -15s-15.167 -5.66699 -27.5 -9s-24.166 -5 -35.499 -5c-22.667 0 -49.334 8.16699 -80 24.5c-30.667 16.333 -55.667 24.5 -75 24.5
c-8.66699 0 -17.167 -0.833008 -25.5 -2.5s-17.166 -4.5 -26.499 -8.5s-16.5 -7.16699 -21.5 -9.5c-5 -2.33398 -12.5 -6.16699 -22.5 -11.499c-10 -5.33301 -15.667 -8.33301 -17 -9c-6 11.333 -6 23.333 0 36c1.33301 0.666992 8.66602 4.66699 21.999 12s23 12.333 29 15
s15.167 5.66699 27.5 9s24.166 5 35.499 5z" />
    <glyph glyph-name="exclamdown" unicode="&#xa1;" horiz-adv-x="160" 
d="M81 494c9.33301 0 17.166 -3.16797 23.499 -9.50098s9.5 -14.166 9.5 -23.499s-3.16699 -17.166 -9.5 -23.499s-14.166 -9.5 -23.499 -9.5c-10 0 -18.333 3.16699 -25 9.5c-6.66699 6.33496 -10 14.168 -10 23.5c0 9.33496 3.33301 17.168 10 23.499
c6.66699 6.33301 15 9.5 25 9.5zM103 -58.001v-113c-15.333 -6.66699 -31 -6.66699 -47 0v113l9 325c10 4 19.667 4 29 0z" />
    <glyph glyph-name="cent" unicode="&#xa2;" horiz-adv-x="495" 
d="M283 23c49.333 0 96.666 16.3281 141.999 48.9951c2.66699 -2.66699 4 -9.33398 4 -20.001s-1.33301 -17.667 -4 -21c-34 -28 -78 -43.333 -132 -46v-93c-9.33301 -6.66699 -18 -6.66699 -26 0v93c-62.667 2.66699 -113.5 24.334 -152.5 65.001s-58.5 90.667 -58.5 150
s19.5 109.333 58.5 150s89.833 62.334 152.5 65.001v93c8 6.66699 16.667 6.66699 26 0v-93c54 -2.66699 98 -18 132 -46c2.66699 -3.33301 4 -10.166 4 -20.499s-1.33301 -17.166 -4 -20.499c-45.333 32.667 -92.666 49 -141.999 49
c-53.333 0 -97.166 -16.667 -131.499 -50s-51.5 -75.666 -51.5 -126.999s17.167 -93.666 51.5 -126.999s78.166 -50 131.499 -50z" />
    <glyph glyph-name="sterling" unicode="&#xa3;" horiz-adv-x="593" 
d="M141 41l357.999 -0.000976562c5.33301 -14 5.33301 -27.667 0 -41h-418v9c18.667 22.667 32 50 40 82s11.5 64.833 10.5 98.5s-2.83301 70.167 -5.5 109.5h-84c-6.66699 8 -6.66699 16 0 24h81c-6 78 -9 131.333 -9 160c0 49.333 18.167 92 54.5 128s86.833 54 151.5 54
c72.667 0 132.334 -21.333 179.001 -64c2.66699 -4 4 -12.333 4 -25s-1.33301 -20.667 -4 -24c-50 48 -109 72 -177 72c-50 0 -89.167 -14 -117.5 -42s-42.5 -61.667 -42.5 -101c0 -34.667 3.33301 -87.334 10 -158h228c5.33301 -8 5.33301 -16 0 -24h-224
c6 -48 6.83301 -96.167 2.5 -144.5s-16.833 -86.166 -37.5 -113.499z" />
    <glyph glyph-name="currency" unicode="&#xa4;" horiz-adv-x="415" 
d="M369 450l-59 -59c20.667 -24.667 31 -52.834 31 -84.5c0 -31.667 -10.333 -59.834 -31 -84.501l59 -58c-0.666992 -4 -3 -7.83301 -7 -11.5s-8 -6.16699 -12 -7.5l-58 59c-24.667 -20 -52.834 -30 -84.501 -30s-59.834 10 -84.501 30l-59 -59
c-10.667 3.33301 -16.667 9.33301 -18 18l59 59c-20.667 24.667 -31 53 -31 85s10.333 60 31 84l-59 59c0.666992 4 3 7.83301 7 11.5s7.66699 5.83398 11 6.50098l59 -59c24.667 20.667 52.834 31 84.501 31s59.834 -10.333 84.501 -31l59 59
c3.33301 -0.673828 7 -2.84082 11 -6.5c4 -3.66699 6.33301 -7.5 7 -11.5zM136 236c20.667 -20.667 45 -30.999 73 -30.999s51.667 9.66699 71 29s29 43.166 29 71.499s-10 52.5 -30 72.5s-44.167 30 -72.5 30s-52.166 -9.66699 -71.499 -29s-28.833 -43 -28.5 -71
s10.166 -52 29.499 -72z" />
    <glyph glyph-name="yen" unicode="&#xa5;" horiz-adv-x="626" 
d="M337 151h156c5.33301 -8 5.33301 -16 0 -24h-156v-127c-15.333 -6.66699 -31.333 -6.66699 -48 0v127h-155c-6.66699 8 -6.66699 16 0 24h155v86h-155c-6.66699 8 -6.66699 16 0 24h149l-245 389c6 2.66699 14.667 4 26 4s20 -1.33301 26 -4l223 -354l223 354
c16.667 6.66699 34 6.66699 52 0l-246 -389h151c5.33301 -8 5.33301 -16 0 -24h-156v-86z" />
    <glyph glyph-name="brokenbar" unicode="&#xa6;" horiz-adv-x="126" 
d="M80 650v-309c-11.333 -6 -22.666 -6 -33.999 0v309c11.333 5.33301 22.666 5.33301 33.999 0zM80 249v-309c-11.333 -5.33301 -22.666 -5.33301 -33.999 0v309c11.333 6 22.666 6 33.999 0z" />
    <glyph glyph-name="section" unicode="&#xa7;" horiz-adv-x="402" 
d="M194 549c26.667 0 53.335 -4.16602 80.001 -12.499c26.667 -8.33301 48 -18.833 64 -31.5c2.66699 -3.33301 4 -10 4 -20s-1.33301 -16.333 -4 -19c-45.333 33.333 -92 50 -140 50c-28.667 0 -53.834 -6.33301 -75.501 -19s-32.5 -31 -32.5 -55
c0 -11.333 2.5 -21 7.5 -29s14.167 -15.667 27.5 -23s25.333 -13 36 -17s28 -10 52 -18c49.333 -16.667 85.333 -33.5 108 -50.5s34 -40.833 34 -71.5c0 -46 -24 -78.333 -72 -97c48 -23.333 72 -55 72 -95c0 -37.333 -14.833 -65.833 -44.5 -85.5s-65.5 -29.5 -107.5 -29.5
c-26.667 0 -53.5 4.16699 -80.5 12.5s-48.167 18.833 -63.5 31.5c-2.66699 3.33301 -4 9.83301 -4 19.5s1.33301 16.167 4 19.5c45.333 -33.333 92.333 -50 141 -50c30 0 56 6.33301 78 19s33 32 33 58c0 9.33301 -2 18 -6 26s-8.66699 14.5 -14 19.5s-14.333 10.333 -27 16
s-23.167 10 -31.5 13c-8.33398 3 -22.167 7.83301 -41.5 14.5c-50.667 17.333 -87.5 34.166 -110.5 50.499s-34.5 39.5 -34.5 69.5c0 46.667 27 79 81 97c-54 24 -81 55.667 -81 95c0 34.667 14.5 62 43.5 82s63.833 30 104.5 30zM191.001 317.001l-25.002 9.00098
c-23.333 -2.66699 -43.166 -9.83398 -59.499 -21.501s-24.5 -27.5 -24.5 -47.5c0 -15.333 6 -28.833 18 -40.5s25 -20.5 39 -26.5s36 -14 66 -24l9 -3l35 -12c48 10.667 72 34 72 70c0 10.667 -2.5 20.334 -7.5 29c-5 8.66699 -10.167 15.667 -15.5 21
c-5.33301 5.33398 -15.166 11.167 -29.499 17.5c-14.334 6.33301 -25.667 11 -34 14s-22.833 7.83301 -43.5 14.5z" />
    <glyph glyph-name="dieresis" unicode="&#xa8;" horiz-adv-x="397" 
d="M81 821c9.33301 0 17.166 -3.16699 23.499 -9.5s9.5 -13.833 9.5 -22.5c0 -10 -3.16699 -18.167 -9.5 -24.5s-14.166 -9.5 -23.499 -9.5c-10 0 -18.333 3.16699 -25 9.5s-10 14.5 -10 24.5c0 9.33301 3.33301 17 10 23s15 9 25 9zM317 821
c9.33496 0 17.167 -3.16699 23.499 -9.5c6.33301 -6.33301 9.5 -13.833 9.5 -22.5c0 -10 -3.16699 -18.167 -9.5 -24.5s-14.166 -9.5 -23.499 -9.5c-10 0 -18.333 3.16699 -25 9.5s-10 14.5 -10 24.5c0 9.33301 3.33301 17 10 23s15 9 25 9z" />
    <glyph glyph-name="copyright" unicode="&#xa9;" horiz-adv-x="640" 
d="M320 700c78.667 0 144 -26.334 196 -79.001s78 -116.334 78 -191.001s-26 -138.334 -78 -191c-52 -52.667 -117.333 -79 -196 -79s-144 26.333 -196 79s-78 116.334 -78 191.001s26 138.334 78 191.001s117.333 79 196 79zM321 672.999c-72 0 -131 -23.5 -177 -70.5
s-69 -104.5 -69 -172.5s23 -125.5 69 -172.5s105 -70.5 177 -70.5c71.333 0 130 23.5 176 70.5s69 104.5 69 172.5s-23 125.5 -69 172.5s-104.667 70.5 -176 70.5zM326 577.999c40 0 73.332 -10.668 99.999 -32.001c2 -2.66699 3 -8 3 -16s-1 -13 -3 -15
c-31.333 22.667 -64 34 -98 34c-35.333 0 -64.5 -11.167 -87.5 -33.5s-34.5 -50.833 -34.5 -85.5s11.5 -63.167 34.5 -85.5s52.167 -33.5 87.5 -33.5s68 11 98 33c2 -1.33301 3 -6.16602 3 -14.499s-1 -13.833 -3 -16.5c-27.333 -20.667 -60.666 -31 -99.999 -31
c-45.333 0 -82.333 14 -111 42s-43 63.333 -43 106s14.333 78 43 106s65.667 42 111 42z" />
    <glyph glyph-name="guillemotleft" unicode="&#xab;" horiz-adv-x="407" 
d="M96 217l119 -156c-12.667 -5.33301 -25 -5.33301 -37 0l-132 156l132 156c12.667 5.33301 25 5.33301 37 0zM242 217l119 -156c-12.667 -5.33301 -25 -5.33301 -37 0l-132 156l132 156c12 5.33301 24.333 5.33301 37 0z" />
    <glyph glyph-name="logicalnot" unicode="&#xac;" horiz-adv-x="440" 
d="M394 300v-138c-13.333 -4.66699 -26.333 -4.66699 -39 0v102h-305c-6 11.333 -6 23.333 0 36h344z" />
    <glyph glyph-name="registered" unicode="&#xae;" horiz-adv-x="640" 
d="M320 700c78.667 0 144 -26.334 196 -79.001s78 -116.334 78 -191.001s-26 -138.334 -78 -191c-52 -52.667 -117.333 -79 -196 -79s-144 26.333 -196 79s-78 116.334 -78 191.001s26 138.334 78 191.001s117.333 79 196 79zM321 672.999c-72 0 -131 -23.5 -177 -70.5
s-69 -104.5 -69 -172.5s23 -125.5 69 -172.5s105 -70.5 177 -70.5c71.333 0 130 23.5 176 70.5s69 104.5 69 172.5s-23 125.5 -69 172.5s-104.667 70.5 -176 70.5zM210 569.999l137.999 0.000976562c29.333 0 53 -6.83301 71 -20.5s27 -34.834 27 -63.501
c0 -44.667 -24.667 -71.334 -74 -80l91 -118c-4 -2 -10.667 -3 -20 -3s-15.666 1 -18.999 3l-89 115h-91v-115c-11.334 -5.33301 -22.667 -5.33301 -34 0v282zM242.999 543v-113.001h100c18.667 0 34.667 4.33301 48 13s20 23.334 20 44.001c0 20 -6.66699 34.333 -20 43
s-29.333 13 -48 13h-100z" />
    <glyph glyph-name="macron" unicode="&#xaf;" horiz-adv-x="358" 
d="M50 791h259c6 -11.333 6 -23.333 0 -36l-259 1c-6 12 -6 23.667 0 35z" />
    <glyph glyph-name="degree" unicode="&#xb0;" horiz-adv-x="338" 
d="M168 713c34.667 0 64 -11.501 88 -34.501s36 -51.167 36 -84.5c0 -33.334 -12 -61.667 -36 -84.999c-24 -23.333 -53.333 -35.333 -88 -36c-34 0 -62.833 11.833 -86.5 35.5s-35.5 52.167 -35.5 85.5s11.833 61.5 35.5 84.5s52.5 34.5 86.5 34.5zM169 680.999
c-24.667 0 -45.5 -8.33203 -62.5 -24.999s-25.5 -37.334 -25.5 -62.001c0 -25.333 8.5 -46.333 25.5 -63s37.833 -25 62.5 -25c25.333 0.00195312 46.5 8.33496 63.5 25c17 16.667 25.5 37.667 25.5 63c0 24.6689 -8.5 45.3359 -25.5 62c-17 16.667 -38.167 25 -63.5 25z
" />
    <glyph glyph-name="plusminus" unicode="&#xb1;" horiz-adv-x="443" 
d="M204 322h-154c-6 12.667 -6 24.667 0 36h154v100c12 6 23.667 6 35 0v-100h155c6 -11.333 6 -23.333 0 -36h-155v-99c-11.333 -6 -23 -6 -35 0v99zM50 171h344c6 -12 6 -24 0 -36h-344c-6 12 -6 24 0 36z" />
    <glyph glyph-name="acute" unicode="&#xb4;" horiz-adv-x="239" 
d="M46 729l117 131.002c4.66699 -0.666992 10.5 -3.83398 17.5 -9.50098s10.833 -10.834 11.5 -15.501l-122 -126c-4.66699 0.666992 -9.5 3.16699 -14.5 7.5s-8.16699 8.5 -9.5 12.5z" />
    <glyph glyph-name="paragraph" unicode="&#xb6;" horiz-adv-x="589" 
d="M253 650l287 0.000976562c4 -10.667 4 -21.334 0 -32.001h-74v-781c-11.333 -6 -22.666 -6 -33.999 0v781h-145v-781c-11.333 -6 -22.666 -6 -33.999 0v421c-35.333 0 -67.833 5.83301 -97.5 17.5s-55.334 32.5 -77.001 62.5s-32.5 67.333 -32.5 112
c0 66 20.667 115.833 62 149.5s89.666 50.5 144.999 50.5z" />
    <glyph glyph-name="periodcentered" unicode="&#xb7;" horiz-adv-x="160" 
d="M81 222c-10 0 -18.333 3.16797 -25 9.50098s-10 14.166 -10 23.499c0 9.33398 3.33301 17.167 10 23.499c6.66699 6.33301 15 9.5 25 9.5c9.33301 0 17.166 -3.16699 23.499 -9.5s9.5 -14.166 9.5 -23.499c0 -9.33398 -3.16699 -17.167 -9.5 -23.5
s-14.166 -9.5 -23.499 -9.5z" />
    <glyph glyph-name="cedilla" unicode="&#xb8;" horiz-adv-x="236" 
d="M98 0v-68.001c21.333 4.66699 42 0.5 62 -12.5s30 -32.5 30 -58.5c0 -23.333 -8 -41.833 -24 -55.5s-35.667 -20.5 -59 -20.5c-21.333 0 -40.333 5.66699 -57 17c-2.66699 3.33301 -4 8.5 -4 15.5s1.33301 11.833 4 14.5c16.667 -12.667 34.667 -19 54 -19
c16 0 29.333 4.33301 40 13s16 21 16 37c0 21.333 -9.5 35.833 -28.5 43.5s-39.833 6.83398 -62.5 -2.49902v96h29z" />
    <glyph glyph-name="guillemotright" unicode="&#xbb;" horiz-adv-x="407" 
d="M215 217l-132 -156c-12.667 -5.33301 -25 -5.33301 -37 0l120 156l-120 156c12.667 5.33301 25 5.33301 37 0zM361 217l-132 -156c-12.667 -5.33301 -25 -5.33301 -37 0l120 156l-120 156c12 5.33301 24.333 5.33301 37 0z" />
    <glyph glyph-name="onequarter" unicode="&#xbc;" horiz-adv-x="613" 
d="M174 650v-310.001c-12 -6 -24.333 -6 -37 0v273l-87 -63c-2.66699 2.6709 -4 8.33789 -4 17c0 8.67578 1.33301 14.3428 4 17.001l93 66c10 6 20.333 6 31 0zM470 649.999l-308 -650c-12 -6 -23.667 -6 -35 0l308 650c11.333 6 23 6 35 0zM513 99.999h51
c4.66699 -10 4.66699 -20 0 -30h-51v-70c-12 -6 -24.333 -6 -37 0v70h-154c-5.33301 10 -5.33301 20 0 30l160 210c10.667 6 21 6 31 0v-210zM355 99.999h122v160z" />
    <glyph glyph-name="onehalf" unicode="&#xbd;" horiz-adv-x="630" 
d="M154 650v-310.001c-12 -6 -24.333 -6 -37 0v273l-87 -63c-2.66699 2.6709 -4 8.33789 -4 17c0 8.67578 1.33301 14.3428 4 17.001l93 66c10 6 20.333 6 31 0zM450 649.999l-308 -650c-12 -6 -23.667 -6 -35 0l308 650c11.333 6 23 6 35 0zM461 324.999
c35.333 0 62.667 -9.00098 82 -27.001s29 -39 29 -63c0 -27.333 -10.167 -54.166 -30.5 -80.499c-20.334 -26.333 -61.501 -67.166 -123.501 -122.499h162c5.33301 -11.333 5.33301 -22 0 -32h-224v8c76.667 71.333 125.667 120.5 147 147.5s32 52.833 32 77.5
c0 15.333 -6.66699 29.166 -20 41.499s-32.666 18.5 -57.999 18.5c-32.667 0 -62 -12 -88 -36c-1.33301 1.33301 -2 7.33301 -2 18s0.666992 17 2 19c24 20.667 54.667 31 92 31z" />
    <glyph glyph-name="threequarters" unicode="&#xbe;" horiz-adv-x="667" 
d="M263 420c0 -28.667 -10.833 -51.667 -32.5 -69s-49.5 -26 -83.5 -26c-40 0 -72.667 10.667 -98 32c-1.33301 2 -2 8 -2 18s0.666992 15.667 2 17c26.667 -24.667 58.667 -37 96 -37c24.667 0 44.667 6.33301 60 19s23 29 23 49c0 18.667 -6.66699 34.5 -20 47.5
s-33 19.5 -59 19.5h-42c-2.66699 8.66699 -2.66699 18.334 0 29.001h43c20 0 35.833 5.66699 47.5 17s17.5 24.666 17.5 39.999s-6.33301 29 -19 41s-30.667 18 -54 18c-33.333 0 -63.333 -12.333 -90 -37c-1.33301 1.33301 -2 7 -2 17s0.666992 16 2 18
c24.667 21.333 55.667 32 93 32c32.667 0 58.5 -8.66699 77.5 -26c19 -17.3359 28.5 -37.6689 28.5 -61c0 -32 -16 -56.333 -48 -73c40 -14.667 60 -43 60 -85zM181 0l308 650c11.333 6 23 6 35 0l-308 -650c-12 -6 -23.667 -6 -35 0zM567 100h51
c4.66699 -10 4.66699 -20 0 -30h-51v-70c-12 -6 -24.333 -6 -37 0v70h-154c-5.33301 10 -5.33301 20 0 30l160 210c10.667 6 21 6 31 0v-210zM531 260l-122 -160h122v160z" />
    <glyph glyph-name="questiondown" unicode="&#xbf;" horiz-adv-x="493" 
d="M278 496c9.33301 0 17.333 -3.16797 24 -9.50098s10 -14.166 10 -23.499s-3.33301 -17.166 -10 -23.499s-14.667 -9.5 -24 -9.5s-17.333 3.16699 -24 9.5c-6.66699 6.33496 -10 14.168 -10 23.5c0 9.33496 3.33301 17.168 10 23.499c6.66699 6.33301 14.667 9.5 24 9.5z
M254 268.999c15.333 5.33301 31.334 5.33105 48.001 -0.00195312c0 -37.334 -6.33301 -64.667 -19 -82s-34.334 -35.666 -65.001 -54.999c-47.333 -28.667 -79.833 -52.5 -97.5 -71.5s-26.5 -44.833 -26.5 -77.5c0 -35.333 14.5 -65.166 43.5 -89.499
s68.167 -36.5 117.5 -36.5c73.333 0 136 24 188 72c2.66699 -3.33301 4 -11.333 4 -24s-1.33301 -21 -4 -25c-50 -42.667 -114 -64 -192 -64c-63.333 0 -113.333 16 -150 48s-55 70.667 -55 116c0 39.333 10.333 70.833 31 94.5s53.667 49.5 99 77.5
c20 12.667 34.5 22.5 43.5 29.5s17 17.833 24 32.5s10.5 33 10.5 55z" />
    <glyph glyph-name="Agrave" unicode="&#xc0;" horiz-adv-x="670" 
d="M292 860l116 -131.001c-1.33301 -4 -4.33301 -8.16699 -9 -12.5s-9.33398 -6.83301 -14 -7.5l-123 126c0.666992 4.67969 4.66699 9.84668 12 15.501c7.33301 5.67969 13.333 8.84668 18 9.5zM356 649.999l275 -650c-16.667 -6.66699 -33 -6.66699 -49 0l-85 200h-325
l-85 -200c-16.667 -6.66699 -33 -6.66699 -49 0l275 650c14.667 6 29 6 43 0zM188 240.999h295l-148 349z" />
    <glyph glyph-name="Aacute" unicode="&#xc1;" horiz-adv-x="670" 
d="M262 729l117 131.002c4.66699 -0.666992 10.5 -3.83398 17.5 -9.50098s10.833 -10.834 11.5 -15.501l-122 -126c-4.66699 0.666992 -9.5 3.16699 -14.5 7.5s-8.16699 8.5 -9.5 12.5zM356 650.002l275 -650c-16.667 -6.66699 -33 -6.66699 -49 0l-85 200h-325l-85 -200
c-16.667 -6.66699 -33 -6.66699 -49 0l275 650c14.667 6 29 6 43 0zM188 241.002h295l-148 349z" />
    <glyph glyph-name="Acircumflex" unicode="&#xc2;" horiz-adv-x="670" 
d="M355 850l120 -120.999c-0.666992 -4.66699 -4.16699 -9.83398 -10.5 -15.501s-11.833 -9.16699 -16.5 -10.5l-113 114l-112 -114c-4.66699 0.666992 -10.167 4 -16.5 10c-6.33398 6 -10.167 11.333 -11.5 16l120 121c5.33301 4 12 6 20 6s14.667 -2 20 -6zM356 650.001
l275 -650c-16.667 -6.66699 -33 -6.66699 -49 0l-85 200h-325l-85 -200c-16.667 -6.66699 -33 -6.66699 -49 0l275 650c14.667 6 29 6 43 0zM188 241.001h295l-148 349z" />
    <glyph glyph-name="Atilde" unicode="&#xc3;" horiz-adv-x="670" 
d="M272 813c18 0 42.999 -7.33203 74.999 -21.999c18 -8 35.333 -12 52 -12c18.667 0 47.334 10 86.001 30c6 -11.333 6 -23.333 0 -36c-2 -0.666992 -6.33301 -2.83398 -13 -6.50098c-6.66992 -3.66699 -11.3369 -6.16699 -14 -7.5c-2.66699 -1.33301 -7 -3.33301 -13 -6
s-11 -4.5 -15 -5.5s-8.83301 -2 -14.5 -3s-11.167 -1.5 -16.5 -1.5c-18 0 -43 7.33301 -75 22c-18 8 -35.333 12 -52 12c-18.667 0 -47.334 -10 -86.001 -30c-6 12.667 -6 24.667 0 36c2 0.69043 6.33301 2.85742 13 6.5c6.66699 3.66699 11.334 6.16699 14.001 7.5
s7 3.33301 13 6s11 4.5 15 5.5s8.83301 2 14.5 3s11.167 1.5 16.5 1.5zM355.999 650.001l275 -650c-16.667 -6.66699 -33 -6.66699 -49 0l-85 200h-325l-85 -200c-16.667 -6.66699 -33 -6.66699 -49 0l275 650c14.667 6 29 6 43 0zM187.999 241.001h295l-148 349z" />
    <glyph glyph-name="Adieresis" unicode="&#xc4;" horiz-adv-x="670" 
d="M218 821c9.33301 0 17.167 -3.16699 23.5 -9.5s9.5 -13.833 9.5 -22.5c0 -10 -3.16699 -18.167 -9.5 -24.5c-6.33398 -6.33301 -14.167 -9.5 -23.5 -9.5c-10 0 -18.333 3.16699 -25 9.5s-10 14.5 -10 24.5c0 9.33301 3.33301 17 10 23s15 9 25 9zM454.001 821
c9.33496 0 17.167 -3.16699 23.499 -9.5c6.33301 -6.33301 9.5 -13.833 9.5 -22.5c0 -10 -3.16699 -18.167 -9.5 -24.5s-14.166 -9.5 -23.499 -9.5c-10 0 -18.333 3.16699 -25 9.5s-10 14.5 -10 24.5c0 9.33301 3.33301 17 10 23s15 9 25 9zM356 650l275 -650
c-16.667 -6.66699 -33 -6.66699 -49 0l-85 200h-325l-85 -200c-16.667 -6.66699 -33 -6.66699 -49 0l275 650c14.667 6 29 6 43 0zM188 241h295l-148 349z" />
    <glyph glyph-name="Aring" unicode="&#xc5;" horiz-adv-x="670" 
d="M336 868c22 0 40.667 -7.66699 56 -23s23 -33 23 -53c0 -22.667 -7.66699 -41.5 -23 -56.5s-34 -22.5 -56 -22.5c-22.667 0 -41.667 7.5 -57 22.5s-23 33.833 -23 56.5c0 20.667 7.66699 38.5 23 53.5s34.333 22.5 57 22.5zM336 838
c-14.668 0 -26.3359 -4.66699 -35.001 -14c-8.66699 -9.33301 -13 -20 -13 -32c0 -13.333 4.33301 -24.833 13 -34.5s20.334 -14.5 35.001 -14.5c14 0 25.5 4.83301 34.5 14.5s13.5 21.167 13.5 34.5c0 12 -4.5 22.667 -13.5 32s-20.5 14 -34.5 14zM355.999 650l275 -650
c-16.667 -6.66699 -33 -6.66699 -49 0l-85 200h-325l-85 -200c-16.667 -6.66699 -33 -6.66699 -49 0l275 650c14.667 6 29 6 43 0zM187.999 241h295l-148 349z" />
    <glyph glyph-name="AE" unicode="&#xc6;" horiz-adv-x="809" 
d="M374 41h384c5.33301 -14 5.33301 -27.667 0 -41h-432v200h-154l-85 -200c-16.667 -6.66699 -33 -6.66699 -49 0l275 650h445c5.33301 -13.333 5.33301 -27 0 -41h-384v-255h355c5.33301 -13.333 5.33301 -27 0 -41h-355v-272zM327 571l-139 -330h139v330z" />
    <glyph glyph-name="Ccedilla" unicode="&#xc7;" horiz-adv-x="727" 
d="M414 26c84.667 0 157.667 23.3291 219 69.9961c2.66699 -3.33301 4 -11.166 4 -23.499s-1.33301 -20.166 -4 -23.499c-54 -39.333 -122.667 -60.666 -206 -63.999v-53c21.333 4.66699 42 0.5 62 -12.5s30 -32.5 30 -58.5c0 -23.333 -8 -41.833 -24 -55.5
s-35.667 -20.5 -59 -20.5c-21.333 0 -40.333 5.66699 -57 17c-2.66699 3.33301 -4 8.5 -4 15.5s1.33301 11.833 4 14.5c16.667 -12.667 34.667 -19 54 -19c16 0 29.333 4.33301 40 13s16 21 16 37c0 21.333 -9.5 35.833 -28.5 43.5s-39.833 6.83398 -62.5 -2.49902v81
c-96.667 4 -175.667 38.5 -237 103.5s-92 143.833 -92 236.5c0 95.333 32.167 175.833 96.5 241.5s146.833 98.5 247.5 98.5c88 0 161.333 -21.333 220 -64c2.66699 -3.33789 4 -11.1709 4 -23.5c0 -12.3379 -1.33301 -20.1709 -4 -23.5c-61.333 46.667 -134.333 70 -219 70
c-86 0 -157 -28.667 -213 -86s-84 -128.333 -84 -213s28 -155.667 84 -213s127 -86 213 -86z" />
    <glyph glyph-name="Egrave" unicode="&#xc8;" horiz-adv-x="577" 
d="M248 860l116 -131.001c-1.33301 -4 -4.33301 -8.16699 -9 -12.5c-4.66797 -4.33301 -9.33496 -6.83301 -14 -7.5l-123 126c0.666992 4.67969 4.66699 9.84668 12 15.501c7.33301 5.67969 13.333 8.84668 18 9.5zM141 40.999h385c5.33301 -14 5.33301 -27.667 0 -41h-432
v650h432c5.33301 -13.333 5.33301 -27 0 -41h-385v-255h356c5.33301 -13.333 5.33301 -27 0 -41h-356v-272z" />
    <glyph glyph-name="Eacute" unicode="&#xc9;" horiz-adv-x="577" 
d="M218 729l117 131.002c4.66699 -0.666992 10.5 -3.83398 17.5 -9.50098s10.833 -10.834 11.5 -15.501l-122 -126c-4.66699 0.666992 -9.5 3.16699 -14.5 7.5s-8.16699 8.5 -9.5 12.5zM141 41.002h385c5.33301 -14 5.33301 -27.667 0 -41h-432v650h432
c5.33301 -13.333 5.33301 -27 0 -41h-385v-255h356c5.33301 -13.333 5.33301 -27 0 -41h-356v-272z" />
    <glyph glyph-name="Ecircumflex" unicode="&#xca;" horiz-adv-x="577" 
d="M311 850l120 -120.999c-0.666992 -4.66699 -4.16699 -9.83398 -10.5 -15.501s-11.833 -9.16699 -16.5 -10.5l-113 114l-112 -114c-4.66699 0.666992 -10.167 4 -16.5 10c-6.33398 6 -10.167 11.333 -11.5 16l120 121c5.33301 4 12 6 20 6s14.667 -2 20 -6zM141 41.001
h385c5.33301 -14 5.33301 -27.667 0 -41h-432v650h432c5.33301 -13.333 5.33301 -27 0 -41h-385v-255h356c5.33301 -13.333 5.33301 -27 0 -41h-356v-272z" />
    <glyph glyph-name="Edieresis" unicode="&#xcb;" horiz-adv-x="577" 
d="M189 821c9.33301 0 17.167 -3.16699 23.5 -9.5s9.5 -13.833 9.5 -22.5c0 -10 -3.16699 -18.167 -9.5 -24.5c-6.33398 -6.33301 -14.167 -9.5 -23.5 -9.5c-10 0 -18.333 3.16699 -25 9.5s-10 14.5 -10 24.5c0 9.33301 3.33301 17 10 23s15 9 25 9zM425.001 821
c9.33496 0 17.167 -3.16699 23.499 -9.5c6.33301 -6.33301 9.5 -13.833 9.5 -22.5c0 -10 -3.16699 -18.167 -9.5 -24.5s-14.166 -9.5 -23.499 -9.5c-10 0 -18.333 3.16699 -25 9.5s-10 14.5 -10 24.5c0 9.33301 3.33301 17 10 23s15 9 25 9zM141 41h385
c5.33301 -14 5.33301 -27.667 0 -41h-432v650h432c5.33301 -13.333 5.33301 -27 0 -41h-385v-255h356c5.33301 -13.333 5.33301 -27 0 -41h-356v-272z" />
    <glyph glyph-name="Igrave" unicode="&#xcc;" horiz-adv-x="236" 
d="M75 860l116.001 -131.001c-1.33301 -4 -4.33301 -8.16699 -9 -12.5s-9.33398 -6.83301 -14.001 -7.5l-123 126c0.666992 4.67969 4.66699 9.84668 12 15.501c7.33301 5.67969 13.333 8.84668 18 9.5zM141.001 649.999v-650c-15.333 -6.66699 -31 -6.66699 -47 0v650
c15.333 6.66699 31 6.66699 47 0z" />
    <glyph glyph-name="Iacute" unicode="&#xcd;" horiz-adv-x="236" 
d="M45 729l117 131.002c4.66699 -0.666992 10.5 -3.83398 17.5 -9.50098s10.833 -10.834 11.5 -15.501l-122 -126c-4.66699 0.666992 -9.5 3.16699 -14.5 7.5s-8.16699 8.5 -9.5 12.5zM141 650.002v-650c-15.333 -6.66699 -31 -6.66699 -47 0v650
c15.333 6.66699 31 6.66699 47 0z" />
    <glyph glyph-name="Icircumflex" unicode="&#xce;" horiz-adv-x="236" 
d="M138 850l119.999 -121c-1.33301 -4.66699 -5.16602 -10 -11.499 -16s-11.833 -9.33301 -16.5 -10l-112 114l-113 -114c-4.66699 1.33301 -10.167 4.83301 -16.5 10.5c-6.33301 5.67773 -9.83301 10.8447 -10.5 15.5l120 121c5.33301 4 12 6 20 6s14.667 -2 20 -6z
M140.999 650v-650c-15.333 -6.66699 -31 -6.66699 -47 0v650c15.333 6.66699 31 6.66699 47 0z" />
    <glyph glyph-name="Idieresis" unicode="&#xcf;" horiz-adv-x="236" 
d="M0 821c9.33301 0 17.333 -3.16699 24 -9.5s10 -13.833 10 -22.5c0 -10 -3.33301 -18.167 -10 -24.5s-14.667 -9.5 -24 -9.5s-17.333 3.16699 -24 9.5s-10 14.5 -10 24.5c0 8.66699 3.33301 16.167 10 22.5s14.667 9.5 24 9.5zM236 821
c9.33301 0 17.167 -3.16699 23.5 -9.5s9.5 -13.833 9.5 -22.5c0 -10 -3.16699 -18.167 -9.5 -24.5c-6.33398 -6.33301 -14.167 -9.5 -23.5 -9.5c-10 0 -18.333 3.16699 -25 9.5s-10 14.5 -10 24.5c0 9.33301 3.33301 17 10 23s15 9 25 9zM141.001 650v-650
c-15.333 -6.66699 -31 -6.66699 -47 0v650c15.333 6.66699 31 6.66699 47 0z" />
    <glyph glyph-name="Eth" unicode="&#xd0;" horiz-adv-x="713" 
d="M94 650h207c109.333 0 193.833 -31 253.5 -93s89.5 -139.333 89.5 -232s-29.833 -170 -89.5 -232s-144.167 -93 -253.5 -93h-207v309h-46c-6 12 -6 24 0 36h46v305zM142 41h159c95.333 0 168.5 26.667 219.5 80s76.5 121.333 76.5 204s-25.5 150.667 -76.5 204
s-124.167 80 -219.5 80h-159v-264h181c6 -12 6 -24 0 -36h-181v-268z" />
    <glyph glyph-name="Ntilde" unicode="&#xd1;" horiz-adv-x="713" 
d="M293 813c18 0 43 -7.33203 75 -21.999c18 -8 35.333 -12 52 -12c18.667 0 47.334 10 86.001 30c6 -11.333 6 -23.333 0 -36c-2 -0.666992 -6.33301 -2.83398 -13 -6.50098c-6.66895 -3.66699 -11.3359 -6.16699 -14.001 -7.5c-2.66699 -1.33301 -7 -3.33301 -13 -6
s-11 -4.5 -15 -5.5s-8.83301 -2 -14.5 -3s-11.167 -1.5 -16.5 -1.5c-18 0 -43 7.33301 -75 22c-18 8 -35.333 12 -52 12c-18.667 0 -47.334 -10 -86.001 -30c-6 12.667 -6 24.667 0 36c2 0.69043 6.33301 2.85742 13 6.5c6.66797 3.66699 11.335 6.16699 14.001 7.5
c2.66699 1.33301 7 3.33301 13 6s11 4.5 15 5.5s8.83301 2 14.5 3s11.167 1.5 16.5 1.5zM624 650.001v-650c-13.3379 -5.33301 -26.6709 -5.33301 -40 0l-447 572v-572c-15.333 -6.66699 -31 -6.66699 -47 0v650c13.333 5.33301 27 5.33301 41 0l446 -572v572
c15.333 6.66699 31 6.66699 47 0z" />
    <glyph glyph-name="Ograve" unicode="&#xd2;" horiz-adv-x="817" 
d="M365 860l116 -131.001c-1.33301 -4 -4.33301 -8.16699 -9 -12.5c-4.66992 -4.33301 -9.33691 -6.83301 -14 -7.5l-123 126c0.666992 4.67969 4.66699 9.84668 12 15.501c7.33301 5.67969 13.333 8.84668 18 9.5zM408 664.999c98.667 0 180 -32.833 244 -98.5
s96 -146.167 96 -241.5s-32 -175.833 -96 -241.5s-145.333 -98.5 -244 -98.5s-179.834 32.833 -243.501 98.5s-95.5 146.167 -95.5 241.5s31.833 175.833 95.5 241.5s144.834 98.5 243.501 98.5zM408 623.999c-84 0 -153.5 -28.5 -208.5 -85.5s-82.5 -128.167 -82.5 -213.5
s27.5 -156.5 82.5 -213.5s124.5 -85.5 208.5 -85.5c84.667 0 154.5 28.5 209.5 85.5s82.5 128.167 82.5 213.5s-27.5 156.5 -82.5 213.5s-124.833 85.5 -209.5 85.5z" />
    <glyph glyph-name="Oacute" unicode="&#xd3;" horiz-adv-x="817" 
d="M335 729l117 131.002c4.66699 -0.666992 10.5 -3.83398 17.5 -9.50098s10.833 -10.834 11.5 -15.501l-122 -126c-4.66699 0.666992 -9.5 3.16699 -14.5 7.5s-8.16699 8.5 -9.5 12.5zM408 665.002c98.667 0 180 -32.833 244 -98.5s96 -146.167 96 -241.5
s-32 -175.833 -96 -241.5s-145.333 -98.5 -244 -98.5s-179.834 32.833 -243.501 98.5s-95.5 146.167 -95.5 241.5s31.833 175.833 95.5 241.5s144.834 98.5 243.501 98.5zM408 624.002c-84 0 -153.5 -28.5 -208.5 -85.5s-82.5 -128.167 -82.5 -213.5
s27.5 -156.5 82.5 -213.5s124.5 -85.5 208.5 -85.5c84.667 0 154.5 28.5 209.5 85.5s82.5 128.167 82.5 213.5s-27.5 156.5 -82.5 213.5s-124.833 85.5 -209.5 85.5z" />
    <glyph glyph-name="Ocircumflex" unicode="&#xd4;" horiz-adv-x="817" 
d="M428 850l119.999 -120.999c-0.666992 -4.66699 -4.16699 -9.83398 -10.5 -15.501s-11.833 -9.16699 -16.5 -10.5l-113 114l-112 -114c-4.66699 0.666992 -10.167 4 -16.5 10s-10.166 11.333 -11.499 16l120 121c5.33301 4 12 6 20 6s14.667 -2 20 -6zM407.999 665.001
c98.667 0 180 -32.833 244 -98.5s96 -146.167 96 -241.5s-32 -175.833 -96 -241.5s-145.333 -98.5 -244 -98.5s-179.834 32.833 -243.501 98.5s-95.5 146.167 -95.5 241.5s31.833 175.833 95.5 241.5s144.834 98.5 243.501 98.5zM407.999 624.001
c-84 0 -153.5 -28.5 -208.5 -85.5s-82.5 -128.167 -82.5 -213.5s27.5 -156.5 82.5 -213.5s124.5 -85.5 208.5 -85.5c84.667 0 154.5 28.5 209.5 85.5s82.5 128.167 82.5 213.5s-27.5 156.5 -82.5 213.5s-124.833 85.5 -209.5 85.5z" />
    <glyph glyph-name="Otilde" unicode="&#xd5;" horiz-adv-x="817" 
d="M345 813c18 0 42.999 -7.33203 74.999 -21.999c18 -8 35.333 -12 52 -12c18.667 0 47.334 10 86.001 30c6 -11.333 6 -23.333 0 -36c-2 -0.666992 -6.33301 -2.83398 -13 -6.50098s-11.334 -6.16699 -14.001 -7.5s-7 -3.33301 -13 -6s-11 -4.5 -15 -5.5
s-8.83301 -2 -14.5 -3s-11.167 -1.5 -16.5 -1.5c-18 0 -43 7.33301 -75 22c-18 8 -35.333 12 -52 12c-18.667 0 -47.334 -10 -86 -30c-6 12.667 -6 24.667 0 36c2 0.69043 6.33301 2.85742 13 6.5c6.66699 3.66699 11.334 6.16699 14.001 7.5s7 3.33301 13 6s11 4.5 15 5.5
s8.83301 2 14.5 3s11.167 1.5 16.5 1.5zM407.999 665.001c98.667 0 180 -32.833 244 -98.5s96 -146.167 96 -241.5s-32 -175.833 -96 -241.5s-145.333 -98.5 -244 -98.5s-179.834 32.833 -243.501 98.5s-95.5 146.167 -95.5 241.5s31.833 175.833 95.5 241.5
s144.834 98.5 243.501 98.5zM407.999 624.001c-84 0 -153.5 -28.5 -208.5 -85.5s-82.5 -128.167 -82.5 -213.5s27.5 -156.5 82.5 -213.5s124.5 -85.5 208.5 -85.5c84.667 0 154.5 28.5 209.5 85.5s82.5 128.167 82.5 213.5s-27.5 156.5 -82.5 213.5
s-124.833 85.5 -209.5 85.5z" />
    <glyph glyph-name="Odieresis" unicode="&#xd6;" horiz-adv-x="817" 
d="M291 821c9.33496 0 17.167 -3.16699 23.499 -9.5c6.33301 -6.33301 9.5 -13.833 9.5 -22.5c0 -10 -3.16699 -18.167 -9.5 -24.5s-14.166 -9.5 -23.499 -9.5c-10 0 -18.333 3.16699 -25 9.5s-10 14.5 -10 24.5c0 9.33301 3.33301 17 10 23s15 9 25 9zM526.999 821
c9.33301 0 17.167 -3.16699 23.5 -9.5s9.5 -13.833 9.5 -22.5c0 -10 -3.16699 -18.167 -9.5 -24.5c-6.33789 -6.33301 -14.1709 -9.5 -23.5 -9.5c-10 0 -18.333 3.16699 -25 9.5s-10 14.5 -10 24.5c0 9.33301 3.33301 17 10 23s15 9 25 9zM408 665
c98.667 0 180 -32.833 244 -98.5s96 -146.167 96 -241.5s-32 -175.833 -96 -241.5s-145.333 -98.5 -244 -98.5s-179.834 32.833 -243.501 98.5s-95.5 146.167 -95.5 241.5s31.833 175.833 95.5 241.5s144.834 98.5 243.501 98.5zM408 624c-84 0 -153.5 -28.5 -208.5 -85.5
s-82.5 -128.167 -82.5 -213.5s27.5 -156.5 82.5 -213.5s124.5 -85.5 208.5 -85.5c84.667 0 154.5 28.5 209.5 85.5s82.5 128.167 82.5 213.5s-27.5 156.5 -82.5 213.5s-124.833 85.5 -209.5 85.5z" />
    <glyph glyph-name="multiply" unicode="&#xd7;" horiz-adv-x="361" 
d="M206 282l108.999 -109c-4.66797 -12.667 -13.335 -21.334 -26 -26.001l-109 109l-108 -109c-12.667 4.66699 -21.334 13.334 -26.001 26l109 109l-109 108c4.66699 12.667 13.334 21.334 26.001 26.001l108 -109l109 109c12.667 -4.66797 21.334 -13.335 26.001 -26z" />
    <glyph glyph-name="Oslash" unicode="&#xd8;" horiz-adv-x="817" 
d="M748 650l-89 -91c59.333 -64.667 89 -142.667 89 -234c0 -95.333 -32 -175.833 -96 -241.5s-145.333 -98.5 -244 -98.5c-88.667 0 -164.667 28 -228 84l-67 -69c-4.66699 -2.66699 -12 -4 -22 -4s-17.333 1.33301 -22 4l89 91c-59.333 64.667 -89 142.667 -89 234
c0 95.333 31.833 175.833 95.5 241.5s144.834 98.5 243.501 98.5c89.333 0 165.666 -28 228.999 -84l67 69c4.66895 2.66699 11.8359 4 21.5 4c9.66699 0 17.167 -1.33301 22.5 -4zM117 325c0 -78 24 -145.333 72 -202l417 427c-54.667 49.333 -120.667 74 -198 74
c-84 0 -153.5 -28.5 -208.5 -85.5s-82.5 -128.167 -82.5 -213.5zM700 325c0 78 -24.001 145.333 -72.001 202l-417 -427c54.667 -49.333 120.334 -74 197.001 -74c84.667 0 154.5 28.5 209.5 85.5s82.5 128.167 82.5 213.5z" />
    <glyph glyph-name="Ugrave" unicode="&#xd9;" horiz-adv-x="697" 
d="M306 860l116.001 -131.001c-1.33301 -4 -4.33301 -8.16699 -9 -12.5c-4.66992 -4.33301 -9.33691 -6.83301 -14.001 -7.5l-123 126c0.666992 4.67969 4.66699 9.84668 12 15.501c7.33301 5.67969 13.333 8.84668 18 9.5zM560.001 238.999v411c16 6.66699 32 6.66699 48 0
v-406c0 -81.333 -23.167 -144.833 -69.5 -190.5s-108.833 -68.5 -187.5 -68.5c-79.333 0 -142 22.667 -188 68s-69 109 -69 191v406c16 6.66699 32 6.66699 48 0v-411c0 -66 18.833 -118 56.5 -156s88.5 -57 152.5 -57s114.833 19 152.5 57s56.5 90 56.5 156z" />
    <glyph glyph-name="Uacute" unicode="&#xda;" horiz-adv-x="697" 
d="M276 729l117 131.002c4.66699 -0.666992 10.5 -3.83398 17.5 -9.50098s10.833 -10.834 11.5 -15.501l-122 -126c-4.66699 0.666992 -9.5 3.16699 -14.5 7.5s-8.16699 8.5 -9.5 12.5zM560 239.002v411c16 6.66699 32 6.66699 48 0v-406
c0 -81.333 -23.167 -144.833 -69.5 -190.5s-108.833 -68.5 -187.5 -68.5c-79.333 0 -142 22.667 -188 68s-69 109 -69 191v406c16 6.66699 32 6.66699 48 0v-411c0 -66 18.833 -118 56.5 -156s88.5 -57 152.5 -57s114.833 19 152.5 57s56.5 90 56.5 156z" />
    <glyph glyph-name="Ucircumflex" unicode="&#xdb;" horiz-adv-x="697" 
d="M369 850l119.999 -120.999c-0.666992 -4.66699 -4.16699 -9.83398 -10.5 -15.501s-11.833 -9.16699 -16.5 -10.5l-113 114l-112 -114c-4.66699 0.666992 -10.167 4 -16.5 10c-6.33398 6 -10.167 11.333 -11.499 16l120 121c5.33301 4 12 6 20 6s14.667 -2 20 -6z
M559.999 239.001v411c16 6.66699 32 6.66699 48 0v-406c0 -81.333 -23.167 -144.833 -69.5 -190.5s-108.833 -68.5 -187.5 -68.5c-79.333 0 -142 22.667 -188 68s-69 109 -69 191v406c16 6.66699 32 6.66699 48 0v-411c0 -66 18.833 -118 56.5 -156s88.5 -57 152.5 -57
s114.833 19 152.5 57s56.5 90 56.5 156z" />
    <glyph glyph-name="Udieresis" unicode="&#xdc;" horiz-adv-x="697" 
d="M232 821c9.33301 0 17.167 -3.16699 23.5 -9.5s9.5 -13.833 9.5 -22.5c0 -10 -3.16699 -18.167 -9.5 -24.5c-6.33398 -6.33301 -14.167 -9.5 -23.5 -9.5c-10 0 -18.333 3.16699 -25 9.5s-10 14.5 -10 24.5c0 9.33301 3.33301 17 10 23s15 9 25 9zM468.001 821
c9.33496 0 17.168 -3.16699 23.499 -9.5c6.33301 -6.33301 9.5 -13.833 9.5 -22.5c0 -10 -3.16699 -18.167 -9.5 -24.5s-14.166 -9.5 -23.499 -9.5c-10 0 -18.333 3.16699 -25 9.5s-10 14.5 -10 24.5c0 9.33301 3.33301 17 10 23s15 9 25 9zM560.001 239v411
c16 6.66699 32 6.66699 48 0v-406c0 -81.333 -23.167 -144.833 -69.5 -190.5s-108.833 -68.5 -187.5 -68.5c-79.333 0 -142 22.667 -188 68s-69 109 -69 191v406c16 6.66699 32 6.66699 48 0v-411c0 -66 18.833 -118 56.5 -156s88.5 -57 152.5 -57s114.833 19 152.5 57
s56.5 90 56.5 156z" />
    <glyph glyph-name="Yacute" unicode="&#xdd;" horiz-adv-x="626" 
d="M240 729l117 131.002c4.66699 -0.666992 10.5 -3.83398 17.5 -9.50098s10.833 -10.834 11.5 -15.501l-122 -126c-4.66699 0.666992 -9.5 3.16699 -14.5 7.5s-8.16699 8.5 -9.5 12.5zM337 251.002v-251c-15.333 -6.66699 -31.333 -6.66699 -48 0v250l-251 400
c6 2.66699 14.667 4 26 4s20 -1.33301 26 -4l223 -354l223 354c16.667 6.66699 34 6.66699 52 0z" />
    <glyph glyph-name="Thorn" unicode="&#xde;" horiz-adv-x="624" 
d="M141 565h176.999c76.667 0 135.334 -20 176.001 -60s61 -89.333 61 -148c0 -58 -20.333 -107 -61 -147s-99.334 -60 -176 -60h-177v-150c-15.333 -6.66699 -31 -6.66699 -47 0v650c15.333 6.66699 31 6.66699 47 0v-85zM141.999 190h177c62 0 108.833 16 140.5 48
s47.5 71.667 47.5 119s-15.833 87 -47.5 119s-78.5 48 -140.5 48h-177v-334z" />
    <glyph glyph-name="germandbls" unicode="&#xdf;" horiz-adv-x="588" 
d="M409 338c42.667 -12 75.332 -33.001 97.999 -63.001s34 -65 34 -105c0 -54 -19.833 -98.333 -59.5 -133s-91.5 -52 -155.5 -52c-71.333 0 -129.666 19 -174.999 57c-2.66699 4 -4 11.5 -4 22.5s1.33301 18.167 4 21.5c19.333 -19.333 44.5 -34.5 75.5 -45.5
s62.5 -16.5 94.5 -16.5c51.333 0 93.333 13.667 126 41s49 63.333 49 108c0 41.333 -14.333 75.333 -43 102s-70.334 40 -125 40h-80c-5.33301 12.667 -5.33301 25.667 0 39h80c42 0 76.333 12.833 103 38.5s40 57.5 40 95.5c0 38.668 -14 71.335 -42 98.001
c-28 26.667 -67.333 40 -118 40c-59.333 0 -106.666 -19.5 -141.999 -58.5s-53 -92.167 -53 -159.5v-408c-14.667 -6 -29.334 -6 -44.001 0v409c0 78 22 140.167 66 186.5s102 69.5 174 69.5c63.333 0 113 -17.167 149 -51.5s54 -75.5 54 -123.5
c0 -34.667 -9.5 -65.667 -28.5 -93s-44.833 -47 -77.5 -59z" />
    <glyph glyph-name="agrave" unicode="&#xe0;" horiz-adv-x="488" 
d="M199 610l116 -131.001c-1.33301 -4 -4.33301 -8.16699 -9 -12.5c-4.66895 -4.33301 -9.33594 -6.83301 -14 -7.5l-123 126c0.666992 4.66797 4.66699 9.83496 12 15.501c7.33301 5.66699 13.333 8.83398 18 9.5zM241 414.999c57.333 0 100.832 -15.501 130.499 -46.501
s44.5 -73.5 44.5 -127.5v-241c-13.333 -5.33301 -26.666 -5.33301 -39.999 0l-2 52c-18.667 -17.333 -43.167 -32.833 -73.5 -46.5s-62.5 -20.5 -96.5 -20.5c-45.333 0 -81.833 12 -109.5 36s-41.5 55.333 -41.5 94s13.833 69.834 41.5 93.501s64.5 35.5 110.5 35.5
c34 0 66 -6.5 96 -19.5s53.667 -27.167 71 -42.5v62c0 42 -11.5 74.833 -34.5 98.5s-57.167 35.5 -102.5 35.5c-48 0 -95 -16 -141 -48c-2.66699 2.66699 -4 9.16699 -4 19.5c0 10.335 1.33301 17.168 4 20.5c38 30 87 45 147 45zM211.999 212.998
c-35.333 0 -63.334 -9 -84.001 -27s-31 -41 -31 -69s10.167 -51 30.5 -69s48.5 -27 84.5 -27c32 0 63.333 7.33301 94 22s52.334 29 65.001 43v62c-12.667 14 -34.334 28.333 -65 43c-30.667 14.667 -62 22 -94 22z" />
    <glyph glyph-name="aacute" unicode="&#xe1;" horiz-adv-x="488" 
d="M169 479l117 131.002c4.66699 -0.666992 10.5 -3.83398 17.5 -9.50098s10.833 -10.834 11.5 -15.501l-122 -126c-4.66699 0.666992 -9.5 3.16699 -14.5 7.5s-8.16699 8.5 -9.5 12.5zM241 415.002c57.333 0 100.832 -15.501 130.499 -46.501s44.5 -73.5 44.5 -127.5v-241
c-13.333 -5.33301 -26.666 -5.33301 -39.999 0l-2 52c-18.667 -17.333 -43.167 -32.833 -73.5 -46.5s-62.5 -20.5 -96.5 -20.5c-45.333 0 -81.833 12 -109.5 36s-41.5 55.333 -41.5 94s13.833 69.834 41.5 93.501s64.5 35.5 110.5 35.5c34 0 66 -6.5 96 -19.5
s53.667 -27.167 71 -42.5v62c0 42 -11.5 74.833 -34.5 98.5s-57.167 35.5 -102.5 35.5c-48 0 -95 -16 -141 -48c-2.66699 2.66699 -4 9.16699 -4 19.5c0 10.335 1.33301 17.168 4 20.5c38 30 87 45 147 45zM211.999 213.001c-35.333 0 -63.334 -9 -84.001 -27
s-31 -41 -31 -69s10.167 -51 30.5 -69s48.5 -27 84.5 -27c32 0 63.333 7.33301 94 22s52.334 29 65.001 43v62c-12.667 14 -34.334 28.333 -65 43c-30.667 14.667 -62 22 -94 22z" />
    <glyph glyph-name="acircumflex" unicode="&#xe2;" horiz-adv-x="488" 
d="M263 600l119.999 -120.999c-0.666992 -4.66797 -4.16699 -9.83496 -10.5 -15.501c-6.33301 -5.66699 -11.833 -9.16699 -16.5 -10.5l-113 114l-112 -114c-4.66699 0.666992 -10.167 4 -16.5 10s-10.166 11.333 -11.499 16l120 121c5.33301 4 12 6 20 6
c8.00098 0 14.668 -2 20 -6zM240.999 415.001c57.333 0 100.832 -15.501 130.499 -46.501s44.5 -73.5 44.5 -127.5v-241c-13.333 -5.33301 -26.666 -5.33301 -39.999 0l-2 52c-18.667 -17.333 -43.167 -32.833 -73.5 -46.5s-62.5 -20.5 -96.5 -20.5
c-45.333 0 -81.833 12 -109.5 36s-41.5 55.333 -41.5 94s13.833 69.834 41.5 93.501s64.5 35.5 110.5 35.5c34 0 66 -6.5 96 -19.5s53.667 -27.167 71 -42.5v62c0 42 -11.5 74.833 -34.5 98.5s-57.167 35.5 -102.5 35.5c-48 0 -95 -16 -141 -48
c-2.66699 2.66699 -4 9.16699 -4 19.5c0 10.335 1.33301 17.168 4 20.5c38 30 87 45 147 45zM211.998 213c-35.333 0 -63.334 -9 -84.001 -27s-31 -41 -31 -69s10.167 -51 30.5 -69s48.5 -27 84.5 -27c32 0 63.333 7.33301 94 22s52.334 29 65.001 43v62
c-12.667 14 -34.334 28.333 -65 43c-30.667 14.667 -62 22 -94 22z" />
    <glyph glyph-name="atilde" unicode="&#xe3;" horiz-adv-x="488" 
d="M183 563c18 0 43 -7.33203 75 -21.999c18 -8 35.333 -12 52 -12c18.667 0 47.334 10 86.001 30c6 -11.333 6 -23.333 0 -36c-2 -0.666992 -6.33301 -2.83398 -13 -6.50098c-6.66992 -3.66699 -11.3369 -6.16699 -14.001 -7.5c-2.66699 -1.33301 -7 -3.33301 -13 -6
s-11 -4.5 -15 -5.5s-8.83301 -2 -14.5 -3s-11.167 -1.5 -16.5 -1.5c-18 0 -43 7.33301 -75 22c-18 8 -35.333 12 -52 12c-18.667 0 -47.334 -10 -86.001 -30c-6 12.667 -6 24.667 0 36c2 0.682617 6.33301 2.84961 13 6.5c6.66699 3.66699 11.334 6.16699 14.001 7.5
s7 3.33301 13 6s11 4.5 15 5.5s8.83301 2 14.5 3s11.167 1.5 16.5 1.5zM241 415.001c57.333 0 100.832 -15.501 130.499 -46.501s44.5 -73.5 44.5 -127.5v-241c-13.333 -5.33301 -26.666 -5.33301 -39.999 0l-2 52c-18.667 -17.333 -43.167 -32.833 -73.5 -46.5
s-62.5 -20.5 -96.5 -20.5c-45.333 0 -81.833 12 -109.5 36s-41.5 55.333 -41.5 94s13.833 69.834 41.5 93.501s64.5 35.5 110.5 35.5c34 0 66 -6.5 96 -19.5s53.667 -27.167 71 -42.5v62c0 42 -11.5 74.833 -34.5 98.5s-57.167 35.5 -102.5 35.5c-48 0 -95 -16 -141 -48
c-2.66699 2.66699 -4 9.16699 -4 19.5c0 10.335 1.33301 17.168 4 20.5c38 30 87 45 147 45zM211.999 213c-35.333 0 -63.334 -9 -84.001 -27s-31 -41 -31 -69s10.167 -51 30.5 -69s48.5 -27 84.5 -27c32 0 63.333 7.33301 94 22s52.334 29 65.001 43v62
c-12.667 14 -34.334 28.333 -65 43c-30.667 14.667 -62 22 -94 22z" />
    <glyph glyph-name="adieresis" unicode="&#xe4;" horiz-adv-x="488" 
d="M125 571c9.33301 0 17.167 -3.16699 23.5 -9.5s9.5 -13.833 9.5 -22.5c0 -10 -3.16699 -18.167 -9.5 -24.5c-6.33398 -6.33301 -14.167 -9.5 -23.5 -9.5c-10 0 -18.333 3.16699 -25 9.5s-10 14.5 -10 24.5c0 9.33301 3.33301 17 10 23s15 9 25 9zM361.001 571
c9.33496 0 17.167 -3.16699 23.499 -9.5c6.33301 -6.33301 9.5 -13.833 9.5 -22.5c0 -10 -3.16699 -18.167 -9.5 -24.5s-14.166 -9.5 -23.499 -9.5c-10 0 -18.333 3.16699 -25 9.5s-10 14.5 -10 24.5c0 9.33301 3.33301 17 10 23s15 9 25 9zM241 415
c57.333 0 100.832 -15.501 130.499 -46.501s44.5 -73.5 44.5 -127.5v-241c-13.333 -5.33301 -26.666 -5.33301 -39.999 0l-2 52c-18.667 -17.333 -43.167 -32.833 -73.5 -46.5s-62.5 -20.5 -96.5 -20.5c-45.333 0 -81.833 12 -109.5 36s-41.5 55.333 -41.5 94
s13.833 69.834 41.5 93.501s64.5 35.5 110.5 35.5c34 0 66 -6.5 96 -19.5s53.667 -27.167 71 -42.5v62c0 42 -11.5 74.833 -34.5 98.5s-57.167 35.5 -102.5 35.5c-48 0 -95 -16 -141 -48c-2.66699 2.66699 -4 9.16699 -4 19.5c0 10.335 1.33301 17.168 4 20.5
c38 30 87 45 147 45zM211.999 212.999c-35.333 0 -63.334 -9 -84.001 -27s-31 -41 -31 -69s10.167 -51 30.5 -69s48.5 -27 84.5 -27c32 0 63.333 7.33301 94 22s52.334 29 65.001 43v62c-12.667 14 -34.334 28.333 -65 43c-30.667 14.667 -62 22 -94 22z" />
    <glyph glyph-name="aring" unicode="&#xe5;" horiz-adv-x="488" 
d="M243 618c22 0 40.667 -7.66699 56 -23s23 -33 23 -53c0 -22.667 -7.66699 -41.5 -23 -56.5s-34 -22.5 -56 -22.5c-22.667 0 -41.667 7.5 -57 22.5c-15.333 15.002 -23 33.835 -23 56.5c0 20.667 7.66699 38.5 23 53.5s34.333 22.5 57 22.5zM243 588
c-14 0 -25.501 -4.66699 -34.501 -14s-13.5 -20 -13.5 -32c0 -13.333 4.33301 -24.833 13 -34.5s20.334 -14.5 35.001 -14.5c14 0 25.5 4.83301 34.5 14.5s13.5 21.167 13.5 34.5c0 12 -4.5 22.667 -13.5 32s-20.5 14 -34.5 14zM240.999 415
c57.333 0 100.832 -15.501 130.499 -46.501s44.5 -73.5 44.5 -127.5v-241c-13.333 -5.33301 -26.666 -5.33301 -39.999 0l-2 52c-18.667 -17.333 -43.167 -32.833 -73.5 -46.5s-62.5 -20.5 -96.5 -20.5c-45.333 0 -81.833 12 -109.5 36s-41.5 55.333 -41.5 94
s13.833 69.834 41.5 93.501s64.5 35.5 110.5 35.5c34 0 66 -6.5 96 -19.5s53.667 -27.167 71 -42.5v62c0 42 -11.5 74.833 -34.5 98.5s-57.167 35.5 -102.5 35.5c-48 0 -95 -16 -141 -48c-2.66699 2.66699 -4 9.16699 -4 19.5c0 10.335 1.33301 17.168 4 20.5
c38 30 87 45 147 45zM211.998 212.999c-35.333 0 -63.334 -9 -84.001 -27s-31 -41 -31 -69s10.167 -51 30.5 -69s48.5 -27 84.5 -27c32 0 63.333 7.33301 94 22s52.334 29 65.001 43v62c-12.667 14 -34.334 28.333 -65 43c-30.667 14.667 -62 22 -94 22z" />
    <glyph glyph-name="ae" unicode="&#xe6;" horiz-adv-x="831" 
d="M583 415c64 0 114.167 -22.001 150.5 -66.001s49.833 -95 40.5 -153h-358c0.666992 -52.667 17.667 -94.667 51 -126s76.333 -47 129 -47c50.667 0 98.667 16.333 144 49c2.68945 -3.33301 3.85645 -10 3.5 -20c-0.333008 -10 -1.5 -17 -3.5 -21
c-38.667 -30.667 -87.667 -46 -147 -46c-42 0 -79 8.83301 -111 26.5s-56.333 42.167 -73 73.5l-1 -85c-10.667 -6.66699 -21.334 -6.66699 -32 0l-2 52c-18.667 -17.333 -43.167 -32.833 -73.5 -46.5s-62.5 -20.5 -96.5 -20.5c-45.333 0 -81.833 12 -109.5 36
s-41.5 55.333 -41.5 94s13.833 69.834 41.5 93.501s64.5 35.5 110.5 35.5c34 0 65.833 -6.33301 95.5 -19s53.167 -26.667 70.5 -42l1 61c0 42 -11.5 74.833 -34.5 98.5s-57.167 35.5 -102.5 35.5c-48 0 -95 -16 -141 -48c-2.66699 2.66699 -4 9.16699 -4 19.5
c0 10.335 1.33301 17.168 4 20.5c38 30 87 45 147 45c87.333 0 141 -36.667 161 -110c15.333 33.333 38.833 60 70.5 80s68.5 30 110.5 30zM419 224.999h316.003c1.33301 44 -12.334 80.667 -41.001 110s-65.334 44 -110.001 44c-46.667 0 -84.834 -14.167 -114.501 -42.5
s-46.5 -65.5 -50.5 -111.5zM371.003 85.999l-0.000976562 62c-12.667 14 -34.334 28.333 -65 43c-30.667 14.667 -62 22 -94 22c-35.333 0 -63.333 -9 -84 -27s-31 -41 -31 -69s10.167 -51 30.5 -69s48.5 -27 84.5 -27c32 0 63.333 7.33301 94 22s52.334 29 65.001 43z" />
    <glyph glyph-name="ccedilla" unicode="&#xe7;" horiz-adv-x="501" 
d="M283 23c49.333 0 96.666 16.3271 141.999 48.9941c2.66699 -2.66699 4 -9.33398 4 -20.001s-1.33301 -17.667 -4 -21c-38.667 -30.667 -86.667 -46 -144 -46v-53c21.333 4.66699 42 0.5 62 -12.5s30 -32.5 30 -58.5c0 -23.333 -8 -41.833 -24 -55.5
s-35.667 -20.5 -59 -20.5c-21.333 0 -40.333 5.66699 -57 17c-2.66699 3.33301 -4 8.5 -4 15.5s1.33301 11.833 4 14.5c16.667 -12.667 34.667 -19 54 -19c16 0 29.333 4.33301 40 13s16 21 16 37c0 21.333 -9.5 35.833 -28.5 43.5s-39.833 6.83398 -62.5 -2.49902v82
c-58.667 6.66699 -106 29.834 -142 69.501s-54 87.834 -54 144.501c0 62 20.833 113.333 62.5 154s95.5 61 161.5 61c58 0 106.333 -15.333 145 -46c2.66699 -3.33301 4 -10.166 4 -20.499s-1.33301 -17.166 -4 -20.499c-45.333 32.667 -92.666 49 -141.999 49
c-53.333 0 -97.166 -16.667 -131.499 -50s-51.5 -75.666 -51.5 -126.999s17.167 -93.666 51.5 -126.999s78.166 -50 131.499 -50z" />
    <glyph glyph-name="egrave" unicode="&#xe8;" horiz-adv-x="516" 
d="M217 610l116 -131.001c-1.33301 -4 -4.33301 -8.16699 -9 -12.5c-4.66895 -4.33301 -9.33594 -6.83301 -14 -7.5l-123 126c0.666992 4.66797 4.66699 9.83496 12 15.501c7.33301 5.66699 13.333 8.83398 18 9.5zM268 414.999c64 0 114.167 -22.002 150.5 -66.002
s49.833 -95 40.5 -153h-358c0.666992 -52.667 17.667 -94.667 51 -126s76.333 -47 129 -47c50 0 97.667 16.333 143 49c2.66699 -3.33301 4 -10.166 4 -20.499s-1.33301 -17.166 -4 -20.499c-37.333 -30.667 -86.333 -46 -147 -46c-66 0 -119.333 19.833 -160 59.5
s-61 91.5 -61 155.5c0 62 19.667 113.333 59 154s90.333 61 153 61zM268 378.997c-46.667 0 -84.833 -14.167 -114.5 -42.5s-46.5 -65.5 -50.5 -111.5h316c1.33301 44 -12.334 80.667 -41 110c-28.667 29.333 -65.334 44 -110 44z" />
    <glyph glyph-name="eacute" unicode="&#xe9;" horiz-adv-x="516" 
d="M187 479l117 131.002c4.66699 -0.666992 10.5 -3.83398 17.5 -9.50098s10.833 -10.834 11.5 -15.501l-122 -126c-4.66699 0.666992 -9.5 3.16699 -14.5 7.5s-8.16699 8.5 -9.5 12.5zM268 415.002c64 0 114.167 -22.002 150.5 -66.002s49.833 -95 40.5 -153h-358
c0.666992 -52.667 17.667 -94.667 51 -126s76.333 -47 129 -47c50 0 97.667 16.333 143 49c2.66699 -3.33301 4 -10.166 4 -20.499s-1.33301 -17.166 -4 -20.499c-37.333 -30.667 -86.333 -46 -147 -46c-66 0 -119.333 19.833 -160 59.5s-61 91.5 -61 155.5
c0 62 19.667 113.333 59 154s90.333 61 153 61zM268 379c-46.667 0 -84.833 -14.167 -114.5 -42.5s-46.5 -65.5 -50.5 -111.5h316c1.33301 44 -12.334 80.667 -41 110c-28.667 29.333 -65.334 44 -110 44z" />
    <glyph glyph-name="ecircumflex" unicode="&#xea;" horiz-adv-x="516" 
d="M280 600l119.999 -120.999c-0.666992 -4.66797 -4.16699 -9.83496 -10.5 -15.501c-6.33301 -5.66699 -11.833 -9.16699 -16.5 -10.5l-113 114l-112 -114c-4.66699 0.666992 -10.167 4 -16.5 10s-10.166 11.333 -11.499 16l120 121c5.33301 4 12 6 20 6s14.667 -2 20 -6z
M267.999 415.001c64 0 114.167 -22.002 150.5 -66.002s49.833 -95 40.5 -153h-358c0.666992 -52.667 17.667 -94.667 51 -126s76.333 -47 129 -47c50 0 97.667 16.333 143 49c2.66699 -3.33301 4 -10.166 4 -20.499s-1.33301 -17.166 -4 -20.499
c-37.333 -30.667 -86.333 -46 -147 -46c-66 0 -119.333 19.833 -160 59.5s-61 91.5 -61 155.5c0 62 19.667 113.333 59 154s90.333 61 153 61zM267.999 378.999c-46.667 0 -84.833 -14.167 -114.5 -42.5s-46.5 -65.5 -50.5 -111.5h316c1.33301 44 -12.334 80.667 -41 110
c-28.667 29.333 -65.334 44 -110 44z" />
    <glyph glyph-name="edieresis" unicode="&#xeb;" horiz-adv-x="516" 
d="M143 571c9.33301 0 17.167 -3.16699 23.5 -9.5s9.5 -13.833 9.5 -22.5c0 -10 -3.16699 -18.167 -9.5 -24.5c-6.33398 -6.33301 -14.167 -9.5 -23.5 -9.5c-10 0 -18.333 3.16699 -25 9.5s-10 14.5 -10 24.5c0 9.33301 3.33301 17 10 23s15 9 25 9zM379.001 571
c9.33496 0 17.167 -3.16699 23.499 -9.5c6.33301 -6.33301 9.5 -13.833 9.5 -22.5c0 -10 -3.16699 -18.167 -9.5 -24.5s-14.166 -9.5 -23.499 -9.5c-10 0 -18.333 3.16699 -25 9.5s-10 14.5 -10 24.5c0 9.33301 3.33301 17 10 23s15 9 25 9zM268 415
c64 0 114.167 -22.002 150.5 -66.002s49.833 -95 40.5 -153h-358c0.666992 -52.667 17.667 -94.667 51 -126s76.333 -47 129 -47c50 0 97.667 16.333 143 49c2.66699 -3.33301 4 -10.166 4 -20.499s-1.33301 -17.166 -4 -20.499c-37.333 -30.667 -86.333 -46 -147 -46
c-66 0 -119.333 19.833 -160 59.5s-61 91.5 -61 155.5c0 62 19.667 113.333 59 154s90.333 61 153 61zM268 378.998c-46.667 0 -84.833 -14.167 -114.5 -42.5s-46.5 -65.5 -50.5 -111.5h316c1.33301 44 -12.334 80.667 -41 110c-28.667 29.333 -65.334 44 -110 44z" />
    <glyph glyph-name="igrave" unicode="&#xec;" horiz-adv-x="197" 
d="M56 610l116.001 -131.001c-1.33301 -4 -4.33301 -8.16699 -9 -12.5s-9.33398 -6.83301 -14.001 -7.5l-123 126c0.666992 4.66797 4.66699 9.83496 12 15.501c7.33301 5.66699 13.333 8.83398 18 9.5zM121.001 399.999v-400c-14.667 -6 -29.334 -6 -44.001 0v400
c14.667 6 29.334 6 44.001 0z" />
    <glyph glyph-name="iacute" unicode="&#xed;" horiz-adv-x="197" 
d="M26 479l117 131.002c4.66699 -0.666992 10.5 -3.83398 17.5 -9.50098s10.833 -10.834 11.5 -15.501l-122 -126c-4.66699 0.666992 -9.5 3.16699 -14.5 7.5s-8.16699 8.5 -9.5 12.5zM121 400.002v-400c-14.667 -6 -29.334 -6 -44.001 0v400c14.667 6 29.334 6 44.001 0z
" />
    <glyph glyph-name="icircumflex" unicode="&#xee;" horiz-adv-x="197" 
d="M120 600l119.999 -121.001c-1.33398 -4.66699 -5.16699 -10 -11.499 -16c-6.33301 -6 -11.833 -9.33301 -16.5 -10l-112 114l-113 -114c-4.66699 1.33301 -10.167 4.83301 -16.5 10.5s-9.83301 10.834 -10.5 15.501l120 121c5.33301 4 12 6 20 6s14.667 -2 20 -6z
M120.999 399.999v-400c-14.667 -6 -29.334 -6 -44.001 0v400c14.667 6 29.334 6 44.001 0z" />
    <glyph glyph-name="idieresis" unicode="&#xef;" horiz-adv-x="197" 
d="M-19 571c9.33301 0 17.333 -3.16699 24 -9.5s10 -13.833 10 -22.5c0 -10 -3.33301 -18.167 -10 -24.5s-14.667 -9.5 -24 -9.5s-17.333 3.16699 -24 9.5s-10 14.5 -10 24.5c0 8.66699 3.33301 16.167 10 22.5s14.667 9.5 24 9.5zM218 571
c9.33301 0 17.167 -3.16699 23.5 -9.5s9.5 -13.833 9.5 -22.5c0 -10 -3.16699 -18.167 -9.5 -24.5c-6.33398 -6.33301 -14.167 -9.5 -23.5 -9.5c-10 0 -18.333 3.16699 -25 9.5s-10 14.5 -10 24.5c0 9.33301 3.33301 17 10 23s15 9 25 9zM121.001 400v-400
c-14.667 -6 -29.334 -6 -44.001 0v400c14.667 6 29.334 6 44.001 0z" />
    <glyph glyph-name="eth" unicode="&#xf0;" horiz-adv-x="515" 
d="M417 587l-79.001 -47c80 -76.667 120 -173 120 -289v-44c0 -70 -18.667 -124.5 -56 -163.5s-85.333 -58.5 -144 -58.5c-57.333 0 -105.833 20 -145.5 60s-59.5 91.667 -59.5 155c0 61.333 17.667 112.166 53 152.499s83.333 60.5 144 60.5c60 0 111.333 -21.333 154 -64
c-17.333 65.334 -51.666 121.667 -102.999 169l-111 -67c-6.66699 12 -6.66699 23.333 0 34l88 52c-48 36.6689 -100.667 60.3359 -158 71c-2.66699 4 -4 11.333 -4 22c0 10.6719 1.33301 17.3389 4 20.001c72 -11.333 137.333 -41.333 196 -90l101 61
c6.66699 -12 6.66699 -23.333 0 -34zM414.999 201v44.001c0 18.667 -1.66699 38 -5 58c-14.667 17.333 -36 33.5 -64 48.5s-57.333 22.5 -88 22.5c-49.333 0 -88.333 -16.167 -117 -48.5s-43 -74.5 -43 -126.5c0 -52.667 15.667 -95 47 -127s69.333 -48 114 -48
c45.334 0 82.667 15.167 112 45.5s44 74.166 44 131.499z" />
    <glyph glyph-name="ntilde" unicode="&#xf1;" horiz-adv-x="514" 
d="M193 563c18 0 43 -7.33203 75 -21.999c18 -8 35.333 -12 52 -12c18.667 0 47.334 10 86.001 30c6 -11.333 6 -23.333 0 -36c-2 -0.666992 -6.33301 -2.83398 -13 -6.50098s-11.334 -6.16699 -14.001 -7.5s-7 -3.33301 -13 -6s-11 -4.5 -15 -5.5s-8.83301 -2 -14.5 -3
s-11.167 -1.5 -16.5 -1.5c-18 0 -43 7.33301 -75 22c-18 8 -35.333 12 -52 12c-18.667 0 -47.334 -10 -86.001 -30c-6 12.667 -6 24.667 0 36c2 0.682617 6.33301 2.84961 13 6.5c6.66699 3.66699 11.334 6.16699 14.001 7.5s7 3.33301 13 6s11 4.5 15 5.5s8.83301 2 14.5 3
s11.167 1.5 16.5 1.5zM281 415.001c53.333 0 93.335 -15.168 120.002 -45.501s40 -69.833 40 -118.5v-251c-14.668 -6 -29.335 -6 -44.001 0v244c0 40.667 -10.333 72.834 -31 96.501s-52.334 35.5 -95 35.5c-30 0 -58.833 -8.83301 -86.5 -26.5s-49.5 -35.5 -65.5 -53.5
v-296c-14.667 -6 -29.334 -6 -44.001 0v400c13.333 5.33301 27 5.33301 41 0l2 -66c48.667 54 103 81 163 81z" />
    <glyph glyph-name="ograve" unicode="&#xf2;" horiz-adv-x="542" 
d="M228 610l116 -131.001c-1.33301 -4 -4.33301 -8.16699 -9 -12.5s-9.33398 -6.83301 -14 -7.5l-123 126c0.666992 4.66797 4.66699 9.83496 12 15.501c7.33301 5.66699 13.333 8.83398 18 9.5zM271 414.999c61.333 0 112.5 -20.667 153.5 -62s61.5 -92.333 61.5 -153
s-20.5 -111.667 -61.5 -153s-92.167 -62 -153.5 -62c-62 0 -113.333 20.667 -154 62s-61 92.333 -61 153s20.333 111.667 61 153s92 62 154 62zM271 375.999c-48.667 0 -89.168 -16.667 -121.501 -50s-48.5 -75.333 -48.5 -126s16.167 -92.667 48.5 -126
s72.833 -50 121.5 -50c49.334 0 90.167 16.667 122.5 50s48.5 75.333 48.5 126s-16.167 92.667 -48.5 126s-73.166 50 -122.499 50z" />
    <glyph glyph-name="oacute" unicode="&#xf3;" horiz-adv-x="542" 
d="M198 479l117 131.002c4.66699 -0.666992 10.5 -3.83398 17.5 -9.50098s10.833 -10.834 11.5 -15.501l-122 -126c-4.66699 0.666992 -9.5 3.16699 -14.5 7.5s-8.16699 8.5 -9.5 12.5zM271 415.002c61.333 0 112.5 -20.667 153.5 -62s61.5 -92.333 61.5 -153
s-20.5 -111.667 -61.5 -153s-92.167 -62 -153.5 -62c-62 0 -113.333 20.667 -154 62s-61 92.333 -61 153s20.333 111.667 61 153s92 62 154 62zM271 376.002c-48.667 0 -89.168 -16.667 -121.501 -50s-48.5 -75.333 -48.5 -126s16.167 -92.667 48.5 -126
s72.833 -50 121.5 -50c49.334 0 90.167 16.667 122.5 50s48.5 75.333 48.5 126s-16.167 92.667 -48.5 126s-73.166 50 -122.499 50z" />
    <glyph glyph-name="ocircumflex" unicode="&#xf4;" horiz-adv-x="542" 
d="M291 600l120 -120.999c-0.666992 -4.66797 -4.16699 -9.83496 -10.5 -15.501c-6.33301 -5.66699 -11.833 -9.16699 -16.5 -10.5l-113 114l-112 -114c-4.66699 0.666992 -10.167 4 -16.5 10c-6.33398 6 -10.167 11.333 -11.5 16l120 121c5.33301 4 12 6 20 6
s14.667 -2 20 -6zM271 415.001c61.333 0 112.5 -20.667 153.5 -62s61.5 -92.333 61.5 -153s-20.5 -111.667 -61.5 -153s-92.167 -62 -153.5 -62c-62 0 -113.333 20.667 -154 62s-61 92.333 -61 153s20.333 111.667 61 153s92 62 154 62zM271 376.001
c-48.667 0 -89.168 -16.667 -121.501 -50s-48.5 -75.333 -48.5 -126s16.167 -92.667 48.5 -126s72.833 -50 121.5 -50c49.334 0 90.167 16.667 122.5 50s48.5 75.333 48.5 126s-16.167 92.667 -48.5 126s-73.166 50 -122.499 50z" />
    <glyph glyph-name="otilde" unicode="&#xf5;" horiz-adv-x="542" 
d="M207 563c18 0 43.001 -7.33203 75.001 -21.999c18 -8 35.333 -12 52 -12c18.667 0 47.334 10 86.001 30c6 -11.333 6 -23.333 0 -36c-2 -0.666992 -6.33301 -2.83398 -13 -6.50098c-6.66992 -3.66699 -11.3369 -6.16699 -14.001 -7.5
c-2.66699 -1.33301 -7 -3.33301 -13 -6s-11 -4.5 -15 -5.5s-8.83301 -2 -14.5 -3s-11.167 -1.5 -16.5 -1.5c-18 0 -43 7.33301 -75 22c-18 8 -35.333 12 -52 12c-18.667 0 -47.334 -10 -86.001 -30c-6 12.667 -6 24.667 0 36c2 0.682617 6.33301 2.84961 13 6.5
c6.66699 3.66699 11.334 6.16699 14 7.5c2.66699 1.33301 7 3.33301 13 6s11 4.5 15 5.5s8.83301 2 14.5 3s11.167 1.5 16.5 1.5zM271.001 415.001c61.333 0 112.5 -20.667 153.5 -62s61.5 -92.333 61.5 -153s-20.5 -111.667 -61.5 -153s-92.167 -62 -153.5 -62
c-62 0 -113.333 20.667 -154 62s-61 92.333 -61 153s20.333 111.667 61 153s92 62 154 62zM271.001 376.001c-48.667 0 -89.168 -16.667 -121.501 -50s-48.5 -75.333 -48.5 -126s16.167 -92.667 48.5 -126s72.833 -50 121.5 -50c49.334 0 90.167 16.667 122.5 50
s48.5 75.333 48.5 126s-16.167 92.667 -48.5 126s-73.166 50 -122.499 50z" />
    <glyph glyph-name="odieresis" unicode="&#xf6;" horiz-adv-x="542" 
d="M153 571c9.33301 0 17.167 -3.16699 23.5 -9.5s9.5 -13.833 9.5 -22.5c0 -10 -3.16699 -18.167 -9.5 -24.5c-6.33398 -6.33301 -14.167 -9.5 -23.5 -9.5c-10 0 -18.333 3.16699 -25 9.5s-10 14.5 -10 24.5c0 9.33301 3.33301 17 10 23s15 9 25 9zM390.001 571
c9.33496 0 17.167 -3.16699 23.499 -9.5c6.33301 -6.33301 9.5 -13.833 9.5 -22.5c0 -10 -3.16699 -18.167 -9.5 -24.5s-14.166 -9.5 -23.499 -9.5c-10 0 -18.333 3.16699 -25 9.5s-10 14.5 -10 24.5c0 9.33301 3.33301 17 10 23s15 9 25 9zM271 415
c61.333 0 112.5 -20.667 153.5 -62s61.5 -92.333 61.5 -153s-20.5 -111.667 -61.5 -153s-92.167 -62 -153.5 -62c-62 0 -113.333 20.667 -154 62s-61 92.333 -61 153s20.333 111.667 61 153s92 62 154 62zM271 376c-48.667 0 -89.168 -16.667 -121.501 -50
s-48.5 -75.333 -48.5 -126s16.167 -92.667 48.5 -126s72.833 -50 121.5 -50c49.334 0 90.167 16.667 122.5 50s48.5 75.333 48.5 126s-16.167 92.667 -48.5 126s-73.166 50 -122.499 50z" />
    <glyph glyph-name="divide" unicode="&#xf7;" horiz-adv-x="443" 
d="M223 422c8.66699 0 16.334 -3.33301 23 -10c6.66699 -6.66797 10 -14.335 10 -23c0 -9.33301 -3.16699 -17.333 -9.5 -24c-6.33398 -6.66699 -14.167 -10 -23.5 -10c-10 0 -18.333 3.33301 -25 10s-10 14.667 -10 24c0 9.33496 3.33301 17.168 10 23.5
c6.66699 6.33301 15 9.5 25 9.5zM50 300h344c6 -12.667 6 -24.667 0 -36h-344c-6 11.333 -6 23.333 0 36zM223 208c9.33301 0 17.167 -3.16504 23.5 -9.49805c6.33301 -6.33398 9.5 -14.167 9.5 -23.5c0 -9.33398 -3.16699 -17.167 -9.5 -23.5
c-6.33398 -6.33301 -14.167 -9.5 -23.5 -9.5c-10 0 -18.333 3.16699 -25 9.5s-10 14.166 -10 23.499s3.33301 17.166 10 23.499s15 9.5 25 9.5z" />
    <glyph glyph-name="oslash" unicode="&#xf8;" horiz-adv-x="542" 
d="M486 400l-52.9951 -55c35.333 -40.667 53 -89 53 -145c0 -60.667 -20.5 -111.667 -61.5 -153s-92.167 -62 -153.5 -62c-54.667 0 -101.334 16.333 -140.001 49l-32 -34c-4.66699 -2.66699 -11.834 -4 -21.501 -4s-16.834 1.33301 -21.501 4l53 55
c-35.333 40.667 -53 89 -53 145c0 60.667 20.333 111.667 61 153s92 62 154 62c53.333 0 99.666 -16 138.999 -48l32 33c5.33496 2.66699 12.668 4 22 4c9.33496 0 16.668 -1.33301 21.999 -4zM101.005 200c0 -44 12.667 -82 38 -114l242 251c-30 26 -66.667 39 -110 39
c-48.667 0 -89.167 -16.667 -121.5 -50s-48.5 -75.333 -48.5 -126zM442.005 200c0 44 -12.668 82.333 -38.001 115l-243 -251c30.667 -26.667 67.334 -40 110.001 -40c49.334 0 90.167 16.667 122.5 50s48.5 75.333 48.5 126z" />
    <glyph glyph-name="ugrave" unicode="&#xf9;" horiz-adv-x="511" 
d="M213 610l116 -131.001c-1.33301 -4 -4.33301 -8.16699 -9 -12.5c-4.66895 -4.33301 -9.33594 -6.83301 -14 -7.5l-123 126c0.666992 4.66797 4.66699 9.83496 12 15.501c7.33301 5.66699 13.333 8.83398 18 9.5zM394 103.999l-0.00390625 296.001
c14.667 6 29.334 6 44.001 0v-400c-13.333 -5.33301 -26.666 -5.33301 -39.999 0l-3 66c-48.667 -54 -103 -81 -163 -81c-53.333 0 -93.333 15.167 -120 45.5s-40 69.833 -40 118.5v251c14.667 6 29.334 6 44.001 0v-244c0 -40.667 10.333 -72.834 31 -96.501
s52.334 -35.5 95.001 -35.5c30 0 58.833 8.83301 86.5 26.5s49.5 35.5 65.5 53.5z" />
    <glyph glyph-name="uacute" unicode="&#xfa;" horiz-adv-x="511" 
d="M183 479l117 131.002c4.66699 -0.666992 10.5 -3.83398 17.5 -9.50098s10.833 -10.834 11.5 -15.501l-122 -126c-4.66699 0.666992 -9.5 3.16699 -14.5 7.5s-8.16699 8.5 -9.5 12.5zM394 104.002l-0.00390625 296.001c14.667 6 29.334 6 44.001 0v-400
c-13.333 -5.33301 -26.666 -5.33301 -39.999 0l-3 66c-48.667 -54 -103 -81 -163 -81c-53.333 0 -93.333 15.167 -120 45.5s-40 69.833 -40 118.5v251c14.667 6 29.334 6 44.001 0v-244c0 -40.667 10.333 -72.834 31 -96.501s52.334 -35.5 95.001 -35.5
c30 0 58.833 8.83301 86.5 26.5s49.5 35.5 65.5 53.5z" />
    <glyph glyph-name="ucircumflex" unicode="&#xfb;" horiz-adv-x="511" 
d="M276 600l119.999 -120.999c-0.666992 -4.66797 -4.16699 -9.83496 -10.5 -15.501c-6.33301 -5.66699 -11.833 -9.16699 -16.5 -10.5l-113 114l-112 -114c-4.66699 0.666992 -10.167 4 -16.5 10s-10.166 11.333 -11.499 16l120 121c5.33301 4 12 6 20 6s14.667 -2 20 -6z
M393.999 104.001l-0.00390625 296.001c14.667 6 29.334 6 44.001 0v-400c-13.333 -5.33301 -26.666 -5.33301 -39.999 0l-3 66c-48.667 -54 -103 -81 -163 -81c-53.333 0 -93.333 15.167 -120 45.5s-40 69.833 -40 118.5v251c14.667 6 29.334 6 44.001 0v-244
c0 -40.667 10.333 -72.834 31 -96.501s52.334 -35.5 95.001 -35.5c30 0 58.833 8.83301 86.5 26.5s49.5 35.5 65.5 53.5z" />
    <glyph glyph-name="udieresis" unicode="&#xfc;" horiz-adv-x="511" 
d="M138 571c9.33301 0 17.167 -3.16699 23.5 -9.5s9.5 -13.833 9.5 -22.5c0 -10 -3.16699 -18.167 -9.5 -24.5c-6.33398 -6.33301 -14.167 -9.5 -23.5 -9.5c-10 0 -18.333 3.16699 -25 9.5s-10 14.5 -10 24.5c0 9.33301 3.33301 17 10 23s15 9 25 9zM374.001 571
c9.33496 0 17.167 -3.16699 23.499 -9.5c6.33301 -6.33301 9.5 -13.833 9.5 -22.5c0 -10 -3.16699 -18.167 -9.5 -24.5s-14.166 -9.5 -23.499 -9.5c-10 0 -18.333 3.16699 -25 9.5s-10 14.5 -10 24.5c0 9.33301 3.33301 17 10 23s15 9 25 9zM394 104l-0.00390625 296.001
c14.667 6 29.334 6 44.001 0v-400c-13.333 -5.33301 -26.666 -5.33301 -39.999 0l-3 66c-48.667 -54 -103 -81 -163 -81c-53.333 0 -93.333 15.167 -120 45.5s-40 69.833 -40 118.5v251c14.667 6 29.334 6 44.001 0v-244c0 -40.667 10.333 -72.834 31 -96.501
s52.334 -35.5 95.001 -35.5c30 0 58.833 8.83301 86.5 26.5s49.5 35.5 65.5 53.5z" />
    <glyph glyph-name="yacute" unicode="&#xfd;" horiz-adv-x="494" 
d="M174 479l117 131.002c4.66699 -0.666992 10.5 -3.83398 17.5 -9.50098s10.833 -10.834 11.5 -15.501l-122 -126c-4.66699 0.666992 -9.5 3.16699 -14.5 7.5s-8.16699 8.5 -9.5 12.5zM248 79.002l160 321c16.667 6.66699 32.667 6.66699 48 0l-283 -563
c-15.333 -6 -31 -6 -47 0l99 195l-187 368c15.333 6.66699 31 6.66699 47 0z" />
    <glyph glyph-name="thorn" unicode="&#xfe;" horiz-adv-x="539" 
d="M280 415c60.667 0 109.5 -20.333 146.5 -61s55.5 -92 55.5 -154s-18.5 -113.333 -55.5 -154s-85.833 -61 -146.5 -61c-63.333 0 -116.333 23.667 -159 71v-219c-14.667 -6 -29.334 -6 -44.001 0v813c14.667 6 29.334 6 44.001 0v-306c42.667 47.333 95.667 71 159 71z
M273 24c50 0 90 16.5 120 49.5s45 75.167 45 126.5s-15 93.5 -45 126.5s-70 49.5 -120 49.5c-32.667 0 -62.334 -7.83301 -89.001 -23.5s-47.334 -32.167 -62.001 -49.5v-206c14.667 -17.333 35.334 -33.833 62.001 -49.5s56.334 -23.5 89.001 -23.5z" />
    <glyph glyph-name="ydieresis" unicode="&#xff;" horiz-adv-x="494" 
d="M130 571c9.33301 0 17.167 -3.16699 23.5 -9.5s9.5 -13.833 9.5 -22.5c0 -10 -3.16699 -18.167 -9.5 -24.5c-6.33398 -6.33301 -14.167 -9.5 -23.5 -9.5c-10 0 -18.333 3.16699 -25 9.5s-10 14.5 -10 24.5c0 9.33301 3.33301 17 10 23s15 9 25 9zM366.001 571
c9.33496 0 17.167 -3.16699 23.499 -9.5c6.33301 -6.33301 9.5 -13.833 9.5 -22.5c0 -10 -3.16699 -18.167 -9.5 -24.5s-14.166 -9.5 -23.499 -9.5c-10 0 -18.333 3.16699 -25 9.5s-10 14.5 -10 24.5c0 9.33301 3.33301 17 10 23s15 9 25 9zM248 79l160 321
c16.667 6.66699 32.667 6.66699 48 0l-283 -563c-15.333 -6 -31 -6 -47 0l99 195l-187 368c15.333 6.66699 31 6.66699 47 0z" />
    <glyph glyph-name="Amacron" unicode="&#x100;" horiz-adv-x="670" 
d="M205 791h259c6 -11.333 6 -23.333 0 -36l-259 1c-6 12 -6 23.667 0 35zM356 650l275 -650c-16.667 -6.66699 -33 -6.66699 -49 0l-85 200h-325l-85 -200c-16.667 -6.66699 -33 -6.66699 -49 0l275 650c14.667 6 29 6 43 0zM188 241h295l-148 349z" />
    <glyph glyph-name="amacron" unicode="&#x101;" horiz-adv-x="488" 
d="M112 541h259c6 -11.333 6 -23.333 0 -36l-259 1c-6 12 -6 23.667 0 35zM241 415c57.333 0 100.832 -15.501 130.499 -46.501s44.5 -73.5 44.5 -127.5v-241c-13.333 -5.33301 -26.666 -5.33301 -39.999 0l-2 52c-18.667 -17.333 -43.167 -32.833 -73.5 -46.5
s-62.5 -20.5 -96.5 -20.5c-45.333 0 -81.833 12 -109.5 36s-41.5 55.333 -41.5 94s13.833 69.834 41.5 93.501s64.5 35.5 110.5 35.5c34 0 66 -6.5 96 -19.5s53.667 -27.167 71 -42.5v62c0 42 -11.5 74.833 -34.5 98.5s-57.167 35.5 -102.5 35.5c-48 0 -95 -16 -141 -48
c-2.66699 2.66699 -4 9.16699 -4 19.5c0 10.335 1.33301 17.168 4 20.5c38 30 87 45 147 45zM211.999 212.999c-35.333 0 -63.334 -9 -84.001 -27s-31 -41 -31 -69s10.167 -51 30.5 -69s48.5 -27 84.5 -27c32 0 63.333 7.33301 94 22s52.334 29 65.001 43v62
c-12.667 14 -34.334 28.333 -65 43c-30.667 14.667 -62 22 -94 22z" />
    <glyph glyph-name="Abreve" unicode="&#x102;" horiz-adv-x="670" 
d="M482 830c2.66699 -3.33301 3.99902 -10 3.99902 -20s-1.33301 -17 -4 -21c-37.333 -30.667 -86.333 -46 -147 -46c-59.333 0 -108.333 15.333 -147 46c-2 4 -3.16699 11 -3.5 21c-0.330078 10 0.836914 16.667 3.50098 20c46 -32 95 -48 147 -48s101 16 147 48z
M355.999 650l275 -650c-16.667 -6.66699 -33 -6.66699 -49 0l-85 200h-325l-85 -200c-16.667 -6.66699 -33 -6.66699 -49 0l275 650c14.667 6 29 6 43 0zM187.999 241h295l-148 349z" />
    <glyph glyph-name="abreve" unicode="&#x103;" horiz-adv-x="488" 
d="M389 580c2.66699 -3.33301 3.99902 -10 3.99902 -20s-1.33301 -17 -4 -21c-37.333 -30.667 -86.333 -46 -147 -46c-59.333 0 -108.333 15.333 -147 46c-2 4 -3.16699 11 -3.5 21s0.833984 16.667 3.50098 20c46 -32 95 -48 147 -48s101 16 147 48zM240.999 415
c57.333 0 100.832 -15.501 130.499 -46.501s44.5 -73.5 44.5 -127.5v-241c-13.333 -5.33301 -26.666 -5.33301 -39.999 0l-2 52c-18.667 -17.333 -43.167 -32.833 -73.5 -46.5s-62.5 -20.5 -96.5 -20.5c-45.333 0 -81.833 12 -109.5 36s-41.5 55.333 -41.5 94
s13.833 69.834 41.5 93.501s64.5 35.5 110.5 35.5c34 0 66 -6.5 96 -19.5s53.667 -27.167 71 -42.5v62c0 42 -11.5 74.833 -34.5 98.5s-57.167 35.5 -102.5 35.5c-48 0 -95 -16 -141 -48c-2.66699 2.66699 -4 9.16699 -4 19.5c0 10.335 1.33301 17.168 4 20.5
c38 30 87 45 147 45zM211.998 212.999c-35.333 0 -63.334 -9 -84.001 -27s-31 -41 -31 -69s10.167 -51 30.5 -69s48.5 -27 84.5 -27c32 0 63.333 7.33301 94 22s52.334 29 65.001 43v62c-12.667 14 -34.334 28.333 -65 43c-30.667 14.667 -62 22 -94 22z" />
    <glyph glyph-name="Aogonek" unicode="&#x104;" horiz-adv-x="670" 
d="M655 -179c6 -10 6 -20.668 0 -32.001c-8 -2.66699 -19 -4 -33 -4c-29.333 0 -53.833 9.33301 -73.5 28s-29.5 42.334 -29.5 71.001c0 23.333 7.16699 45.166 21.5 65.499s32.833 36.166 55.5 47.499c-5.33301 0 -10 1 -14 3l-85 200h-325l-85 -200
c-16.667 -6.66699 -33 -6.66699 -49 0l275 650c14.667 6 29 6 43 0l274 -650c-24 -10 -43.333 -25.167 -58 -45.5s-22 -41.166 -22 -62.499s6.83301 -39.166 20.5 -53.499s32.167 -21.5 55.5 -21.5c12 0 21.667 1.33301 29 4zM483 240.999l-148 349l-147 -349h295z" />
    <glyph glyph-name="aogonek" unicode="&#x105;" horiz-adv-x="488" 
d="M440 -179c6 -10 6 -20.6709 0 -32.0039c-8 -2.66699 -19 -4 -33 -4c-29.333 0 -53.833 9.33301 -73.5 28s-29.5 42.334 -29.5 71.001c0 23.333 7.33301 45.333 22 66s33.667 36.667 57 48l-7 2l-2 52c-18.667 -17.333 -43.167 -32.833 -73.5 -46.5
s-62.5 -20.5 -96.5 -20.5c-45.333 0 -81.833 12 -109.5 36s-41.5 55.333 -41.5 94s13.833 69.834 41.5 93.501s64.5 35.5 110.5 35.5c34 0 66 -6.5 96 -19.5s53.667 -27.167 71 -42.5v62c0 42 -11.5 74.833 -34.5 98.5s-57.167 35.5 -102.5 35.5c-48 0 -95 -16 -141 -48
c-2.66699 2.66699 -4 9.16699 -4 19.5c0 10.335 1.33301 17.168 4 20.5c38 30 87 45 147 45c57.333 0 100.833 -15.5 130.5 -46.5s44.5 -73.5 44.5 -127.5l-1 -241c-24 -10 -43.333 -25.167 -58 -45.5s-22 -41.166 -22 -62.499s6.83301 -39.166 20.5 -53.499
s32.167 -21.5 55.5 -21.5c12 0 21.667 1.33301 29 4zM371 85.9961l-0.000976562 62c-12.667 14 -34.334 28.333 -65 43c-30.667 14.667 -62 22 -94 22c-35.333 0 -63.333 -9 -84 -27s-31 -41 -31 -69s10.167 -51 30.5 -69s48.5 -27 84.5 -27c32 0 63.333 7.33301 94 22
s52.334 29 65.001 43z" />
    <glyph glyph-name="Cacute" unicode="&#x106;" horiz-adv-x="727" 
d="M339 727l117 131.002c4.66699 -0.666992 10.5 -3.83398 17.5 -9.50098s10.833 -10.834 11.5 -15.501l-122 -126c-4.66699 0.666992 -9.66699 3 -15 7s-8.33301 8.33301 -9 13zM414 26.002c84.667 0 157.667 23.3311 219 69.998c2.66699 -3.33301 4 -11.166 4 -23.499
s-1.33301 -20.166 -4 -23.499c-58.667 -42.667 -132 -64 -220 -64c-100.667 0 -183.167 32.833 -247.5 98.5s-96.5 146.167 -96.5 241.5s32.167 175.833 96.5 241.5s146.833 98.5 247.5 98.5c88 0 161.333 -21.333 220 -64c2.66699 -3.33789 4 -11.1709 4 -23.5
c0 -12.3379 -1.33301 -20.1709 -4 -23.5c-61.333 46.667 -134.333 70 -219 70c-86 0 -157 -28.667 -213 -86s-84 -128.333 -84 -213s28 -155.667 84 -213s127 -86 213 -86z" />
    <glyph glyph-name="cacute" unicode="&#x107;" horiz-adv-x="501" 
d="M196 479l117 131.002c4.66699 -0.666992 10.5 -3.83398 17.5 -9.50098s10.833 -10.834 11.5 -15.501l-122 -126c-4.66699 0.666992 -9.5 3.16699 -14.5 7.5s-8.16699 8.5 -9.5 12.5zM283 23.002c49.333 0 96.666 16.3301 141.999 48.9971
c2.66699 -2.66699 4 -9.33398 4 -20.001s-1.33301 -17.667 -4 -21c-38.667 -30.667 -87 -46 -145 -46c-66 0 -119.833 20.333 -161.5 61s-62.5 92 -62.5 154s20.833 113.333 62.5 154s95.5 61 161.5 61c58 0 106.333 -15.333 145 -46c2.66699 -3.33301 4 -10.166 4 -20.499
s-1.33301 -17.166 -4 -20.499c-45.333 32.667 -92.666 49 -141.999 49c-53.333 0 -97.166 -16.667 -131.499 -50s-51.5 -75.666 -51.5 -126.999s17.167 -93.666 51.5 -126.999s78.166 -50 131.499 -50z" />
    <glyph glyph-name="Cdotaccent" unicode="&#x10a;" horiz-adv-x="727" 
d="M413 753c-10 0 -18.334 3.16797 -25.001 9.50098s-10 14.166 -10 23.499s3.33301 17.166 10 23.499s15 9.5 25 9.5c9.33496 0 17.168 -3.16699 23.5 -9.5c6.33301 -6.33984 9.5 -14.1729 9.5 -23.5c0 -9.33887 -3.16699 -17.1719 -9.5 -23.499
c-6.33301 -6.33301 -14.166 -9.5 -23.499 -9.5zM413.999 26.001c84.667 0 157.667 23.3311 219 69.998c2.66699 -3.33301 4 -11.166 4 -23.499s-1.33301 -20.166 -4 -23.499c-58.667 -42.667 -132 -64 -220 -64c-100.667 0 -183.167 32.833 -247.5 98.5
s-96.5 146.167 -96.5 241.5s32.167 175.833 96.5 241.5s146.833 98.5 247.5 98.5c88 0 161.333 -21.333 220 -64c2.66699 -3.33789 4 -11.1709 4 -23.5c0 -12.3379 -1.33301 -20.1709 -4 -23.5c-61.333 46.667 -134.333 70 -219 70c-86 0 -157 -28.667 -213 -86
s-84 -128.333 -84 -213s28 -155.667 84 -213s127 -86 213 -86z" />
    <glyph glyph-name="cdotaccent" unicode="&#x10b;" horiz-adv-x="501" 
d="M270 505c-10 0 -18.333 3.16699 -25 9.5s-10 14.5 -10 24.5c0 9.33301 3.33301 17 10 23s15 9 25 9c9.33398 0 17.167 -3.16699 23.499 -9.5c6.33301 -6.33301 9.5 -13.833 9.5 -22.5c0 -10 -3.16699 -18.167 -9.5 -24.5s-14.166 -9.5 -23.499 -9.5zM283 23
c49.333 0 96.666 16.3301 141.999 48.9971c2.66699 -2.66699 4 -9.33398 4 -20.001s-1.33301 -17.667 -4 -21c-38.667 -30.667 -87 -46 -145 -46c-66 0 -119.833 20.333 -161.5 61s-62.5 92 -62.5 154s20.833 113.333 62.5 154s95.5 61 161.5 61
c58 0 106.333 -15.333 145 -46c2.66699 -3.33301 4 -10.166 4 -20.499s-1.33301 -17.166 -4 -20.499c-45.333 32.667 -92.666 49 -141.999 49c-53.333 0 -97.166 -16.667 -131.499 -50s-51.5 -75.666 -51.5 -126.999s17.167 -93.666 51.5 -126.999s78.166 -50 131.499 -50z
" />
    <glyph glyph-name="Ccaron" unicode="&#x10c;" horiz-adv-x="727" 
d="M413 739l113 114.001c4.66699 -1.34668 10.167 -4.67969 16.5 -10c6.33301 -5.33301 9.83301 -10.333 10.5 -15l-120 -121c-13.333 -10.667 -26.666 -10.667 -39.999 0l-120 121c0.666992 4.66699 4.16699 9.66699 10.5 15
c6.33398 5.33301 12.167 8.66602 17.499 9.99902zM414 26.001c84.667 0 157.667 23.3311 219 69.998c2.66699 -3.33301 4 -11.166 4 -23.499s-1.33301 -20.166 -4 -23.499c-58.667 -42.667 -132 -64 -220 -64c-100.667 0 -183.167 32.833 -247.5 98.5
s-96.5 146.167 -96.5 241.5s32.167 175.833 96.5 241.5s146.833 98.5 247.5 98.5c88 0 161.333 -21.333 220 -64c2.66699 -3.33789 4 -11.1709 4 -23.5c0 -12.3379 -1.33301 -20.1709 -4 -23.5c-61.333 46.667 -134.333 70 -219 70c-86 0 -157 -28.667 -213 -86
s-84 -128.333 -84 -213s28 -155.667 84 -213s127 -86 213 -86z" />
    <glyph glyph-name="ccaron" unicode="&#x10d;" horiz-adv-x="501" 
d="M269 492l113 113.001c4.66699 -0.666992 10 -3.83398 16 -9.50098s9.66699 -10.834 11 -15.501l-120 -121c-13.333 -10.667 -26.666 -10.667 -39.999 0l-120 121c1.33301 4.67578 5.16602 9.84277 11.499 15.501c6.33301 5.68457 11.833 8.85156 16.5 9.5zM283 23.001
c49.333 0 96.666 16.3301 141.999 48.9971c2.66699 -2.66699 4 -9.33398 4 -20.001s-1.33301 -17.667 -4 -21c-38.667 -30.667 -87 -46 -145 -46c-66 0 -119.833 20.333 -161.5 61s-62.5 92 -62.5 154s20.833 113.333 62.5 154s95.5 61 161.5 61
c58 0 106.333 -15.333 145 -46c2.66699 -3.33301 4 -10.166 4 -20.499s-1.33301 -17.166 -4 -20.499c-45.333 32.667 -92.666 49 -141.999 49c-53.333 0 -97.166 -16.667 -131.499 -50s-51.5 -75.666 -51.5 -126.999s17.167 -93.666 51.5 -126.999s78.166 -50 131.499 -50z
" />
    <glyph glyph-name="Dcaron" unicode="&#x10e;" horiz-adv-x="713" 
d="M301 742l113 113.001c4.66699 -0.666992 10 -3.83398 16 -9.50098s9.66699 -10.834 11 -15.501l-120 -121c-13.333 -10.667 -26.666 -10.667 -39.999 0l-120 121c1.33301 4.67969 5.16602 9.84668 11.499 15.501c6.33301 5.69238 11.833 8.85938 16.5 9.5zM94 650.001
h207c109.333 0 193.833 -31 253.5 -93s89.5 -139.333 89.5 -232s-29.833 -170 -89.5 -232s-144.167 -93 -253.5 -93h-207v650zM142 41.001h159c95.333 0 168.5 26.667 219.5 80s76.5 121.333 76.5 204s-25.5 150.667 -76.5 204s-124.167 80 -219.5 80h-159v-568z" />
    <glyph glyph-name="dcaron" unicode="&#x10f;" horiz-adv-x="584" 
d="M542 665c9.33301 0 17.665 -3.49805 24.998 -10.498s11.333 -17.167 12 -30.5c2.66699 -22 -0.5 -49.667 -9.5 -83s-19.167 -55.333 -30.5 -66c-9.33691 -5.33301 -19.6699 -5.33301 -30.999 0c11.333 13.334 21.333 33.167 30 59.499
c8.6748 26.333 12.3418 48.166 11 65.499c-2.66699 -0.666992 -5.66699 -1 -9 -1c-9.33691 0 -17.1699 3 -23.499 9c-6.33301 6 -9.5 13.667 -9.5 23s3.16699 17.333 9.5 24s14.833 10 25.5 10zM416.999 344.002l-0.000976562 306c14.667 6 29.334 6 44.001 0v-650
c-13.333 -5.33301 -26.666 -5.33301 -39.999 0l-2 58c-42.667 -48.667 -96.334 -73 -161.001 -73c-60.667 0 -109.5 20.333 -146.5 61s-55.5 92 -55.5 154s18.5 113.333 55.5 154s85.833 61 146.5 61c63.333 0 116.333 -23.667 159 -71zM416.998 97.002l-0.000976562 206
c-14 17.333 -34.333 33.833 -61 49.5s-56.334 23.5 -89 23.5c-50 0 -90.167 -16.5 -120.5 -49.5s-45.5 -75.167 -45.5 -126.5s15.167 -93.5 45.5 -126.5s70.5 -49.5 120.5 -49.5c32.667 0 62.334 7.83301 89.001 23.5s47 32.167 61 49.5z" />
    <glyph glyph-name="Dcroat" unicode="&#x110;" horiz-adv-x="713" 
d="M94 650h207c109.333 0 193.833 -31 253.5 -93s89.5 -139.333 89.5 -232s-29.833 -170 -89.5 -232s-144.167 -93 -253.5 -93h-207v309h-46c-6 12 -6 24 0 36h46v305zM142 41h159c95.333 0 168.5 26.667 219.5 80s76.5 121.333 76.5 204s-25.5 150.667 -76.5 204
s-124.167 80 -219.5 80h-159v-264h181c6 -12 6 -24 0 -36h-181v-268z" />
    <glyph glyph-name="dcroat" unicode="&#x111;" 
d="M461 538h57.999c6 -11.333 6 -23.333 0 -36h-58v-502c-13.333 -5.33301 -26.666 -5.33301 -39.999 0l-2 58c-42.667 -48.667 -96.334 -73 -161.001 -73c-60.667 0 -109.5 20.333 -146.5 61s-55.5 92 -55.5 154s18.5 113.333 55.5 154s85.833 61 146.5 61
c63.333 0 116.333 -23.667 159 -71v158l-157 1c-6 11.333 -6 23 0 35h157v112c14.667 6 29.334 6 44.001 0v-112zM416.999 97l-0.000976562 206c-14 17.333 -34.333 33.833 -61 49.5s-56.334 23.5 -89 23.5c-50 0 -90.167 -16.5 -120.5 -49.5s-45.5 -75.167 -45.5 -126.5
s15.167 -93.5 45.5 -126.5s70.5 -49.5 120.5 -49.5c32.667 0 62.334 7.83301 89.001 23.5s47 32.167 61 49.5z" />
    <glyph glyph-name="Emacron" unicode="&#x112;" horiz-adv-x="577" 
d="M161 791h259c6 -11.333 6 -23.333 0 -36l-259 1c-6 12 -6 23.667 0 35zM141 41h385c5.33301 -14 5.33301 -27.667 0 -41h-432v650h432c5.33301 -13.333 5.33301 -27 0 -41h-385v-255h356c5.33301 -13.333 5.33301 -27 0 -41h-356v-272z" />
    <glyph glyph-name="emacron" unicode="&#x113;" horiz-adv-x="516" 
d="M130 541h259c6 -11.333 6 -23.333 0 -36l-259 1c-6 12 -6 23.667 0 35zM268 415c64 0 114.167 -22.002 150.5 -66.002s49.833 -95 40.5 -153h-358c0.666992 -52.667 17.667 -94.667 51 -126s76.333 -47 129 -47c50 0 97.667 16.333 143 49
c2.66699 -3.33301 4 -10.166 4 -20.499s-1.33301 -17.166 -4 -20.499c-37.333 -30.667 -86.333 -46 -147 -46c-66 0 -119.333 19.833 -160 59.5s-61 91.5 -61 155.5c0 62 19.667 113.333 59 154s90.333 61 153 61zM268 378.998c-46.667 0 -84.833 -14.167 -114.5 -42.5
s-46.5 -65.5 -50.5 -111.5h316c1.33301 44 -12.334 80.667 -41 110c-28.667 29.333 -65.334 44 -110 44z" />
    <glyph glyph-name="Edotaccent" unicode="&#x116;" horiz-adv-x="577" 
d="M292 755c-10 0 -18.334 3.16699 -25.001 9.5s-10 14.5 -10 24.5c0 9.33301 3.33301 17 10 23s15 9 25 9c9.33496 0 17.168 -3.16699 23.5 -9.5c6.33301 -6.33301 9.5 -13.833 9.5 -22.5c0 -10 -3.16699 -18.167 -9.5 -24.5s-14.166 -9.5 -23.499 -9.5zM140.999 41h385
c5.33301 -14 5.33301 -27.667 0 -41h-432v650h432c5.33301 -13.333 5.33301 -27 0 -41h-385v-255h356c5.33301 -13.333 5.33301 -27 0 -41h-356v-272z" />
    <glyph glyph-name="edotaccent" unicode="&#x117;" horiz-adv-x="516" 
d="M261 505c-10 0 -18.333 3.16699 -25 9.5s-10 14.5 -10 24.5c0 9.33301 3.33301 17 10 23s15 9 25 9c9.33398 0 17.167 -3.16699 23.499 -9.5c6.33301 -6.33301 9.5 -13.833 9.5 -22.5c0 -10 -3.16699 -18.167 -9.5 -24.5s-14.166 -9.5 -23.499 -9.5zM268 415
c64 0 114.167 -22.002 150.5 -66.002s49.833 -95 40.5 -153h-358c0.666992 -52.667 17.667 -94.667 51 -126s76.333 -47 129 -47c50 0 97.667 16.333 143 49c2.66699 -3.33301 4 -10.166 4 -20.499s-1.33301 -17.166 -4 -20.499c-37.333 -30.667 -86.333 -46 -147 -46
c-66 0 -119.333 19.833 -160 59.5s-61 91.5 -61 155.5c0 62 19.667 113.333 59 154s90.333 61 153 61zM268 378.998c-46.667 0 -84.833 -14.167 -114.5 -42.5s-46.5 -65.5 -50.5 -111.5h316c1.33301 44 -12.334 80.667 -41 110c-28.667 29.333 -65.334 44 -110 44z" />
    <glyph glyph-name="Eogonek" unicode="&#x118;" horiz-adv-x="577" 
d="M550 -179c6 -10 6 -20.6699 0 -32.0029c-8 -2.66699 -19 -4 -33 -4c-29.333 0 -53.833 9.33301 -73.5 28s-29.5 42.334 -29.5 71.001c0 24.667 7.83301 47.5 23.5 68.5s35.834 36.833 60.501 47.5h-404v650h432c5.33301 -13.333 5.33301 -27 0 -41h-385v-255h356
c5.33301 -13.333 5.33301 -27 0 -41h-356v-272h385c5.33301 -14 5.33301 -27.667 0 -41c-24.668 -10 -44.335 -25.167 -59.001 -45.5c-14.667 -20.333 -22 -41.166 -22 -62.499s6.83301 -39.166 20.5 -53.499s32.167 -21.5 55.5 -21.5c12 0 21.667 1.33301 29 4z" />
    <glyph glyph-name="eogonek" unicode="&#x119;" horiz-adv-x="516" 
d="M268 415c64 0 114.167 -22.0068 150.5 -66.0068s49.833 -95 40.5 -153h-358c0.666992 -52.667 17.667 -94.667 51 -126s76.333 -47 129 -47c50 0 97.667 16.333 143 49c2.66699 -3.33301 4 -10.166 4 -20.499s-1.33301 -17.166 -4 -20.499
c-17.333 -13.333 -37 -23.666 -59 -30.999c-24 -10 -43.333 -25.167 -58 -45.5s-22 -41.166 -22 -62.499s6.83301 -39.166 20.5 -53.499s32.167 -21.5 55.5 -21.5c12 0 21.667 1.33301 29 4c6 -10 6 -20.667 0 -32c-8 -2.66699 -19 -4 -33 -4
c-29.333 0 -53.833 9.33301 -73.5 28s-29.5 42.334 -29.5 71.001c0 42.667 20.333 77.334 61 104.001c-12 -2 -24.667 -3 -38 -3c-66 0 -119.333 19.833 -160 59.5s-61 91.5 -61 155.5c0 62 19.667 113.333 59 154s90.333 61 153 61zM103 224.993h316.001
c1.33301 44 -12.334 80.667 -41 110c-28.667 29.333 -65.334 44 -110 44c-46.667 0 -84.834 -14.167 -114.501 -42.5s-46.5 -65.5 -50.5 -111.5z" />
    <glyph glyph-name="Ecaron" unicode="&#x11a;" horiz-adv-x="577" 
d="M291 742l113 113.001c4.66699 -0.666992 10 -3.83398 16 -9.50098s9.66699 -10.834 11 -15.501l-120 -121c-13.333 -10.667 -26.666 -10.667 -39.999 0l-120 121c1.33301 4.67969 5.16602 9.84668 11.499 15.501c6.33301 5.69238 11.833 8.85938 16.5 9.5zM141 41.001
h385c5.33301 -14 5.33301 -27.667 0 -41h-432v650h432c5.33301 -13.333 5.33301 -27 0 -41h-385v-255h356c5.33301 -13.333 5.33301 -27 0 -41h-356v-272z" />
    <glyph glyph-name="ecaron" unicode="&#x11b;" horiz-adv-x="516" 
d="M260 492l112.999 113.001c4.66699 -0.666992 10 -3.83398 16 -9.50098s9.66699 -10.834 11 -15.501l-120 -121c-13.333 -10.667 -26.666 -10.667 -39.999 0l-120 121c1.33398 4.67578 5.16699 9.84277 11.5 15.501c6.33301 5.68457 11.833 8.85156 16.5 9.5z
M267.999 415.001c64 0 114.167 -22.002 150.5 -66.002s49.833 -95 40.5 -153h-358c0.666992 -52.667 17.667 -94.667 51 -126s76.333 -47 129 -47c50 0 97.667 16.333 143 49c2.66699 -3.33301 4 -10.166 4 -20.499s-1.33301 -17.166 -4 -20.499
c-37.333 -30.667 -86.333 -46 -147 -46c-66 0 -119.333 19.833 -160 59.5s-61 91.5 -61 155.5c0 62 19.667 113.333 59 154s90.333 61 153 61zM267.999 378.999c-46.667 0 -84.833 -14.167 -114.5 -42.5s-46.5 -65.5 -50.5 -111.5h316c1.33301 44 -12.334 80.667 -41 110
c-28.667 29.333 -65.334 44 -110 44z" />
    <glyph glyph-name="Gbreve" unicode="&#x11e;" horiz-adv-x="735" 
d="M559 830c2.66699 -3.33301 3.99902 -10 3.99902 -20s-1.33301 -17 -4 -21c-37.334 -30.667 -86.334 -46 -147 -46c-59.333 0 -108.333 15.333 -147 46c-2 4 -3.16699 11 -3.5 21s0.833984 16.667 3.50098 20c46 -32 95 -48 147 -48s101 16 147 48zM598.999 73v235.999
c16 6 31.333 6 46 0v-260c-28 -20 -63 -35.667 -105 -47s-84.333 -17 -127 -17c-100.667 0 -183.167 32.833 -247.5 98.5s-96.5 146.167 -96.5 241.5s32.167 175.833 96.5 241.5s146.833 98.5 247.5 98.5c88 0 161.333 -21.333 220 -64c2.66699 -3.33789 4 -11.1709 4 -23.5
c0 -12.3379 -1.33301 -20.1709 -4 -23.5c-61.333 46.667 -134.333 70 -219 70c-86 0 -157 -28.667 -213 -86s-84 -128.333 -84 -213c0 -85.333 28 -156.666 84 -213.999s127 -86 213 -86c71.333 0 133 16 185 48z" />
    <glyph glyph-name="gbreve" unicode="&#x11f;" horiz-adv-x="534" 
d="M414 580c2.66699 -3.33301 3.99902 -10 3.99902 -20s-1.33301 -17 -4 -21c-37.333 -30.667 -86.333 -46 -147 -46c-59.333 0 -108.333 15.333 -147 46c-2 4 -3.16699 11 -3.5 21s0.833984 16.667 3.50098 20c46 -32 95 -48 147 -48s101 16 147 48zM257.999 415
c64.667 0 118.333 -24.333 161 -73l2 58c13.334 5.33301 26.667 5.33301 39.999 0v-396c0 -54 -16.333 -97.833 -49 -131.5s-79.334 -50.5 -140 -50.5c-63.333 0 -113.333 15 -150 45c-2.66699 4 -4 11 -4 21s1.33301 16.667 4 20c44.667 -32 92.334 -48 143.001 -48
c48.667 0 86.167 13 112.5 39s39.5 60.667 39.5 104v55c-42.667 -47.333 -95.667 -71 -159 -71c-60.667 0 -109.5 20.333 -146.5 61s-55.5 91.667 -55.5 153s18.5 112.333 55.5 153s85.833 61 146.5 61zM266.998 376c-50 0 -90.167 -16.5 -120.5 -49.5
s-45.5 -74.833 -45.5 -125.5s15.167 -92.5 45.5 -125.5s70.5 -49.5 120.5 -49.5c32.667 0 62.5 7.83301 89.5 23.5s47.167 32.167 60.5 49.5v204c-14 17.333 -34.333 33.833 -61 49.5s-56.334 23.5 -89 23.5z" />
    <glyph glyph-name="Gdotaccent" unicode="&#x120;" horiz-adv-x="735" 
d="M413 755c-10 0 -18.334 3.16699 -25.001 9.5s-10 14.5 -10 24.5c0 9.33301 3.33301 17 10 23s15 9 25 9c9.33496 0 17.168 -3.16699 23.5 -9.5c6.33301 -6.33301 9.5 -13.833 9.5 -22.5c0 -10 -3.16699 -18.167 -9.5 -24.5s-14.166 -9.5 -23.499 -9.5zM598.999 73
v235.999c16 6 31.333 6 46 0v-260c-28 -20 -63 -35.667 -105 -47s-84.333 -17 -127 -17c-100.667 0 -183.167 32.833 -247.5 98.5s-96.5 146.167 -96.5 241.5s32.167 175.833 96.5 241.5s146.833 98.5 247.5 98.5c88 0 161.333 -21.333 220 -64
c2.66699 -3.33789 4 -11.1709 4 -23.5c0 -12.3379 -1.33301 -20.1709 -4 -23.5c-61.333 46.667 -134.333 70 -219 70c-86 0 -157 -28.667 -213 -86s-84 -128.333 -84 -213c0 -85.333 28 -156.666 84 -213.999s127 -86 213 -86c71.333 0 133 16 185 48z" />
    <glyph glyph-name="gdotaccent" unicode="&#x121;" horiz-adv-x="534" 
d="M268 505c-10 0 -18.333 3.16699 -25 9.5s-10 14.5 -10 24.5c0 9.33301 3.33301 17 10 23s15 9 25 9c9.33398 0 17.167 -3.16699 23.499 -9.5c6.33301 -6.33301 9.5 -13.833 9.5 -22.5c0 -10 -3.16699 -18.167 -9.5 -24.5s-14.166 -9.5 -23.499 -9.5zM258 415
c64.667 0 118.334 -24.333 161.001 -73l2 58c13.334 5.33301 26.667 5.33301 39.999 0v-396c0 -54 -16.333 -97.833 -49 -131.5s-79.334 -50.5 -140.001 -50.5c-63.333 0 -113.333 15 -150 45c-2.66699 4 -4 11 -4 21s1.33301 16.667 4 20
c44.667 -32 92.334 -48 143.001 -48c48.667 0 86.167 13 112.5 39s39.5 60.667 39.5 104v55c-42.667 -47.333 -95.667 -71 -159 -71c-60.667 0 -109.5 20.333 -146.5 61s-55.5 91.667 -55.5 153s18.5 112.333 55.5 153s85.833 61 146.5 61zM267 376
c-50 0 -90.167 -16.5 -120.5 -49.5s-45.5 -74.833 -45.5 -125.5s15.167 -92.5 45.5 -125.5s70.5 -49.5 120.5 -49.5c32.667 0 62.5 7.83301 89.5 23.5s47.167 32.167 60.5 49.5v204c-14 17.333 -34.333 33.833 -61 49.5s-56.334 23.5 -89 23.5z" />
    <glyph glyph-name="Gcommaaccent" unicode="&#x122;" horiz-adv-x="735" 
d="M599 73v235.999c16 6 31.333 6 46 0v-260c-28 -20 -63 -35.667 -105 -47s-84.333 -17 -127 -17c-100.667 0 -183.167 32.833 -247.5 98.5s-96.5 146.167 -96.5 241.5s32.167 175.833 96.5 241.5s146.833 98.5 247.5 98.5c88 0 161.333 -21.333 220 -64
c2.66699 -3.33789 4 -11.1709 4 -23.5c0 -12.3379 -1.33301 -20.1709 -4 -23.5c-61.333 46.667 -134.333 70 -219 70c-86 0 -157 -28.667 -213 -86s-84 -128.333 -84 -213c0 -85.333 28 -156.666 84 -213.999s127 -86 213 -86c71.333 0 133 16 185 48zM413 -59.001
c10 0 18.4971 -3.49805 25.4971 -10.498s10.833 -17.167 11.5 -30.5c2.66699 -22 -0.5 -49.667 -9.5 -83s-19.167 -55.333 -30.5 -66c-9.33301 -5.33301 -19.666 -5.33301 -30.999 0c11.333 13.333 21.333 33.166 30 59.499s12.334 48.166 11.001 65.499
c-2.66699 -0.666992 -5.66699 -1 -9 -1c-9.33301 0 -17.166 3 -23.499 9s-9.5 13.667 -9.5 23s3.16699 17.333 9.5 24s14.833 10 25.5 10z" />
    <glyph glyph-name="gcommaaccent" unicode="&#x123;" horiz-adv-x="534" 
d="M303 695c-11.333 -12.667 -21.166 -32 -29.499 -58s-12.166 -48.333 -11.499 -67c3.33691 0.666992 6.66992 1 9.99902 1c9.33398 0 17.167 -3 23.499 -9c6.33301 -6 9.5 -13.667 9.5 -23s-3.16699 -17.333 -9.5 -24s-14.833 -10 -25.5 -10
c-9.33301 0 -17.666 3.5 -24.999 10.5s-11.333 17.167 -12 30.5c-2.66699 22 0.333008 49.667 9 83s18.667 55.333 30 66c11.333 5.33301 21.666 5.33301 30.999 0zM258 415c64.667 0 118.334 -24.333 161.001 -73l2 58c13.334 5.33301 26.667 5.33301 39.999 0v-396
c0 -54 -16.333 -97.833 -49 -131.5s-79.334 -50.5 -140.001 -50.5c-63.333 0 -113.333 15 -150 45c-2.66699 4 -4 11 -4 21s1.33301 16.667 4 20c44.667 -32 92.334 -48 143.001 -48c48.667 0 86.167 13 112.5 39s39.5 60.667 39.5 104v55
c-42.667 -47.333 -95.667 -71 -159 -71c-60.667 0 -109.5 20.333 -146.5 61s-55.5 91.667 -55.5 153s18.5 112.333 55.5 153s85.833 61 146.5 61zM267 376c-50 0 -90.167 -16.5 -120.5 -49.5s-45.5 -74.833 -45.5 -125.5s15.167 -92.5 45.5 -125.5s70.5 -49.5 120.5 -49.5
c32.667 0 62.5 7.83301 89.5 23.5s47.167 32.167 60.5 49.5v204c-14 17.333 -34.333 33.833 -61 49.5s-56.334 23.5 -89 23.5z" />
    <glyph glyph-name="Hbar" unicode="&#x126;" horiz-adv-x="723" 
d="M628 504h63c4.66699 -11.333 4.66699 -23.333 0 -36h-63v-468c-16 -6.66699 -31.667 -6.66699 -47 0v313h-440v-313c-15.333 -6.66699 -31 -6.66699 -47 0v468h-62c-6 12.667 -6 24.667 0 36h62v146c15.333 6.66699 31 6.66699 47 0v-146h440v146
c15.333 6.66699 31 6.66699 47 0v-146zM581 468h-440v-114h440v114z" />
    <glyph glyph-name="hbar" unicode="&#x127;" horiz-adv-x="515" 
d="M282 415c53.333 0 93.332 -15.168 119.999 -45.501s40 -69.833 40 -118.5v-251c-14.668 -6 -29.335 -6 -44 0v244c0 40.667 -10.333 72.834 -31 96.501s-52.334 35.5 -95 35.5c-29.333 0 -57.666 -8.66699 -84.999 -26s-49.333 -35 -66 -53v-297
c-14.667 -6 -29.334 -6 -44.001 0v503h-57c-6 11.333 -6 23 0 35h57v112c14.667 6 29.334 6 44.001 0v-112h158c6 -11.333 6 -23.333 0 -36l-158 1v-166c52 52 105.667 78 161 78z" />
    <glyph glyph-name="Imacron" unicode="&#x12a;" horiz-adv-x="236" 
d="M-13 791h259c6 -11.333 6 -23.333 0 -36l-259 1c-6 12 -6 23.667 0 35zM141 650v-650c-15.333 -6.66699 -31 -6.66699 -47 0v650c15.333 6.66699 31 6.66699 47 0z" />
    <glyph glyph-name="imacron" unicode="&#x12b;" horiz-adv-x="197" 
d="M-31 541h259c6 -11.333 6 -23.333 0 -36l-259 1c-4.66699 12 -4.66699 23.667 0 35zM121 400v-400c-14.667 -6 -29.334 -6 -44.001 0v400c14.667 6 29.334 6 44.001 0z" />
    <glyph glyph-name="Iogonek" unicode="&#x12e;" horiz-adv-x="236" 
d="M165 -179c6 -10 6 -20.667 0 -32c-8 -2.66699 -19 -4 -33 -4c-29.333 0 -53.833 9.33301 -73.5 28s-29.5 42.334 -29.5 71.001c0 23.333 7.16699 45.166 21.5 65.499s32.833 36.166 55.5 47.499c-0.666992 0 -1.66699 0.166992 -3 0.5s-2.5 0.666016 -3.5 0.999023l-3 1
c-1 0.333008 -1.83301 0.5 -2.5 0.5v650c15.333 6.66699 31 6.66699 47 0l-1 -650c-24 -10 -43.333 -25.167 -58 -45.5s-22 -41.166 -22 -62.499s6.83301 -39.166 20.5 -53.499s32.167 -21.5 55.5 -21.5c12 0 21.667 1.33301 29 4z" />
    <glyph glyph-name="iogonek" unicode="&#x12f;" horiz-adv-x="197" 
d="M100 505c-10 0 -18.333 3.16699 -25 9.5s-10 14.5 -10 24.5c0 9.33301 3.33301 17 10 23s15 9 25 9c9.33301 0 17.166 -3.16699 23.499 -9.5s9.5 -13.833 9.5 -22.5c0 -10 -3.16699 -18.167 -9.5 -24.5s-14.166 -9.5 -23.499 -9.5zM145 -179c6 -10 6 -20.668 0 -32.001
c-8 -2.66699 -19 -4 -33 -4c-29.333 0 -53.833 9.33301 -73.5 28s-29.5 42.334 -29.5 71.001c0 23.333 7.16699 45.166 21.5 65.499s33.166 36.166 56.499 47.499c-2.66699 0.666992 -6 1.66699 -10 3v400c14.667 6 29.334 6 44.001 0l-1 -400
c-24 -10 -43.333 -25.167 -58 -45.5s-22 -41.166 -22 -62.499s6.83301 -39.166 20.5 -53.499s32.167 -21.5 55.5 -21.5c12 0 21.667 1.33301 29 4z" />
    <glyph glyph-name="Idotaccent" unicode="&#x130;" horiz-adv-x="236" 
d="M118 755c-10 0 -18.333 3.16699 -25 9.5s-10 14.5 -10 24.5c0 9.33301 3.33301 17 10 23s15 9 25 9c9.33301 0 17.166 -3.16699 23.499 -9.5s9.5 -13.833 9.5 -22.5c0 -10 -3.16699 -18.167 -9.5 -24.5s-14.166 -9.5 -23.499 -9.5zM141 650v-650
c-15.333 -6.66699 -31 -6.66699 -47 0v650c15.333 6.66699 31 6.66699 47 0z" />
    <glyph glyph-name="dotlessi" unicode="&#x131;" horiz-adv-x="197" 
d="M121 400v-400c-14.667 -6 -29.334 -6 -44.001 0v400c14.667 6 29.334 6 44.001 0z" />
    <glyph glyph-name="IJ" unicode="&#x132;" horiz-adv-x="648" 
d="M141 650v-650c-15.333 -6.66699 -31 -6.66699 -47 0v650c15.333 6.66699 31 6.66699 47 0zM554 650l-0.000976562 -470c0 -65.333 -14.5 -114.166 -43.5 -146.499s-68.833 -48.5 -119.5 -48.5c-40 0 -77.667 11 -113 33c-2 4 -3.16699 11.667 -3.5 23
s0.833984 18.666 3.50098 21.999c34 -24 68.667 -36 104 -36c83.333 0 125 52 125 156v467c15.333 6.66699 31 6.66699 47 0z" />
    <glyph glyph-name="ij" unicode="&#x133;" horiz-adv-x="493" 
d="M112 575c9.33301 0 17.166 -3.16504 23.499 -9.49805c6.33301 -6.33789 9.5 -14.1709 9.5 -23.5c0 -9.33789 -3.16699 -17.1709 -9.5 -23.5c-6.33301 -6.33691 -14.166 -9.50391 -23.499 -9.5c-10 0 -18.333 3.16699 -25 9.5s-10 14.166 -10 23.499
s3.33301 17.166 10 23.499s15 9.5 25 9.5zM387 570.002c8.66699 0 16 -2.83203 22 -8.49902s9 -12.834 9 -21.501s-3 -16 -9 -22s-13.333 -9 -22 -9c-9.33301 0 -17 3 -23 9s-9 13.333 -9 22c0 8.66895 3 15.8359 9 21.5c6 5.66699 13.667 8.5 23 8.5zM132 400.003v-400
c-14.667 -6 -29.334 -6 -44.001 0v400c14.667 6 29.334 6 44.001 0zM409 400.003v-478c0 -32.667 -8.5 -57.5 -25.5 -74.5s-39.5 -25.5 -67.5 -25.5c-28.667 0 -57.667 8 -87 24c-2 4 -3.16699 11.333 -3.5 22c-0.330078 10.667 0.836914 17.667 3.5 21
c29.334 -19.333 55.667 -29 79 -29c37.333 0 56 22 56 66v474c14.667 6 29.667 6 45 0z" />
    <glyph glyph-name="Kcommaaccent" unicode="&#x136;" horiz-adv-x="609" 
d="M191 335l379 -335c-6 -2.66699 -16.167 -4 -30.5 -4s-24.5 1.33301 -30.5 4l-368 323v-323c-15.333 -6.66699 -31 -6.66699 -47 0v650c15.333 6.66699 31 6.66699 47 0v-304l347 304c6.66699 2.66699 17.167 4 31.5 4s24.5 -1.33301 30.5 -4zM306 -59
c9.33496 0 17.665 -3.49805 24.9971 -10.498c7.33301 -7 11.333 -17.167 12 -30.5c2.66699 -22 -0.5 -49.667 -9.5 -83s-19.167 -55.333 -30.5 -66c-9.33301 -5.33301 -19.666 -5.33301 -30.999 0c11.333 13.333 21.333 33.166 30 59.499s12.334 48.166 11.001 65.499
c-2.66699 -0.666992 -5.66699 -1 -9 -1c-9.33301 0 -17.166 3 -23.499 9s-9.5 13.667 -9.5 23s3.16699 17.333 9.5 24s14.833 10 25.5 10z" />
    <glyph glyph-name="kcommaaccent" unicode="&#x137;" horiz-adv-x="454" 
d="M164 206l252 -206c-6 -2.66699 -15.667 -4 -29 -4s-23.333 1.33301 -30 4l-236 192v-192c-14.667 -6 -29.334 -6 -44.001 0v650c14.667 6 29.334 6 44.001 0v-431l228 181c6 2.66699 15.667 4 29 4s23 -1.33301 29 -4zM228 -59c9.33301 0 17.666 -3.49805 24.999 -10.498
s11.333 -17.167 12 -30.5c2.66699 -22 -0.5 -49.667 -9.5 -83s-19.167 -55.333 -30.5 -66c-9.33398 -5.33301 -19.667 -5.33301 -31 0c11.333 13.333 21.333 33.166 30 59.499c8.66797 26.333 12.335 48.166 11.001 65.499c-2.66699 -0.666992 -5.66699 -1 -9 -1
c-9.33398 0 -17.167 3 -23.5 9s-9.5 13.667 -9.5 23s3.16699 17.333 9.5 24s14.833 10 25.5 10z" />
    <glyph glyph-name="Lacute" unicode="&#x139;" horiz-adv-x="554" 
d="M207 729l117 131.002c4.66699 -0.666992 10.5 -3.83398 17.5 -9.50098s10.833 -10.834 11.5 -15.501l-122 -126c-4.66699 0.666992 -9.5 3.16699 -14.5 7.5s-8.16699 8.5 -9.5 12.5zM141 41.002h371c5.33301 -14 5.33301 -27.667 0 -41h-418v650
c15.333 6.66699 31 6.66699 47 0v-609z" />
    <glyph glyph-name="lacute" unicode="&#x13a;" horiz-adv-x="194" 
d="M26 729l117 131.002c4.66699 -0.666992 10.5 -3.83398 17.5 -9.50098s10.833 -10.834 11.5 -15.501l-122 -126c-4.66699 0.666992 -9.5 3.16699 -14.5 7.5s-8.16699 8.5 -9.5 12.5zM121 650.002v-650c-14.667 -6 -29.334 -6 -44.001 0v650c14.667 6 29.334 6 44.001 0z
" />
    <glyph glyph-name="Lcommaaccent" unicode="&#x13b;" horiz-adv-x="554" 
d="M141 41h371c5.33301 -14 5.33301 -27.667 0 -41h-418v650c15.333 6.66699 31 6.66699 47 0v-609zM282 -59c9.33398 0 17.665 -3.49805 24.9971 -10.498c7.33301 -7 11.333 -17.167 12 -30.5c2.66699 -22 -0.5 -49.667 -9.5 -83s-19.167 -55.333 -30.5 -66
c-9.33301 -5.33301 -19.666 -5.33301 -30.999 0c11.333 13.333 21.333 33.166 30 59.499s12.334 48.166 11.001 65.499c-2.66699 -0.666992 -5.66699 -1 -9 -1c-9.33301 0 -17.166 3 -23.499 9s-9.5 13.667 -9.5 23s3.16699 17.333 9.5 24s14.833 10 25.5 10z" />
    <glyph glyph-name="lcommaaccent" unicode="&#x13c;" horiz-adv-x="194" 
d="M121 650v-650c-14.667 -6 -29.334 -6 -44.001 0v650c14.667 6 29.334 6 44.001 0zM98 -59c9.33301 0 17.6641 -3.49805 24.9971 -10.498s11.333 -17.167 12 -30.5c2.66699 -22 -0.5 -49.667 -9.5 -83s-19.167 -55.333 -30.5 -66
c-9.33301 -5.33301 -19.666 -5.33301 -30.999 0c11.333 13.333 21.333 33.166 30 59.499s12.334 48.166 11.001 65.499c-2.66699 -0.666992 -5.66699 -1 -9 -1c-9.33301 0 -17.166 3 -23.499 9s-9.5 13.667 -9.5 23s3.16699 17.333 9.5 24s14.833 10 25.5 10z" />
    <glyph glyph-name="Lcaron" unicode="&#x13d;" horiz-adv-x="554" 
d="M475 665c10 0 18.4971 -3.49805 25.4971 -10.498s10.833 -17.167 11.5 -30.5c2.66699 -22 -0.5 -49.667 -9.5 -83s-19.167 -55.333 -30.5 -66c-9.33301 -5.33301 -19.666 -5.33301 -30.999 0c11.333 13.334 21.333 33.167 30 59.499
c8.66699 26.333 12.334 48.166 11.001 65.499c-2.66699 -0.666992 -5.66699 -1 -9 -1c-9.33301 0 -17.166 3 -23.499 9s-9.5 13.667 -9.5 23s3.16699 17.333 9.5 24s14.833 10 25.5 10zM140.997 41.002h371c5.33301 -14 5.33301 -27.667 0 -41h-418v650
c15.333 6.66699 31 6.66699 47 0v-609z" />
    <glyph glyph-name="lcaron" unicode="&#x13e;" horiz-adv-x="246" 
d="M202 665c9.33301 0 17.667 -3.49805 25 -10.498s11.333 -17.167 12 -30.5c2.66699 -22 -0.5 -49.667 -9.5 -83s-19.167 -55.333 -30.5 -66c-9.33398 -5.33301 -19.667 -5.33301 -31 0c11.333 13.334 21.333 33.167 30 59.499c8.66699 26.333 12.334 48.166 11 65.499
c-2.66699 -0.666992 -5.66699 -1 -9 -1c-9.33398 0 -17.167 3 -23.5 9s-9.5 13.667 -9.5 23s3.16699 17.333 9.5 24s14.833 10 25.5 10zM121.001 650.002v-650c-14.667 -6 -29.334 -6 -44.001 0v650c14.667 6 29.334 6 44.001 0z" />
    <glyph glyph-name="Ldot" unicode="&#x13f;" horiz-adv-x="554" 
d="M141 41h371c5.33301 -14 5.33301 -27.667 0 -41h-418v650c15.333 6.66699 31 6.66699 47 0v-609zM479 281c-10 0 -18.333 3.16504 -25 9.49805c-6.66699 6.33496 -10 14.168 -10 23.5c0 9.33496 3.33301 17.168 10 23.5c6.66699 6.33301 15 9.5 25 9.5
c9.33496 0 17.168 -3.16699 23.499 -9.5c6.33301 -6.33301 9.5 -14.166 9.5 -23.499s-3.16699 -17.166 -9.5 -23.499s-14.166 -9.5 -23.499 -9.5z" />
    <glyph glyph-name="ldot" unicode="&#x140;" horiz-adv-x="240" 
d="M121 650v-650c-14.667 -6 -29.334 -6 -44.001 0v650c14.667 6 29.334 6 44.001 0zM202 274c-10 0 -18.332 3.16602 -24.999 9.49902c-6.66699 6.33398 -10 14.167 -10 23.499c0 9.33496 3.33301 17.168 10 23.5c6.66699 6.33301 15 9.5 25 9.5
c9.33301 0 17.166 -3.16699 23.499 -9.5s9.5 -14.166 9.5 -23.499s-3.16699 -17.166 -9.5 -23.499c-6.33398 -6.33301 -14.167 -9.5 -23.5 -9.5z" />
    <glyph glyph-name="Lslash" unicode="&#x141;" horiz-adv-x="554" 
d="M141 41h371c5.33301 -14 5.33301 -27.667 0 -41h-418v327l-59 -20c-6 13.333 -6 26 0 38l59 20v285c15.333 6.66699 31 6.66699 47 0v-270l160 54c6 -12 6 -24.667 0 -38l-160 -54v-301z" />
    <glyph glyph-name="lslash" unicode="&#x142;" horiz-adv-x="194" 
d="M121 382l59 16c6 -12 6 -24.333 0 -37l-59 -16v-345c-14.667 -6 -29.334 -6 -44.001 0v332l-58 -16c-6 12 -6 24.667 0 38l58 16v280c14.667 6 29.334 6 44.001 0v-268z" />
    <glyph glyph-name="Nacute" unicode="&#x143;" horiz-adv-x="713" 
d="M284 729l117 131.002c4.66699 -0.666992 10.5 -3.83398 17.5 -9.50098s10.833 -10.834 11.5 -15.501l-122 -126c-4.66699 0.666992 -9.5 3.16699 -14.5 7.5s-8.16699 8.5 -9.5 12.5zM624 650.002v-650c-13.3379 -5.33301 -26.6709 -5.33301 -40 0l-447 572v-572
c-15.333 -6.66699 -31 -6.66699 -47 0v650c13.333 5.33301 27 5.33301 41 0l446 -572v572c15.333 6.66699 31 6.66699 47 0z" />
    <glyph glyph-name="nacute" unicode="&#x144;" horiz-adv-x="514" 
d="M184 479l117 131.002c4.66699 -0.666992 10.5 -3.83398 17.5 -9.50098s10.833 -10.834 11.5 -15.501l-122 -126c-4.66699 0.666992 -9.5 3.16699 -14.5 7.5s-8.16699 8.5 -9.5 12.5zM281 415.002c53.333 0 93.335 -15.168 120.002 -45.501s40 -69.833 40 -118.5v-251
c-14.668 -6 -29.335 -6 -44.001 0v244c0 40.667 -10.333 72.834 -31 96.501s-52.334 35.5 -95 35.5c-30 0 -58.833 -8.83301 -86.5 -26.5s-49.5 -35.5 -65.5 -53.5v-296c-14.667 -6 -29.334 -6 -44.001 0v400c13.333 5.33301 27 5.33301 41 0l2 -66c48.667 54 103 81 163 81
z" />
    <glyph glyph-name="Ncommaaccent" unicode="&#x145;" horiz-adv-x="713" 
d="M624 650v-650c-13.3379 -5.33301 -26.6709 -5.33301 -40 0l-447 572v-572c-15.333 -6.66699 -31 -6.66699 -47 0v650c13.333 5.33301 27 5.33301 41 0l446 -572v572c15.333 6.66699 31 6.66699 47 0zM357 -59c10 0 18.4971 -3.49805 25.4971 -10.498
s10.833 -17.167 11.5 -30.5c2.66699 -22 -0.5 -49.667 -9.5 -83s-19.167 -55.333 -30.5 -66c-9.33301 -5.33301 -19.666 -5.33301 -30.999 0c11.333 13.333 21.333 33.166 30 59.499s12.334 48.166 11.001 65.499c-2.66699 -0.666992 -5.66699 -1 -9 -1
c-9.33301 0 -17.166 3 -23.499 9s-9.5 13.667 -9.5 23s3.16699 17.333 9.5 24s14.833 10 25.5 10z" />
    <glyph glyph-name="ncommaaccent" unicode="&#x146;" horiz-adv-x="514" 
d="M281 415c53.333 0 93.335 -15.168 120.002 -45.501s40 -69.833 40 -118.5v-251c-14.668 -6 -29.335 -6 -44.001 0v244c0 40.667 -10.333 72.834 -31 96.501s-52.334 35.5 -95 35.5c-30 0 -58.833 -8.83301 -86.5 -26.5s-49.5 -35.5 -65.5 -53.5v-296
c-14.667 -6 -29.334 -6 -44.001 0v400c13.333 5.33301 27 5.33301 41 0l2 -66c48.667 54 103 81 163 81zM257.002 -59.001c10 0 18.498 -3.49805 25.498 -10.498s10.833 -17.167 11.5 -30.5c2.66699 -22 -0.5 -49.667 -9.5 -83s-19.167 -55.333 -30.5 -66
c-9.33301 -5.33301 -19.666 -5.33301 -30.999 0c11.333 13.333 21.333 33.166 30 59.499s12.334 48.166 11.001 65.499c-2.66699 -0.666992 -5.66699 -1 -9 -1c-9.33398 0 -17.167 3 -23.5 9s-9.5 13.667 -9.5 23s3.16699 17.333 9.5 24s14.833 10 25.5 10z" />
    <glyph glyph-name="Ncaron" unicode="&#x147;" horiz-adv-x="713" 
d="M357 742l113 113.001c4.66699 -0.666992 10 -3.83398 16 -9.50098s9.66699 -10.834 11 -15.501l-120 -121c-13.333 -10.667 -26.666 -10.667 -39.999 0l-120 121c1.33301 4.67969 5.16602 9.84668 11.499 15.501c6.33301 5.69238 11.833 8.85938 16.5 9.5zM624 650.001
v-650c-13.3379 -5.33301 -26.6709 -5.33301 -40 0l-447 572v-572c-15.333 -6.66699 -31 -6.66699 -47 0v650c13.333 5.33301 27 5.33301 41 0l446 -572v572c15.333 6.66699 31 6.66699 47 0z" />
    <glyph glyph-name="ncaron" unicode="&#x148;" horiz-adv-x="514" 
d="M257 492l112.999 113.001c4.66699 -0.666992 10 -3.83398 16 -9.50098s9.66699 -10.834 11 -15.501l-120 -121c-13.333 -10.667 -26.666 -10.667 -39.999 0l-120 121c1.33398 4.67578 5.16699 9.84277 11.5 15.501c6.33301 5.68457 11.833 8.85156 16.5 9.5z
M280.999 415.001c53.333 0 93.334 -15.168 120.001 -45.501s40 -69.833 40 -118.5v-251c-14.667 -6 -29.334 -6 -44 0v244c0 40.667 -10.333 72.834 -31 96.501s-52.334 35.5 -95 35.5c-30 0 -58.833 -8.83301 -86.5 -26.5s-49.5 -35.5 -65.5 -53.5v-296
c-14.667 -6 -29.334 -6 -44.001 0v400c13.333 5.33301 27 5.33301 41 0l2 -66c48.667 54 103 81 163 81z" />
    <glyph glyph-name="Eng" unicode="&#x14a;" horiz-adv-x="713" 
d="M577 78v572c15.333 6.66699 31 6.66699 47 0v-728c0 -32.667 -8.5 -57.5 -25.5 -74.5s-39.5 -25.5 -67.5 -25.5c-29.333 0 -58 8 -86 24c-2.66699 4 -4 11.333 -4 22s1.33301 17.667 4 21c28.667 -19.333 54.667 -29 78 -29c38 0 57 22 57 66v79l-443 567v-572
c-15.333 -6.66699 -31 -6.66699 -47 0v650c13.333 5.33301 27 5.33301 41 0z" />
    <glyph glyph-name="eng" unicode="&#x14b;" horiz-adv-x="514" 
d="M281 415c53.333 0 93.334 -15.168 120.001 -45.501s40 -69.833 40 -118.5v-329c0 -32.667 -8.5 -57.5 -25.5 -74.5s-39.5 -25.5 -67.5 -25.5c-29.333 0 -58 8 -86 24c-2.66699 4 -4 11.333 -4 22s1.33301 17.667 4 21c28.667 -19.333 54.667 -29 78 -29c38 0 57 22 57 66
v318c0 40.667 -10.333 72.834 -31 96.501s-52.334 35.5 -95 35.5c-30 0 -58.833 -8.83301 -86.5 -26.5s-49.5 -35.5 -65.5 -53.5v-296c-14.667 -6 -29.334 -6 -44.001 0v400c13.333 5.33301 27 5.33301 41 0l2 -66c48.667 54 103 81 163 81z" />
    <glyph glyph-name="Omacron" unicode="&#x14c;" horiz-adv-x="817" 
d="M278 791h259c6 -11.333 6 -23.333 0 -36l-259 1c-6 12 -6 23.667 0 35zM408 665c98.667 0 180 -32.833 244 -98.5s96 -146.167 96 -241.5s-32 -175.833 -96 -241.5s-145.333 -98.5 -244 -98.5s-179.834 32.833 -243.501 98.5s-95.5 146.167 -95.5 241.5
s31.833 175.833 95.5 241.5s144.834 98.5 243.501 98.5zM408 624c-84 0 -153.5 -28.5 -208.5 -85.5s-82.5 -128.167 -82.5 -213.5s27.5 -156.5 82.5 -213.5s124.5 -85.5 208.5 -85.5c84.667 0 154.5 28.5 209.5 85.5s82.5 128.167 82.5 213.5s-27.5 156.5 -82.5 213.5
s-124.833 85.5 -209.5 85.5z" />
    <glyph glyph-name="omacron" unicode="&#x14d;" horiz-adv-x="542" 
d="M141 541h259c6 -11.333 6 -23.333 0 -36l-259 1c-6 12 -6 23.667 0 35zM271 415c61.333 0 112.5 -20.667 153.5 -62s61.5 -92.333 61.5 -153s-20.5 -111.667 -61.5 -153s-92.167 -62 -153.5 -62c-62 0 -113.333 20.667 -154 62s-61 92.333 -61 153s20.333 111.667 61 153
s92 62 154 62zM271 376c-48.667 0 -89.168 -16.667 -121.501 -50s-48.5 -75.333 -48.5 -126s16.167 -92.667 48.5 -126s72.833 -50 121.5 -50c49.334 0 90.167 16.667 122.5 50s48.5 75.333 48.5 126s-16.167 92.667 -48.5 126s-73.166 50 -122.499 50z" />
    <glyph glyph-name="Ohungarumlaut" unicode="&#x150;" horiz-adv-x="817" 
d="M292 729l117 131.002c4.66699 -0.666992 10.5 -3.83398 17.5 -9.50098s10.833 -10.834 11.5 -15.501l-122 -126c-4.66699 0.666992 -9.5 3.16699 -14.5 7.5s-8.16699 8.5 -9.5 12.5zM410 729.002l117 131.002c4.66699 -0.666992 10.5 -3.83398 17.5 -9.50098
s10.833 -10.834 11.5 -15.501l-122 -126c-4.66699 0.666992 -9.5 3.16699 -14.5 7.5s-8.16699 8.5 -9.5 12.5zM408 665.004c98.667 0 180 -32.833 244 -98.5s96 -146.167 96 -241.5s-32 -175.833 -96 -241.5s-145.333 -98.5 -244 -98.5s-179.834 32.833 -243.501 98.5
s-95.5 146.167 -95.5 241.5s31.833 175.833 95.5 241.5s144.834 98.5 243.501 98.5zM408 624.004c-84 0 -153.5 -28.5 -208.5 -85.5s-82.5 -128.167 -82.5 -213.5s27.5 -156.5 82.5 -213.5s124.5 -85.5 208.5 -85.5c84.667 0 154.5 28.5 209.5 85.5s82.5 128.167 82.5 213.5
s-27.5 156.5 -82.5 213.5s-124.833 85.5 -209.5 85.5z" />
    <glyph glyph-name="ohungarumlaut" unicode="&#x151;" horiz-adv-x="542" 
d="M154 479l117 131.002c4.66699 -0.666992 10.5 -3.83398 17.5 -9.50098s10.833 -10.834 11.5 -15.501l-122 -126c-4.66699 0.666992 -9.5 3.16699 -14.5 7.5s-8.16699 8.5 -9.5 12.5zM272 479.002l117 131.002c4.66699 -0.666992 10.5 -3.83398 17.5 -9.50098
s10.833 -10.834 11.5 -15.501l-122 -126c-4.66699 0.666992 -9.5 3.16699 -14.5 7.5s-8.16699 8.5 -9.5 12.5zM271 415.004c61.333 0 112.5 -20.667 153.5 -62s61.5 -92.333 61.5 -153s-20.5 -111.667 -61.5 -153s-92.167 -62 -153.5 -62c-62 0 -113.333 20.667 -154 62
s-61 92.333 -61 153s20.333 111.667 61 153s92 62 154 62zM271 376.004c-48.667 0 -89.168 -16.667 -121.501 -50s-48.5 -75.333 -48.5 -126s16.167 -92.667 48.5 -126s72.833 -50 121.5 -50c49.334 0 90.167 16.667 122.5 50s48.5 75.333 48.5 126
s-16.167 92.667 -48.5 126s-73.166 50 -122.499 50z" />
    <glyph glyph-name="OE" unicode="&#x152;" horiz-adv-x="1183" 
d="M748 41h384c5.33301 -14 5.33301 -27.667 0 -41h-432v173c-23.333 -56 -61 -101.167 -113 -135.5s-111.667 -51.5 -179 -51.5c-98.667 0 -179.834 32.833 -243.501 98.5s-95.5 146.167 -95.5 241.5s31.833 175.833 95.5 241.5s144.834 98.5 243.501 98.5
c67.333 0 127 -17.167 179 -51.5s89.667 -79.833 113 -136.5v172h432c5.33301 -13.333 5.33301 -27 0 -41h-384v-255h355c5.33301 -13.333 5.33301 -27 0 -41h-355v-272zM408 26c84.667 0 154.5 28.667 209.5 86s82.5 128.666 82.5 213.999
c0 84.667 -27.667 155.667 -83 213s-125 86 -209 86s-153.5 -28.667 -208.5 -86s-82.5 -128.333 -82.5 -213c0 -85.333 27.5 -156.666 82.5 -213.999s124.5 -86 208.5 -86z" />
    <glyph glyph-name="oe" unicode="&#x153;" horiz-adv-x="901" 
d="M653 415c64 0 114.166 -22.002 150.499 -66.002s49.833 -95 40.5 -153h-358c0.666992 -52.667 17.667 -94.667 51 -126s76.333 -47 129 -47c50 0 97.667 16.333 143 49c2.66699 -3.33301 4 -10.166 4 -20.499s-1.33301 -17.166 -4 -20.499
c-37.333 -30.667 -86.333 -46 -147 -46c-48 0 -89.5 11.333 -124.5 34s-59.833 54 -74.5 94c-15.333 -38.667 -40.166 -69.667 -74.499 -93s-73.5 -35 -117.5 -35c-62 0 -113.333 20.667 -154 62s-61 92.333 -61 153s20.333 111.667 61 153s92 62 154 62
c44.667 0 84.167 -11.667 118.5 -35s58.833 -54.333 73.5 -93c14.667 39.333 38.5 70.5 71.5 93.5s72.5 34.5 118.5 34.5zM652.999 378.998c-46.667 0 -84.8311 -14.167 -114.498 -42.5s-46.5 -65.5 -50.5 -111.5h316c1.33301 44 -12.334 80.667 -41.001 110
s-65.334 44 -110.001 44zM271.002 375.998c-48.667 0 -89.168 -16.667 -121.501 -50s-48.5 -75.333 -48.5 -126s16.167 -92.667 48.5 -126s72.833 -50 121.5 -50c49.334 0 90.167 16.667 122.5 50s48.5 75.333 48.5 126s-16.167 92.667 -48.5 126s-73.166 50 -122.499 50z
" />
    <glyph glyph-name="Racute" unicode="&#x154;" horiz-adv-x="624" 
d="M221 729l117 131.002c4.66699 -0.666992 10.5 -3.83398 17.5 -9.50098s10.833 -10.834 11.5 -15.501l-122 -126c-4.66699 0.666992 -9.5 3.16699 -14.5 7.5s-8.16699 8.5 -9.5 12.5zM94 650.002l233.001 -0.00195312c76.667 0 135.334 -19.333 176.001 -58
s61 -87 61 -145c0 -49.333 -15 -92.166 -45 -128.499s-74.333 -59.166 -133 -68.499l192 -250c-6.66699 -2.66699 -15.834 -4 -27.501 -4s-20.834 1.33301 -27.501 4l-187 244h-195v-244c-15.333 -6.66699 -31 -6.66699 -47 0v650zM142.001 609v-324.002h186
c62.667 0 109.667 15.333 141 46s47 69.334 47 116.001s-15.667 85.334 -47 116.001s-78.333 46 -141 46h-186z" />
    <glyph glyph-name="racute" unicode="&#x155;" horiz-adv-x="395" 
d="M125 479l117 131.002c4.66699 -0.666992 10.5 -3.83398 17.5 -9.50098s10.833 -10.834 11.5 -15.501l-122 -126c-4.66699 0.666992 -9.5 3.16699 -14.5 7.5s-8.16699 8.5 -9.5 12.5zM353 396.002c2.66699 -3.33301 4.00195 -10.833 4.00195 -22.5
s-1.33301 -19.5 -4 -23.5c-23.333 16 -52.333 24 -87 24c-48 0 -97 -33 -147 -99v-275c-14.667 -6 -29.334 -6 -44.001 0v400c13.333 5.33301 27 5.33301 41 0l3 -83c44 65.333 94.667 98 152 98c33.333 0 60.666 -6.33301 81.999 -19z" />
    <glyph glyph-name="Rcommaaccent" unicode="&#x156;" horiz-adv-x="624" 
d="M94 650l233.001 -0.00195312c76.667 0 135.334 -19.333 176.001 -58s61 -87 61 -145c0 -49.333 -15 -92.166 -45 -128.499s-74.333 -59.166 -133 -68.499l192 -250c-6.66699 -2.66699 -15.834 -4 -27.501 -4s-20.834 1.33301 -27.501 4l-187 244h-195v-244
c-15.333 -6.66699 -31 -6.66699 -47 0v650zM142.001 608.998v-324.002h186c62.667 0 109.667 15.333 141 46s47 69.334 47 116.001s-15.667 85.334 -47 116.001s-78.333 46 -141 46h-186zM313.001 -59.0039c10 0 18.4971 -3.49805 25.4971 -10.498
s10.833 -17.167 11.5 -30.5c2.66699 -22 -0.5 -49.667 -9.5 -83s-19.167 -55.333 -30.5 -66c-9.33301 -5.33301 -19.666 -5.33301 -30.999 0c11.333 13.333 21.333 33.166 30 59.499s12.334 48.166 11.001 65.499c-2.66699 -0.666992 -5.66699 -1 -9 -1
c-9.33301 0 -17.166 3 -23.499 9s-9.5 13.667 -9.5 23s3.16699 17.333 9.5 24s14.833 10 25.5 10z" />
    <glyph glyph-name="rcommaaccent" unicode="&#x157;" horiz-adv-x="395" 
d="M353 396c2.66699 -3.33301 4.00195 -10.833 4.00195 -22.5s-1.33301 -19.5 -4 -23.5c-23.333 16 -52.333 24 -87 24c-48 0 -97 -33 -147 -99v-275c-14.667 -6 -29.334 -6 -44.001 0v400c13.333 5.33301 27 5.33301 41 0l3 -83c44 65.333 94.667 98 152 98
c33.333 0 60.666 -6.33301 81.999 -19zM199.002 -59c10 0 18.5 -3.49805 25.5 -10.498s10.833 -17.167 11.5 -30.5c2.66699 -22 -0.5 -49.667 -9.5 -83s-19.167 -55.333 -30.5 -66c-9.33398 -5.33301 -19.667 -5.33301 -31 0c11.333 13.333 21.333 33.166 30 59.499
s12.334 48.166 11 65.499c-2.66699 -0.666992 -5.66699 -1 -9 -1c-9.33398 0 -17.167 3 -23.5 9s-9.5 13.667 -9.5 23s3.16699 17.333 9.5 24s14.833 10 25.5 10z" />
    <glyph glyph-name="Rcaron" unicode="&#x158;" horiz-adv-x="624" 
d="M294 742l113 113.001c4.66699 -0.666992 10 -3.83398 16 -9.50098s9.66699 -10.834 11 -15.501l-120 -121c-13.333 -10.667 -26.666 -10.667 -39.999 0l-120 121c1.33301 4.67969 5.16602 9.84668 11.499 15.501c6.33301 5.69238 11.833 8.85938 16.5 9.5zM94 650.001
l233.001 -0.00195312c76.667 0 135.334 -19.333 176.001 -58s61 -87 61 -145c0 -49.333 -15 -92.166 -45 -128.499s-74.333 -59.166 -133 -68.499l192 -250c-6.66699 -2.66699 -15.834 -4 -27.501 -4s-20.834 1.33301 -27.501 4l-187 244h-195v-244
c-15.333 -6.66699 -31 -6.66699 -47 0v650zM142.001 608.999v-324.002h186c62.667 0 109.667 15.333 141 46s47 69.334 47 116.001s-15.667 85.334 -47 116.001s-78.333 46 -141 46h-186z" />
    <glyph glyph-name="rcaron" unicode="&#x159;" horiz-adv-x="395" 
d="M198 492l113.001 113.001c4.66699 -0.666992 10 -3.83398 16 -9.50098s9.66699 -10.834 11 -15.501l-120 -121c-13.334 -10.667 -26.667 -10.667 -40 0l-120 121c1.33301 4.67578 5.16602 9.84277 11.499 15.501c6.33301 5.68457 11.833 8.85156 16.5 9.5z
M353.001 396.001c2.66699 -3.33301 4.00195 -10.833 4.00195 -22.5s-1.33301 -19.5 -4 -23.5c-23.333 16 -52.333 24 -87 24c-48 0 -97 -33 -147 -99v-275c-14.667 -6 -29.334 -6 -44.001 0v400c13.333 5.33301 27 5.33301 41 0l3 -83c44 65.333 94.667 98 152 98
c33.333 0 60.666 -6.33301 81.999 -19z" />
    <glyph glyph-name="Sacute" unicode="&#x15a;" horiz-adv-x="569" 
d="M212 729l117 131.002c4.66699 -0.666992 10.5 -3.83398 17.5 -9.50098s10.833 -10.834 11.5 -15.501l-122 -126c-4.66699 0.666992 -9.5 3.16699 -14.5 7.5s-8.16699 8.5 -9.5 12.5zM277 665.002c76 0 138.997 -21.3369 188.997 -64.0039c2.66699 -4 4 -12.333 4 -25
s-1.33301 -20.667 -4 -24c-52 48 -114.667 72 -188 72c-49.333 0 -88.5 -12.167 -117.5 -36.5c-29 -24.334 -43.5 -54.167 -43.5 -89.499c0 -37.333 12.833 -65 38.5 -83s74.5 -38.667 146.5 -62c25.333 -8 45.833 -15.167 61.5 -21.5s33.167 -14.833 52.5 -25.5
s34.333 -22 45 -34s19.834 -27.167 27.501 -45.5c7.66699 -18.334 11.5 -39.167 11.5 -62.5c0 -53.333 -20.333 -96.5 -61 -129.5s-92.334 -49.5 -155 -49.5c-77.333 0 -144.666 22 -201.999 66c-2.66699 3.33301 -4 11.5 -4 24.5s1.33301 21.167 4 24.5
c59.333 -49.333 126.333 -74 201 -74c50 0 90.667 12.667 122 38s47 57.666 47 96.999c0 42.667 -14 73.834 -42 93.501s-75.667 39.834 -143 60.501c-32.667 10 -59 19.333 -79 28s-40.167 19.834 -60.5 33.501s-35.166 30.334 -44.499 50.001s-14 42.5 -14 68.5
c0 46.667 18.667 86.667 56 120s88 50 152 50z" />
    <glyph glyph-name="sacute" unicode="&#x15b;" horiz-adv-x="404" 
d="M129 479l117 131.002c4.66699 -0.666992 10.5 -3.83398 17.5 -9.50098s10.833 -10.834 11.5 -15.501l-122 -126c-4.66699 0.666992 -9.5 3.16699 -14.5 7.5s-8.16699 8.5 -9.5 12.5zM214 221.002c49.333 -16 85.333 -32.4971 108 -49.4971s34 -41.167 34 -72.5
c0 -36.667 -15.167 -64.834 -45.5 -84.501s-66.166 -29.5 -107.499 -29.5c-26.667 0 -53.5 4.16699 -80.5 12.5s-48.5 18.833 -64.5 31.5c-2.66699 3.33301 -4 10 -4 20s1.33301 16.333 4 19c45.333 -33.333 93 -50 143 -50c29.333 0 55.166 6.16699 77.499 18.5
s33.5 31.5 33.5 57.5c0 15.333 -5.5 28.666 -16.5 39.999s-23.167 19.666 -36.5 24.999c-13.334 5.33301 -35.667 13.333 -67 24c-50.667 17.333 -87.5 34 -110.5 50s-34.5 39.333 -34.5 70c0 34.667 14.5 62 43.5 82s63.833 30 104.5 30
c26.667 0 53.334 -4.16699 80.001 -12.5s48 -18.833 64 -31.5c2.66699 -3.33301 4 -10 4 -20s-1.33301 -16.333 -4 -19c-45.333 33.333 -92 50 -140 50c-28.667 0 -53.834 -6.33301 -75.501 -19s-32.5 -31 -32.5 -55c0 -11.333 2.5 -21 7.5 -29s14.167 -15.667 27.5 -23
s25.333 -13 36 -17s28 -10 52 -18z" />
    <glyph glyph-name="Scedilla" unicode="&#x15e;" horiz-adv-x="569" 
d="M500 164c0 -51.333 -19.002 -93.3369 -57.002 -126.004s-86.667 -50.334 -146 -53.001v-53c21.333 4.66699 42 0.5 62 -12.5s30 -32.5 30 -58.5c0 -23.333 -8 -41.833 -24 -55.5s-35.667 -20.5 -59 -20.5c-21.333 0 -40.333 5.66699 -57 17
c-2.66699 3.33301 -4 8.5 -4 15.5s1.33301 11.833 4 14.5c16.667 -12.667 34.667 -19 54 -19c16 0 29.333 4.33301 40 13s16 21 16 37c0 21.333 -9.5 35.833 -28.5 43.5s-39.833 6.83398 -62.5 -2.49902v81c-72.667 4.66699 -134.667 26.667 -186 66
c-2.66699 3.33301 -4 11.5 -4 24.5s1.33301 21.167 4 24.5c59.333 -49.333 126.333 -74 201 -74c50 0 90.667 12.667 122 38s47 57.666 47 96.999c0 42.667 -14 73.834 -42 93.501s-75.667 39.834 -143 60.501c-32.667 10 -59 19.333 -79 28s-40.167 19.834 -60.5 33.501
s-35.166 30.334 -44.499 50.001s-14 42.5 -14 68.5c0 46.667 18.667 86.667 56 120s88 50 152 50c76 0 139 -21.333 189 -64c2.66699 -4 4 -12.333 4 -25s-1.33301 -20.667 -4 -24c-52 48 -114.667 72 -188 72c-49.333 0 -88.5 -12.167 -117.5 -36.5
c-29 -24.334 -43.5 -54.167 -43.5 -89.499c0 -37.333 12.833 -65 38.5 -83s74.5 -38.667 146.5 -62c25.333 -8 45.833 -15.167 61.5 -21.5s33.167 -14.833 52.5 -25.5s34.333 -22 45 -34s19.834 -27.167 27.501 -45.5c7.66699 -18.334 11.5 -39.167 11.5 -62.5z" />
    <glyph glyph-name="scedilla" unicode="&#x15f;" horiz-adv-x="404" 
d="M356 99c0 -36.667 -14.666 -64.665 -43.999 -83.998s-64.333 -29.333 -105 -30v-53c21.333 4.66699 42 0.5 62 -12.5s30 -32.5 30 -58.5c0 -23.333 -8 -41.833 -24 -55.5s-35.667 -20.5 -59 -20.5c-21.333 0 -40.333 5.66699 -57 17c-2.66699 3.33301 -4 8.5 -4 15.5
s1.33301 11.833 4 14.5c16.667 -12.667 34.667 -19 54 -19c16 0 29.333 4.33301 40 13s16 21 16 37c0 21.333 -9.5 35.833 -28.5 43.5s-39.833 6.83398 -62.5 -2.49902v82c-51.333 5.33301 -91.333 19.666 -120 42.999c-2.66699 3.33301 -4 10 -4 20s1.33301 16.333 4 19
c45.333 -33.333 93 -50 143 -50c29.333 0 55.166 6.16699 77.499 18.5s33.5 31.5 33.5 57.5c0 15.333 -5.5 28.666 -16.5 39.999s-23.167 19.666 -36.5 24.999c-13.334 5.33301 -35.667 13.333 -67 24c-50.667 17.333 -87.5 34 -110.5 50s-34.5 39.333 -34.5 70
c0 34.667 14.5 62 43.5 82s63.833 30 104.5 30c26.667 0 53.334 -4.16699 80.001 -12.5s48 -18.833 64 -31.5c2.66699 -3.33301 4 -10 4 -20s-1.33301 -16.333 -4 -19c-45.333 33.333 -92 50 -140 50c-28.667 0 -53.834 -6.33301 -75.501 -19s-32.5 -31 -32.5 -55
c0 -11.333 2.5 -21 7.5 -29s14.167 -15.667 27.5 -23s25.333 -13 36 -17s28 -10 52 -18c49.333 -16 85.333 -32.5 108 -49.5s34 -41.167 34 -72.5z" />
    <glyph glyph-name="Scaron" unicode="&#x160;" horiz-adv-x="569" 
d="M285 742l113 113.001c4.66699 -0.666992 10 -3.83398 16 -9.50098s9.66699 -10.834 11 -15.501l-120 -121c-13.333 -10.667 -26.666 -10.667 -39.999 0l-120 121c1.33301 4.67969 5.16602 9.84668 11.499 15.501c6.33301 5.69238 11.833 8.85938 16.5 9.5zM277 665.001
c76 0 138.997 -21.3369 188.997 -64.0039c2.66699 -4 4 -12.333 4 -25s-1.33301 -20.667 -4 -24c-52 48 -114.667 72 -188 72c-49.333 0 -88.5 -12.167 -117.5 -36.5c-29 -24.334 -43.5 -54.167 -43.5 -89.499c0 -37.333 12.833 -65 38.5 -83s74.5 -38.667 146.5 -62
c25.333 -8 45.833 -15.167 61.5 -21.5s33.167 -14.833 52.5 -25.5s34.333 -22 45 -34s19.834 -27.167 27.501 -45.5c7.66699 -18.334 11.5 -39.167 11.5 -62.5c0 -53.333 -20.333 -96.5 -61 -129.5s-92.334 -49.5 -155 -49.5c-77.333 0 -144.666 22 -201.999 66
c-2.66699 3.33301 -4 11.5 -4 24.5s1.33301 21.167 4 24.5c59.333 -49.333 126.333 -74 201 -74c50 0 90.667 12.667 122 38s47 57.666 47 96.999c0 42.667 -14 73.834 -42 93.501s-75.667 39.834 -143 60.501c-32.667 10 -59 19.333 -79 28s-40.167 19.834 -60.5 33.501
s-35.166 30.334 -44.499 50.001s-14 42.5 -14 68.5c0 46.667 18.667 86.667 56 120s88 50 152 50z" />
    <glyph glyph-name="scaron" unicode="&#x161;" horiz-adv-x="404" 
d="M202 492l113.001 113.001c4.66699 -0.666992 10 -3.83398 16 -9.50098s9.66699 -10.834 11 -15.501l-120 -121c-13.334 -10.667 -26.667 -10.667 -40 0l-120 121c1.33301 4.67578 5.16602 9.84277 11.499 15.501c6.33301 5.68457 11.833 8.85156 16.5 9.5z
M214.001 221.001c49.333 -16 85.333 -32.4971 108 -49.4971s34 -41.167 34 -72.5c0 -36.667 -15.167 -64.834 -45.5 -84.501s-66.166 -29.5 -107.499 -29.5c-26.667 0 -53.5 4.16699 -80.5 12.5s-48.5 18.833 -64.5 31.5c-2.66699 3.33301 -4 10 -4 20s1.33301 16.333 4 19
c45.333 -33.333 93 -50 143 -50c29.333 0 55.166 6.16699 77.499 18.5s33.5 31.5 33.5 57.5c0 15.333 -5.5 28.666 -16.5 39.999s-23.167 19.666 -36.5 24.999c-13.334 5.33301 -35.667 13.333 -67 24c-50.667 17.333 -87.5 34 -110.5 50s-34.5 39.333 -34.5 70
c0 34.667 14.5 62 43.5 82s63.833 30 104.5 30c26.667 0 53.334 -4.16699 80.001 -12.5s48 -18.833 64 -31.5c2.66699 -3.33301 4 -10 4 -20s-1.33301 -16.333 -4 -19c-45.333 33.333 -92 50 -140 50c-28.667 0 -53.834 -6.33301 -75.501 -19s-32.5 -31 -32.5 -55
c0 -11.333 2.5 -21 7.5 -29s14.167 -15.667 27.5 -23s25.333 -13 36 -17s28 -10 52 -18z" />
    <glyph glyph-name="Tcedilla" unicode="&#x162;" horiz-adv-x="585" 
d="M316 609v-609.001l-9 -3v-65c21.333 4.66699 42 0.5 62 -12.5s30 -32.5 30 -58.5c0 -23.333 -8 -41.833 -24 -55.5s-35.667 -20.5 -59 -20.5c-21.333 0 -40.333 5.66699 -57 17c-2.6709 3.33301 -4.00391 8.5 -4 15.5c0 7 1.33301 11.833 4 14.5
c16.667 -12.667 34.667 -19 54 -19c16 0 29.333 4.33301 40 13s16 21 16 37c0 21.333 -9.5 35.833 -28.5 43.5s-39.833 6.83398 -62.5 -2.49902v93c-2.66699 0.666992 -6 1.66699 -10 3v609h-226c-5.33301 14 -5.33301 27.667 0 41h501c4.66699 -13.333 4.66699 -27 0 -41
h-227z" />
    <glyph glyph-name="tcedilla" unicode="&#x163;" horiz-adv-x="357" 
d="M213 -15l-0.000976562 -53.0029c21.333 4.66699 42 0.5 62 -12.5s30 -32.5 30 -58.5c0 -23.333 -8 -41.833 -24 -55.5s-35.667 -20.5 -59 -20.5c-21.333 0 -40.333 5.66699 -57 17c-2.66699 3.33301 -4 8.5 -4 15.5s1.33301 11.833 4 14.5
c16.667 -12.667 34.667 -19 54 -19c16 0 29.333 4.33301 40 13s16 21 16 37c0 21.333 -9.5 35.833 -28.5 43.5s-39.833 6.83398 -62.5 -2.49902v82c-23.333 4 -41.833 14.333 -55.5 31s-20.5 39.334 -20.5 68.001v277h-66c-6 12 -6 24.667 0 38h66v130
c14.667 6 29.667 6 45 0v-130h141c6 -13.333 6 -26 0 -38h-141v-273c0 -44 18.667 -66 56 -66c25.333 0 57 14 95 42c2.66699 -3.33301 3.83398 -10.166 3.50098 -20.499s-1.5 -17.5 -3.5 -21.5c-26 -22 -56.333 -34.667 -91 -38z" />
    <glyph glyph-name="Tcaron" unicode="&#x164;" horiz-adv-x="585" 
d="M292 742l113 113.001c4.66699 -0.666992 10 -3.83398 16 -9.50098s9.66699 -10.834 11 -15.501l-120 -121c-13.333 -10.667 -26.666 -10.667 -39.999 0l-120 121c1.33301 4.67969 5.16602 9.84668 11.499 15.501c6.33301 5.69238 11.833 8.85938 16.5 9.5zM42 650.001
h501c4.66699 -13.333 4.66699 -27 0 -41h-227v-609c-15.333 -6.66699 -31.333 -6.66699 -48 0v609h-226c-5.33301 14 -5.33301 27.667 0 41z" />
    <glyph glyph-name="tcaron" unicode="&#x165;" horiz-adv-x="357" 
d="M313 665c10 0 18.665 -3.5 25.998 -10.5s11.333 -16.833 12 -29.5c2.66699 -20.667 -0.5 -46.167 -9.5 -76.5c-9 -30.334 -19.167 -50.834 -30.5 -61.5c-9.33301 -5.33301 -19.666 -5.33301 -30.999 0c11.334 11.334 21.167 28.834 29.5 52.5
c8.33594 23.6689 12.1689 43.8359 11.5 60.5c-2.66699 -0.666992 -5.66699 -1 -9 -1c-9.33301 0 -17.166 3 -23.499 9s-9.5 13.667 -9.5 23s3.16699 17.333 9.5 24s14.5 10 24.5 10zM303.998 65c2.66699 -3.33301 3.83301 -10.167 3.5 -20.5s-1.5 -17.5 -3.5 -21.5
c-32 -25.333 -66 -38 -102 -38c-28 0 -50.667 8.5 -68 25.5s-26 41.833 -26 74.5v277h-66c-6 12 -6 24.667 0 38h66v130c14.667 6 29.667 6 45 0v-130h141c6 -13.333 6 -26 0 -38h-141v-273c0 -44 18.667 -66 56 -66c25.333 0 57 14 95 42z" />
    <glyph glyph-name="Tbar" unicode="&#x166;" horiz-adv-x="585" 
d="M316 609v-209h110c6 -12 6 -24 0 -36h-110v-364c-15.333 -6.66699 -31.333 -6.66699 -48 0v364h-110c-6 12 -6 24 0 36h110v209h-226c-5.33301 14 -5.33301 27.667 0 41h501c4.66699 -13.333 4.66699 -27 0 -41h-227z" />
    <glyph glyph-name="tbar" unicode="&#x167;" horiz-adv-x="357" 
d="M304 65c2.66699 -3.33301 3.83301 -10.167 3.5 -20.5s-1.5 -17.5 -3.5 -21.5c-32 -25.333 -66 -38 -102 -38c-28 0 -50.667 8.5 -68 25.5s-26 41.833 -26 74.5v151h-66c-5.33301 11.333 -5.33301 22.666 0 33.999h66v92h-66c-6 12 -6 24.667 0 38h66v130
c14.667 6 29.667 6 45 0v-130h141c6 -13.333 6 -26 0 -38h-141v-92h141c5.33301 -11.333 5.33301 -22.666 0 -33.999h-141v-147c0 -44 18.667 -66 56 -66c25.333 0 57 14 95 42z" />
    <glyph glyph-name="Umacron" unicode="&#x16a;" horiz-adv-x="697" 
d="M219 791h259c6 -11.333 6 -23.333 0 -36l-259 1c-6 12 -6 23.667 0 35zM560 239v411c16 6.66699 32 6.66699 48 0v-406c0 -81.333 -23.167 -144.833 -69.5 -190.5s-108.833 -68.5 -187.5 -68.5c-79.333 0 -142 22.667 -188 68s-69 109 -69 191v406
c16 6.66699 32 6.66699 48 0v-411c0 -66 18.833 -118 56.5 -156s88.5 -57 152.5 -57s114.833 19 152.5 57s56.5 90 56.5 156z" />
    <glyph glyph-name="umacron" unicode="&#x16b;" horiz-adv-x="511" 
d="M126 541h259c6 -11.333 6 -23.333 0 -36l-259 1c-6 12 -6 23.667 0 35zM394 104l-0.00390625 296.001c14.667 6 29.334 6 44.001 0v-400c-13.333 -5.33301 -26.666 -5.33301 -39.999 0l-3 66c-48.667 -54 -103 -81 -163 -81c-53.333 0 -93.333 15.167 -120 45.5
s-40 69.833 -40 118.5v251c14.667 6 29.334 6 44.001 0v-244c0 -40.667 10.333 -72.834 31 -96.501s52.334 -35.5 95.001 -35.5c30 0 58.833 8.83301 86.5 26.5s49.5 35.5 65.5 53.5z" />
    <glyph glyph-name="Uring" unicode="&#x16e;" horiz-adv-x="697" 
d="M350 868c22 0 40.667 -7.66699 56 -23s23 -33 23 -53c0 -22.667 -7.66699 -41.5 -23 -56.5s-34 -22.5 -56 -22.5c-22.667 0 -41.667 7.5 -57 22.5s-23 33.833 -23 56.5c0 20.667 7.66699 38.5 23 53.5s34.333 22.5 57 22.5zM350 838
c-14.667 0 -26.335 -4.66699 -35.001 -14c-8.66699 -9.33301 -13 -20 -13 -32c0 -13.333 4.33301 -24.833 13 -34.5s20.334 -14.5 35.001 -14.5c14 0 25.5 4.83301 34.5 14.5s13.5 21.167 13.5 34.5c0 12 -4.5 22.667 -13.5 32s-20.5 14 -34.5 14zM559.999 239v411
c16 6.66699 32 6.66699 48 0v-406c0 -81.333 -23.167 -144.833 -69.5 -190.5s-108.833 -68.5 -187.5 -68.5c-79.333 0 -142 22.667 -188 68s-69 109 -69 191v406c16 6.66699 32 6.66699 48 0v-411c0 -66 18.833 -118 56.5 -156s88.5 -57 152.5 -57s114.833 19 152.5 57
s56.5 90 56.5 156z" />
    <glyph glyph-name="uring" unicode="&#x16f;" horiz-adv-x="511" 
d="M256 618c22 0 40.667 -7.66699 56 -23s23 -33 23 -53c0 -22.667 -7.66699 -41.5 -23 -56.5s-34 -22.5 -56 -22.5c-22.667 0 -41.667 7.5 -57 22.5c-15.333 15.002 -23 33.835 -23 56.5c0 20.667 7.66699 38.5 23 53.5s34.333 22.5 57 22.5zM256 588
c-14.667 0 -26.333 -4.66699 -35 -14s-13 -20 -13 -32c0 -13.333 4.33301 -24.833 13 -34.5s20.334 -14.5 35 -14.5c14 0 25.5 4.83301 34.5 14.5s13.5 21.167 13.5 34.5c0 12 -4.5 22.667 -13.5 32s-20.5 14 -34.5 14zM394.001 104l-0.00390625 296.001
c14.667 6 29.334 6 44.001 0v-400c-13.333 -5.33301 -26.666 -5.33301 -39.999 0l-3 66c-48.667 -54 -103 -81 -163 -81c-53.333 0 -93.333 15.167 -120 45.5s-40 69.833 -40 118.5v251c14.667 6 29.334 6 44.001 0v-244c0 -40.667 10.333 -72.834 31 -96.501
s52.334 -35.5 95.001 -35.5c30 0 58.833 8.83301 86.5 26.5s49.5 35.5 65.5 53.5z" />
    <glyph glyph-name="Uhungarumlaut" unicode="&#x170;" horiz-adv-x="697" 
d="M233 729l117 131.002c4.66699 -0.666992 10.5 -3.83398 17.5 -9.50098s10.833 -10.834 11.5 -15.501l-122 -126c-4.66699 0.666992 -9.5 3.16699 -14.5 7.5s-8.16699 8.5 -9.5 12.5zM350 729.002l117 131.002c4.66699 -0.666992 10.5 -3.83398 17.5 -9.50098
s10.833 -10.834 11.5 -15.501l-122 -126c-4.66699 0.666992 -9.5 3.16699 -14.5 7.5s-8.16699 8.5 -9.5 12.5zM560 239.004v411c16 6.66699 32 6.66699 48 0v-406c0 -81.333 -23.167 -144.833 -69.5 -190.5s-108.833 -68.5 -187.5 -68.5c-79.333 0 -142 22.667 -188 68
s-69 109 -69 191v406c16 6.66699 32 6.66699 48 0v-411c0 -66 18.833 -118 56.5 -156s88.5 -57 152.5 -57s114.833 19 152.5 57s56.5 90 56.5 156z" />
    <glyph glyph-name="uhungarumlaut" unicode="&#x171;" horiz-adv-x="511" 
d="M139 479l117 131.002c4.66699 -0.666992 10.5 -3.83398 17.5 -9.50098s10.833 -10.834 11.5 -15.501l-122 -126c-4.66699 0.666992 -9.5 3.16699 -14.5 7.5s-8.16699 8.5 -9.5 12.5zM257 479.002l117 131.002c4.66699 -0.666992 10.5 -3.83398 17.5 -9.50098
s10.833 -10.834 11.5 -15.501l-122 -126c-4.66699 0.666992 -9.5 3.16699 -14.5 7.5s-8.16699 8.5 -9.5 12.5zM394 104.004l-0.00390625 296.001c14.667 6 29.334 6 44.001 0v-400c-13.333 -5.33301 -26.666 -5.33301 -39.999 0l-3 66c-48.667 -54 -103 -81 -163 -81
c-53.333 0 -93.333 15.167 -120 45.5s-40 69.833 -40 118.5v251c14.667 6 29.334 6 44.001 0v-244c0 -40.667 10.333 -72.834 31 -96.501s52.334 -35.5 95.001 -35.5c30 0 58.833 8.83301 86.5 26.5s49.5 35.5 65.5 53.5z" />
    <glyph glyph-name="Uogonek" unicode="&#x172;" horiz-adv-x="697" 
d="M560 239v410.998c16 6.66699 32 6.66699 48 0v-406c0 -62.667 -13.833 -115 -41.5 -157s-66.5 -71 -116.5 -87c-22.667 -10 -41 -25 -55 -45s-21 -40.333 -21 -61c0 -21.333 6.83301 -39.166 20.5 -53.499s32.167 -21.5 55.5 -21.5c12 0 21.667 1.33301 29 4
c6 -10 6 -20.667 0 -32c-8 -2.66699 -19 -4 -33 -4c-29.333 0 -53.833 9.33301 -73.5 28s-29.5 42.334 -29.5 71.001c0 42 19.667 76.333 59 103c-14 -2.66699 -31 -4 -51 -4c-79.333 0 -142 22.667 -188 68s-69 109 -69 191v406c16 6.66699 32 6.66699 48 0v-411
c0 -66 18.833 -118 56.5 -156s88.5 -57 152.5 -57s114.833 19 152.5 57s56.5 90 56.5 156z" />
    <glyph glyph-name="uogonek" unicode="&#x173;" horiz-adv-x="511" 
d="M462 -179c6 -10 5.99707 -20.6689 -0.00292969 -32.002c-8 -2.66699 -19 -4 -33 -4c-29.333 0 -53.833 9.33301 -73.5 28s-29.5 42.334 -29.5 71.001c0 23.333 7.33301 45.333 22 66s33.667 36.667 57 48l-7 2l-3 66c-48.667 -54 -103 -81 -163 -81
c-53.333 0 -93.333 15.167 -120 45.5s-40 69.833 -40 118.5v251c14.667 6 29.334 6 44.001 0v-244c0 -40.667 10.333 -72.834 31 -96.501s52.334 -35.5 95.001 -35.5c30 0 58.833 8.83301 86.5 26.5s49.5 35.5 65.5 53.5v296c14.667 6 29.334 6 44.001 0l-1 -400
c-24 -10 -43.333 -25.167 -58 -45.5s-22 -41.166 -22 -62.499s6.83301 -39.166 20.5 -53.499s32.167 -21.5 55.5 -21.5c12 0 21.667 1.33301 29 4z" />
    <glyph glyph-name="Wcircumflex" unicode="&#x174;" horiz-adv-x="1002" 
d="M521 850l119.999 -120.999c-0.666992 -4.66699 -4.16699 -9.83398 -10.5 -15.501s-11.833 -9.16699 -16.5 -10.5l-113 114l-112 -114c-4.66699 0.666992 -10.167 4 -16.5 10s-10.166 11.333 -11.499 16l120 121c5.33301 4 12 6 20 6s14.667 -2 20 -6zM962.999 650.001
l-224 -650c-14 -6 -28 -6 -42 0l-196 575l-197 -575c-14 -6 -28 -6 -42 0l-224 650c16 6.66699 32 6.66699 48 0l197 -580l197 580c13.333 6 27 6 41 0l197 -580l197 580c16 6.66699 32 6.66699 48 0z" />
    <glyph glyph-name="wcircumflex" unicode="&#x175;" horiz-adv-x="690" 
d="M365 600l120 -120.999c-0.666992 -4.66797 -4.16699 -9.83496 -10.5 -15.501c-6.33301 -5.66699 -11.833 -9.16699 -16.5 -10.5l-113 114l-112 -114c-4.66699 0.666992 -10.167 4 -16.5 10c-6.33398 6 -10.167 11.333 -11.5 16l120 121c5.33301 4 12 6 20 6
s14.667 -2 20 -6zM183 0.000976562l-145 400c15.333 6.66699 31 6.66699 47 0l119 -338l121 338c13.334 6.66699 26.667 6.66699 40 0l122 -338l117 338c16 6 31.667 6 47 0l-145 -400c-13.333 -6.66699 -26.333 -6.66699 -39 0l-122 340l-122 -340
c-13.334 -6.66699 -26.667 -6.66699 -40 0z" />
    <glyph glyph-name="Ycircumflex" unicode="&#x176;" horiz-adv-x="626" 
d="M334 850l120 -120.999c-0.666992 -4.66699 -4.16699 -9.83398 -10.5 -15.501s-11.833 -9.16699 -16.5 -10.5l-113 114l-112 -114c-4.66699 0.666992 -10.167 4 -16.5 10c-6.33398 6 -10.167 11.333 -11.5 16l120 121c5.33301 4 12 6 20 6s14.667 -2 20 -6zM337 251.001
v-251c-15.333 -6.66699 -31.333 -6.66699 -48 0v250l-251 400c6 2.66699 14.667 4 26 4s20 -1.33301 26 -4l223 -354l223 354c16.667 6.66699 34 6.66699 52 0z" />
    <glyph glyph-name="ycircumflex" unicode="&#x177;" horiz-adv-x="494" 
d="M267 600l119.999 -120.999c-0.666992 -4.66797 -4.16699 -9.83496 -10.5 -15.501c-6.33301 -5.66699 -11.833 -9.16699 -16.5 -10.5l-113 114l-112 -114c-4.66699 0.666992 -10.167 4 -16.5 10s-10.166 11.333 -11.499 16l120 121c5.33301 4 12 6 20 6s14.667 -2 20 -6z
M247.999 79.001l160 321c16.667 6.66699 32.667 6.66699 48 0l-283 -563c-15.333 -6 -31 -6 -47 0l99 195l-187 368c15.333 6.66699 31 6.66699 47 0z" />
    <glyph glyph-name="Ydieresis" unicode="&#x178;" horiz-adv-x="626" 
d="M196 821c9.33301 0 17.167 -3.16699 23.5 -9.5s9.5 -13.833 9.5 -22.5c0 -10 -3.16699 -18.167 -9.5 -24.5c-6.33398 -6.33301 -14.167 -9.5 -23.5 -9.5c-10 0 -18.333 3.16699 -25 9.5s-10 14.5 -10 24.5c0 9.33301 3.33301 17 10 23s15 9 25 9zM432.001 821
c9.33496 0 17.167 -3.16699 23.499 -9.5c6.33301 -6.33301 9.5 -13.833 9.5 -22.5c0 -10 -3.16699 -18.167 -9.5 -24.5s-14.166 -9.5 -23.499 -9.5c-10 0 -18.333 3.16699 -25 9.5s-10 14.5 -10 24.5c0 9.33301 3.33301 17 10 23s15 9 25 9zM337 251v-251
c-15.333 -6.66699 -31.333 -6.66699 -48 0v250l-251 400c6 2.66699 14.667 4 26 4s20 -1.33301 26 -4l223 -354l223 354c16.667 6.66699 34 6.66699 52 0z" />
    <glyph glyph-name="Zacute" unicode="&#x179;" horiz-adv-x="547" 
d="M201 729l117 131.002c4.66699 -0.666992 10.5 -3.83398 17.5 -9.50098s10.833 -10.834 11.5 -15.501l-122 -126c-4.66699 0.666992 -9.5 3.16699 -14.5 7.5s-8.16699 8.5 -9.5 12.5zM117 41.002h379c5.33301 -14 5.33301 -27.667 0 -41h-449v9l383 600h-371
c-4.66699 14 -4.66699 27.667 0 41h441v-9z" />
    <glyph glyph-name="zacute" unicode="&#x17a;" horiz-adv-x="419" 
d="M137 479l117 131.002c4.66699 -0.666992 10.5 -3.83398 17.5 -9.50098s10.833 -10.834 11.5 -15.501l-122 -126c-4.66699 0.666992 -9.5 3.16699 -14.5 7.5s-8.16699 8.5 -9.5 12.5zM111 39.002h262c4.66699 -12.667 4.66699 -25.667 0 -39h-330v8l266 353h-253
c-5.33301 13.333 -5.33301 26.333 0 39h320v-8z" />
    <glyph glyph-name="Zdotaccent" unicode="&#x17b;" horiz-adv-x="547" 
d="M274 755c-10 0 -18.333 3.16699 -25 9.5s-10 14.5 -10 24.5c0 9.33301 3.33301 17 10 23s15 9 25 9c9.33398 0 17.167 -3.16699 23.499 -9.5c6.33301 -6.33301 9.5 -13.833 9.5 -22.5c0 -10 -3.16699 -18.167 -9.5 -24.5s-14.166 -9.5 -23.499 -9.5zM117 41h379
c5.33301 -14 5.33301 -27.667 0 -41h-449v9l383 600h-371c-4.66699 14 -4.66699 27.667 0 41h441v-9z" />
    <glyph glyph-name="zdotaccent" unicode="&#x17c;" horiz-adv-x="419" 
d="M211 505c-10 0 -18.332 3.16699 -24.999 9.5s-10 14.5 -10 24.5c0 9.33301 3.33301 17 10 23s15 9 25 9c9.33301 0 17.166 -3.16699 23.499 -9.5s9.5 -13.833 9.5 -22.5c0 -10 -3.16699 -18.167 -9.5 -24.5c-6.33398 -6.33301 -14.167 -9.5 -23.5 -9.5zM111.001 39h262
c4.66699 -12.667 4.66699 -25.667 0 -39h-330v8l266 353h-253c-5.33301 13.333 -5.33301 26.333 0 39h320v-8z" />
    <glyph glyph-name="Zcaron" unicode="&#x17d;" horiz-adv-x="547" 
d="M274 742l113 113.001c4.66699 -0.666992 10 -3.83398 16 -9.50098s9.66699 -10.834 11 -15.501l-120 -121c-13.333 -10.667 -26.666 -10.667 -39.999 0l-120 121c1.33301 4.67969 5.16602 9.84668 11.499 15.501c6.33301 5.69238 11.833 8.85938 16.5 9.5zM117 41.001
h379c5.33301 -14 5.33301 -27.667 0 -41h-449v9l383 600h-371c-4.66699 14 -4.66699 27.667 0 41h441v-9z" />
    <glyph glyph-name="zcaron" unicode="&#x17e;" horiz-adv-x="419" 
d="M210 492l113.001 113.001c4.66699 -0.666992 10 -3.83398 16 -9.50098s9.66699 -10.834 11 -15.501l-120 -121c-13.334 -10.667 -26.667 -10.667 -40 0l-120 121c1.33301 4.67578 5.16602 9.84277 11.499 15.501c6.33301 5.68457 11.833 8.85156 16.5 9.5z
M111.001 39.001h262c4.66699 -12.667 4.66699 -25.667 0 -39h-330v8l266 353h-253c-5.33301 13.333 -5.33301 26.333 0 39h320v-8z" />
    <glyph glyph-name="Acaron" unicode="&#x1cd;" horiz-adv-x="670" 
d="M335 742l113 113.001c4.66699 -0.666992 10 -3.83398 16 -9.50098s9.66699 -10.834 11 -15.501l-120 -121c-13.333 -10.667 -26.666 -10.667 -39.999 0l-120 121c1.33301 4.67969 5.16602 9.84668 11.499 15.501c6.33301 5.69238 11.833 8.85938 16.5 9.5zM356 650.001
l275 -650c-16.667 -6.66699 -33 -6.66699 -49 0l-85 200h-325l-85 -200c-16.667 -6.66699 -33 -6.66699 -49 0l275 650c14.667 6 29 6 43 0zM188 241.001h295l-148 349z" />
    <glyph glyph-name="acaron" unicode="&#x1ce;" horiz-adv-x="488" 
d="M243 492l113 113.001c4.66699 -0.666992 10 -3.83398 16 -9.50098s9.66699 -10.834 11 -15.501l-120 -121c-13.334 -10.667 -26.667 -10.667 -40 0l-120 121c1.33398 4.67578 5.16699 9.84277 11.5 15.501c6.33301 5.68457 11.833 8.85156 16.5 9.5zM241 415.001
c57.333 0 100.832 -15.501 130.499 -46.501s44.5 -73.5 44.5 -127.5v-241c-13.333 -5.33301 -26.666 -5.33301 -39.999 0l-2 52c-18.667 -17.333 -43.167 -32.833 -73.5 -46.5s-62.5 -20.5 -96.5 -20.5c-45.333 0 -81.833 12 -109.5 36s-41.5 55.333 -41.5 94
s13.833 69.834 41.5 93.501s64.5 35.5 110.5 35.5c34 0 66 -6.5 96 -19.5s53.667 -27.167 71 -42.5v62c0 42 -11.5 74.833 -34.5 98.5s-57.167 35.5 -102.5 35.5c-48 0 -95 -16 -141 -48c-2.66699 2.66699 -4 9.16699 -4 19.5c0 10.335 1.33301 17.168 4 20.5
c38 30 87 45 147 45zM211.999 213c-35.333 0 -63.334 -9 -84.001 -27s-31 -41 -31 -69s10.167 -51 30.5 -69s48.5 -27 84.5 -27c32 0 63.333 7.33301 94 22s52.334 29 65.001 43v62c-12.667 14 -34.334 28.333 -65 43c-30.667 14.667 -62 22 -94 22z" />
    <glyph glyph-name="Icaron" unicode="&#x1cf;" horiz-adv-x="236" 
d="M118 742l112 113.001c4.66699 -0.666992 10.167 -3.83398 16.5 -9.50098s10.166 -10.834 11.499 -15.501l-120 -121c-13.333 -10.667 -26.666 -10.667 -39.999 0l-120 121c0.666992 4.67969 4.16699 9.84668 10.5 15.501c6.33301 5.69238 11.833 8.85938 16.5 9.5z
M141 650.001v-650c-15.333 -6.66699 -31 -6.66699 -47 0v650c15.333 6.66699 31 6.66699 47 0z" />
    <glyph glyph-name="icaron" unicode="&#x1d0;" horiz-adv-x="197" 
d="M100 492l112 113.001c4.66699 -0.666992 10.167 -3.83398 16.5 -9.50098s10.166 -10.834 11.499 -15.501l-120 -121c-13.333 -10.667 -26.666 -10.667 -39.999 0l-120 121c1.33301 4.67578 5 9.84277 11 15.501c6 5.68457 11.333 8.85156 16 9.5zM121 400.001v-400
c-14.667 -6 -29.334 -6 -44.001 0v400c14.667 6 29.334 6 44.001 0z" />
    <glyph glyph-name="Ocaron" unicode="&#x1d1;" horiz-adv-x="817" 
d="M408 742l113 113.001c4.66699 -0.666992 10 -3.83398 16 -9.50098s9.66699 -10.834 11 -15.501l-120 -121c-13.333 -10.667 -26.666 -10.667 -39.999 0l-120 121c1.33496 4.67969 5.16797 9.84668 11.499 15.501c6.33301 5.69238 11.833 8.85938 16.5 9.5zM408 665.001
c98.667 0 180 -32.833 244 -98.5s96 -146.167 96 -241.5s-32 -175.833 -96 -241.5s-145.333 -98.5 -244 -98.5s-179.834 32.833 -243.501 98.5s-95.5 146.167 -95.5 241.5s31.833 175.833 95.5 241.5s144.834 98.5 243.501 98.5zM408 624.001
c-84 0 -153.5 -28.5 -208.5 -85.5s-82.5 -128.167 -82.5 -213.5s27.5 -156.5 82.5 -213.5s124.5 -85.5 208.5 -85.5c84.667 0 154.5 28.5 209.5 85.5s82.5 128.167 82.5 213.5s-27.5 156.5 -82.5 213.5s-124.833 85.5 -209.5 85.5z" />
    <glyph glyph-name="ocaron" unicode="&#x1d2;" horiz-adv-x="542" 
d="M271 492l113 113.001c4.66699 -0.666992 10 -3.83398 16 -9.50098s9.66699 -10.834 11 -15.501l-120 -121c-13.333 -10.667 -26.666 -10.667 -39.999 0l-120 121c1.33301 4.67578 5.16602 9.84277 11.499 15.501c6.33301 5.68457 11.833 8.85156 16.5 9.5zM271 415.001
c61.333 0 112.5 -20.667 153.5 -62s61.5 -92.333 61.5 -153s-20.5 -111.667 -61.5 -153s-92.167 -62 -153.5 -62c-62 0 -113.333 20.667 -154 62s-61 92.333 -61 153s20.333 111.667 61 153s92 62 154 62zM271 376.001c-48.667 0 -89.168 -16.667 -121.501 -50
s-48.5 -75.333 -48.5 -126s16.167 -92.667 48.5 -126s72.833 -50 121.5 -50c49.334 0 90.167 16.667 122.5 50s48.5 75.333 48.5 126s-16.167 92.667 -48.5 126s-73.166 50 -122.499 50z" />
    <glyph glyph-name="Ucaron" unicode="&#x1d3;" horiz-adv-x="697" 
d="M349 742l113 113.001c4.66699 -0.666992 10 -3.83398 16 -9.50098s9.66699 -10.834 11 -15.501l-120 -121c-13.333 -10.667 -26.666 -10.667 -39.999 0l-120 121c1.33301 4.67969 5.16602 9.84668 11.499 15.501c6.33301 5.69238 11.833 8.85938 16.5 9.5zM560 239.001
v411c16 6.66699 32 6.66699 48 0v-406c0 -81.333 -23.167 -144.833 -69.5 -190.5s-108.833 -68.5 -187.5 -68.5c-79.333 0 -142 22.667 -188 68s-69 109 -69 191v406c16 6.66699 32 6.66699 48 0v-411c0 -66 18.833 -118 56.5 -156s88.5 -57 152.5 -57s114.833 19 152.5 57
s56.5 90 56.5 156z" />
    <glyph glyph-name="ucaron" unicode="&#x1d4;" horiz-adv-x="511" 
d="M256 492l112.999 113.001c4.66699 -0.666992 10 -3.83398 16 -9.50098s9.66699 -10.834 11 -15.501l-120 -121c-13.333 -10.667 -26.666 -10.667 -39.999 0l-120 121c1.33398 4.67578 5.16699 9.84277 11.5 15.501c6.33301 5.68457 11.833 8.85156 16.5 9.5z
M393.999 104.001l-0.00390625 296.001c14.667 6 29.334 6 44.001 0v-400c-13.333 -5.33301 -26.666 -5.33301 -39.999 0l-3 66c-48.667 -54 -103 -81 -163 -81c-53.333 0 -93.333 15.167 -120 45.5s-40 69.833 -40 118.5v251c14.667 6 29.334 6 44.001 0v-244
c0 -40.667 10.333 -72.834 31 -96.501s52.334 -35.5 95.001 -35.5c30 0 58.833 8.83301 86.5 26.5s49.5 35.5 65.5 53.5z" />
    <glyph glyph-name="Udieresismacron" unicode="&#x1d5;" horiz-adv-x="697" 
d="M219 931h259c6 -12 6 -24 0 -36h-259c-6 12 -6 24 0 36zM232 821c9.33301 0 17.167 -3.16699 23.5 -9.5s9.5 -13.833 9.5 -22.5c0 -10 -3.16699 -18.167 -9.5 -24.5c-6.33398 -6.33301 -14.167 -9.5 -23.5 -9.5c-10 0 -18.333 3.16699 -25 9.5s-10 14.5 -10 24.5
c0 9.33301 3.33301 17 10 23s15 9 25 9zM468.001 821c9.33496 0 17.168 -3.16699 23.499 -9.5c6.33301 -6.33301 9.5 -13.833 9.5 -22.5c0 -10 -3.16699 -18.167 -9.5 -24.5s-14.166 -9.5 -23.499 -9.5c-10 0 -18.333 3.16699 -25 9.5s-10 14.5 -10 24.5
c0 9.33301 3.33301 17 10 23s15 9 25 9zM560.001 239v411c16 6.66699 32 6.66699 48 0v-406c0 -81.333 -23.167 -144.833 -69.5 -190.5s-108.833 -68.5 -187.5 -68.5c-79.333 0 -142 22.667 -188 68s-69 109 -69 191v406c16 6.66699 32 6.66699 48 0v-411
c0 -66 18.833 -118 56.5 -156s88.5 -57 152.5 -57s114.833 19 152.5 57s56.5 90 56.5 156z" />
    <glyph glyph-name="udieresismacron" unicode="&#x1d6;" horiz-adv-x="511" 
d="M126 681h259c6 -12.667 6 -24.667 0 -36h-259c-6 11.333 -6 23.333 0 36zM138 571c9.33301 0 17.167 -3.16699 23.5 -9.5s9.5 -13.833 9.5 -22.5c0 -10 -3.16699 -18.167 -9.5 -24.5c-6.33398 -6.33301 -14.167 -9.5 -23.5 -9.5c-10 0 -18.333 3.16699 -25 9.5
s-10 14.5 -10 24.5c0 9.33301 3.33301 17 10 23s15 9 25 9zM374.001 571c9.33496 0 17.167 -3.16699 23.499 -9.5c6.33301 -6.33301 9.5 -13.833 9.5 -22.5c0 -10 -3.16699 -18.167 -9.5 -24.5s-14.166 -9.5 -23.499 -9.5c-10 0 -18.333 3.16699 -25 9.5s-10 14.5 -10 24.5
c0 9.33301 3.33301 17 10 23s15 9 25 9zM394 104l-0.00390625 296.001c14.667 6 29.334 6 44.001 0v-400c-13.333 -5.33301 -26.666 -5.33301 -39.999 0l-3 66c-48.667 -54 -103 -81 -163 -81c-53.333 0 -93.333 15.167 -120 45.5s-40 69.833 -40 118.5v251
c14.667 6 29.334 6 44.001 0v-244c0 -40.667 10.333 -72.834 31 -96.501s52.334 -35.5 95.001 -35.5c30 0 58.833 8.83301 86.5 26.5s49.5 35.5 65.5 53.5z" />
    <glyph glyph-name="Udieresisacute" unicode="&#x1d7;" horiz-adv-x="697" 
d="M276 901l117 131c4.66699 0 10.5 -3 17.5 -9s10.833 -11.333 11.5 -16l-122 -126c-4.66699 0.666992 -9.5 3.16699 -14.5 7.5s-8.16699 8.5 -9.5 12.5zM232 821c9.33301 0 17.167 -3.16699 23.5 -9.5s9.5 -13.833 9.5 -22.5c0 -10 -3.16699 -18.167 -9.5 -24.5
c-6.33398 -6.33301 -14.167 -9.5 -23.5 -9.5c-10 0 -18.333 3.16699 -25 9.5s-10 14.5 -10 24.5c0 9.33301 3.33301 17 10 23s15 9 25 9zM468.001 821c9.33496 0 17.168 -3.16699 23.499 -9.5c6.33301 -6.33301 9.5 -13.833 9.5 -22.5c0 -10 -3.16699 -18.167 -9.5 -24.5
s-14.166 -9.5 -23.499 -9.5c-10 0 -18.333 3.16699 -25 9.5s-10 14.5 -10 24.5c0 9.33301 3.33301 17 10 23s15 9 25 9zM560.001 239v411c16 6.66699 32 6.66699 48 0v-406c0 -81.333 -23.167 -144.833 -69.5 -190.5s-108.833 -68.5 -187.5 -68.5
c-79.333 0 -142 22.667 -188 68s-69 109 -69 191v406c16 6.66699 32 6.66699 48 0v-411c0 -66 18.833 -118 56.5 -156s88.5 -57 152.5 -57s114.833 19 152.5 57s56.5 90 56.5 156z" />
    <glyph glyph-name="udieresisacute" unicode="&#x1d8;" horiz-adv-x="511" 
d="M183 651l117 131.002c4.66699 -0.666992 10.5 -3.83398 17.5 -9.50098s10.833 -10.834 11.5 -15.501l-122 -126c-4.66699 0.666992 -9.5 3.16699 -14.5 7.5s-8.16699 8.5 -9.5 12.5zM138 571.002c9.33301 0 17.167 -3.16699 23.5 -9.5s9.5 -13.833 9.5 -22.5
c0 -10 -3.16699 -18.167 -9.5 -24.5c-6.33398 -6.33301 -14.167 -9.5 -23.5 -9.5c-10 0 -18.333 3.16699 -25 9.5s-10 14.5 -10 24.5c0 9.33301 3.33301 17 10 23s15 9 25 9zM374.001 571.002c9.33496 0 17.167 -3.16699 23.499 -9.5
c6.33301 -6.33301 9.5 -13.833 9.5 -22.5c0 -10 -3.16699 -18.167 -9.5 -24.5s-14.166 -9.5 -23.499 -9.5c-10 0 -18.333 3.16699 -25 9.5s-10 14.5 -10 24.5c0 9.33301 3.33301 17 10 23s15 9 25 9zM394 104.002l-0.00390625 296.001c14.667 6 29.334 6 44.001 0v-400
c-13.333 -5.33301 -26.666 -5.33301 -39.999 0l-3 66c-48.667 -54 -103 -81 -163 -81c-53.333 0 -93.333 15.167 -120 45.5s-40 69.833 -40 118.5v251c14.667 6 29.334 6 44.001 0v-244c0 -40.667 10.333 -72.834 31 -96.501s52.334 -35.5 95.001 -35.5
c30 0 58.833 8.83301 86.5 26.5s49.5 35.5 65.5 53.5z" />
    <glyph glyph-name="Udieresiscaron" unicode="&#x1d9;" horiz-adv-x="697" 
d="M349 914l113 113.001c4.66699 -0.666992 10 -3.83398 16 -9.50098s9.66699 -10.834 11 -15.501l-120 -121c-13.333 -10.667 -26.666 -10.667 -39.999 0l-120 121c1.33301 4.68164 5.16602 9.84863 11.499 15.5c6.33301 5.66699 11.833 8.83398 16.5 9.50098zM232 821.001
c9.33301 0 17.167 -3.16699 23.5 -9.5s9.5 -13.833 9.5 -22.5c0 -10 -3.16699 -18.167 -9.5 -24.5c-6.33398 -6.33301 -14.167 -9.5 -23.5 -9.5c-10 0 -18.333 3.16699 -25 9.5s-10 14.5 -10 24.5c0 9.33301 3.33301 17 10 23s15 9 25 9zM468.001 821.001
c9.33496 0 17.168 -3.16699 23.499 -9.5c6.33301 -6.33301 9.5 -13.833 9.5 -22.5c0 -10 -3.16699 -18.167 -9.5 -24.5s-14.166 -9.5 -23.499 -9.5c-10 0 -18.333 3.16699 -25 9.5s-10 14.5 -10 24.5c0 9.33301 3.33301 17 10 23s15 9 25 9zM560.001 239.001v411
c16 6.66699 32 6.66699 48 0v-406c0 -81.333 -23.167 -144.833 -69.5 -190.5s-108.833 -68.5 -187.5 -68.5c-79.333 0 -142 22.667 -188 68s-69 109 -69 191v406c16 6.66699 32 6.66699 48 0v-411c0 -66 18.833 -118 56.5 -156s88.5 -57 152.5 -57s114.833 19 152.5 57
s56.5 90 56.5 156z" />
    <glyph glyph-name="udieresiscaron" unicode="&#x1da;" horiz-adv-x="511" 
d="M256 664l112.999 113.002c4.66699 -0.666992 10 -3.83398 16 -9.50098s9.66699 -10.834 11 -15.501l-120 -121c-13.333 -10.667 -26.666 -10.667 -39.999 0l-120 121c1.33398 4.67773 5.16699 9.84473 11.5 15.5c6.33301 5.69043 11.833 8.85742 16.5 9.5z
M137.999 571.002c9.33301 0 17.167 -3.16699 23.5 -9.5s9.5 -13.833 9.5 -22.5c0 -10 -3.16699 -18.167 -9.5 -24.5c-6.33398 -6.33301 -14.167 -9.5 -23.5 -9.5c-10 0 -18.333 3.16699 -25 9.5s-10 14.5 -10 24.5c0 9.33301 3.33301 17 10 23s15 9 25 9zM374 571.002
c9.33496 0 17.167 -3.16699 23.499 -9.5c6.33301 -6.33301 9.5 -13.833 9.5 -22.5c0 -10 -3.16699 -18.167 -9.5 -24.5s-14.166 -9.5 -23.499 -9.5c-10 0 -18.333 3.16699 -25 9.5s-10 14.5 -10 24.5c0 9.33301 3.33301 17 10 23s15 9 25 9zM393.999 104.002
l-0.00390625 296.001c14.667 6 29.334 6 44.001 0v-400c-13.333 -5.33301 -26.666 -5.33301 -39.999 0l-3 66c-48.667 -54 -103 -81 -163 -81c-53.333 0 -93.333 15.167 -120 45.5s-40 69.833 -40 118.5v251c14.667 6 29.334 6 44.001 0v-244
c0 -40.667 10.333 -72.834 31 -96.501s52.334 -35.5 95.001 -35.5c30 0 58.833 8.83301 86.5 26.5s49.5 35.5 65.5 53.5z" />
    <glyph glyph-name="Udieresisgrave" unicode="&#x1db;" horiz-adv-x="697" 
d="M306 1032l116.001 -131c-1.33301 -4 -4.33301 -8.16699 -9 -12.5c-4.66992 -4.33301 -9.33691 -6.83301 -14.001 -7.5l-123 126c0.666992 4.66699 4.66699 10 12 16s13.333 9 18 9zM232.001 821c9.33301 0 17.167 -3.16699 23.5 -9.5s9.5 -13.833 9.5 -22.5
c0 -10 -3.16699 -18.167 -9.5 -24.5c-6.33398 -6.33301 -14.167 -9.5 -23.5 -9.5c-10 0 -18.333 3.16699 -25 9.5s-10 14.5 -10 24.5c0 9.33301 3.33301 17 10 23s15 9 25 9zM468.002 821c9.33496 0 17.168 -3.16699 23.499 -9.5c6.33301 -6.33301 9.5 -13.833 9.5 -22.5
c0 -10 -3.16699 -18.167 -9.5 -24.5s-14.166 -9.5 -23.499 -9.5c-10 0 -18.333 3.16699 -25 9.5s-10 14.5 -10 24.5c0 9.33301 3.33301 17 10 23s15 9 25 9zM560.002 239v411c16 6.66699 32 6.66699 48 0v-406c0 -81.333 -23.167 -144.833 -69.5 -190.5
s-108.833 -68.5 -187.5 -68.5c-79.333 0 -142 22.667 -188 68s-69 109 -69 191v406c16 6.66699 32 6.66699 48 0v-411c0 -66 18.833 -118 56.5 -156s88.5 -57 152.5 -57s114.833 19 152.5 57s56.5 90 56.5 156z" />
    <glyph glyph-name="udieresisgrave" unicode="&#x1dc;" horiz-adv-x="511" 
d="M213 782l116 -131c-1.33301 -4 -4.33301 -8.16699 -9 -12.5c-4.66895 -4.33301 -9.33594 -6.83301 -14 -7.5l-123 126c0.666992 4.66699 4.66699 10 12 16s13.333 9 18 9zM138 571c9.33301 0 17.167 -3.16699 23.5 -9.5s9.5 -13.833 9.5 -22.5
c0 -10 -3.16699 -18.167 -9.5 -24.5c-6.33398 -6.33301 -14.167 -9.5 -23.5 -9.5c-10 0 -18.333 3.16699 -25 9.5s-10 14.5 -10 24.5c0 9.33301 3.33301 17 10 23s15 9 25 9zM374.001 571c9.33496 0 17.167 -3.16699 23.499 -9.5c6.33301 -6.33301 9.5 -13.833 9.5 -22.5
c0 -10 -3.16699 -18.167 -9.5 -24.5s-14.166 -9.5 -23.499 -9.5c-10 0 -18.333 3.16699 -25 9.5s-10 14.5 -10 24.5c0 9.33301 3.33301 17 10 23s15 9 25 9zM394 104l-0.00390625 296.001c14.667 6 29.334 6 44.001 0v-400c-13.333 -5.33301 -26.666 -5.33301 -39.999 0
l-3 66c-48.667 -54 -103 -81 -163 -81c-53.333 0 -93.333 15.167 -120 45.5s-40 69.833 -40 118.5v251c14.667 6 29.334 6 44.001 0v-244c0 -40.667 10.333 -72.834 31 -96.501s52.334 -35.5 95.001 -35.5c30 0 58.833 8.83301 86.5 26.5s49.5 35.5 65.5 53.5z" />
    <glyph glyph-name="Scommaaccent" unicode="&#x218;" horiz-adv-x="569" 
d="M277 665c76 0 138.997 -21.3369 188.997 -64.0039c2.66699 -4 4 -12.333 4 -25s-1.33301 -20.667 -4 -24c-52 48 -114.667 72 -188 72c-49.333 0 -88.5 -12.167 -117.5 -36.5c-29 -24.334 -43.5 -54.167 -43.5 -89.499c0 -37.333 12.833 -65 38.5 -83
s74.5 -38.667 146.5 -62c25.333 -8 45.833 -15.167 61.5 -21.5s33.167 -14.833 52.5 -25.5s34.333 -22 45 -34s19.834 -27.167 27.501 -45.5c7.66699 -18.334 11.5 -39.167 11.5 -62.5c0 -53.333 -20.333 -96.5 -61 -129.5s-92.334 -49.5 -155 -49.5
c-77.333 0 -144.666 22 -201.999 66c-2.66699 3.33301 -4 11.5 -4 24.5s1.33301 21.167 4 24.5c59.333 -49.333 126.333 -74 201 -74c50 0 90.667 12.667 122 38s47 57.666 47 96.999c0 42.667 -14 73.834 -42 93.501s-75.667 39.834 -143 60.501
c-32.667 10 -59 19.333 -79 28s-40.167 19.834 -60.5 33.501s-35.166 30.334 -44.499 50.001s-14 42.5 -14 68.5c0 46.667 18.667 86.667 56 120s88 50 152 50zM283.997 -59.0039c9.33496 0 17.665 -3.49805 24.9971 -10.498c7.33301 -7 11.333 -17.167 12 -30.5
c2.66699 -22 -0.5 -49.667 -9.5 -83s-19.167 -55.333 -30.5 -66c-9.33301 -5.33301 -19.666 -5.33301 -30.999 0c11.333 13.333 21.333 33.166 30 59.499s12.334 48.166 11.001 65.499c-2.66699 -0.666992 -5.66699 -1 -9 -1c-9.33301 0 -17.166 3 -23.499 9
s-9.5 13.667 -9.5 23s3.16699 17.333 9.5 24s14.833 10 25.5 10z" />
    <glyph glyph-name="scommaaccent" unicode="&#x219;" horiz-adv-x="404" 
d="M214 221c49.333 -16 85.333 -32.4971 108 -49.4971s34 -41.167 34 -72.5c0 -36.667 -15.167 -64.834 -45.5 -84.501s-66.166 -29.5 -107.499 -29.5c-26.667 0 -53.5 4.16699 -80.5 12.5s-48.5 18.833 -64.5 31.5c-2.66699 3.33301 -4 10 -4 20s1.33301 16.333 4 19
c45.333 -33.333 93 -50 143 -50c29.333 0 55.166 6.16699 77.499 18.5s33.5 31.5 33.5 57.5c0 15.333 -5.5 28.666 -16.5 39.999s-23.167 19.666 -36.5 24.999c-13.334 5.33301 -35.667 13.333 -67 24c-50.667 17.333 -87.5 34 -110.5 50s-34.5 39.333 -34.5 70
c0 34.667 14.5 62 43.5 82s63.833 30 104.5 30c26.667 0 53.334 -4.16699 80.001 -12.5s48 -18.833 64 -31.5c2.66699 -3.33301 4 -10 4 -20s-1.33301 -16.333 -4 -19c-45.333 33.333 -92 50 -140 50c-28.667 0 -53.834 -6.33301 -75.501 -19s-32.5 -31 -32.5 -55
c0 -11.333 2.5 -21 7.5 -29s14.167 -15.667 27.5 -23s25.333 -13 36 -17s28 -10 52 -18zM193 -58.9971c10 0 18.499 -3.49805 25.499 -10.498s10.833 -17.167 11.5 -30.5c2.66699 -22 -0.5 -49.667 -9.5 -83s-19.167 -55.333 -30.5 -66
c-9.33301 -5.33301 -19.666 -5.33301 -30.999 0c11.333 13.333 21.333 33.166 30 59.499s12.334 48.166 11 65.499c-2.66699 -0.666992 -5.66699 -1 -9 -1c-9.33398 0 -17.167 3 -23.5 9s-9.5 13.667 -9.5 23s3.16699 17.333 9.5 24s14.833 10 25.5 10z" />
    <glyph glyph-name="uni021A" unicode="&#x21a;" horiz-adv-x="585" 
d="M42 650h501c4.66699 -13.333 4.66699 -27 0 -41h-227v-609c-15.333 -6.66699 -31.333 -6.66699 -48 0v609h-226c-5.33301 14 -5.33301 27.667 0 41zM293 -59c10 0 18.4971 -3.49805 25.4971 -10.498s10.833 -17.167 11.5 -30.5c2.66699 -22 -0.5 -49.667 -9.5 -83
s-19.167 -55.333 -30.5 -66c-9.33301 -5.33301 -19.666 -5.33301 -30.999 0c11.333 13.333 21.333 33.166 30 59.499s12.334 48.166 11.001 65.499c-2.66699 -0.666992 -5.66699 -1 -9 -1c-9.33301 0 -17.166 3 -23.499 9s-9.5 13.667 -9.5 23s3.16699 17.333 9.5 24
s14.833 10 25.5 10z" />
    <glyph glyph-name="uni021B" unicode="&#x21b;" horiz-adv-x="357" 
d="M304 65c2.66699 -3.33301 3.83301 -10.167 3.5 -20.5s-1.5 -17.5 -3.5 -21.5c-32 -25.333 -66 -38 -102 -38c-28 0 -50.667 8.5 -68 25.5s-26 41.833 -26 74.5v277h-66c-6 12 -6 24.667 0 38h66v130c14.667 6 29.667 6 45 0v-130h141c6 -13.333 6 -26 0 -38h-141v-273
c0 -44 18.667 -66 56 -66c25.333 0 57 14 95 42zM198.999 -59.001c10 0 18.5 -3.49805 25.5 -10.498s10.833 -17.167 11.5 -30.5c2.66699 -22 -0.5 -49.667 -9.5 -83s-19.167 -55.333 -30.5 -66c-9.33398 -5.33301 -19.667 -5.33301 -31 0
c11.333 13.333 21.333 33.166 30 59.499s12.334 48.166 11 65.499c-2.66699 -0.666992 -5.66699 -1 -9 -1c-9.33398 0 -17.167 3 -23.5 9s-9.5 13.667 -9.5 23s3.16699 17.333 9.5 24s14.833 10 25.5 10z" />
    <glyph glyph-name="circumflex" unicode="&#x2c6;" horiz-adv-x="372" 
d="M206 850l119.999 -120.999c-0.666992 -4.66699 -4.16699 -9.83398 -10.5 -15.501s-11.833 -9.16699 -16.5 -10.5l-113 114l-112 -114c-4.66699 0.666992 -10.167 4 -16.5 10s-10.166 11.333 -11.499 16l120 121c5.33301 4 12 6 20 6s14.667 -2 20 -6z" />
    <glyph glyph-name="caron" unicode="&#x2c7;" horiz-adv-x="372" 
d="M186 742l113.001 113.001c4.66699 -0.666992 10 -3.83398 16 -9.50098s9.66699 -10.834 11 -15.501l-120 -121c-13.334 -10.667 -26.667 -10.667 -40 0l-120 121c1.33301 4.67969 5.16602 9.84668 11.499 15.501c6.33301 5.69238 11.833 8.85938 16.5 9.5z" />
    <glyph glyph-name="breve" unicode="&#x2d8;" horiz-adv-x="394" 
d="M343 830c2.66699 -3.33301 4 -10 4 -20s-1.33301 -17 -4 -21c-37.333 -30.667 -86.333 -46 -147 -46c-59.333 0 -108.333 15.333 -147 46c-2 4 -3.16699 11 -3.5 21s0.833984 16.667 3.5 20c46 -32 95 -48 147 -48s101 16 147 48z" />
    <glyph glyph-name="dotaccent" unicode="&#x2d9;" horiz-adv-x="160" 
d="M81 755c-10 0 -18.333 3.16699 -25 9.5s-10 14.5 -10 24.5c0 9.33301 3.33301 17 10 23s15 9 25 9c9.33301 0 17.166 -3.16699 23.499 -9.5s9.5 -13.833 9.5 -22.5c0 -10 -3.16699 -18.167 -9.5 -24.5s-14.166 -9.5 -23.499 -9.5z" />
    <glyph glyph-name="ring" unicode="&#x2da;" horiz-adv-x="251" 
d="M126 868c22 0 40.667 -7.66699 56 -23s23 -33 23 -53c0 -22.667 -7.66699 -41.5 -23 -56.5s-34 -22.5 -56 -22.5c-22.667 0 -41.667 7.5 -57 22.5s-23 33.833 -23 56.5c0 20.667 7.66699 38.5 23 53.5s34.333 22.5 57 22.5zM126 838
c-14.667 0 -26.334 -4.66699 -35.001 -14s-13 -20 -13 -32c0 -13.333 4.33301 -24.833 13 -34.5s20.334 -14.5 35.001 -14.5c14 0 25.5 4.83301 34.5 14.5s13.5 21.167 13.5 34.5c0 12 -4.5 22.667 -13.5 32s-20.5 14 -34.5 14z" />
    <glyph glyph-name="ogonek" unicode="&#x2db;" horiz-adv-x="232" 
d="M130 0l28 -0.00292969c-24.667 -10 -44.334 -25.167 -59.001 -45.5s-22 -41.166 -22 -62.499s6.83301 -39.166 20.5 -53.499s32.167 -21.5 55.5 -21.5c12 0 21.667 1.33301 29 4c6 -10 6 -20.667 0 -32c-8 -2.66699 -19 -4 -33 -4c-29.333 0 -53.833 9.33301 -73.5 28
s-29.5 42.334 -29.5 71.001c0 24.667 7.83301 47.5 23.5 68.5s35.834 36.833 60.501 47.5z" />
    <glyph glyph-name="tilde" unicode="&#x2dc;" horiz-adv-x="398" 
d="M136 813c18 0 42.999 -7.33203 74.999 -21.999c18 -8 35.333 -12 52 -12c18.667 0 47.334 10 86.001 30c6 -11.333 6 -23.333 0 -36c-2 -0.666992 -6.33301 -2.83398 -13 -6.50098c-6.66895 -3.66699 -11.3359 -6.16699 -14 -7.5c-2.66699 -1.33301 -7 -3.33301 -13 -6
s-11 -4.5 -15 -5.5s-8.83301 -2 -14.5 -3s-11.167 -1.5 -16.5 -1.5c-18 0 -43 7.33301 -75 22c-18 8 -35.333 12 -52 12c-18.667 0 -47.334 -10 -86.001 -30c-6 12.667 -6 24.667 0 36c2 0.69043 6.33301 2.85742 13 6.5c6.66699 3.66699 11.334 6.16699 14.001 7.5
s7 3.33301 13 6s11 4.5 15 5.5s8.83301 2 14.5 3s11.167 1.5 16.5 1.5z" />
    <glyph glyph-name="hungarumlaut" unicode="&#x2dd;" horiz-adv-x="356" 
d="M46 729l117 131.002c4.66699 -0.666992 10.5 -3.83398 17.5 -9.50098s10.833 -10.834 11.5 -15.501l-122 -126c-4.66699 0.666992 -9.5 3.16699 -14.5 7.5s-8.16699 8.5 -9.5 12.5zM164 729.002l117 131.002c4.66699 -0.666992 10.5 -3.83398 17.5 -9.50098
s10.833 -10.834 11.5 -15.501l-122 -126c-4.66699 0.666992 -9.5 3.16699 -14.5 7.5s-8.16699 8.5 -9.5 12.5z" />
    <glyph glyph-name="uni0326" unicode="&#x326;" horiz-adv-x="0" 
d="M83 -59c10 0 18.4971 -3.49805 25.4971 -10.498s10.833 -17.167 11.5 -30.5c2.66699 -22 -0.5 -49.667 -9.5 -83s-19.167 -55.333 -30.5 -66c-9.33301 -5.33301 -19.666 -5.33301 -30.999 0c11.333 13.333 21.333 33.166 30 59.499s12.334 48.166 11.001 65.499
c-2.66699 -0.666992 -5.66699 -1 -9 -1c-9.33301 0 -17.166 3 -23.499 9s-9.5 13.667 -9.5 23s3.16699 17.333 9.5 24s14.833 10 25.5 10z" />
    <glyph glyph-name="uni0401" unicode="&#x401;" horiz-adv-x="577" 
d="M191 821c9.33301 0 17.167 -3.16699 23.5 -9.5s9.5 -13.833 9.5 -22.5c0 -10 -3.16699 -18.167 -9.5 -24.5c-6.33398 -6.33301 -14.167 -9.5 -23.5 -9.5c-10 0 -18.333 3.16699 -25 9.5s-10 14.5 -10 24.5c0 9.33301 3.33301 17 10 23s15 9 25 9zM423.001 821
c9.33496 0 17.167 -3.16699 23.499 -9.5c6.33301 -6.33301 9.5 -13.833 9.5 -22.5c0 -10 -3.16699 -18.167 -9.5 -24.5s-14.166 -9.5 -23.499 -9.5c-10 0 -18.333 3.16699 -25 9.5s-10 14.5 -10 24.5c0 9.33301 3.33301 17 10 23s15 9 25 9zM94 650h432
c5.33301 -13.333 5.33301 -27 0 -41h-385v-255h356c5.33301 -13.333 5.33301 -27 0 -41h-356v-272h385c5.33301 -14 5.33301 -27.667 0 -41h-432v650z" />
    <glyph glyph-name="uni0410" unicode="&#x410;" horiz-adv-x="670" 
d="M356 650l275 -650c-16.667 -6.66699 -33 -6.66699 -49 0l-85 200h-325l-85 -200c-16.667 -6.66699 -33 -6.66699 -49 0l275 650c14.667 6 29 6 43 0zM188 241h295l-148 349z" />
    <glyph glyph-name="uni0411" unicode="&#x411;" horiz-adv-x="619" 
d="M141 394h181c76 0 133.833 -19.333 173.5 -58s59.5 -85 59.5 -139s-19.833 -100.333 -59.5 -139s-97.5 -58 -173.5 -58h-228v650h400c5.33301 -13.333 5.33301 -27 0 -41h-353v-215zM142 41l181 0.000976562c61.333 0 107.333 15.167 138 45.5s46 67.166 46 110.499
s-15.333 80.333 -46 111s-76.667 46 -138 46h-181v-313z" />
    <glyph glyph-name="uni0412" unicode="&#x412;" horiz-adv-x="611" 
d="M94 650h248c57.333 0 104.5 -15 141.5 -45s55.5 -69.667 55.5 -119c0 -35.333 -9 -66 -27 -92s-43.333 -44.667 -76 -56c42 -11.333 73.833 -31 95.5 -59s32.5 -61.667 32.5 -101c0 -52.667 -19.5 -95.5 -58.5 -128.5s-92.833 -49.5 -161.5 -49.5h-250v650zM142 609v-256
h210c43.334 0 77.667 11.667 103 35s38 54.333 38 93c0 39.333 -14.333 70.5 -43 93.5s-65.667 34.5 -111 34.5h-197zM142 317v-276h200c55.334 0 98.167 12.833 128.5 38.5s45.5 59.5 45.5 101.5c0 40.667 -13.5 73.5 -40.5 98.5s-68.167 37.5 -123.5 37.5h-210z" />
    <glyph glyph-name="uni0413" unicode="&#x413;" horiz-adv-x="554" 
d="M94 650h418c5.33301 -13.333 5.33301 -27 0 -41h-371v-609c-15.333 -6.66699 -31 -6.66699 -47 0v650z" />
    <glyph glyph-name="uni0414" unicode="&#x414;" horiz-adv-x="753" 
d="M714 41v-157.999c-15.333 -6.66699 -31.333 -6.66699 -48 0v117h-581v-117c-15.333 -6.66699 -31 -6.66699 -47 0v158h64c50 33.333 80 97.666 90 192.999l42 416h399v-609h81zM587 609.001h-309l-38 -375c-4 -41.333 -12.833 -79.333 -26.5 -114s-31.167 -61 -52.5 -79
h426v568z" />
    <glyph glyph-name="uni0415" unicode="&#x415;" horiz-adv-x="577" 
d="M141 41h385c5.33301 -14 5.33301 -27.667 0 -41h-432v650h432c5.33301 -13.333 5.33301 -27 0 -41h-385v-255h356c5.33301 -13.333 5.33301 -27 0 -41h-356v-272z" />
    <glyph glyph-name="uni0416" unicode="&#x416;" horiz-adv-x="853" 
d="M495 335l319 -335c-6 -2.66699 -15.5 -4 -28.5 -4s-22.5 1.33301 -28.5 4l-307 321v-321c-15.333 -6.66699 -31.333 -6.66699 -48 0v322l-306 -320c-6.66699 -2.66699 -16.5 -4 -29.5 -4s-22.5 1.33301 -28.5 4l319 334l-299 316c6 2 15.5 3 28.5 3s22.833 -1 29.5 -3
l286 -302v302c16.667 5.33301 32.667 5.33301 48 0v-303l287 301c6 2.66699 15.5 4 28.5 4s22.5 -1.33301 28.5 -4z" />
    <glyph glyph-name="uni0417" unicode="&#x417;" horiz-adv-x="589" 
d="M410 338c42.667 -11.333 75.3311 -32.166 97.998 -62.499s34 -64.833 34 -103.5c0 -56 -21 -101.167 -63 -135.5s-97 -51.5 -165 -51.5c-88 0 -161.667 21 -221 63c-2 4 -3.16699 12.167 -3.5 24.5s0.833984 20.166 3.50098 23.499c62 -47.333 135.333 -71 220 -71
c53.333 0 96.833 13.667 130.5 41s50.5 64 50.5 110c0 39.333 -14 72.333 -42 99s-69 40 -123 40h-116c-5.33301 12.667 -5.33301 25.667 0 39h116c42 0 76 12.833 102 38.5s39 57.5 39 95.5s-14 70.167 -42 96.5s-67.333 39.5 -118 39.5
c-76.667 0 -145.667 -23.333 -207 -70c-2.66699 3.33301 -3.83398 11 -3.5 23c0.333008 12 1.5 20 3.5 24c58.667 42.667 128.334 64 209.001 64c64 0 114.167 -16.667 150.5 -50s54.5 -74 54.5 -122c0 -35.333 -9.5 -66.833 -28.5 -94.5s-45.167 -47.834 -78.5 -60.5z" />
    <glyph glyph-name="uni0418" unicode="&#x418;" horiz-adv-x="713" 
d="M624 650l0.000976562 -650c-16 -6.66699 -31.667 -6.66699 -47 0v572l-446 -572c-14 -5.33301 -27.667 -5.33301 -41 0v650c16 6.66699 31.667 6.66699 47 0v-572l447 572c13.333 5.33301 26.666 5.33301 39.999 0z" />
    <glyph glyph-name="uni0419" unicode="&#x419;" horiz-adv-x="713" 
d="M500 830c2.66699 -3.33301 3.99902 -10 3.99902 -20s-1.33301 -17 -4 -21c-37.333 -30.667 -86.333 -46 -147 -46c-59.333 0 -108.333 15.333 -147 46c-2 4 -3.16699 11 -3.5 21c-0.330078 10 0.836914 16.667 3.50098 20c46 -32 95 -48 147 -48s101 16 147 48z
M623.999 650l0.000976562 -650c-16 -6.66699 -31.667 -6.66699 -47 0v572l-446 -572c-14 -5.33301 -27.667 -5.33301 -41 0v650c16 6.66699 31.667 6.66699 47 0v-572l447 572c13.333 5.33301 26.666 5.33301 39.999 0z" />
    <glyph glyph-name="uni041A" unicode="&#x41a;" horiz-adv-x="609" 
d="M191 335l379 -335c-6 -2.66699 -16.167 -4 -30.5 -4s-24.5 1.33301 -30.5 4l-368 323v-323c-15.333 -6.66699 -31 -6.66699 -47 0v650c15.333 6.66699 31 6.66699 47 0v-304l347 304c6.66699 2.66699 17.167 4 31.5 4s24.5 -1.33301 30.5 -4z" />
    <glyph glyph-name="uni041B" unicode="&#x41b;" horiz-adv-x="726" 
d="M636 650l-0.000976562 -650.001c-16.667 -6.66699 -32.667 -6.66699 -48 0v609h-309l-44 -429c-6.66699 -67.333 -23.167 -116.666 -49.5 -147.999s-64.166 -47 -113.499 -47c-10 0 -20 1 -30 3c-6 13.333 -6 27 0 41c9.33301 -1.33301 16.333 -2 21 -2
c37.333 0 66 12 86 36s33 64 39 120l48 467h400z" />
    <glyph glyph-name="uni041C" unicode="&#x41c;" horiz-adv-x="875" 
d="M686 650l150 -650c-15.333 -6 -31 -6 -47 0l-129 567l-202 -567c-14 -5.33301 -28 -5.33301 -42 0l-202 567l-129 -567c-16 -6 -31.667 -6 -47 0l150 650c14 6 28 6 42 0l207 -578l207 578c14 6 28 6 42 0z" />
    <glyph glyph-name="uni041D" unicode="&#x41d;" horiz-adv-x="723" 
d="M581 354v296c15.333 6.66699 31 6.66699 47 0v-650c-16 -6.66699 -31.667 -6.66699 -47 0v313h-440v-313c-15.333 -6.66699 -31 -6.66699 -47 0v650c15.333 6.66699 31 6.66699 47 0v-296h440z" />
    <glyph glyph-name="uni041E" unicode="&#x41e;" horiz-adv-x="817" 
d="M408 665c98.667 0 180 -32.833 244 -98.5s96 -146.167 96 -241.5s-32 -175.833 -96 -241.5s-145.333 -98.5 -244 -98.5s-179.834 32.833 -243.501 98.5s-95.5 146.167 -95.5 241.5s31.833 175.833 95.5 241.5s144.834 98.5 243.501 98.5zM408 624
c-84 0 -153.5 -28.5 -208.5 -85.5s-82.5 -128.167 -82.5 -213.5s27.5 -156.5 82.5 -213.5s124.5 -85.5 208.5 -85.5c84.667 0 154.5 28.5 209.5 85.5s82.5 128.167 82.5 213.5s-27.5 156.5 -82.5 213.5s-124.833 85.5 -209.5 85.5z" />
    <glyph glyph-name="uni041F" unicode="&#x41f;" horiz-adv-x="723" 
d="M628 650v-650c-16 -6.66699 -31.667 -6.66699 -47 0v609h-440v-609c-15.333 -6.66699 -31 -6.66699 -47 0v650h534z" />
    <glyph glyph-name="uni0420" unicode="&#x420;" horiz-adv-x="624" 
d="M94 650h223.999c76.667 0 135.334 -20 176.001 -60s61 -89.333 61 -148c0 -58 -20.333 -107 -61 -147s-99.334 -60 -176 -60h-177v-235c-15.333 -6.66699 -31 -6.66699 -47 0v650zM141.999 275l177 0.000976562c62 0 108.833 16 140.5 48s47.5 71.667 47.5 119
c0 48 -15.833 87.833 -47.5 119.499c-31.667 31.667 -78.5 47.5 -140.5 47.5h-177v-334z" />
    <glyph glyph-name="uni0421" unicode="&#x421;" horiz-adv-x="727" 
d="M414 26c84.667 0 157.667 23.3311 219 69.998c2.66699 -3.33301 4 -11.166 4 -23.499s-1.33301 -20.166 -4 -23.499c-58.667 -42.667 -132 -64 -220 -64c-100.667 0 -183.167 32.833 -247.5 98.5s-96.5 146.167 -96.5 241.5s32.167 175.833 96.5 241.5
s146.833 98.5 247.5 98.5c88 0 161.333 -21.333 220 -64c2.66699 -3.33789 4 -11.1709 4 -23.5c0 -12.3379 -1.33301 -20.1709 -4 -23.5c-61.333 46.667 -134.333 70 -219 70c-86 0 -157 -28.667 -213 -86s-84 -128.333 -84 -213s28 -155.667 84 -213s127 -86 213 -86z" />
    <glyph glyph-name="uni0422" unicode="&#x422;" horiz-adv-x="585" 
d="M42 650h501c4.66699 -13.333 4.66699 -27 0 -41h-227v-609c-15.333 -6.66699 -31.333 -6.66699 -48 0v609h-226c-5.33301 14 -5.33301 27.667 0 41z" />
    <glyph glyph-name="uni0423" unicode="&#x423;" horiz-adv-x="626" 
d="M313 296l223 354c16.667 6.66699 34 6.66699 52 0l-409 -650c-6 -2.66699 -14.667 -4 -26 -4s-20 1.33301 -26 4l160 254l-249 396c6 2.66699 14.667 4 26 4s20 -1.33301 26 -4z" />
    <glyph glyph-name="uni0424" unicode="&#x424;" horiz-adv-x="909" 
d="M478 582l60 -0.00195312c54 0 101.333 -7.66699 142 -23s72.167 -35.833 94.5 -61.5c22.333 -25.668 38.833 -52.835 49.5 -81.501c10.667 -28.667 16 -58.334 16 -89c0 -30.667 -5.33301 -60.334 -16 -89c-10.667 -28.667 -27.167 -56 -49.5 -82
s-53.833 -46.667 -94.5 -62s-88 -23 -142 -23h-60v-71c-16 -6.66699 -31.667 -6.66699 -47 0v71h-60c-54 0 -101.333 7.66699 -142 23s-72.167 36 -94.5 62s-38.833 53.333 -49.5 82s-16 58.334 -16 89.001s5.33301 60.334 16 89.001s27.167 55.834 49.5 81.501
s53.833 46.167 94.5 61.5s88 23 142 23h60v68c16 6.66699 31.667 6.66699 47 0v-68zM431 541.998h-59.999c-46.667 0 -87.167 -6.5 -121.5 -19.5c-34.334 -13 -60.667 -30.5 -79 -52.5s-31.833 -44.833 -40.5 -68.5s-13 -48.5 -13 -74.5s4.33301 -51 13 -75
s22.167 -46.833 40.5 -68.5s44.666 -39 78.999 -52s74.833 -19.5 121.5 -19.5h60v430zM478.001 111.998h60c46 0 86.333 6.5 121 19.5s61.167 30.333 79.5 52s31.833 44.5 40.5 68.5s13 49 13 75s-4.33301 50.833 -13 74.5s-22.167 46.5 -40.5 68.5s-44.833 39.5 -79.5 52.5
s-75 19.5 -121 19.5h-60v-430z" />
    <glyph glyph-name="uni0425" unicode="&#x425;" horiz-adv-x="603" 
d="M334 335l231 -335c-6.66699 -2.66699 -16 -4 -28 -4s-21.333 1.33301 -28 4l-209 302l-207 -302c-6 -2.66699 -15.167 -4 -27.5 -4s-21.5 1.33301 -27.5 4l231 335l-219 315c6 2.66699 15.167 4 27.5 4s21.5 -1.33301 27.5 -4l197 -282l195 282
c6.66699 2.66699 16 4 28 4s21 -1.33301 27 -4z" />
    <glyph glyph-name="uni0426" unicode="&#x426;" horiz-adv-x="735" 
d="M696 41v-158c-15.333 -6.66699 -31 -6.66699 -47 0v117h-555v650c15.333 6.66699 31 6.66699 47 0v-609h427v609c16.667 6.66699 32.667 6.66699 48 0v-609h80z" />
    <glyph glyph-name="uni0427" unicode="&#x427;" horiz-adv-x="636" 
d="M495 361l-0.00195312 289c15.333 6.66699 31 6.66699 47 0v-650c-16 -6.66699 -31.667 -6.66699 -47 0v317c-18.667 -19.333 -47.167 -37.833 -85.5 -55.5s-79.166 -26.5 -122.499 -26.5c-70 0 -123 19.167 -159 57.5s-54 88.5 -54 150.5v207
c16 6.66699 31.667 6.66699 47 0v-202c0 -52 14.333 -93.667 43 -125s73.334 -47 134.001 -47c41.334 0 80.667 9.66699 118 29c37.334 19.333 63.667 38 79 56z" />
    <glyph glyph-name="uni0428" unicode="&#x428;" horiz-adv-x="987" 
d="M845 41v609c15.333 6.66699 31.333 6.66699 48 0v-650h-799v650c15.333 6.66699 31 6.66699 47 0v-609h329v609c16 6.66699 31.667 6.66699 47 0v-609h328z" />
    <glyph glyph-name="uni0429" unicode="&#x429;" horiz-adv-x="1012" 
d="M973 41v-158c-15.333 -6.66699 -31 -6.66699 -47 0v117h-832v650c15.333 6.66699 31 6.66699 47 0v-609h329v609c16 6.66699 31.667 6.66699 47 0v-609h328v609c15.333 6.66699 31.333 6.66699 48 0v-609h80z" />
    <glyph glyph-name="uni042A" unicode="&#x42a;" horiz-adv-x="699" 
d="M216 410h177.001c76 0 134.333 -19.833 174.999 -59.5c40.667 -39.667 61 -88.167 61 -145.5s-20.333 -105.833 -61 -145.5s-99 -59.5 -175 -59.5h-224v609h-127c-5.33301 14 -5.33301 27.667 0 41h174v-240zM216.001 41l177 -0.000976562c62 0 108.833 15.667 140.5 47
s47.5 70.333 47.5 117s-15.833 85.834 -47.5 117.501s-78.5 47.5 -140.5 47.5h-177v-329z" />
    <glyph glyph-name="uni042B" unicode="&#x42b;" horiz-adv-x="790" 
d="M141 410h176.999c76.667 0 135.334 -19.833 176.001 -59.5s61 -88.167 61 -145.5s-20.333 -105.833 -61 -145.5s-99.334 -59.5 -176 -59.5h-224v650c15.333 6.66699 31 6.66699 47 0v-240zM648.999 0v650c16 6.66699 31.667 6.66699 47 0v-650
c-15.333 -6.66699 -31 -6.66699 -47 0zM141.999 41l177 -0.000976562c62 0 108.833 15.667 140.5 47s47.5 70.333 47.5 117s-15.833 85.834 -47.5 117.501s-78.5 47.5 -140.5 47.5h-177v-329z" />
    <glyph glyph-name="uni042C" unicode="&#x42c;" horiz-adv-x="624" 
d="M141 410h176.999c76.667 0 135.334 -19.833 176.001 -59.5s61 -88.167 61 -145.5s-20.333 -105.833 -61 -145.5s-99.334 -59.5 -176 -59.5h-224v650c15.333 6.66699 31 6.66699 47 0v-240zM141.999 41l177 -0.000976562c62 0 108.833 15.667 140.5 47
s47.5 70.333 47.5 117s-15.833 85.834 -47.5 117.501s-78.5 47.5 -140.5 47.5h-177v-329z" />
    <glyph glyph-name="uni042D" unicode="&#x42d;" horiz-adv-x="727" 
d="M314 665c101.333 0 183.999 -32.834 247.999 -98.501s96 -146.167 96 -241.5s-32 -175.833 -96 -241.5s-146.667 -98.5 -248 -98.5c-88.667 0 -162.334 21.333 -221.001 64c-2 4 -3.16699 12 -3.5 24s0.833984 19.667 3.50098 23c61.333 -46.667 134.333 -70 219 -70
c84 0 153.5 26.833 208.5 80.5s84.167 120.834 87.5 201.501h-335c-6 14 -6 27.667 0 41h335c-5.33301 78.667 -35.5 144.167 -90.5 196.5s-123.5 78.5 -205.5 78.5c-84.667 0 -157.667 -23.333 -219 -70c-2.66699 3.33301 -3.83398 11 -3.5 23c0.333008 12 1.5 20 3.5 24
c58.667 42.667 132.334 64 221.001 64z" />
    <glyph glyph-name="uni042E" unicode="&#x42e;" horiz-adv-x="1020" 
d="M611 665c98.667 0 179.833 -32.833 243.499 -98.5c63.667 -65.667 95.5 -146.167 95.5 -241.5s-31.833 -175.833 -95.5 -241.5s-144.834 -98.5 -243.501 -98.5c-95.333 0 -174.666 31 -237.999 93s-96.666 138.667 -99.999 230h-132v-308
c-15.333 -6.66699 -31 -6.66699 -47 0v650c15.333 6.66699 31 6.66699 47 0v-301h132c5.33301 89.334 39.5 164.334 102.5 225c63 60.667 141.5 91 235.5 91zM610.999 26c84.667 0 154.5 28.5 209.5 85.5s82.5 128.167 82.5 213.5s-27.5 156.5 -82.5 213.5
s-124.833 85.5 -209.5 85.5c-84 0 -153.5 -28.5 -208.5 -85.5s-82.5 -128.167 -82.5 -213.5s27.5 -156.5 82.5 -213.5s124.5 -85.5 208.5 -85.5z" />
    </font>
</defs>
</svg>
