<?xml version="1.0" standalone="no"?>
<!DOCTYPE svg PUBLIC "-//W3C//DTD SVG 1.1//EN" "http://www.w3.org/Graphics/SVG/1.1/DTD/svg11.dtd" >
<svg xmlns="http://www.w3.org/2000/svg" xmlns:xlink="http://www.w3.org/1999/xlink" version="1.1">
<metadata>
Created by FontForge 20150715 at Fri Oct 23 13:20:21 2015
 By Jimmy Wärting
Copyright (c) 2013 by Mariya Pigoulevskaya. All rights reserved.
</metadata>
<defs>
<font id="Merel-Black" horiz-adv-x="539" >
  <font-face 
    font-family="Merel-Black"
    font-weight="400"
    font-stretch="normal"
    units-per-em="1000"
    panose-1="0 0 10 0 0 0 0 0 0 0"
    ascent="789"
    descent="-211"
    x-height="400"
    cap-height="650"
    bbox="-81.999 -366.503 1155 1170"
    underline-thickness="50"
    underline-position="-50"
    unicode-range="U+0020-25CA"
  />
<missing-glyph horiz-adv-x="500" 
d="M0 0v700h500v-700h-500zM250 395l170 255h-340zM280 350l170 -255v510zM80 50h340l-170 255zM50 605v-510l170 255z" />
    <glyph glyph-name=".notdef" horiz-adv-x="500" 
d="M0 0v700h500v-700h-500zM250 395l170 255h-340zM280 350l170 -255v510zM80 50h340l-170 255zM50 605v-510l170 255z" />
    <glyph glyph-name="space" unicode=" " horiz-adv-x="250" 
 />
    <glyph glyph-name="exclam" unicode="!" horiz-adv-x="240" 
d="M200 537l-33.998 -302c-30.667 -7.33301 -61.334 -7.33301 -92.001 0l-34 302v113c53.333 9.33301 106.666 9.33301 159.999 0v-113zM120.002 154c25.333 0 46.666 -8 63.999 -24s26 -36.333 26 -61c0 -24 -8.66699 -44 -26 -60s-38.666 -24 -63.999 -24
s-46.666 8 -63.999 24s-26 36 -26 60c0 24.667 8.66699 45 26 61s38.666 24 63.999 24z" />
    <glyph glyph-name="quotedbl" unicode="&#x22;" horiz-adv-x="427" 
d="M189 650l-47.001 -197c-37.333 -6.66699 -74.666 -6.66699 -111.999 0v197c53.333 9.33301 106.333 9.33301 159 0zM396.999 650l-47.001 -197c-37.333 -6.66699 -74.666 -6.66699 -111.999 0v197c53.333 9.33301 106.333 9.33301 159 0z" />
    <glyph glyph-name="numbersign" unicode="#" horiz-adv-x="583" 
d="M412 288l96 -0.000976562c0.666992 -10 -1.66602 -24.333 -6.99902 -43s-10.666 -31.334 -15.999 -38.001h-96l-60 -207c-30 -8 -60 -8 -90 0l60 207h-82l-60 -207c-30 -8 -60 -8 -90 0l60 207h-97c-0.666992 10 1.66602 24.333 6.99902 43s10.666 31.334 15.999 38.001
h97l21 74h-96c-0.666016 10 1.66699 24.333 7 43c5.33398 18.667 10.667 31.334 16 38.001h96l60 207c30 8 60 8 90 0l-60 -207h82l60 207c30 8 60 8 90 0l-60 -207h97c0.649414 -10 -1.68359 -24.333 -7 -43c-5.3418 -18.667 -10.6748 -31.334 -16 -38h-97zM261 361.999
l-21 -74h82l21 74h-82z" />
    <glyph glyph-name="dollar" unicode="$" horiz-adv-x="552" 
d="M507 191c0 -60.667 -19.3359 -108.666 -58.0029 -143.999s-88.667 -55.666 -150 -60.999v-94c-16.667 -8 -33 -8 -49 0v93c-67.333 3.33301 -126.666 20 -177.999 50c-4 11.333 -6.33301 37.5 -7 78.5c-0.666016 41 1.66699 65.5 7 73.5c78 -46 141.333 -69 190 -69
c27.333 0 48 5.5 62 16.5s21 25.833 21 44.5c0 18 -7.66699 31.667 -23 41s-47.666 22 -96.999 38c-23.333 8 -44 16.333 -62 25s-36.833 20.667 -56.5 36c-19.667 15.334 -34.834 34.667 -45.501 58c-10.667 23.334 -16 49.667 -16 79c0 54.667 18.167 101.5 54.5 140.5
s86.5 61.5 150.5 67.5v94c16 8 32.333 8 49 0v-94c57.333 -2.66699 111 -19 161 -49c4 -12.667 6.33301 -39.167 7 -79.5s-1.66602 -64.5 -6.99902 -72.5c-78 46 -137.667 69 -179 69c-22.667 0 -40.667 -5.33301 -54 -16c-13.333 -10.668 -20 -25.335 -20 -44.001
c0 -18.668 8 -32.835 24 -42.501c16 -9.66699 46.667 -21.5 92 -35.5c24.667 -8 45.834 -16.167 63.501 -24.5s36.667 -20 57 -35s36 -34.667 47 -59s16.5 -52.5 16.5 -84.5z" />
    <glyph glyph-name="percent" unicode="%" horiz-adv-x="752" 
d="M176 665c44.667 0 80.167 -15.333 106.5 -46s39.5 -72 39.5 -124s-13.167 -93.333 -39.5 -124s-61.833 -46 -106.5 -46s-80.167 15.333 -106.5 46s-39.5 72 -39.5 124s13.167 93.333 39.5 124s61.833 46 106.5 46zM575 650l-308 -650c-30 -8 -60 -8 -90 0l308 650
c30 8 60 8 90 0zM176 578c-26 0 -39 -27.667 -39 -83s13 -83 39 -83s39 27.667 39 83s-13 83 -39 83zM576 325c44.667 0 80.167 -15.333 106.5 -46s39.5 -72 39.5 -124s-13.167 -93.333 -39.5 -124s-61.833 -46 -106.5 -46s-80.167 15.333 -106.5 46s-39.5 72 -39.5 124
s13.167 93.333 39.5 124c26.334 30.667 61.834 46 106.5 46zM576 238c-26 0 -39 -27.667 -39 -83s13 -83 39 -83s39 27.667 39 83s-13 83 -39 83z" />
    <glyph glyph-name="ampersand" unicode="&#x26;" horiz-adv-x="722" 
d="M282 665c55.333 0 103.335 -13.666 144.002 -40.999s61 -67.333 61 -120c0 -36 -11 -67.333 -33 -94s-53.667 -53 -95 -79l84 -84c16 27.333 29.333 61.333 40 102c53.333 9.33301 106.666 9.33301 159.999 0c-20.667 -82 -51.667 -151.333 -93 -208l140 -140
c-22.667 -4 -55 -6 -97 -6s-74.333 2 -97 6l-43 43c-56.667 -40 -119 -60 -187 -60c-64.667 0 -119.834 17.167 -165.501 51.5s-68.5 81.833 -68.5 142.5c0 68.667 36.667 128.667 110 180c-42 47.334 -63 92.667 -63 136c0 49.333 19.667 90.166 59 122.499
s87.333 48.5 144 48.5zM283.002 532.001c-12 0 -22.333 -3.83105 -31 -11.498s-13 -17.834 -13 -30.501c0 -18.668 9 -39.335 27 -62.001c22.667 12 38.5 23 47.5 33s13.5 21 13.5 33c0 11.333 -3.83301 20.5 -11.5 27.5s-18.5 10.5 -32.5 10.5zM353.002 144.003l-113 112
c-30 -22 -45 -45.667 -45 -71c0 -22.667 7.66699 -39.667 23 -51s33.333 -17 54 -17c26.667 0 53.667 9 81 27z" />
    <glyph glyph-name="quotesingle" unicode="'" horiz-adv-x="219" 
d="M189 650l-47.001 -197c-37.333 -6.66699 -74.666 -6.66699 -111.999 0v197c53.333 9.33301 106.333 9.33301 159 0z" />
    <glyph glyph-name="parenleft" unicode="(" horiz-adv-x="292" 
d="M262 650c-27.333 -52.667 -48.666 -113.5 -63.999 -182.5s-23 -135.167 -23 -198.5s7.66699 -129.5 23 -198.5s36.666 -129.833 63.999 -182.5c-46.667 -8 -93.334 -8 -140.001 0c-61.333 104 -92 231 -92 381s30.667 277 92 381c46.667 8 93.334 8 140.001 0z" />
    <glyph glyph-name="parenright" unicode=")" horiz-adv-x="292" 
d="M170 650c61.333 -104 92 -231 92 -381s-30.667 -277 -92 -381c-46.667 -8 -93.334 -8 -140.001 0c27.333 52.667 48.666 113.5 63.999 182.5s23 135.167 23 198.5s-7.66699 129.5 -23 198.5s-36.666 129.833 -63.999 182.5c46.667 8 93.334 8 140.001 0z" />
    <glyph glyph-name="asterisk" unicode="*" horiz-adv-x="437" 
d="M254 518l119 58c18.667 -32 30 -66.333 34 -103l-127 -22l94 -95c-24.667 -30 -53 -52 -85 -66l-70 124l-71 -124c-32 14 -60.333 36 -85 66l94 95l-127 22c4 36.667 15.333 71 34 103l119 -58l-18 132c35.333 7.33301 71 7.33301 107 0z" />
    <glyph glyph-name="plus" unicode="+" horiz-adv-x="416" 
d="M261 310h119c8 -36 8 -72.667 0 -110h-120v-117c-34.667 -8 -69.667 -8 -105 0v118h-119c-8 36 -8 72.333 0 109h119v117c34.667 8 70 8 106 0v-117z" />
    <glyph glyph-name="comma" unicode="," horiz-adv-x="248" 
d="M120 154c26 0 48.8311 -9.00195 68.498 -27.002s29.5 -45.333 29.5 -82c0 -40 -11.167 -79.667 -33.5 -119s-43.166 -64.666 -62.499 -75.999c-25.333 -4.66699 -51 -4.66699 -77 0c37.333 34.667 69 80.334 95 137.001c-9.33398 -1.33301 -16.334 -2 -21 -2
c-24.667 0 -45.667 8 -63 24s-26 36 -26 60c0 24.667 8.83301 45 26.5 61s38.834 24 63.501 24z" />
    <glyph glyph-name="hyphen" unicode="-" horiz-adv-x="347" 
d="M36 310h275c8 -36 8 -72.667 0 -110l-275 1c-8 36 -8 72.333 0 109z" />
    <glyph glyph-name="period" unicode="." horiz-adv-x="240" 
d="M120 -15c-25.333 0 -46.666 8 -63.999 24s-26 36 -26 60c0 24.667 8.66699 45 26 61s38.666 24 63.999 24s46.666 -8 63.999 -24s26 -36.333 26 -61c0 -24 -8.66699 -44 -26 -60s-38.666 -24 -63.999 -24z" />
    <glyph glyph-name="slash" unicode="/" horiz-adv-x="366" 
d="M336 650l-171 -650c-44.667 -8 -89.667 -8 -135 0l171 650c45.333 8 90.333 8 135 0z" />
    <glyph glyph-name="zero" unicode="0" horiz-adv-x="648" 
d="M324 665c86 0 154 -30.667 204 -92s75 -144 75 -248s-25 -186.667 -75 -248s-118 -92 -204 -92s-154 30.667 -204 92s-75 144 -75 248s25 186.667 75 248s118 92 204 92zM324 532c-77.333 0 -116 -69 -116 -207s38.667 -207 116 -207s116 69 116 207
s-38.667 207 -116 207z" />
    <glyph glyph-name="one" unicode="1" horiz-adv-x="403" 
d="M39 529l168.998 121c41.333 7.33301 83 7.33301 125 0v-650c-53.333 -9.33301 -106.666 -9.33301 -159.999 0v472l-134 -97c-5.33301 8 -7.66602 32.833 -6.99902 74.5s3 68.167 7 79.5z" />
    <glyph glyph-name="two" unicode="2" horiz-adv-x="531" 
d="M297 133h187.998c8 -44.667 8 -89 0 -133h-453v10c116.667 143.333 193.167 244 229.5 302s54.5 102.667 54.5 134c0 28.667 -8 50.167 -24 64.5s-36.333 21.5 -61 21.5c-42.667 0 -96.667 -23 -162 -69c-5.33301 8 -7.66602 32.167 -6.99902 72.5s3 66.833 7 79.5
c17.333 14 41.833 25.833 73.5 35.5s65.5 14.5 101.5 14.5c74.667 0 132.334 -20 173.001 -60s61 -90.333 61 -151c0 -47.333 -14.333 -95 -43 -143s-74.667 -107.333 -138 -178z" />
    <glyph glyph-name="three" unicode="3" horiz-adv-x="545" 
d="M264 665c71.333 0 128 -16.165 170 -48.498s63 -75.5 63 -129.5c0 -34 -8 -64.333 -24 -91s-37.667 -47.334 -65 -62c32 -14.667 57 -35.834 75 -63.5c18 -27.667 27 -59.834 27 -96.501c0 -58.667 -22.833 -105 -68.5 -139s-102.5 -51 -170.5 -51
c-78.667 0 -144.334 16.667 -197.001 50c-4 12.667 -6.33301 39.167 -7 79.5c-0.666016 40.333 1.66699 64.5 7 72.5c74.667 -46 135.667 -69 183 -69c25.334 0 46.667 6.33301 64 19s26 32 26 58c0 46 -25.333 69 -76 69h-79c-7.33301 42 -7.33301 84 0 126h75
c21.333 0 38.333 6.16699 51 18.5s19 29.833 19 52.5c0 23.334 -7.33301 41.167 -22 53.499c-14.667 12.333 -34 18.5 -58 18.5c-44 0 -103.333 -23 -178 -69c-5.33301 8 -7.66602 32.167 -6.99902 72.5s3 66.833 7 79.5c53.333 33.333 115 50 185 50z" />
    <glyph glyph-name="four" unicode="4" horiz-adv-x="583" 
d="M470 252h74.999c7.33301 -43.333 7.33301 -87 0 -131h-75v-121c-53.333 -9.33301 -106.666 -9.33301 -159.999 0v121h-272c-7.33301 43.333 -7.33301 87 0 131l307 398c42 7.33301 83.667 7.33301 125 0v-398zM309.999 427l-135 -175h135v175z" />
    <glyph glyph-name="five" unicode="5" horiz-adv-x="537" 
d="M147 650l321 0.000976562c8 -44.667 8 -89 0 -133h-200l-16 -110c16 1.33301 28.333 2 37 2c60.667 0 111.334 -18.333 152.001 -55s61 -87.334 61 -152.001c0 -68 -23 -121.333 -69 -160s-105 -58 -177 -58c-36 0 -71.833 4.83301 -107.5 14.5s-64.5 21.5 -86.5 35.5
c-4 12.667 -6.33301 39.167 -7 79.5s1.66602 64.5 6.99902 72.5c74.667 -46 135.667 -69 183 -69c27.333 0 49.833 7.5 67.5 22.5s26.5 35.5 26.5 61.5c0 29.333 -11 51.333 -33 66s-50.667 22 -86 22c-33.333 0 -76 -9.66699 -128 -29z" />
    <glyph glyph-name="six" unicode="6" horiz-adv-x="580" 
d="M350 416c55.333 -1.33301 99.999 -21.6689 133.999 -61.002s51 -86.666 51 -141.999c0 -63.333 -22.167 -117.166 -66.5 -161.499s-103.5 -66.5 -177.5 -66.5c-75.333 0 -135.166 22.833 -179.499 68.5s-66.5 103.5 -66.5 173.5c0 45.333 10.333 92.333 31 141
s46 91.667 76 129s58.833 69.333 86.5 96s51.5 45.667 71.5 57c23.334 4 55.167 6 95.5 6s71.833 -2 94.5 -6c-114 -98 -192.333 -182.667 -235 -254c24 14 52.333 20.667 85 20zM289.999 117.997c24.667 0 44.501 8.33301 59.501 25s22.5 39 22.5 67
c0 26 -7.66699 46.333 -23 61s-35 22 -59 22c-28.667 0 -54.334 -10.333 -77.001 -31c-3.33301 -21.334 -5 -40.667 -5 -58c0 -23.333 7.33301 -43.5 22 -60.5s34.667 -25.5 60 -25.5z" />
    <glyph glyph-name="seven" unicode="7" horiz-adv-x="558" 
d="M526 640l-285.998 -640c-22.667 -4 -51.334 -6 -86.001 -6s-63.334 2 -86.001 6l231 517h-248c-8 44.667 -8 89 0 133h475v-10z" />
    <glyph glyph-name="eight" unicode="8" horiz-adv-x="548" 
d="M274 665c68 0 122.667 -16.6689 164 -50.002s62 -76 62 -128c0 -34 -8 -64.333 -24 -91s-37.667 -47.334 -65 -62c32 -14.667 57 -35.834 75 -63.5c18 -27.667 27 -59.834 27 -96.501c0 -58.667 -22.333 -105 -67 -139s-102 -51 -172 -51s-127.333 17 -172 51
s-67 80.333 -67 139c0 36.667 9 68.834 27 96.501s43 48.834 75 63.501c-27.333 14.667 -49 35.334 -65 62.001s-24 57 -24 91c0 52 20.667 94.667 62 128s96 50 164 50zM274 531.998c-20 0 -36.332 -6.66797 -48.999 -20.001s-19 -30.666 -19 -51.999
s6.16699 -38.666 18.5 -51.999s28.166 -20 47.499 -20h4c19.334 0 35.167 6.66699 47.5 20c12.333 13.334 18.5 30.667 18.5 52c0 21.334 -6.33301 38.667 -19 51.999c-12.667 13.333 -29 20 -49 20zM276.001 263.997h-4c-21.333 0 -39 -6.33301 -53 -19
s-21 -30.667 -21 -54c0 -24 7.16699 -42.333 21.5 -55s32.5 -19 54.5 -19s40.167 6.33301 54.5 19s21.5 31 21.5 55c0 23.333 -7 41.333 -21 54s-31.667 19 -53 19z" />
    <glyph glyph-name="nine" unicode="9" horiz-adv-x="580" 
d="M289 665c75.334 0 135.166 -22.8301 179.499 -68.4971s66.5 -103.5 66.5 -173.5c0 -45.333 -10.333 -92.333 -31 -141s-46 -91.667 -76 -129s-58.833 -69.333 -86.5 -96s-51.5 -45.667 -71.5 -57c-23.333 -4 -55.166 -6 -95.499 -6s-71.833 2 -94.5 6
c114 98 192.333 182.667 235 254c-24 -14 -52.333 -20.667 -85 -20c-55.333 1.33301 -100 21.666 -134 60.999s-51 86.666 -51 141.999c0 63.333 22.167 117.166 66.5 161.499s103.5 66.5 177.5 66.5zM289.999 532.003c-24.667 0 -44.501 -8.33301 -59.501 -25
s-22.5 -39 -22.5 -67c0 -26 7.66699 -46.333 23 -61s35 -22 59 -22c28.667 0 54.334 10.333 77.001 31c3.33301 21.334 5 40.667 5 58c0 23.333 -7.33301 43.5 -22 60.5s-34.667 25.5 -60 25.5z" />
    <glyph glyph-name="colon" unicode=":" horiz-adv-x="240" 
d="M120 246c-25.333 0 -46.666 8 -63.999 24s-26 36 -26 60c0 24.667 8.66699 45 26 61s38.666 24 63.999 24s46.666 -8 63.999 -24s26 -36.333 26 -61c0 -24 -8.66699 -44 -26 -60s-38.666 -24 -63.999 -24zM120 -15c-25.333 0 -46.666 8 -63.999 24s-26 36 -26 60
c0 24.667 8.66699 45 26 61s38.666 24 63.999 24s46.666 -8 63.999 -24s26 -36.333 26 -61c0 -24 -8.66699 -44 -26 -60s-38.666 -24 -63.999 -24z" />
    <glyph glyph-name="semicolon" unicode=";" horiz-adv-x="248" 
d="M120 415c25.333 0 46.666 -8 63.999 -24s26 -36.333 26 -61c0 -24 -8.66699 -44 -26 -60s-38.666 -24 -63.999 -24s-46.666 8 -63.999 24s-26 36 -26 60c0 24.667 8.66699 45 26 61s38.666 24 63.999 24zM120 154c26 0 48.8311 -9.00195 68.498 -27.002
s29.5 -45.333 29.5 -82c0 -40 -11.167 -79.667 -33.5 -119s-43.166 -64.666 -62.499 -75.999c-25.333 -4.66699 -51 -4.66699 -77 0c37.333 34.667 69 80.334 95 137.001c-9.33398 -1.33301 -16.334 -2 -21 -2c-24.667 0 -45.667 8 -63 24s-26 36 -26 60
c0 24.667 8.83301 45 26.5 61s38.834 24 63.501 24z" />
    <glyph glyph-name="less" unicode="&#x3c;" horiz-adv-x="429" 
d="M36 286l357 191c9.33301 -41.333 9.33301 -83 0 -125l-174 -90l174 -90c9.33301 -42 9.33301 -83.667 0 -125l-357 191c-8.66699 16.667 -8.66699 32.667 0 48z" />
    <glyph glyph-name="equal" unicode="=" horiz-adv-x="416" 
d="M36 400h344c8 -36 8 -72.667 0 -110l-344 1c-8 36.667 -8 73 0 109zM36 233h344c8 -36 8 -72.667 0 -110l-344 1c-8 36 -8 72.333 0 109z" />
    <glyph glyph-name="greater" unicode="&#x3e;" horiz-adv-x="429" 
d="M36 477l357 -191c8.66699 -15.333 8.66699 -31.333 0 -48l-357 -191c-9.33301 41.333 -9.33301 83 0 125l174 90l-174 90c-9.33301 42 -9.33301 83.667 0 125z" />
    <glyph glyph-name="question" unicode="?" horiz-adv-x="482" 
d="M288 235c-53.333 -9.33301 -106.67 -9.33301 -160.003 0c0 31.333 5 55.5 15 72.5s31.667 39.5 65 67.5c5.33301 4 12.166 9.5 20.499 16.5s14.333 12 18 15c3.66797 3 8.33496 7 14.001 12c5.66699 5 9.5 8.66699 11.5 11s4.5 5.5 7.5 9.5s5 7.5 6 10.5s2 6.5 3 10.5
s1.5 8 1.5 12c0 19.334 -6.66699 34.167 -20 44.499c-13.333 10.333 -31.333 15.5 -54 15.5c-41.333 0 -101 -23 -179 -69c-5.33301 8 -7.66602 32.167 -6.99902 72.5s3 66.833 7 79.5c56.667 33.333 122 50 196 50c70.667 0 124.834 -17.333 162.501 -52
s56.5 -76.667 56.5 -126c0 -32.667 -8.5 -60.167 -25.5 -82.5s-47.167 -51.833 -90.5 -88.5c-21.333 -18 -34.666 -31.167 -39.999 -39.5s-8 -22.166 -8 -41.499zM207.996 -15c-25.334 0 -46.665 8 -63.998 24s-26 36 -26 60c0 24.667 8.66699 45 26 61s38.666 24 63.999 24
s46.666 -8 63.999 -24s26 -36.333 26 -61c0 -24 -8.66699 -44 -26 -60c-17.334 -16 -38.667 -24 -64 -24z" />
    <glyph glyph-name="at" unicode="@" horiz-adv-x="903" 
d="M469 603c122 0 217.334 -34.001 286.001 -102.001s103 -152.667 103 -254c0 -92.667 -18.333 -159.5 -55 -200.5s-80.667 -61.5 -132 -61.5c-27.333 0 -54.333 5.83301 -81 17.5s-47.667 29.167 -63 52.5c-18.667 -24.667 -37.5 -42.5 -56.5 -53.5
s-43.5 -16.5 -73.5 -16.5c-55.333 0 -99.833 20.5 -133.5 61.5s-50.5 92.167 -50.5 153.5s16.833 112.5 50.5 153.5s78.167 61.5 133.5 61.5c51.334 0 92.667 -20.667 124 -62l11 47c41.333 7.33301 83 7.33301 125 0v-240c0 -42.667 10.333 -64 31 -64
c17.333 0 31.666 12.167 42.999 36.5s17 62.5 17 114.5c0 82.667 -25.167 145.834 -75.5 189.501c-50.334 43.667 -118.167 65.5 -203.5 65.5c-90.667 0 -165.667 -26.167 -225 -78.5s-89 -126.166 -89 -221.499c0 -42.667 6.5 -81 19.5 -115s30.167 -61.167 51.5 -81.5
s42.333 -36.333 63 -48s42 -20.167 64 -25.5c5.33301 -8 7.83301 -24 7.5 -48s-2.5 -41.667 -6.5 -53c-84 10 -156.5 49.667 -217.5 119s-91.5 153.666 -91.5 252.999c0 114 39.333 209.167 118 285.5s180.667 114.5 306 114.5zM437.001 289.999
c-23.333 0 -42.333 -8 -57 -24s-22 -38 -22 -66s7.33301 -50 22 -66s33.667 -24 57 -24c27.333 0 52.333 10.667 75 32v116c-22.667 21.333 -47.667 32 -75 32z" />
    <glyph glyph-name="A" unicode="A" horiz-adv-x="724" 
d="M428 650l264 -650c-54.667 -9.33301 -109.667 -9.33301 -165 0l-46 123h-238l-46 -123c-55.333 -9.33301 -110.333 -9.33301 -165 0l264 650c44 7.33301 88 7.33301 132 0zM293 258h138l-69 186z" />
    <glyph glyph-name="B" unicode="B" horiz-adv-x="610" 
d="M70 650h280.001c62.667 0 113.667 -15.833 153 -47.5s59 -72.5 59 -122.5c0 -66 -29.667 -114 -89 -144c31.333 -14 56.166 -34 74.499 -60s27.5 -56.667 27.5 -92c0 -57.333 -20.167 -102.333 -60.5 -135s-94.5 -49 -162.5 -49h-282v650zM230.001 517v-134h102
c21.333 0 38.333 5.83301 51 17.5s19 28.167 19 49.5c0 44.667 -23.333 67 -70 67h-102zM230.001 271v-138h112c46.667 0 70 23.333 70 70c0 45.333 -25.333 68 -76 68h-106z" />
    <glyph glyph-name="C" unicode="C" horiz-adv-x="684" 
d="M421 118c58.667 0 121.667 20.668 189 62.001c5.33301 -8 7.66602 -31.333 6.99902 -70s-3 -63.667 -7 -75c-54 -33.333 -120 -50 -198 -50c-110.667 0 -199.5 32.667 -266.5 98s-100.5 146 -100.5 242s33.5 176.667 100.5 242s155.833 98 266.5 98
c78 0 144 -16.667 198 -50c4 -11.333 6.33301 -36.333 7 -75c0.647461 -38.667 -1.68555 -62 -7 -70c-67.334 41.333 -130.334 62 -189 62c-60.667 0 -111.334 -18.833 -152 -56.5c-40.667 -37.667 -61 -87.834 -61 -150.5c0 -62.667 20.333 -112.834 61 -150.501
s91.334 -56.5 152.001 -56.5z" />
    <glyph glyph-name="D" unicode="D" horiz-adv-x="707" 
d="M70 650h247c102 0 185 -30.5 249 -91.5s96 -138.833 96 -233.5s-32 -172.5 -96 -233.5s-147 -91.5 -249 -91.5h-247v650zM230 133h87c52 0 95.333 16.5 130 49.5s52 80.5 52 142.5s-17.333 109.5 -52 142.5s-78 49.5 -130 49.5h-87v-384z" />
    <glyph glyph-name="E" unicode="E" horiz-adv-x="564" 
d="M230 133h293c8 -44 8 -88.333 0 -133h-453v650h453c8 -44.667 8 -89 0 -133h-293v-122h259c8 -44.667 8 -89 0 -133h-259v-129z" />
    <glyph glyph-name="F" unicode="F" horiz-adv-x="564" 
d="M230 388h258.999c8 -44 8 -88.333 0 -133h-259v-255c-53.333 -9.33301 -106.666 -9.33301 -159.999 0v650h453c8 -44.667 8 -89 0 -133h-293v-129z" />
    <glyph glyph-name="G" unicode="G" horiz-adv-x="698" 
d="M474 120l-0.000976562 197c52 9.33301 104.333 9.33301 157 0v-282c-21.333 -13.333 -52.333 -25 -93 -35s-82.667 -15 -126 -15c-110.667 0 -199.5 32.667 -266.5 98s-100.5 146 -100.5 242s33.5 176.667 100.5 242s155.833 98 266.5 98c78 0 144 -16.667 198 -50
c4 -11.333 6.33301 -36.333 7 -75c0.647461 -38.667 -1.68555 -62 -7 -70c-67.334 41.333 -130.334 62 -189 62c-60.667 0 -111.334 -18.833 -152 -56.5c-40.667 -37.667 -61 -87.834 -61 -150.5c0 -64 20.333 -115 61 -153s91.334 -57 152.001 -57
c15.333 0 33 1.66699 53 5z" />
    <glyph glyph-name="H" unicode="H" horiz-adv-x="729" 
d="M499 395l0.000976562 255c53.333 9.33301 106.666 9.33301 159.999 0v-650c-53.334 -9.33301 -106.667 -9.33301 -160 0v262h-269v-262c-53.333 -9.33301 -106.666 -9.33301 -159.999 0v650c53.333 9.33301 106.666 9.33301 159.999 0v-255h269z" />
    <glyph glyph-name="I" unicode="I" horiz-adv-x="300" 
d="M230 650v-650c-53.333 -9.33301 -106.666 -9.33301 -159.999 0v650c53.333 9.33301 106.666 9.33301 159.999 0z" />
    <glyph glyph-name="J" unicode="J" horiz-adv-x="408" 
d="M338 650l0.00292969 -465.999c0 -62.667 -16 -111.5 -48 -146.5s-76 -52.5 -132 -52.5c-46.667 0 -86.334 10.333 -119.001 31c-4 11.333 -6.33301 33.666 -7 66.999s1.66602 54 6.99902 62c30.667 -11.333 55 -17 73 -17c44 0 66 23.667 66 71v451
c53.333 9.33301 106.666 9.33301 159.999 0z" />
    <glyph glyph-name="K" unicode="K" horiz-adv-x="675" 
d="M401 334l242 -334c-23.333 -4 -55 -6 -95 -6s-71.333 2 -94 6l-224 312v-312c-53.333 -9.33301 -106.666 -9.33301 -159.999 0v650c53.333 9.33301 106.666 9.33301 159.999 0v-294l216 294c23.333 4 54.833 6 94.5 6s71.167 -2 94.5 -6z" />
    <glyph glyph-name="L" unicode="L" horiz-adv-x="536" 
d="M230 133h268.001c8 -44 8 -88.333 0 -133h-428v650c53.333 9.33301 106.666 9.33301 159.999 0v-517z" />
    <glyph glyph-name="M" unicode="M" horiz-adv-x="928" 
d="M742 650l153.999 -650c-52 -9.33301 -104 -9.33301 -156 0l-80 365l-132 -365c-42.667 -7.33301 -85.334 -7.33301 -128 0l-132 365l-80 -365c-52 -9.33301 -104 -9.33301 -156 0l154 650c44.667 8 89.334 8 134.001 0l144 -398l144 398c44.667 8 89.334 8 134 0z" />
    <glyph glyph-name="N" unicode="N" horiz-adv-x="722" 
d="M655 650v-650c-42 -7.33301 -83.667 -7.33301 -125 0l-303 381v-381c-53.333 -9.33301 -106.666 -9.33301 -159.999 0v650c42 7.33301 83.667 7.33301 125 0l303 -381v381c53.333 9.33301 106.666 9.33301 159.999 0z" />
    <glyph glyph-name="O" unicode="O" horiz-adv-x="780" 
d="M390 665c101.333 0 184.166 -32.833 248.499 -98.5s96.5 -146.167 96.5 -241.5s-32.167 -175.833 -96.5 -241.5s-147.166 -98.5 -248.499 -98.5s-184.166 32.833 -248.499 98.5s-96.5 146.167 -96.5 241.5s32.167 175.833 96.5 241.5s147.166 98.5 248.499 98.5zM390 532
c-50.667 0 -93.667 -18.834 -129 -56.501s-53 -87.834 -53 -150.5c0 -62.667 17.667 -112.834 53 -150.501s78.333 -56.5 129 -56.5s93.667 18.833 129 56.5s53 87.834 53 150.501s-17.667 112.834 -53 150.501s-78.333 56.5 -129 56.5z" />
    <glyph glyph-name="P" unicode="P" horiz-adv-x="615" 
d="M70 650h254.999c72.667 0 131.667 -20 177 -60s68 -92.667 68 -158s-22.667 -118 -68 -158s-104.333 -60 -177 -60h-95v-214c-53.333 -9.33301 -106.666 -9.33301 -159.999 0v650zM229.999 347h95c23.333 0 42.833 7.16699 58.5 21.5s23.5 35.5 23.5 63.5
s-7.83301 49.167 -23.5 63.5s-35.167 21.5 -58.5 21.5h-95v-170z" />
    <glyph glyph-name="Q" unicode="Q" horiz-adv-x="780" 
d="M390 665c101.333 0 184.169 -32.832 248.502 -98.499s96.5 -146.167 96.5 -241.5c0 -69.333 -17.833 -131.833 -53.5 -187.5s-84.167 -96.834 -145.5 -123.501l123 -179c-55.334 -9.33301 -110.667 -9.33301 -166 0l-103 150h-9c-98.667 2 -179.334 35.667 -242.001 101
s-94 145 -94 239c0 95.333 32.167 175.833 96.5 241.5s147.166 98.5 248.499 98.5zM390.003 532.001c-50.667 0 -93.667 -18.834 -129 -56.501s-53 -87.834 -53 -150.5c0 -62.667 17.667 -112.834 53 -150.501s78.333 -56.5 129 -56.5s93.667 18.833 129 56.5
s53 87.834 53 150.501s-17.667 112.834 -53 150.501s-78.333 56.5 -129 56.5z" />
    <glyph glyph-name="R" unicode="R" horiz-adv-x="641" 
d="M70 650l259.999 -0.00195312c72.667 0 131.667 -19.833 177 -59.5s68 -91.5 68 -155.5c0 -43.333 -11 -81.666 -33 -114.999s-52.333 -58.666 -91 -75.999l158 -244c-23.333 -4 -52.5 -6 -87.5 -6s-63.833 2 -86.5 6l-143 220h-62v-220
c-53.333 -9.33301 -106.666 -9.33301 -159.999 0v650zM229.999 516.998v-164h100c23.333 0 42.833 7 58.5 21s23.5 34.333 23.5 61s-7.83301 47 -23.5 61s-35.167 21 -58.5 21h-100z" />
    <glyph glyph-name="S" unicode="S" horiz-adv-x="552" 
d="M280 665c63.333 0 123.33 -16.665 179.997 -49.998c4 -12.667 6.33301 -39.167 7 -79.5s-1.66602 -64.5 -6.99902 -72.5c-78 46 -137.667 69 -179 69c-22.667 0 -40.667 -5.33301 -54 -16c-13.333 -10.668 -20 -25.335 -20 -44.001c0 -18.668 8 -32.835 24 -42.501
c16 -9.66699 46.667 -21.5 92 -35.5c24.667 -8 45.834 -16.167 63.501 -24.5s36.667 -20 57 -35s36 -34.667 47 -59s16.5 -52.5 16.5 -84.5c0 -66 -22.5 -116.833 -67.5 -152.5s-102.167 -53.5 -171.5 -53.5c-75.333 0 -140.666 16.667 -195.999 50
c-4 11.333 -6.33301 37.5 -7 78.5c-0.666016 41 1.66699 65.5 7 73.5c78 -46 141.333 -69 190 -69c27.333 0 48 5.5 62 16.5s21 25.833 21 44.5c0 18 -7.66699 31.667 -23 41s-47.666 22 -96.999 38c-23.333 8 -44 16.333 -62 25s-36.833 20.667 -56.5 36
c-19.667 15.334 -34.834 34.667 -45.501 58c-10.667 23.334 -16 49.667 -16 79c0 59.333 20.833 109 62.5 149s99.167 60 172.5 60z" />
    <glyph glyph-name="T" unicode="T" horiz-adv-x="588" 
d="M38 650h511.999c8 -44.667 8 -89 0 -133h-176v-517c-53.333 -9.33301 -106.666 -9.33301 -159.999 0v517h-176c-8 44.667 -8 89 0 133z" />
    <glyph glyph-name="U" unicode="U" horiz-adv-x="691" 
d="M461 248l-0.00195312 402c54 9.33301 108.333 9.33301 163 0v-377c0 -192 -92.333 -288 -277 -288s-277 96 -277 288v377c54 9.33301 108.333 9.33301 163 0v-402c0 -38.667 9.83301 -70 29.5 -94s47.834 -36 84.501 -36s64.834 12 84.501 36s29.5 55.333 29.5 94z" />
    <glyph glyph-name="V" unicode="V" horiz-adv-x="714" 
d="M357 239l160 411c55.333 9.33301 110.333 9.33301 165 0l-259 -650c-44 -7.33301 -88 -7.33301 -132 0l-259 650c55.333 9.33301 110.333 9.33301 165 0z" />
    <glyph glyph-name="W" unicode="W" horiz-adv-x="1026" 
d="M994 650l-224 -650c-44 -7.33301 -88 -7.33301 -132 0l-125 384l-125 -384c-44 -7.33301 -88 -7.33301 -132 0l-224 650c55.333 9.33301 110.333 9.33301 165 0l125 -412l125 412c44 7.33301 88 7.33301 132 0l125 -412l125 412c55.333 9.33301 110.333 9.33301 165 0z
" />
    <glyph glyph-name="X" unicode="X" horiz-adv-x="683" 
d="M449 334l202 -334c-23.333 -4 -54 -6 -92 -6s-68.333 2 -91 6l-132 222l-121 -222c-23.333 -4 -54 -6 -92 -6s-68.333 2 -91 6l202 334l-194 316c22.667 4 53 6 91 6s68.667 -2 92 -6l124 -206l113 206c22.667 4 53.167 6 91.5 6s68.833 -2 91.5 -6z" />
    <glyph glyph-name="Y" unicode="Y" horiz-adv-x="698" 
d="M429 225l-0.000976562 -225c-53.333 -9.33301 -106.666 -9.33301 -159.999 0v225l-237 425c23.333 4 52 6 86 6s62.333 -2 85 -6l146 -276l146 276c23.333 4 52 6 86 6s62.333 -2 85 -6z" />
    <glyph glyph-name="Z" unicode="Z" horiz-adv-x="563" 
d="M270 133h252c8 -44 8 -88.333 0 -133h-487v10l258 507h-240c-8 44.667 -8 89 0 133h475v-10z" />
    <glyph glyph-name="bracketleft" unicode="[" horiz-adv-x="305" 
d="M175 14h94c7.33301 -41.333 7.33301 -83.333 0 -126h-239v761l239 1c7.33301 -41.333 7.33301 -83.333 0 -126h-94v-510z" />
    <glyph glyph-name="backslash" unicode="\" horiz-adv-x="366" 
d="M201 0l-171 650c45.333 8 90.333 8 135 0l171 -650c-45.333 -8 -90.333 -8 -135 0z" />
    <glyph glyph-name="bracketright" unicode="]" horiz-adv-x="305" 
d="M275 -112h-239c-7.33301 42.667 -7.33301 84.667 0 126h94v510h-94c-7.33301 42.667 -7.33301 84.667 0 126l239 -1v-761z" />
    <glyph glyph-name="asciicircum" unicode="^" horiz-adv-x="404" 
d="M202 650l164.998 -166c4 -12.667 6.33301 -39.667 7 -81s-1.66602 -66 -6.99902 -74l-165 167l-165 -167c-5.33301 8 -7.66602 32.667 -6.99902 74s3 68.333 7 81z" />
    <glyph glyph-name="underscore" unicode="_" horiz-adv-x="465" 
d="M36 -18h393c8 -36 8 -72.667 0 -110l-393 1c-8 36.667 -8 73 0 109z" />
    <glyph glyph-name="grave" unicode="`" horiz-adv-x="266" 
d="M125 940l111.002 -174c-6 -11.333 -17 -23 -33 -35s-30.333 -19.333 -43 -22l-130 159c5.33301 12 19.166 26.333 41.499 43c22.333 16.6738 40.166 26.3408 53.499 29z" />
    <glyph glyph-name="a" unicode="a" horiz-adv-x="474" 
d="M228 415c67.333 0 116.332 -16.168 146.999 -48.501s46 -80.5 46 -144.5v-222c-42 -7.33301 -83.667 -7.33301 -125 0l-9 40c-31.333 -36.667 -69 -55 -113 -55c-37.333 0 -69.5 11.333 -96.5 34s-40.5 54.334 -40.5 95.001c0 40 13.5 71.333 40.5 94s61.167 34 102.5 34
s73.333 -9.66699 96 -29v22c0 22.667 -6.16699 39 -18.5 49s-32.5 15 -60.5 15c-38 0 -78.667 -11.667 -122 -35c-5.33301 8 -7.66602 26.5 -6.99902 55.5s3 49.167 7 60.5c38 23.333 89 35 153 35zM218.999 153.999c-25.333 0 -38 -10 -38 -30
c0 -8.66699 3.16699 -16 9.5 -22s15.5 -9 27.5 -9c22 0 41.333 5.66699 58 17v28c-14 10.667 -33 16 -57 16z" />
    <glyph glyph-name="b" unicode="b" 
d="M315 415c55.333 0 99.832 -20.5 133.499 -61.5s50.5 -92.167 50.5 -153.5s-16.833 -112.5 -50.5 -153.5s-78.167 -61.5 -133.5 -61.5c-51.333 0 -92.666 20.667 -123.999 62l-11 -47c-41.333 -7.33301 -83 -7.33301 -125 0v650c48.667 8.66699 97 8.66699 145 0v-285
c28 33.333 66.333 50 115 50zM274.999 110c23.333 0 42.333 8 57 24s22 38 22 66s-7.33301 50 -22 66s-33.667 24 -57 24c-27.333 0 -52.333 -10.667 -75 -32v-116c22.667 -21.333 47.667 -32 75 -32z" />
    <glyph glyph-name="c" unicode="c" horiz-adv-x="460" 
d="M281 107c36 0 75.666 12.665 118.999 37.998c5.33984 -8 7.67285 -26.833 7 -56.5c-0.666992 -29.667 -3 -50.167 -7 -61.5c-37.333 -28 -82 -42 -134 -42c-67.333 0 -121.833 19.833 -163.5 59.5s-62.5 91.5 -62.5 155.5s20.833 115.833 62.5 155.5
s96.167 59.5 163.5 59.5c52 0 96.667 -14 134 -42c4 -11.333 6.33301 -31.833 7 -61.5s-1.66602 -48.5 -6.99902 -56.5c-43.333 25.333 -83 38 -119 38c-28 0 -51 -8.16699 -69 -24.5s-27 -39.166 -27 -68.499s9 -52.166 27 -68.499s41 -24.5 69 -24.5z" />
    <glyph glyph-name="d" unicode="d" 
d="M339 365l-0.000976562 285c48 8.66699 96.333 8.66699 145 0v-650c-41.333 -7.33301 -83 -7.33301 -125 0l-11 47c-31.333 -41.333 -72.666 -62 -123.999 -62c-55.333 0 -99.833 20.5 -133.5 61.5s-50.5 92.167 -50.5 153.5s16.833 112.5 50.5 153.5
s78.167 61.5 133.5 61.5c48.667 0 87 -16.667 115 -50zM338.999 142v116c-22.667 21.333 -47.667 32 -75 32c-23.333 0 -42.333 -8 -57 -24s-22 -38 -22 -66s7.33301 -50 22 -66s33.667 -24 57 -24c27.333 0 52.333 10.667 75 32z" />
    <glyph glyph-name="e" unicode="e" horiz-adv-x="489" 
d="M258 415c32 0 60.834 -5.50195 86.501 -16.502s45.5 -25 59.5 -42s25.667 -36.167 35 -57.5s13.5 -42.166 12.5 -62.499s-3.5 -39.166 -7.5 -56.499h-257c4 -23.333 14.667 -41.333 32 -54s38.666 -19 63.999 -19c41.334 0 83.667 12.667 127 38
c5.33984 -8 7.67285 -26.833 7 -56.5c-0.666992 -29.667 -3 -50.167 -7 -61.5c-37.333 -28 -85 -42 -143 -42c-68.667 0 -123.667 20 -165 60s-62 92 -62 156c0 62.667 20.5 114 61.5 154s93.167 60 156.5 60zM259.001 305.998c-32.667 0 -54 -17.333 -64 -52h118
c-4 34.667 -22 52 -54 52z" />
    <glyph glyph-name="f" unicode="f" horiz-adv-x="381" 
d="M283 543c-30.667 0 -46.001 -17.333 -46.001 -52v-91h93c8.66699 -40.667 8.66699 -81.334 0 -122h-93v-278c-48.667 -8.66699 -97 -8.66699 -145 0v278h-56c-8.66699 40.667 -8.66699 81.334 0 122.001h56v121c0 45.333 14.833 80.666 44.5 105.999s65.5 38 107.5 38
c36.667 0 70 -6 100 -18c4 -11.333 6.33301 -32.833 7 -64.5s-1.66602 -51.5 -6.99902 -59.5c-32 13.333 -52.333 20 -61 20z" />
    <glyph glyph-name="g" unicode="g" 
d="M224 415c51.334 0 92.667 -20.6689 124 -62.002l11 47c41.333 7.33301 83 7.33301 125 0v-378c0 -62 -19.5 -110.833 -58.5 -146.5s-92.167 -53.5 -159.5 -53.5c-34 0 -65.167 3.83301 -93.5 11.5c-28.333 7.66602 -49.833 16.833 -64.5 27.5
c-4 11.333 -6.33301 31.333 -7 60c-0.666016 28.667 1.66699 47 7 55c40 -23.333 82.333 -35 127 -35c69.333 0 104 24.333 104 73v31c-28 -33.333 -66.333 -50 -115 -50c-54.667 0 -99 20.333 -133 61s-51 90.334 -51 149.001s17 108.334 51 149.001s78.333 61 133 61z
M264 289.998c-22.667 0 -41.5 -7.83301 -56.5 -23.5s-22.5 -36.167 -22.5 -61.5s7.5 -45.833 22.5 -61.5s33.833 -23.5 56.5 -23.5c27.333 0 52.333 10.667 75 32v106c-22.667 21.333 -47.667 32 -75 32z" />
    <glyph glyph-name="h" unicode="h" horiz-adv-x="509" 
d="M310 415c50.667 0 87.667 -15.167 111 -45.5s35 -66.5 35 -108.5v-261c-48.667 -8.66699 -97 -8.66699 -145 0v228c0 41.333 -17.333 62 -52 62c-21.333 0 -40.333 -7.66699 -57 -23v-267c-48 -8.66699 -96.333 -8.66699 -145 0v650c48.667 8.66699 97 8.66699 145 0
v-282c34.667 31.333 70.667 47 108 47z" />
    <glyph glyph-name="i" unicode="i" horiz-adv-x="292" 
d="M147 665c25.333 0 46.667 -8 64 -24s26 -36.333 26 -61c0 -24 -8.66699 -44 -26 -60c-17.334 -16 -38.667 -24 -64 -24s-46.666 8 -63.999 24s-26 36 -26 60c0 24.667 8.66699 45 26 61s38.666 24 63.999 24zM219.001 400v-400c-48.667 -8.66699 -97 -8.66699 -145 0v400
c48.667 8.66699 97 8.66699 145 0z" />
    <glyph glyph-name="j" unicode="j" horiz-adv-x="310" 
d="M165 665c25.333 0 46.667 -8 64 -24s26 -36.333 26 -61c0 -24 -8.66699 -44 -26 -60c-17.334 -16 -38.667 -24 -64 -24s-46.666 8 -63.999 24s-26 36 -26 60c0 24.667 8.66699 45 26 61s38.666 24 63.999 24zM237.001 400l0.000976562 -433.999
c0 -46.667 -11 -82.334 -33 -107.001s-53 -37 -93 -37c-36.667 0 -70 6 -100 18c-4 11.333 -6.33301 32 -7 62s1.66602 49 6.99902 57c26.667 -10 46.667 -15 60 -15c10 0 16 2.83301 18 8.5s3 17.167 3 34.5v413c48 8.66699 96.333 8.66699 145 0z" />
    <glyph glyph-name="k" unicode="k" horiz-adv-x="511" 
d="M347 210l134 -210c-54 -9.33301 -108 -9.33301 -162 0l-117 190v-190c-48 -8.66699 -96.333 -8.66699 -145 0v650c48.667 8.66699 97 8.66699 145 0v-422l113 172c54 9.33301 108 9.33301 162 0z" />
    <glyph glyph-name="l" unicode="l" horiz-adv-x="255" 
d="M202 650v-650c-48 -8.66699 -96.333 -8.66699 -145 0v650c48.667 8.66699 97 8.66699 145 0z" />
    <glyph glyph-name="m" unicode="m" horiz-adv-x="771" 
d="M572 415c50.667 0 87.666 -15.167 110.999 -45.5s35 -66.5 35 -108.5v-261c-48.667 -8.66699 -97 -8.66699 -145 0v228c0 41.333 -17.333 62 -52 62c-23.333 0 -44 -9 -62 -27v-263c-48.667 -8.66699 -97 -8.66699 -145 0v228c0 41.333 -17.333 62 -52 62
c-23.333 0 -44 -9 -62 -27v-263c-48.667 -8.66699 -97 -8.66699 -145 0v400c42 7.33301 83.667 7.33301 125 0l11 -47c36.667 41.333 77.334 62 122.001 62c62 0 104.667 -24 128 -72c38 48 81.667 72 131 72z" />
    <glyph glyph-name="n" unicode="n" horiz-adv-x="512" 
d="M313 415c50.667 0 87.666 -15.167 110.999 -45.5s35 -66.5 35 -108.5v-261c-48.667 -8.66699 -97 -8.66699 -145 0v228c0 41.333 -17.333 62 -52 62c-23.333 0 -44 -9 -62 -27v-263c-48.667 -8.66699 -97 -8.66699 -145 0v400c42 7.33301 83.667 7.33301 125 0l11 -47
c36.667 41.333 77.334 62 122.001 62z" />
    <glyph glyph-name="o" unicode="o" horiz-adv-x="524" 
d="M262 415c64.667 0 117.833 -20.667 159.5 -62s62.5 -92.333 62.5 -153s-20.833 -111.667 -62.5 -153s-94.834 -62 -159.5 -62c-64.667 0 -117.834 20.667 -159.501 62s-62.5 92.333 -62.5 153s20.833 111.667 62.5 153s94.834 62 159.501 62zM261.999 290
c-22 0 -40.333 -8 -55 -24s-22 -38 -22 -66s7.33301 -50 22 -66s33 -24 55 -24s40.333 8 55 24s22 38 22 66s-7.33301 50 -22 66s-33 24 -55 24z" />
    <glyph glyph-name="p" unicode="p" horiz-adv-x="541" 
d="M317 415c55.333 0 99.834 -20.5 133.501 -61.5s50.5 -92.167 50.5 -153.5s-16.833 -112.5 -50.5 -153.5s-78.167 -61.5 -133.5 -61.5c-48.667 0 -87 16.667 -115 50v-198c-48.667 -8.66699 -97 -8.66699 -145 0v563c42 7.33301 83.667 7.33301 125 0l11 -47
c31.333 41.333 72.666 62 123.999 62zM277.001 110c23.333 0 42.333 8 57 24s22 38 22 66s-7.33301 50 -22 66s-33.667 24 -57 24c-27.333 0 -52.333 -10.667 -75 -32v-116c22.667 -21.333 47.667 -32 75 -32z" />
    <glyph glyph-name="q" unicode="q" 
d="M348 353l11 47c41.333 7.33301 83 7.33301 125 0v-563c-48 -8.66699 -96.333 -8.66699 -145 0v198c-28 -33.333 -66.333 -50 -115 -50c-55.333 0 -99.833 20.5 -133.5 61.5s-50.5 92.167 -50.5 153.5s16.833 112.5 50.5 153.5s78.167 61.5 133.5 61.5
c51.334 0 92.667 -20.667 124 -62zM339 142v116c-22.667 21.333 -47.667 32 -75 32c-23.333 0 -42.333 -8 -57 -24s-22 -38 -22 -66s7.33301 -50 22 -66s33.667 -24 57 -24c27.333 0 52.333 10.667 75 32z" />
    <glyph glyph-name="r" unicode="r" horiz-adv-x="413" 
d="M376 397c5.33887 -8 7.67188 -31.833 6.99902 -71.5c-0.666992 -39.667 -3 -65.167 -7 -76.5c-33.333 22 -62.333 33 -87 33c-16.667 0 -33 -5.66699 -49 -17c-16 -11.334 -29.333 -27.667 -40 -49v-216c-48.667 -8.66699 -97 -8.66699 -145 0v400
c42 7.33301 83.667 7.33301 125 0l16 -70c30.667 56.667 69.334 85 116.001 85c29.334 0 50.667 -6 64 -18z" />
    <glyph glyph-name="s" unicode="s" horiz-adv-x="406" 
d="M246 256c40 -12.667 70.8301 -29.3359 92.4971 -50.0029s32.5 -48.667 32.5 -84c0 -44 -16.667 -77.833 -50 -101.5s-75 -35.5 -125 -35.5c-25.333 0 -51.833 2.83301 -79.5 8.5s-48.167 13.167 -61.5 22.5c-4 11.333 -6.33301 30.166 -7 56.499
s1.66602 43.5 6.99902 51.5c52.667 -30.667 97.334 -46 134.001 -46c24.667 0 37 8.33301 37 25c0 2 -0.166992 3.83301 -0.5 5.5c-0.339844 1.66699 -1.17285 3.33398 -2.49902 5.00098c-1.33496 1.66699 -2.66797 3 -4 4c-1.33301 1 -3.33301 2.16699 -6 3.5
s-5.16699 2.5 -7.5 3.5s-5.5 2.16699 -9.5 3.5l-10.5 3.5c-3 1 -7.33301 2.33301 -13 4s-10.5 3.16699 -14.5 4.5c-38 12.667 -68 29 -90 49s-33 48.667 -33 86c0 43.333 15.167 77.5 45.5 102.5s71.5 37.5 123.5 37.5c61.333 0 107.333 -10.333 138 -31
c4 -11.333 6.33301 -30.166 7 -56.499s-1.66602 -43.5 -6.99902 -51.5c-52.667 30.667 -94.667 46 -126 46c-24.667 0 -37 -9.33301 -37 -28c0 -4 0.833008 -7.66699 2.5 -11s5 -6.16602 10 -8.49902s9.33301 -4.16602 13 -5.49902s10.334 -3.5 20 -6.5
c9.66797 -3 16.835 -5.16699 21.501 -6.5z" />
    <glyph glyph-name="t" unicode="t" horiz-adv-x="393" 
d="M338 145c5.33887 -8 7.67188 -26.835 7 -56.502c-0.666992 -29.667 -3 -50.167 -7 -61.5c-24 -28 -61.667 -42 -113 -42c-42 0 -74.667 12.333 -98 37s-35 60.334 -35 107.001v149h-56c-8.66699 40.667 -8.66699 81.334 0 122.001h56v130
c48 8.66699 96.333 8.66699 145 0v-130h101c8.66699 -40.667 8.66699 -81.334 0 -122h-101v-128c0 -14.667 1.66699 -25.5 5 -32.5s10.666 -10.5 21.999 -10.5c18.667 0 43.334 12.667 74.001 38z" />
    <glyph glyph-name="u" unicode="u" horiz-adv-x="510" 
d="M312 137l0.000976562 263c48 8.66699 96.333 8.66699 145 0v-400c-42 -7.33301 -83.667 -7.33301 -125 0l-11 47c-36.667 -41.333 -77.334 -62 -122.001 -62c-50.667 0 -87.667 15.167 -111 45.5s-35 66.5 -35 108.5v261c48 8.66699 96.333 8.66699 145 0v-228
c0 -41.333 17.333 -62 52 -62c23.333 0 44 9 62 27z" />
    <glyph glyph-name="v" unicode="v" horiz-adv-x="527" 
d="M264 191l80.998 209c50.667 8.66699 101.334 8.66699 152.001 0l-175 -400c-38.667 -8.66699 -77.667 -8.66699 -117 0l-175 400c50.667 8.66699 101.334 8.66699 152.001 0z" />
    <glyph glyph-name="w" unicode="w" horiz-adv-x="774" 
d="M188 0l-157.997 400c51.333 8.66699 102.666 8.66699 153.999 0l64 -209l80 209c39.333 8.66699 78.666 8.66699 117.999 0l80 -209l64 209c51.333 8.66699 102.666 8.66699 153.999 0l-158 -400c-38.667 -8.66699 -77.667 -8.66699 -117 0l-82 219l-82 -219
c-39.333 -8.66699 -78.333 -8.66699 -117 0z" />
    <glyph glyph-name="x" unicode="x" horiz-adv-x="518" 
d="M357 210l131 -210c-54 -9.33301 -108 -9.33301 -162 0l-71 116l-66 -116c-52.667 -9.33301 -105.667 -9.33301 -159 0l132 210l-124 190c54 9.33301 108 9.33301 162 0l64 -103l58 103c53.333 9.33301 106.333 9.33301 159 0z" />
    <glyph glyph-name="y" unicode="y" horiz-adv-x="527" 
d="M264 191l80.998 209c50.667 8.66699 101.334 8.66699 152.001 0l-246 -563c-49.333 -8.66699 -98.333 -8.66699 -147 0l86 197l-160 366c50.667 8.66699 101.334 8.66699 152.001 0z" />
    <glyph glyph-name="z" unicode="z" horiz-adv-x="437" 
d="M249 125l147 1c7.33301 -41.333 7.33301 -83.333 0 -126h-361v9l153 266h-136c-7.33301 42 -7.33301 83.667 0 125h350v-9z" />
    <glyph glyph-name="braceleft" unicode="{" horiz-adv-x="352" 
d="M159 269c25.333 -14.667 44.5 -29.166 57.5 -43.499s20.833 -32.833 23.5 -55.5c4.66699 -37.333 8.16699 -64.333 10.5 -81s9.5 -43.834 21.5 -81.501s28.667 -77.5 50 -119.5c-46.667 -8 -93.334 -8 -140.001 0c-55.333 94 -86 196.667 -92 308
c0 14 -3.83301 25.167 -11.5 33.5s-23.834 18.833 -48.501 31.5v16c24.667 12.667 40.834 23.167 48.501 31.5s11.5 19.5 11.5 33.5c6 111.333 36.667 214 92 308c46.667 8 93.334 8 140.001 0c-21.333 -42 -38 -81.833 -50 -119.5s-19.167 -64.834 -21.5 -81.5
c-2.33301 -16.667 -5.83301 -43.667 -10.5 -81c-2.66699 -22.667 -10.5 -41.167 -23.5 -55.5s-32.167 -28.833 -57.5 -43.5z" />
    <glyph glyph-name="bar" unicode="|" horiz-adv-x="151" 
d="M121 650v-710c-30.667 -6.66699 -61 -6.66699 -91 0v710c30 6.66699 60.333 6.66699 91 0z" />
    <glyph glyph-name="braceright" unicode="}" horiz-adv-x="352" 
d="M262 342c0 -14 3.83203 -25.1689 11.499 -33.502s23.834 -18.833 48.501 -31.5v-16c-24.667 -12.667 -40.834 -23.167 -48.5 -31.5c-7.66699 -8.33301 -11.5 -19.5 -11.5 -33.5c-6 -111.333 -36.667 -214 -92 -308c-46.667 -8 -93.334 -8 -140.001 0
c21.333 42 38 81.833 50 119.5s19.167 64.834 21.5 81.501s5.83301 43.667 10.5 81c2.66699 22.667 10.5 41.167 23.5 55.5s32.167 28.833 57.5 43.5c-25.333 14.667 -44.5 29.167 -57.5 43.5s-20.833 32.833 -23.5 55.5c-4.66699 37.333 -8.16699 64.333 -10.5 81
s-9.5 43.834 -21.5 81.501s-28.667 77.5 -50 119.5c46.667 8 93.334 8 140.001 0c55.333 -94 86 -196.667 92 -308z" />
    <glyph glyph-name="asciitilde" unicode="~" horiz-adv-x="454" 
d="M150 310c22.667 0 49.334 -8.16699 80 -24.5c30.667 -16.333 55.667 -24.5 75 -24.5c8.66699 0 17.167 0.833008 25.5 2.5c8.33496 1.66699 17.168 4.5 26.5 8.5c9.33301 4 16.5 7.16699 21.5 9.5c5 2.33594 12.5 6.16895 22.5 11.5c10 5.33301 15.667 8.33301 17 9
c8 -37.333 8 -74 0 -110c-1.33301 -0.666992 -8.66602 -4.66699 -21.999 -12s-23 -12.333 -29 -15s-15.167 -5.66699 -27.5 -9s-24.166 -5 -35.499 -5c-22.667 0 -49.334 8.16699 -80.001 24.5s-55.667 24.5 -75 24.5c-8.66699 0 -17.167 -0.833008 -25.5 -2.5
s-17.166 -4.5 -26.499 -8.5s-16.5 -7.16699 -21.5 -9.5c-5 -2.33398 -12.5 -6.16699 -22.5 -11.5s-15.667 -8.33301 -17 -9c-8 37.333 -8 74 0 110c1.33301 0.666992 8.66602 4.66699 21.999 12s23 12.333 29 15s15.167 5.66699 27.5 9s24.166 5 35.499 5z" />
    <glyph glyph-name="exclamdown" unicode="&#xa1;" horiz-adv-x="240" 
d="M120 494c25.333 0 46.666 -8 63.999 -24s26 -36 26 -60c0 -24.667 -8.66699 -45 -26 -61s-38.666 -24 -63.999 -24s-46.666 8 -63.999 24s-26 36.333 -26 61c0 24 8.66699 44 26 60s38.666 24 63.999 24zM200 -58l-0.00195312 -113
c-53.333 -9.33301 -106.666 -9.33301 -159.999 0v113l34 302c30.667 7.33301 61.334 7.33301 92.001 0z" />
    <glyph glyph-name="cent" unicode="&#xa2;" horiz-adv-x="460" 
d="M281 107c36 0 75.666 12.665 118.999 37.998c5.33984 -8 7.67285 -26.833 7 -56.5c-0.666992 -29.667 -3 -50.167 -7 -61.5c-30.667 -23.333 -67 -37 -109 -41v-94c-16.667 -8 -33 -8 -49 0v94c-61.333 5.33301 -110.333 27.333 -147 66s-55 88 -55 148
s18.333 109.333 55 148s85.667 60.667 147 66v94c16 8 32.333 8 49 0v-94c42 -4 78.333 -17.667 109 -41c4 -11.333 6.33301 -31.833 7 -61.5s-1.66602 -48.5 -6.99902 -56.5c-43.333 25.333 -83 38 -119 38c-28 0 -51 -8.16699 -69 -24.5s-27 -39.166 -27 -68.499
s9 -52.166 27 -68.499s41 -24.5 69 -24.5z" />
    <glyph glyph-name="sterling" unicode="&#xa3;" horiz-adv-x="568" 
d="M251 133h242.998c8 -44 8 -88.333 0 -133h-430v10c20 32 34 65.667 42 101s11.5 66 10.5 92s-4.16699 56.333 -9.5 91h-69c-8 16 -8 32.333 0 49h60c-8.66699 47.333 -13 84.333 -13 111c0 60.667 20.333 111 61 151s98.334 60 173.001 60
c36 0 69.833 -4.83301 101.5 -14.5s56.167 -21.5 73.5 -35.5c4 -12.667 6.33301 -39.167 7 -79.5s-1.66602 -64.5 -6.99902 -72.5c-65.333 46 -119.333 69 -162 69c-24.667 0 -45 -7.16699 -61 -21.5s-24 -35.833 -24 -64.5c0 -23.333 5.66699 -57.666 17 -102.999h156
c8 -16.667 8 -33 0 -49h-146c10 -64.667 2.33301 -118.334 -23 -161.001z" />
    <glyph glyph-name="currency" unicode="&#xa4;" horiz-adv-x="353" 
d="M323 418l-37.001 -36.999c16 -22.667 24 -47.667 24 -75s-8 -52.333 -24 -75l37 -37c-5.33301 -17.333 -16.666 -29 -33.999 -35l-37 37c-22.667 -15.333 -47.667 -22.833 -75 -22.5s-52.333 8.16602 -75 23.499l-38 -38c-16.667 6 -28 17.667 -34 35l37 37
c-15.333 22.667 -23 47.667 -23 75s7.66699 52.333 23 75l-37 37c6 17.333 17.333 29 34 35l38 -38c22.667 16 47.667 24.167 75 24.5s52.333 -7.5 75 -23.5l37 37c17.334 -6 28.667 -17.667 34 -35zM140.999 271.001c11.333 -10.667 23.6699 -16.167 37.0029 -16.5
s25.333 4.5 36 14.5c10 10.667 14.833 22.667 14.5 36c-0.333008 13.335 -5.5 25.668 -15.5 37c-10.667 10.667 -22.834 16 -36.501 16s-25.834 -5 -36.501 -15c-10 -10.667 -15 -22.667 -15 -36s5.33301 -25.333 15.999 -36z" />
    <glyph glyph-name="yen" unicode="&#xa5;" horiz-adv-x="698" 
d="M429 156h121.999c8 -16 8 -32.333 0 -49h-122v-107c-53.333 -9.33301 -106.666 -9.33301 -159.999 0v107h-122c-8 16.667 -8 33 0 49h122v56h-122c-8 16 -8 32.333 0 49h102l-217 389c23.333 4 52 6 86 6s62.333 -2 85 -6l146 -276l146 276c23.333 4 52 6 86 6
s62.333 -2 85 -6l-217 -389h102c8 -16.667 8 -33 0 -49h-122v-56z" />
    <glyph glyph-name="brokenbar" unicode="&#xa6;" horiz-adv-x="151" 
d="M121 650v-313c-30 -6.66699 -60.333 -6.66699 -91 0v313c30 6.66699 60.333 6.66699 91 0zM121 253v-313c-30.667 -6.66699 -61 -6.66699 -91 0v313c30 6.66699 60.333 6.66699 91 0z" />
    <glyph glyph-name="section" unicode="&#xa7;" horiz-adv-x="396" 
d="M199 549c61.333 0 107.335 -10.334 138.002 -31.001c4 -11.333 6.33301 -30.166 7 -56.499s-1.66602 -43.5 -6.99902 -51.5c-52.667 30.667 -94.667 46 -126 46c-24.667 0 -37 -9.33301 -37 -28c0 -4 0.833008 -7.66699 2.5 -11s5 -6.16602 10 -8.49902
s9.33301 -4.16602 13 -5.49902s10.334 -3.5 20 -6.5c9.66699 -3 16.834 -5.16699 21.5 -6.5c42.667 -14 74.167 -31.5 94.5 -52.5s30.5 -48.167 30.5 -81.5c0 -39.333 -14 -71 -42 -95c28 -24.667 42 -56.334 42 -95.001c0 -43.333 -15.167 -77.5 -45.5 -102.5
s-71.5 -37.5 -123.5 -37.5c-61.333 0 -107.333 10.333 -138 31c-4 11.333 -6.33301 30.166 -7 56.499s1.66602 43.5 6.99902 51.5c52.667 -30.667 94.667 -46 126 -46c24.667 0 37 9.33301 37 28c0 4 -0.833008 7.66699 -2.5 11s-5 6.16602 -10 8.49902
c-5 2.33398 -9.33301 4.16699 -13 5.5s-10.334 3.5 -20.001 6.5s-16.834 5.16699 -21.501 6.5c-42.667 14 -74.167 31.5 -94.5 52.5s-30.5 48.167 -30.5 81.5c0 39.333 14 71 42 95c-28 24.667 -42 56.334 -42 95.001c0 43.333 15.167 77.5 45.5 102.5s71.5 37.5 123.5 37.5
zM153.002 273.999l-22.999 8c-0.666992 -2 -1 -5 -1 -9c0 -6 1.16699 -11.667 3.5 -17s6 -10 11 -14s10 -7.66699 15 -11s11.667 -6.5 20 -9.5s15.333 -5.33301 21 -7s13.334 -4 23 -7c9.66699 -3 16.5 -5.16699 20.5 -6.5l23 -8c0.666992 2 1 5 1 9
c0 6 -1.16699 11.667 -3.5 17s-6 10 -11 14s-10 7.66699 -15 11s-11.667 6.5 -20 9.5s-15.333 5.33301 -21 7s-13.334 4 -23.001 7s-16.5 5.16699 -20.5 6.5z" />
    <glyph glyph-name="dieresis" unicode="&#xa8;" horiz-adv-x="485" 
d="M120 897c25.333 0 46.666 -8 63.999 -24s26 -36.333 26 -61c0 -24 -8.66699 -44 -26 -60s-38.666 -24 -63.999 -24s-46.666 8 -63.999 24s-26 36 -26 60c0 24.667 8.66699 45 26 61s38.666 24 63.999 24zM365 897c25.334 0 46.665 -8 63.998 -24s26 -36.333 26 -61
c0 -24 -8.66699 -44 -26 -60s-38.666 -24 -63.999 -24s-46.666 8 -63.999 24s-26 36 -26 60c0 24.667 8.66699 45 26 61c17.334 16 38.667 24 64 24z" />
    <glyph glyph-name="copyright" unicode="&#xa9;" horiz-adv-x="600" 
d="M300 700c74.667 0 138.333 -26.334 191 -79.001s79 -116.334 79 -191.001s-26.333 -138.334 -79 -191c-52.667 -52.667 -116.334 -79 -191 -79c-74.667 0 -138.334 26.333 -191.001 79s-79 116.334 -79 191.001s26.333 138.334 79 191.001s116.334 79 191.001 79z
M299.999 636.999c-57.333 0 -106.166 -20.167 -146.499 -60.5s-60.5 -89.166 -60.5 -146.499s20.167 -106.333 60.5 -147s89.166 -61 146.499 -61s106.166 20.333 146.499 61s60.5 89.667 60.5 147s-20.167 106.166 -60.5 146.499s-89.166 60.5 -146.499 60.5z
M308.999 561.999c33.333 0 60.998 -8.66699 82.998 -26c2.66699 -7.33301 4.33398 -20 5.00098 -38s-1 -29.333 -5 -34c-26.667 15.333 -51 23 -73 23c-17.333 0 -31.666 -5.16699 -42.999 -15.5s-17 -24.5 -17 -42.5s5.66699 -32.167 17 -42.5
c11.334 -10.333 25.667 -15.5 43 -15.5c22 0 46.333 7.66699 73 23c4 -4.66699 5.66699 -16 5 -34c-0.678711 -18 -2.3457 -30.667 -5 -38c-22 -17.333 -49.667 -26 -83 -26c-42 0 -75.833 12.333 -101.5 37s-38.5 56.667 -38.5 96s12.833 71.333 38.5 96s59.5 37 101.5 37z
" />
    <glyph glyph-name="guillemotleft" unicode="&#xab;" horiz-adv-x="481" 
d="M172 217l85 -156c-37.333 -6.66699 -74.666 -6.66699 -111.999 0l-115 156l115 156c37.333 6.66699 74.666 6.66699 111.999 0zM366 217l84.999 -156c-37.333 -6.66699 -74.666 -6.66699 -111.999 0l-115 156l115 156c37.334 6.66699 74.667 6.66699 112 0z" />
    <glyph glyph-name="logicalnot" unicode="&#xac;" horiz-adv-x="410" 
d="M380 310l-1 -208c-38 -8.66699 -76.333 -8.66699 -115 0v98l-228 1c-8 36 -8 72.333 0 109h344z" />
    <glyph glyph-name="registered" unicode="&#xae;" horiz-adv-x="600" 
d="M300 700c74.667 0 138.333 -26.334 191 -79.001s79 -116.334 79 -191.001s-26.333 -138.334 -79 -191c-52.667 -52.667 -116.334 -79 -191 -79c-74.667 0 -138.334 26.333 -191.001 79s-79 116.334 -79 191.001s26.333 138.334 79 191.001s116.334 79 191.001 79z
M299.999 636.999c-57.333 0 -106.166 -20.167 -146.499 -60.5s-60.5 -89.166 -60.5 -146.499s20.167 -106.333 60.5 -147s89.166 -61 146.499 -61s106.166 20.333 146.499 61s60.5 89.667 60.5 147s-20.167 106.166 -60.5 146.499s-89.166 60.5 -146.499 60.5z
M182.999 555.999l147 -0.00195312c28.667 0 51 -7.66699 67 -23s24 -37.666 24 -66.999c0 -33.333 -14.333 -56.666 -43 -69.999l64 -88c-33.333 -6.66699 -66 -6.66699 -98 0l-55 75h-16v-75c-29.333 -6 -59.333 -6 -90 0v248zM272.999 491.997v-46h32
c17.333 0 26 7.66699 26 23s-8.66699 23 -26 23h-32z" />
    <glyph glyph-name="macron" unicode="&#xaf;" horiz-adv-x="331" 
d="M36 838h259c8 -36 8 -72.667 0 -110l-259 1c-8 36 -8 72.333 0 109z" />
    <glyph glyph-name="degree" unicode="&#xb0;" horiz-adv-x="316" 
d="M158 740c35.333 0 65.5 -12.5 90.5 -37.5s37.5 -55.167 37.5 -90.5s-12.5 -65.5 -37.5 -90.5s-55.167 -37.5 -90.5 -37.5s-65.5 12.5 -90.5 37.5s-37.5 55.167 -37.5 90.5s12.5 65.5 37.5 90.5s55.167 37.5 90.5 37.5zM158 650c-10.667 0 -19.667 -3.66699 -27 -11
s-11 -16.333 -11 -27s3.66699 -19.5 11 -26.5s16.333 -10.5 27 -10.5s19.667 3.5 27 10.5s11 15.833 11 26.5s-3.66699 19.667 -11 27s-16.333 11 -27 11z" />
    <glyph glyph-name="plusminus" unicode="&#xb1;" horiz-adv-x="416" 
d="M155 271h-119c-8 36.667 -8 73 0 109h119v70c34.667 8 70 8 106 0v-70h119c8 -36 8 -72.667 0 -110h-120v-69c-34.667 -8 -69.667 -8 -105 0v70zM36 167h344c8 -36 8 -72.667 0 -110l-344 1c-8 36 -8 72.333 0 109z" />
    <glyph glyph-name="acute" unicode="&#xb4;" horiz-adv-x="266" 
d="M30 766l111.002 174.001c13.333 -2.66699 31.166 -12.334 53.499 -29.001s36.166 -31 41.499 -43l-130 -159c-12.667 2.66699 -27 10 -43 22s-27 23.667 -33 35z" />
    <glyph glyph-name="paragraph" unicode="&#xb6;" horiz-adv-x="616" 
d="M237 650h343.002c6.66699 -30 6.66699 -60.333 0 -91h-57v-722c-30 -6.66699 -60.333 -6.66699 -91 0v722h-104v-722c-30.667 -6.66699 -61 -6.66699 -91 0v421c-35.333 0 -67.833 5.83301 -97.5 17.5s-55.334 32.5 -77.001 62.5s-32.5 67.333 -32.5 112
c0 66 20.667 115.833 62 149.5s89.666 50.5 144.999 50.5z" />
    <glyph glyph-name="periodcentered" unicode="&#xb7;" horiz-adv-x="240" 
d="M120 160c-25.333 0 -46.666 8 -63.999 24s-26 36 -26 60c0 24.667 8.66699 45 26 61s38.666 24 63.999 24s46.666 -8 63.999 -24s26 -36.333 26 -61c0 -24 -8.66699 -44 -26 -60s-38.666 -24 -63.999 -24z" />
    <glyph glyph-name="cedilla" unicode="&#xb8;" horiz-adv-x="245" 
d="M139 0l0.000976562 -46c19.333 0 36.833 -7.16699 52.5 -21.5s23.5 -33.833 23.5 -58.5c0 -26 -9.16699 -47.333 -27.5 -64s-42.5 -25 -72.5 -25s-56.667 7.66699 -80 23c-3.33301 8.66699 -5 21 -5 37s1.66699 27.667 5 35c27.333 -18.667 50.666 -28 69.999 -28
c12 0 21.5 2.83301 28.5 8.5s10.5 13.167 10.5 22.5c0 14 -7.16699 23.667 -21.5 29s-31.5 4 -51.5 -4v92h68z" />
    <glyph glyph-name="guillemotright" unicode="&#xbb;" horiz-adv-x="481" 
d="M257 217l-115 -156c-37.333 -6.66699 -74.666 -6.66699 -111.999 0l85 156l-85 156c37.333 6.66699 74.666 6.66699 111.999 0zM451 217l-115.001 -156c-37.333 -6.66699 -74.666 -6.66699 -111.999 0l85 156l-85 156c37.334 6.66699 74.667 6.66699 112 0z" />
    <glyph glyph-name="onequarter" unicode="&#xbc;" horiz-adv-x="673" 
d="M203 650v-310c-35.333 -7.33301 -71 -7.33301 -107 0v206l-60 -44c-4 6 -6 19.833 -6 41.5s2 36.167 6 43.5l88 63c26.667 7.33301 53 7.33301 79 0zM528 650l-308 -650c-30 -8 -60 -8 -90 0l308 650c30 8 60 8 90 0zM602 129h35c6.66699 -27.333 6.66699 -54.333 0 -81
h-35v-48c-36 -7.33301 -71.667 -7.33301 -107 0v48h-116c-6.66699 26.667 -6.66699 53.667 0 81l144 181c26.667 7.33301 53 7.33301 79 0v-181zM448 129h47v58z" />
    <glyph glyph-name="onehalf" unicode="&#xbd;" horiz-adv-x="710" 
d="M203 650v-310c-35.333 -7.33301 -71 -7.33301 -107 0v206l-60 -44c-4 6 -6 19.833 -6 41.5s2 36.167 6 43.5l88 63c26.667 7.33301 53 7.33301 79 0zM528 650l-308 -650c-30 -8 -60 -8 -90 0l308 650c30 8 60 8 90 0zM541 325c41.333 0 73.1689 -11 95.502 -33
s33.5 -48.667 33.5 -80c0 -43.333 -27 -85 -81 -125h85c7.33301 -28.667 7.33301 -57.667 0 -87h-248v6c55.333 58.667 92.166 101.667 110.499 129s27.5 50 27.5 68c0 10 -3.5 18.333 -10.5 25s-17.167 10 -30.5 10c-20.668 0 -46.335 -11.333 -77.001 -34
c-2.67969 4 -3.84668 19.5 -3.5 46.5c0.333008 27 1.5 43.5 3.5 49.5c22 16.667 53.667 25 95 25z" />
    <glyph glyph-name="threequarters" unicode="&#xbe;" horiz-adv-x="706" 
d="M262 422c0 -30 -11.498 -53.666 -34.498 -70.999s-52.833 -26 -89.5 -26c-44.667 0 -79.334 8.66699 -104.001 26c-2.66699 6 -4 21.333 -4 46s1.33301 39 4 43c38 -22.667 67.667 -34 89 -34c26.667 0 40 9.33301 40 28c0 17.333 -13 26 -39 26h-32
c-3.33301 24 -3.33301 48.333 0 73h30c23.333 0 35 8.33301 35 25c0 17.333 -11.667 26 -35 26c-19.333 0 -48 -11.333 -86 -34c-2.66699 4 -3.83398 18.333 -3.50098 43s1.5 40 3.5 46c27.333 17.333 60.333 26 99 26c37.333 0 66.833 -8.66699 88.5 -26s32.5 -39 32.5 -65
c0 -33.333 -14.667 -58.333 -44 -75c33.333 -14.668 50 -40.335 50 -77.001zM163.002 0.000976562l308 650c30 8 60 8 90 0l-308 -650c-30 -8 -60 -8 -90 0zM635.002 129.001h35c6.66699 -27.333 6.66699 -54.333 0 -81h-35v-48c-35.333 -7.33301 -71 -7.33301 -107 0v48
h-116c-6.66699 26.667 -6.66699 53.667 0 81l144 181c26.667 7.33301 53 7.33301 79 0v-181zM528.002 187.001l-47 -58h47v58z" />
    <glyph glyph-name="questiondown" unicode="&#xbf;" horiz-adv-x="482" 
d="M274 496c25.334 0 46.666 -8 63.999 -24s26 -36 26 -60c0 -24.667 -8.66699 -45 -26 -61s-38.666 -24 -63.999 -24s-46.666 8 -63.999 24s-26 36.333 -26 61c0 24 8.66699 44 26 60s38.666 24 63.999 24zM193.999 246c53.333 9.33301 106.67 9.33301 160.003 0
c0 -31.333 -5 -55.5 -15 -72.5s-31.667 -39.5 -65 -67.5c-5.33301 -4 -12.166 -9.5 -20.499 -16.5s-14.333 -12 -18 -15s-8.33398 -7 -14.001 -12s-9.5 -8.66699 -11.5 -11s-4.5 -5.5 -7.5 -9.5s-5 -7.5 -6 -10.5s-2 -6.5 -3 -10.5s-1.5 -8 -1.5 -12
c0 -19.333 6.66699 -34.166 20 -44.499s31.333 -15.5 54 -15.5c41.333 0 101 23 179 69c5.33984 -8 7.67285 -32.167 6.99902 -72.5c-0.666992 -40.333 -3 -66.833 -7 -79.5c-56.667 -33.333 -122 -50 -196 -50c-70.667 0 -124.834 17.333 -162.501 52
s-56.5 76.667 -56.5 126c0 32.667 8.5 60.167 25.5 82.5s47.167 51.833 90.5 88.5c21.333 18 34.666 31.167 39.999 39.5s8 22.166 8 41.499z" />
    <glyph glyph-name="Agrave" unicode="&#xc0;" horiz-adv-x="724" 
d="M354 940l111 -174c-6 -11.333 -17 -23 -33 -35s-30.333 -19.333 -43 -22l-130 159c5.33398 12 19.167 26.333 41.5 43c22.334 16.6738 40.167 26.3408 53.5 29zM428 650l264 -650c-54.667 -9.33301 -109.667 -9.33301 -165 0l-46 123h-238l-46 -123
c-55.333 -9.33301 -110.333 -9.33301 -165 0l264 650c44 7.33301 88 7.33301 132 0zM293 258h138l-69 186z" />
    <glyph glyph-name="Aacute" unicode="&#xc1;" horiz-adv-x="724" 
d="M259 766l111 174.001c13.334 -2.66699 31.167 -12.334 53.5 -29.001c22.335 -16.667 36.168 -31 41.5 -43l-130 -159c-12.667 2.66699 -27 10 -43 22s-27 23.667 -33 35zM428 650.001l264 -650c-54.667 -9.33301 -109.667 -9.33301 -165 0l-46 123h-238l-46 -123
c-55.333 -9.33301 -110.333 -9.33301 -165 0l264 650c44 7.33301 88 7.33301 132 0zM293 258.001h138l-69 186z" />
    <glyph glyph-name="Acircumflex" unicode="&#xc2;" horiz-adv-x="724" 
d="M382 930l145 -146c-5.33301 -12.667 -16.833 -27.5 -34.5 -44.5s-32.5 -27.167 -44.5 -30.5l-86 87l-86 -87c-12 3.33301 -26.833 13.5 -44.5 30.5s-29.167 31.833 -34.5 44.5l145 146c5.33301 4 12 6 20 6s14.667 -2 20 -6zM428 650l264 -650
c-54.667 -9.33301 -109.667 -9.33301 -165 0l-46 123h-238l-46 -123c-55.333 -9.33301 -110.333 -9.33301 -165 0l264 650c44 7.33301 88 7.33301 132 0zM293 258h138l-69 186z" />
    <glyph glyph-name="Atilde" unicode="&#xc3;" horiz-adv-x="724" 
d="M298 872c18 0 42.999 -7.33203 74.999 -21.999c18 -8 35.333 -12 52 -12c18.667 0 47.334 10 86.001 30c8 -37.333 8 -74 0 -110c-2 -0.666992 -6.33301 -2.83398 -13 -6.50098c-6.66992 -3.66699 -11.3369 -6.16699 -14 -7.5c-2.66699 -1.33301 -7 -3.33301 -13 -6
s-11 -4.5 -15 -5.5s-8.83301 -2 -14.5 -3s-11.167 -1.5 -16.5 -1.5c-18 0 -43 7.33301 -75 22c-18 8 -35.333 12 -52 12c-18.667 0 -47.334 -10 -86.001 -30c-8 37.333 -8 74 0 110c2 0.692383 6.33301 2.85938 13 6.5c6.66797 3.66699 11.335 6.16699 14.001 7.5
c2.66699 1.33301 7 3.33301 13 6s11 4.5 15 5.5s8.83301 2 14.5 3s11.167 1.5 16.5 1.5zM427.999 650.001l264 -650c-54.667 -9.33301 -109.667 -9.33301 -165 0l-46 123h-238l-46 -123c-55.333 -9.33301 -110.333 -9.33301 -165 0l264 650c44 7.33301 88 7.33301 132 0z
M292.999 258.001h138l-69 186z" />
    <glyph glyph-name="Adieresis" unicode="&#xc4;" horiz-adv-x="724" 
d="M240 897c25.334 0 46.667 -8 64 -24s26 -36.333 26 -61c0 -24 -8.66699 -44 -26 -60s-38.666 -24 -63.999 -24c-25.334 0 -46.667 8 -64 24s-26 36 -26 60c0 24.667 8.66699 45 26 61s38.666 24 63.999 24zM485 897c25.333 0 46.666 -8 63.999 -24s26 -36.333 26 -61
c0 -24 -8.66699 -44 -26 -60s-38.666 -24 -63.999 -24s-46.666 8 -63.999 24s-26 36 -26 60c0 24.667 8.66699 45 26 61s38.666 24 63.999 24zM428 650l264 -650c-54.667 -9.33301 -109.667 -9.33301 -165 0l-46 123h-238l-46 -123
c-55.333 -9.33301 -110.333 -9.33301 -165 0l264 650c44 7.33301 88 7.33301 132 0zM293 258h138l-69 186z" />
    <glyph glyph-name="Aring" unicode="&#xc5;" horiz-adv-x="724" 
d="M362 933c28 0 52 -10 72 -30s30 -44 30 -72c0 -28.667 -10 -53 -30 -73s-44 -30 -72 -30c-28.667 0 -53 10 -73 30s-30 44.333 -30 73c0 28 10 52 30 72s44.333 30 73 30zM362 856c-7.33301 0 -13.5 -2.5 -18.5 -7.5s-7.5 -10.833 -7.5 -17.5
c0 -7.33301 2.66699 -13.5 8 -18.5s11.333 -7.5 18 -7.5s12.5 2.5 17.5 7.5s7.5 11.167 7.5 18.5s-2.5 13.333 -7.5 18s-10.833 7 -17.5 7zM428 650l264 -650c-54.667 -9.33301 -109.667 -9.33301 -165 0l-46 123h-238l-46 -123c-55.333 -9.33301 -110.333 -9.33301 -165 0
l264 650c44 7.33301 88 7.33301 132 0zM293 258h138l-69 186z" />
    <glyph glyph-name="AE" unicode="&#xc6;" horiz-adv-x="856" 
d="M522 133h293c8 -44 8 -88.333 0 -133h-453v123h-119l-46 -123c-55.333 -9.33301 -110.333 -9.33301 -165 0l264 650h519c8 -44.667 8 -89 0 -133h-293v-122h259c8 -44.667 8 -89 0 -133h-259v-129zM362 444l-69 -186h69v186z" />
    <glyph glyph-name="Ccedilla" unicode="&#xc7;" horiz-adv-x="684" 
d="M421 118c58.667 0 121.668 20.667 189.001 62c5.33301 -8 7.66602 -31.333 6.99902 -70s-3 -63.667 -7 -75c-47.333 -28.667 -103 -45 -167 -49v-32c19.333 0 36.833 -7.16699 52.5 -21.5s23.5 -33.833 23.5 -58.5c0 -26 -9.16699 -47.333 -27.5 -64s-42.5 -25 -72.5 -25
s-56.667 7.66699 -80 23c-3.33301 8.66699 -5 21 -5 37s1.66699 27.667 5 35c27.334 -18.667 50.667 -28 70 -28c12 0 21.5 2.83301 28.5 8.5s10.5 13.167 10.5 22.5c0 14 -7.16699 23.667 -21.5 29s-31.5 4 -51.5 -4v78c-100.667 8 -180.834 43.833 -240.501 107.5
s-89.5 140.834 -89.5 231.501c0 96 33.5 176.667 100.5 242s155.833 98 266.5 98c78 0 144 -16.667 198 -50c4 -11.333 6.33301 -36.333 7 -75c0.647461 -38.667 -1.68555 -62 -7 -70c-67.334 41.333 -130.334 62 -189 62c-60.667 0 -111.334 -18.833 -152 -56.5
c-40.667 -37.667 -61 -87.834 -61 -150.5c0 -62.667 20.333 -112.834 61 -150.501s91.334 -56.5 152.001 -56.5z" />
    <glyph glyph-name="Egrave" unicode="&#xc8;" horiz-adv-x="564" 
d="M288 940l111.001 -174c-6 -11.333 -17 -23 -33 -35s-30.333 -19.333 -43 -22l-130 159c5.33301 12 19.166 26.333 41.499 43c22.334 16.6738 40.167 26.3408 53.5 29zM230.001 133h293c8 -44 8 -88.333 0 -133h-453v650h453c8 -44.667 8 -89 0 -133h-293v-122h259
c8 -44.667 8 -89 0 -133h-259v-129z" />
    <glyph glyph-name="Eacute" unicode="&#xc9;" horiz-adv-x="564" 
d="M193 766l111 174.001c13.334 -2.66699 31.167 -12.334 53.5 -29.001c22.334 -16.667 36.167 -31 41.5 -43l-130 -159c-12.667 2.66699 -27 10 -43 22s-27 23.667 -33 35zM230 133.001h293c8 -44 8 -88.333 0 -133h-453v650h453c8 -44.667 8 -89 0 -133h-293v-122h259
c8 -44.667 8 -89 0 -133h-259v-129z" />
    <glyph glyph-name="Ecircumflex" unicode="&#xca;" horiz-adv-x="564" 
d="M316 930l145 -146c-5.33301 -12.667 -16.833 -27.5 -34.5 -44.5s-32.5 -27.167 -44.5 -30.5l-86 87l-86 -87c-12 3.33301 -26.833 13.5 -44.5 30.5s-29.167 31.833 -34.5 44.5l145 146c5.33301 4 12 6 20 6s14.667 -2 20 -6zM230 133h293c8 -44 8 -88.333 0 -133h-453
v650h453c8 -44.667 8 -89 0 -133h-293v-122h259c8 -44.667 8 -89 0 -133h-259v-129z" />
    <glyph glyph-name="Edieresis" unicode="&#xcb;" horiz-adv-x="564" 
d="M174 897c25.333 0 46.666 -8 63.999 -24s26 -36.333 26 -61c0 -24 -8.66699 -44 -26 -60s-38.666 -24 -63.999 -24s-46.666 8 -63.999 24s-26 36 -26 60c0 24.667 8.66699 45 26 61s38.666 24 63.999 24zM419 897c25.334 0 46.667 -8 63.999 -24
c17.333 -16 26 -36.333 26 -61c0 -24 -8.66699 -44 -26 -60s-38.666 -24 -63.999 -24s-46.666 8 -63.999 24s-26 36 -26 60c0 24.667 8.66699 45 26 61s38.666 24 63.999 24zM230 133h293c8 -44 8 -88.333 0 -133h-453v650h453c8 -44.667 8 -89 0 -133h-293v-122h259
c8 -44.667 8 -89 0 -133h-259v-129z" />
    <glyph glyph-name="Igrave" unicode="&#xcc;" horiz-adv-x="300" 
d="M142 940l111.002 -174c-6 -11.333 -17 -23 -33 -35s-30.333 -19.333 -43 -22l-130 159c5.33301 12 19.166 26.333 41.499 43c22.333 16.6738 40.166 26.3408 53.499 29zM230.002 650v-650c-53.333 -9.33301 -106.666 -9.33301 -159.999 0v650
c53.333 9.33301 106.666 9.33301 159.999 0z" />
    <glyph glyph-name="Iacute" unicode="&#xcd;" horiz-adv-x="300" 
d="M47 766l111.002 174.001c13.333 -2.66699 31.166 -12.334 53.499 -29.001s36.166 -31 41.499 -43l-130 -159c-12.667 2.66699 -27 10 -43 22s-27 23.667 -33 35zM230.002 650.001v-650c-53.333 -9.33301 -106.666 -9.33301 -159.999 0v650
c53.333 9.33301 106.666 9.33301 159.999 0z" />
    <glyph glyph-name="Icircumflex" unicode="&#xce;" horiz-adv-x="300" 
d="M170 930l145 -146c-5.33301 -12.667 -16.833 -27.5 -34.5 -44.5s-32.5 -27.167 -44.5 -30.5l-86 87l-86 -87c-12 3.33301 -26.833 13.5 -44.5 30.5s-29.167 31.833 -34.5 44.5l145 146c5.33301 4 12 6 20 6s14.667 -2 20 -6zM230 650v-650
c-53.333 -9.33301 -106.666 -9.33301 -159.999 0v650c53.333 9.33301 106.666 9.33301 159.999 0z" />
    <glyph glyph-name="Idieresis" unicode="&#xcf;" horiz-adv-x="300" 
d="M28 897c25.333 0 46.666 -8 63.999 -24s26 -36.333 26 -61c0 -24 -8.66699 -44 -26 -60s-38.666 -24 -63.999 -24s-46.666 8 -63.999 24s-26 36 -26 60c0 24.667 8.66699 45 26 61s38.666 24 63.999 24zM273 897c25.334 0 46.667 -8 64 -24s26 -36.333 26 -61
c0 -24 -8.66699 -44 -26 -60s-38.666 -24 -63.999 -24c-25.334 0 -46.667 8 -64 24s-26 36 -26 60c0 24.667 8.66699 45 26 61s38.666 24 63.999 24zM230 650v-650c-53.333 -9.33301 -106.666 -9.33301 -159.999 0v650c53.333 9.33301 106.666 9.33301 159.999 0z" />
    <glyph glyph-name="Eth" unicode="&#xd0;" horiz-adv-x="707" 
d="M70 650h247c102 0 185 -30.5 249 -91.5s96 -138.833 96 -233.5s-32 -172.5 -96 -233.5s-147 -91.5 -249 -91.5h-247v272h-46c-8 36 -8 72.333 0 109h46v269zM230 133h87c52 0 95.333 16.5 130 49.5s52 80.5 52 142.5s-17.333 109.5 -52 142.5s-78 49.5 -130 49.5h-87
v-136h69c8 -36 8 -72.667 0 -110h-69v-138z" />
    <glyph glyph-name="Ntilde" unicode="&#xd1;" horiz-adv-x="722" 
d="M297 872c18 0 43 -7.33203 75 -21.999c18 -8 35.333 -12 52 -12c18.667 0 47.334 10 86.001 30c8 -37.333 8 -74 0 -110c-2 -0.666992 -6.33301 -2.83398 -13 -6.50098c-6.66797 -3.66699 -11.335 -6.16699 -14.001 -7.5c-2.66699 -1.33301 -7 -3.33301 -13 -6
s-11 -4.5 -15 -5.5s-8.83301 -2 -14.5 -3s-11.167 -1.5 -16.5 -1.5c-18 0 -43 7.33301 -75 22c-18 8 -35.333 12 -52 12c-18.667 0 -47.334 -10 -86.001 -30c-8 37.333 -8 74 0 110c2 0.692383 6.33301 2.85938 13 6.5c6.66797 3.66699 11.335 6.16699 14.001 7.5
c2.66699 1.33301 7 3.33301 13 6s11 4.5 15 5.5s8.83301 2 14.5 3s11.167 1.5 16.5 1.5zM655 650.001v-650c-42 -7.33301 -83.667 -7.33301 -125 0l-303 381v-381c-53.333 -9.33301 -106.666 -9.33301 -159.999 0v650c42 7.33301 83.667 7.33301 125 0l303 -381v381
c53.333 9.33301 106.666 9.33301 159.999 0z" />
    <glyph glyph-name="Ograve" unicode="&#xd2;" horiz-adv-x="780" 
d="M382 940l111 -174c-6 -11.333 -17 -23 -33 -35s-30.333 -19.333 -43 -22l-130 159c5.33496 12 19.168 26.333 41.5 43c22.334 16.6738 40.167 26.3408 53.5 29zM390 665c101.333 0 184.166 -32.833 248.499 -98.5s96.5 -146.167 96.5 -241.5
s-32.167 -175.833 -96.5 -241.5s-147.166 -98.5 -248.499 -98.5s-184.166 32.833 -248.499 98.5s-96.5 146.167 -96.5 241.5s32.167 175.833 96.5 241.5s147.166 98.5 248.499 98.5zM390 532c-50.667 0 -93.667 -18.834 -129 -56.501s-53 -87.834 -53 -150.5
c0 -62.667 17.667 -112.834 53 -150.501s78.333 -56.5 129 -56.5s93.667 18.833 129 56.5s53 87.834 53 150.501s-17.667 112.834 -53 150.501s-78.333 56.5 -129 56.5z" />
    <glyph glyph-name="Oacute" unicode="&#xd3;" horiz-adv-x="780" 
d="M287 766l111.001 174.001c13.334 -2.66699 31.167 -12.334 53.499 -29.001c22.334 -16.667 36.167 -31 41.5 -43l-130 -159c-12.667 2.66699 -27 10 -43 22s-27 23.667 -33 35zM390.001 665.001c101.333 0 184.166 -32.833 248.499 -98.5s96.5 -146.167 96.5 -241.5
s-32.167 -175.833 -96.5 -241.5s-147.166 -98.5 -248.499 -98.5s-184.166 32.833 -248.499 98.5s-96.5 146.167 -96.5 241.5s32.167 175.833 96.5 241.5s147.166 98.5 248.499 98.5zM390.001 532.001c-50.667 0 -93.667 -18.834 -129 -56.501s-53 -87.834 -53 -150.5
c0 -62.667 17.667 -112.834 53 -150.501s78.333 -56.5 129 -56.5s93.667 18.833 129 56.5s53 87.834 53 150.501s-17.667 112.834 -53 150.501s-78.333 56.5 -129 56.5z" />
    <glyph glyph-name="Ocircumflex" unicode="&#xd4;" horiz-adv-x="780" 
d="M410 930l145 -146c-5.33301 -12.667 -16.833 -27.5 -34.5 -44.5s-32.5 -27.167 -44.5 -30.5l-86 87l-86 -87c-12 3.33301 -26.833 13.5 -44.5 30.5s-29.167 31.833 -34.5 44.5l145 146c5.33301 4 12 6 20 6s14.667 -2 20 -6zM390 665
c101.333 0 184.166 -32.833 248.499 -98.5s96.5 -146.167 96.5 -241.5s-32.167 -175.833 -96.5 -241.5s-147.166 -98.5 -248.499 -98.5s-184.166 32.833 -248.499 98.5s-96.5 146.167 -96.5 241.5s32.167 175.833 96.5 241.5s147.166 98.5 248.499 98.5zM390 532
c-50.667 0 -93.667 -18.834 -129 -56.501s-53 -87.834 -53 -150.5c0 -62.667 17.667 -112.834 53 -150.501s78.333 -56.5 129 -56.5s93.667 18.833 129 56.5s53 87.834 53 150.501s-17.667 112.834 -53 150.501s-78.333 56.5 -129 56.5z" />
    <glyph glyph-name="Otilde" unicode="&#xd5;" horiz-adv-x="780" 
d="M326 872c18 0 42.999 -7.33203 74.999 -21.999c18 -8 35.333 -12 52 -12c18.667 0 47.334 10 86.001 30c8 -37.333 8 -74 0 -110c-2 -0.666992 -6.33301 -2.83398 -13 -6.50098s-11.334 -6.16699 -14.001 -7.5s-7 -3.33301 -13 -6s-11 -4.5 -15 -5.5
s-8.83301 -2 -14.5 -3s-11.167 -1.5 -16.5 -1.5c-18 0 -43 7.33301 -75 22c-18 8 -35.333 12 -52 12c-18.667 0 -47.334 -10 -86 -30c-8 37.333 -8 74 0 110c2 0.692383 6.33301 2.85938 13 6.5c6.66699 3.66699 11.334 6.16699 14.001 7.5s7 3.33301 13 6s11 4.5 15 5.5
s8.83301 2 14.5 3s11.167 1.5 16.5 1.5zM389.999 665.001c101.333 0 184.166 -32.833 248.499 -98.5s96.5 -146.167 96.5 -241.5s-32.167 -175.833 -96.5 -241.5s-147.166 -98.5 -248.499 -98.5s-184.166 32.833 -248.499 98.5s-96.5 146.167 -96.5 241.5
s32.167 175.833 96.5 241.5s147.166 98.5 248.499 98.5zM389.999 532.001c-50.667 0 -93.667 -18.834 -129 -56.501s-53 -87.834 -53 -150.5c0 -62.667 17.667 -112.834 53 -150.501s78.333 -56.5 129 -56.5s93.667 18.833 129 56.5s53 87.834 53 150.501
s-17.667 112.834 -53 150.501s-78.333 56.5 -129 56.5z" />
    <glyph glyph-name="Odieresis" unicode="&#xd6;" horiz-adv-x="780" 
d="M268 897c25.334 0 46.667 -8 64 -24s26 -36.333 26 -61c0 -24 -8.66699 -44 -26 -60s-38.666 -24 -63.999 -24c-25.334 0 -46.667 8 -64 24s-26 36 -26 60c0 24.667 8.66699 45 26 61s38.666 24 63.999 24zM513 897c25.333 0 46.667 -8 64 -24s26 -36.333 26 -61
c0 -24 -8.66699 -44 -26 -60c-17.3359 -16 -38.6689 -24 -64 -24c-25.333 0 -46.666 8 -63.999 24s-26 36 -26 60c0 24.667 8.66699 45 26 61c17.334 16 38.667 24 63.999 24zM390.001 665c101.333 0 184.166 -32.833 248.499 -98.5s96.5 -146.167 96.5 -241.5
s-32.167 -175.833 -96.5 -241.5s-147.166 -98.5 -248.499 -98.5s-184.166 32.833 -248.499 98.5s-96.5 146.167 -96.5 241.5s32.167 175.833 96.5 241.5s147.166 98.5 248.499 98.5zM390.001 532c-50.667 0 -93.667 -18.834 -129 -56.501s-53 -87.834 -53 -150.5
c0 -62.667 17.667 -112.834 53 -150.501s78.333 -56.5 129 -56.5s93.667 18.833 129 56.5s53 87.834 53 150.501s-17.667 112.834 -53 150.501s-78.333 56.5 -129 56.5z" />
    <glyph glyph-name="multiply" unicode="&#xd7;" horiz-adv-x="382" 
d="M268 255l83 -83c-20 -31.333 -45.667 -57.333 -77 -78l-83 83l-83 -82c-31.333 20 -57.333 45.667 -78 77l83 83l-83 83c20 30.667 46 56.667 78 78l83 -83l83 83c30.667 -20 56.667 -46 78 -78z" />
    <glyph glyph-name="Oslash" unicode="&#xd8;" horiz-adv-x="780" 
d="M735 650l-84.999 -96c56.667 -62.667 85 -139 85 -229c0 -95.333 -32.167 -175.833 -96.5 -241.5s-147.166 -98.5 -248.499 -98.5c-74 0 -140 19 -198 57l-37 -42c-36.667 -9.33301 -73.334 -9.33301 -110.001 0l85 96c-56.667 62.667 -85 139 -85 229
c0 95.333 32.167 175.833 96.5 241.5s147.166 98.5 248.499 98.5c74 0 140 -19 198 -57l37 42c36.668 9.33301 73.335 9.33301 110 0zM208.001 325c0 -42 8.66699 -79.667 26 -113l257 288c-29.333 21.333 -63 32 -101 32c-50.667 0 -93.667 -18.833 -129 -56.5
s-53 -87.834 -53 -150.5zM572.001 325c0 44 -8.66699 81.666 -26 112.999l-257 -288c29.333 -21.333 63 -32 101 -32c50.667 0 93.667 18.833 129 56.5s53 87.834 53 150.501z" />
    <glyph glyph-name="Ugrave" unicode="&#xd9;" horiz-adv-x="691" 
d="M338 940l111.001 -174c-6 -11.333 -17 -23 -33 -35s-30.333 -19.333 -43 -22l-130 159c5.33301 12 19.166 26.333 41.499 43c22.334 16.6738 40.167 26.3408 53.5 29zM461.001 248l-0.00195312 402c54 9.33301 108.333 9.33301 163 0v-377c0 -192 -92.333 -288 -277 -288
s-277 96 -277 288v377c54 9.33301 108.333 9.33301 163 0v-402c0 -38.667 9.83301 -70 29.5 -94s47.834 -36 84.501 -36s64.834 12 84.501 36s29.5 55.333 29.5 94z" />
    <glyph glyph-name="Uacute" unicode="&#xda;" horiz-adv-x="691" 
d="M243 766l111 174.001c13.334 -2.66699 31.167 -12.334 53.5 -29.001c22.335 -16.667 36.168 -31 41.5 -43l-130 -159c-12.667 2.66699 -27 10 -43 22s-27 23.667 -33 35zM461 248.001l-0.00195312 402c54 9.33301 108.333 9.33301 163 0v-377
c0 -192 -92.333 -288 -277 -288s-277 96 -277 288v377c54 9.33301 108.333 9.33301 163 0v-402c0 -38.667 9.83301 -70 29.5 -94s47.834 -36 84.501 -36s64.834 12 84.501 36s29.5 55.333 29.5 94z" />
    <glyph glyph-name="Ucircumflex" unicode="&#xdb;" horiz-adv-x="691" 
d="M366 930l145 -146c-5.33301 -12.667 -16.833 -27.5 -34.5 -44.5s-32.5 -27.167 -44.5 -30.5l-86 87l-86 -87c-12 3.33301 -26.833 13.5 -44.5 30.5s-29.167 31.833 -34.5 44.5l145 146c5.33301 4 12 6 20 6s14.667 -2 20 -6zM461 248l-0.00195312 402
c54 9.33301 108.333 9.33301 163 0v-377c0 -192 -92.333 -288 -277 -288s-277 96 -277 288v377c54 9.33301 108.333 9.33301 163 0v-402c0 -38.667 9.83301 -70 29.5 -94s47.834 -36 84.501 -36s64.834 12 84.501 36s29.5 55.333 29.5 94z" />
    <glyph glyph-name="Udieresis" unicode="&#xdc;" horiz-adv-x="691" 
d="M224 897c25.333 0 46.667 -8 64 -24s26 -36.333 26 -61c0 -24 -8.66699 -44 -26 -60s-38.666 -24 -63.999 -24c-25.334 0 -46.667 8 -64 24s-26 36 -26 60c0 24.667 8.66699 45 26 61s38.666 24 63.999 24zM469.001 897c25.333 0 46.665 -8 63.998 -24s26 -36.333 26 -61
c0 -24 -8.66699 -44 -26 -60s-38.666 -24 -63.999 -24s-46.666 8 -63.999 24s-26 36 -26 60c0 24.667 8.66699 45 26 61c17.334 16 38.667 24 64 24zM461 248l-0.00195312 402c54 9.33301 108.333 9.33301 163 0v-377c0 -192 -92.333 -288 -277 -288s-277 96 -277 288v377
c54 9.33301 108.333 9.33301 163 0v-402c0 -38.667 9.83301 -70 29.5 -94s47.834 -36 84.501 -36s64.834 12 84.501 36s29.5 55.333 29.5 94z" />
    <glyph glyph-name="Yacute" unicode="&#xdd;" horiz-adv-x="698" 
d="M246 766l111.001 174.001c13.334 -2.66699 31.167 -12.334 53.5 -29.001c22.334 -16.667 36.167 -31 41.499 -43l-130 -159c-12.667 2.66699 -27 10 -43 22s-27 23.667 -33 35zM429.001 225.001l-0.000976562 -225c-53.333 -9.33301 -106.666 -9.33301 -159.999 0v225
l-237 425c23.333 4 52 6 86 6s62.333 -2 85 -6l146 -276l146 276c23.333 4 52 6 86 6s62.333 -2 85 -6z" />
    <glyph glyph-name="Thorn" unicode="&#xde;" horiz-adv-x="615" 
d="M230 560h95c72.667 0 131.667 -20 177 -60s68 -92.667 68 -158s-22.667 -118 -68 -158s-104.333 -60 -177 -60h-95v-124c-53.333 -9.33301 -106.666 -9.33301 -159.999 0v650c53.333 9.33301 106.666 9.33301 159.999 0v-90zM230 257h95
c23.333 0 42.833 7.16699 58.5 21.5s23.5 35.5 23.5 63.5s-7.83301 49.167 -23.5 63.5s-35.167 21.5 -58.5 21.5h-95v-170z" />
    <glyph glyph-name="germandbls" unicode="&#xdf;" horiz-adv-x="571" 
d="M434 334c68 -31.333 102.002 -85.998 102.002 -163.998c0 -54.667 -17.5 -99.334 -52.5 -134.001s-83.833 -52 -146.5 -52c-36.667 0 -69.667 5.33301 -99 16c-4 12.667 -6.33301 35.167 -7 67.5s1.66602 52.5 6.99902 60.5c20 -12.667 43.667 -19 71 -19
c24 0 43.667 6.66699 59 20s23 32.333 23 57c0 26.667 -8.66699 46.167 -26 58.5s-40 18.5 -68 18.5h-41c-7.33301 42 -7.33301 84 0 126h37c22.667 0 41.667 6.33301 57 19s23 31.667 23 57c0 24 -7.33301 42.5 -22 55.5s-33.667 19.5 -57 19.5
c-30.667 0 -54.334 -10.833 -71.001 -32.5s-25 -52.834 -25 -93.5v-414c-48 -8.66699 -96.333 -8.66699 -145 0v419c0 77.333 23 137.666 69 180.999s104.333 65 175 65c66 0 119.333 -18 160 -54s61 -81 61 -135c0 -66.667 -28 -114 -84 -142z" />
    <glyph glyph-name="agrave" unicode="&#xe0;" horiz-adv-x="474" 
d="M229 690l111.002 -174c-6 -11.333 -17 -23 -33 -35s-30.333 -19.333 -43 -22l-130 159c5.33301 12 19.166 26.333 41.499 43c22.333 16.6719 40.166 26.3389 53.499 29zM228.002 415c67.333 0 116.332 -16.168 146.999 -48.501s46 -80.5 46 -144.5v-222
c-42 -7.33301 -83.667 -7.33301 -125 0l-9 40c-31.333 -36.667 -69 -55 -113 -55c-37.333 0 -69.5 11.333 -96.5 34s-40.5 54.334 -40.5 95.001c0 40 13.5 71.333 40.5 94s61.167 34 102.5 34s73.333 -9.66699 96 -29v22c0 22.667 -6.16699 39 -18.5 49s-32.5 15 -60.5 15
c-38 0 -78.667 -11.667 -122 -35c-5.33301 8 -7.66602 26.5 -6.99902 55.5s3 49.167 7 60.5c38 23.333 89 35 153 35zM219.001 153.999c-25.333 0 -38 -10 -38 -30c0 -8.66699 3.16699 -16 9.5 -22s15.5 -9 27.5 -9c22 0 41.333 5.66699 58 17v28c-14 10.667 -33 16 -57 16z
" />
    <glyph glyph-name="aacute" unicode="&#xe1;" horiz-adv-x="474" 
d="M134 516l111 174.001c13.334 -2.66699 31.167 -12.334 53.5 -29.001c22.334 -16.667 36.167 -31 41.5 -43l-130 -159c-12.667 2.66699 -27 10 -43 22s-27 23.667 -33 35zM228 415.001c67.333 0 116.332 -16.168 146.999 -48.501s46 -80.5 46 -144.5v-222
c-42 -7.33301 -83.667 -7.33301 -125 0l-9 40c-31.333 -36.667 -69 -55 -113 -55c-37.333 0 -69.5 11.333 -96.5 34s-40.5 54.334 -40.5 95.001c0 40 13.5 71.333 40.5 94s61.167 34 102.5 34s73.333 -9.66699 96 -29v22c0 22.667 -6.16699 39 -18.5 49s-32.5 15 -60.5 15
c-38 0 -78.667 -11.667 -122 -35c-5.33301 8 -7.66602 26.5 -6.99902 55.5s3 49.167 7 60.5c38 23.333 89 35 153 35zM218.999 154c-25.333 0 -38 -10 -38 -30c0 -8.66699 3.16699 -16 9.5 -22s15.5 -9 27.5 -9c22 0 41.333 5.66699 58 17v28c-14 10.667 -33 16 -57 16z" />
    <glyph glyph-name="acircumflex" unicode="&#xe2;" horiz-adv-x="474" 
d="M257 680l145.001 -146c-5.33301 -12.667 -16.833 -27.5 -34.5 -44.5s-32.5 -27.167 -44.5 -30.5l-86 87l-86 -87c-12 3.33301 -26.833 13.5 -44.5 30.5s-29.167 31.833 -34.5 44.5l145 146c5.33301 4 12.166 6 20.499 6s14.833 -2 19.5 -6zM228.001 415
c67.333 0 116.332 -16.168 146.999 -48.501s46 -80.5 46 -144.5v-222c-42 -7.33301 -83.667 -7.33301 -125 0l-9 40c-31.333 -36.667 -69 -55 -113 -55c-37.333 0 -69.5 11.333 -96.5 34s-40.5 54.334 -40.5 95.001c0 40 13.5 71.333 40.5 94s61.167 34 102.5 34
s73.333 -9.66699 96 -29v22c0 22.667 -6.16699 39 -18.5 49s-32.5 15 -60.5 15c-38 0 -78.667 -11.667 -122 -35c-5.33301 8 -7.66602 26.5 -6.99902 55.5s3 49.167 7 60.5c38 23.333 89 35 153 35zM219 153.999c-25.333 0 -38 -10 -38 -30c0 -8.66699 3.16699 -16 9.5 -22
s15.5 -9 27.5 -9c22 0 41.333 5.66699 58 17v28c-14 10.667 -33 16 -57 16z" />
    <glyph glyph-name="atilde" unicode="&#xe3;" horiz-adv-x="474" 
d="M173 622c18 0 42.999 -7.33203 74.999 -21.999c18 -8 35.333 -12 52 -12c18.667 0 47.334 10 86.001 30c8 -37.333 8 -74 0 -110c-2 -0.674805 -6.33301 -2.8418 -13 -6.50098c-6.66797 -3.66699 -11.335 -6.16699 -14 -7.5c-2.66699 -1.33301 -7 -3.33301 -13 -6
s-11 -4.5 -15 -5.5s-8.83301 -2 -14.5 -3s-11.167 -1.5 -16.5 -1.5c-18 0 -43 7.33301 -75 22c-18 8 -35.333 12 -52 12c-18.667 0 -47.334 -10 -86.001 -30c-8 37.333 -8 74 0 110c2 0.68457 6.33301 2.85156 13 6.5c6.66699 3.66699 11.334 6.16699 14.001 7.5
s7 3.33301 13 6s11 4.5 15 5.5s8.83301 2 14.5 3s11.167 1.5 16.5 1.5zM227.999 415.001c67.333 0 116.332 -16.168 146.999 -48.501s46 -80.5 46 -144.5v-222c-42 -7.33301 -83.667 -7.33301 -125 0l-9 40c-31.333 -36.667 -69 -55 -113 -55
c-37.333 0 -69.5 11.333 -96.5 34s-40.5 54.334 -40.5 95.001c0 40 13.5 71.333 40.5 94s61.167 34 102.5 34s73.333 -9.66699 96 -29v22c0 22.667 -6.16699 39 -18.5 49s-32.5 15 -60.5 15c-38 0 -78.667 -11.667 -122 -35c-5.33301 8 -7.66602 26.5 -6.99902 55.5
s3 49.167 7 60.5c38 23.333 89 35 153 35zM218.998 154c-25.333 0 -38 -10 -38 -30c0 -8.66699 3.16699 -16 9.5 -22s15.5 -9 27.5 -9c22 0 41.333 5.66699 58 17v28c-14 10.667 -33 16 -57 16z" />
    <glyph glyph-name="adieresis" unicode="&#xe4;" horiz-adv-x="474" 
d="M115 647c25.333 0 46.666 -8 63.999 -24s26 -36.333 26 -61c0 -24 -8.66699 -44 -26 -60s-38.666 -24 -63.999 -24s-46.666 8 -63.999 24s-26 36 -26 60c0 24.667 8.66699 45 26 61s38.666 24 63.999 24zM360 647c25.334 0 46.665 -8 63.998 -24s26 -36.333 26 -61
c0 -24 -8.66699 -44 -26 -60s-38.666 -24 -63.999 -24s-46.666 8 -63.999 24s-26 36 -26 60c0 24.667 8.66699 45 26 61c17.334 16 38.667 24 64 24zM227.998 415c67.333 0 116.332 -16.168 146.999 -48.501s46 -80.5 46 -144.5v-222c-42 -7.33301 -83.667 -7.33301 -125 0
l-9 40c-31.333 -36.667 -69 -55 -113 -55c-37.333 0 -69.5 11.333 -96.5 34s-40.5 54.334 -40.5 95.001c0 40 13.5 71.333 40.5 94s61.167 34 102.5 34s73.333 -9.66699 96 -29v22c0 22.667 -6.16699 39 -18.5 49s-32.5 15 -60.5 15c-38 0 -78.667 -11.667 -122 -35
c-5.33301 8 -7.66602 26.5 -6.99902 55.5s3 49.167 7 60.5c38 23.333 89 35 153 35zM218.997 153.999c-25.333 0 -38 -10 -38 -30c0 -8.66699 3.16699 -16 9.5 -22s15.5 -9 27.5 -9c22 0 41.333 5.66699 58 17v28c-14 10.667 -33 16 -57 16z" />
    <glyph glyph-name="aring" unicode="&#xe5;" horiz-adv-x="474" 
d="M237 683c28 0 52 -10 72 -30s30 -44 30 -72c0 -28.667 -10 -53 -30 -73s-44 -30 -72 -30c-28.667 0 -53 10 -73 30s-30 44.333 -30 73c0 28 10 52 30 72s44.333 30 73 30zM237 606c-7.33301 0 -13.5 -2.5 -18.5 -7.5s-7.5 -10.833 -7.5 -17.5
c0 -7.33301 2.5 -13.5 7.5 -18.5s11.167 -7.5 18.5 -7.5c6.66699 0 12.5 2.5 17.5 7.5s7.5 11.167 7.5 18.5s-2.33301 13.333 -7 18s-10.667 7 -18 7zM228 415c67.333 0 116.332 -16.168 146.999 -48.501s46 -80.5 46 -144.5v-222c-42 -7.33301 -83.667 -7.33301 -125 0
l-9 40c-31.333 -36.667 -69 -55 -113 -55c-37.333 0 -69.5 11.333 -96.5 34s-40.5 54.334 -40.5 95.001c0 40 13.5 71.333 40.5 94s61.167 34 102.5 34s73.333 -9.66699 96 -29v22c0 22.667 -6.16699 39 -18.5 49s-32.5 15 -60.5 15c-38 0 -78.667 -11.667 -122 -35
c-5.33301 8 -7.66602 26.5 -6.99902 55.5s3 49.167 7 60.5c38 23.333 89 35 153 35zM218.999 153.999c-25.333 0 -38 -10 -38 -30c0 -8.66699 3.16699 -16 9.5 -22s15.5 -9 27.5 -9c22 0 41.333 5.66699 58 17v28c-14 10.667 -33 16 -57 16z" />
    <glyph glyph-name="ae" unicode="&#xe6;" horiz-adv-x="723" 
d="M492 415c32 0 60.833 -5.50293 86.5 -16.5029s45.5 -25 59.5 -42s25.667 -36.167 35 -57.5s13.5 -42.166 12.5 -62.499s-3.5 -39.166 -7.5 -56.499h-257c4 -23.333 14.667 -41.333 32 -54c17.334 -12.667 38.667 -19 64 -19c41.333 0 83.666 12.667 126.999 38
c5.33301 -8 7.66602 -26.833 6.99902 -56.5s-3 -50.167 -7 -61.5c-37.333 -28 -85 -42 -143 -42c-45.333 0 -84.666 8.66699 -117.999 26l-4 -11c-27.333 -8.66699 -55 -8.66699 -83 0l-9 40c-31.333 -36.667 -69 -55 -113 -55c-37.333 0 -69.5 11.333 -96.5 34
s-40.5 54.334 -40.5 95.001c0 40 13.5 71.333 40.5 94s61.167 34 102.5 34c40.667 0 72 -9.33301 94 -28l2 21c0 22.667 -6.16699 39 -18.5 49s-32.5 15 -60.5 15c-38 0 -78.667 -11.667 -122 -35c-5.33301 8 -7.66602 26.5 -6.99902 55.5s3 49.167 7 60.5
c38 23.333 89 35 153 35c58.667 0 103.667 -12.667 135 -38c36.667 25.333 79.667 38 129 38zM429 253.997h118c-4 34.667 -22 52 -54 52c-32.667 0 -54 -17.333 -64 -52zM276 109.997v28c-14 10.667 -33 16 -57 16c-25.333 0 -38 -10 -38 -30
c0 -8.66699 3.16699 -16 9.5 -22s15.5 -9 27.5 -9c22 0 41.333 5.66699 58 17z" />
    <glyph glyph-name="ccedilla" unicode="&#xe7;" horiz-adv-x="460" 
d="M281 107c36 0 75.667 12.666 119 37.999c5.33984 -8 7.67285 -26.833 7 -56.5c-0.666992 -29.667 -3 -50.167 -7 -61.5c-32.667 -24.667 -71 -38.334 -115 -41.001v-32c19.333 0 36.833 -7.16699 52.5 -21.5s23.5 -33.833 23.5 -58.5c0 -26 -9.16699 -47.333 -27.5 -64
s-42.5 -25 -72.5 -25s-56.667 7.66699 -80 23c-3.33301 8.66699 -5 21 -5 37s1.66699 27.667 5 35c27.333 -18.667 50.666 -28 69.999 -28c12 0 21.5 2.83301 28.5 8.5s10.5 13.167 10.5 22.5c0 14 -7.16699 23.667 -21.5 29s-31.5 4 -51.5 -4v81
c-54 9.33301 -97 32.833 -129 70.5s-48 84.5 -48 140.5c0 64 20.833 115.833 62.5 155.5s96.167 59.5 163.5 59.5c52 0 96.667 -14 134 -42c4 -11.333 6.33301 -31.833 7 -61.5s-1.66602 -48.5 -6.99902 -56.5c-43.333 25.333 -83 38 -119 38c-28 0 -51 -8.16699 -69 -24.5
s-27 -39.166 -27 -68.499s9 -52.166 27 -68.499s41 -24.5 69 -24.5z" />
    <glyph glyph-name="egrave" unicode="&#xe8;" horiz-adv-x="489" 
d="M249 690l111.002 -174c-6 -11.333 -17 -23 -33 -35s-30.333 -19.333 -43 -22l-130 159c5.33301 12 19.166 26.333 41.499 43c22.333 16.6719 40.166 26.3389 53.499 29zM258.002 415c32 0 60.834 -5.50195 86.501 -16.502s45.5 -25 59.5 -42s25.667 -36.167 35 -57.5
s13.5 -42.166 12.5 -62.499s-3.5 -39.166 -7.5 -56.499h-257c4 -23.333 14.667 -41.333 32 -54s38.666 -19 63.999 -19c41.334 0 83.667 12.667 127 38c5.33984 -8 7.67285 -26.833 7 -56.5c-0.666992 -29.667 -3 -50.167 -7 -61.5c-37.333 -28 -85 -42 -143 -42
c-68.667 0 -123.667 20 -165 60s-62 92 -62 156c0 62.667 20.5 114 61.5 154s93.167 60 156.5 60zM259.003 305.998c-32.667 0 -54 -17.333 -64 -52h118c-4 34.667 -22 52 -54 52z" />
    <glyph glyph-name="eacute" unicode="&#xe9;" horiz-adv-x="489" 
d="M154 516l111.001 174.001c13.333 -2.66699 31.166 -12.334 53.499 -29.001c22.335 -16.667 36.168 -31 41.5 -43l-130 -159c-12.667 2.66699 -27 10 -43 22s-27 23.667 -33 35zM258.001 415.001c32 0 60.834 -5.50195 86.501 -16.502s45.5 -25 59.5 -42
s25.667 -36.167 35 -57.5s13.5 -42.166 12.5 -62.499s-3.5 -39.166 -7.5 -56.499h-257c4 -23.333 14.667 -41.333 32 -54s38.666 -19 63.999 -19c41.334 0 83.667 12.667 127 38c5.33984 -8 7.67285 -26.833 7 -56.5c-0.666992 -29.667 -3 -50.167 -7 -61.5
c-37.333 -28 -85 -42 -143 -42c-68.667 0 -123.667 20 -165 60s-62 92 -62 156c0 62.667 20.5 114 61.5 154s93.167 60 156.5 60zM259.002 305.999c-32.667 0 -54 -17.333 -64 -52h118c-4 34.667 -22 52 -54 52z" />
    <glyph glyph-name="ecircumflex" unicode="&#xea;" horiz-adv-x="489" 
d="M277 680l145.001 -146c-5.33301 -12.667 -16.833 -27.5 -34.5 -44.5s-32.5 -27.167 -44.5 -30.5l-86 87l-86 -87c-12 3.33301 -26.833 13.5 -44.5 30.5s-29.167 31.833 -34.5 44.5l145 146c5.33301 4 12.166 6 20.499 6s14.833 -2 19.5 -6zM258.001 415
c32 0 60.834 -5.50195 86.501 -16.502s45.5 -25 59.5 -42s25.667 -36.167 35 -57.5s13.5 -42.166 12.5 -62.499s-3.5 -39.166 -7.5 -56.499h-257c4 -23.333 14.667 -41.333 32 -54s38.666 -19 63.999 -19c41.334 0 83.667 12.667 127 38c5.33984 -8 7.67285 -26.833 7 -56.5
c-0.666992 -29.667 -3 -50.167 -7 -61.5c-37.333 -28 -85 -42 -143 -42c-68.667 0 -123.667 20 -165 60s-62 92 -62 156c0 62.667 20.5 114 61.5 154s93.167 60 156.5 60zM259.002 305.998c-32.667 0 -54 -17.333 -64 -52h118c-4 34.667 -22 52 -54 52z" />
    <glyph glyph-name="edieresis" unicode="&#xeb;" horiz-adv-x="489" 
d="M135 647c25.333 0 46.667 -8 64 -24s26 -36.333 26 -61c0 -24 -8.66699 -44 -26 -60c-17.334 -16 -38.667 -24 -64 -24s-46.666 8 -63.999 24s-26 36 -26 60c0 24.667 8.66699 45 26 61s38.666 24 63.999 24zM380.001 647c25.334 0 46.665 -8 63.998 -24
s26 -36.333 26 -61c0 -24 -8.66699 -44 -26 -60s-38.666 -24 -63.999 -24s-46.666 8 -63.999 24s-26 36 -26 60c0 24.667 8.66699 45 26 61c17.334 16 38.667 24 64 24zM257.999 415c32 0 60.834 -5.50195 86.501 -16.502s45.5 -25 59.5 -42s25.667 -36.167 35 -57.5
s13.5 -42.166 12.5 -62.499s-3.5 -39.166 -7.5 -56.499h-257c4 -23.333 14.667 -41.333 32 -54s38.666 -19 63.999 -19c41.334 0 83.667 12.667 127 38c5.33984 -8 7.67285 -26.833 7 -56.5c-0.666992 -29.667 -3 -50.167 -7 -61.5c-37.333 -28 -85 -42 -143 -42
c-68.667 0 -123.667 20 -165 60s-62 92 -62 156c0 62.667 20.5 114 61.5 154s93.167 60 156.5 60zM259 305.998c-32.667 0 -54 -17.333 -64 -52h118c-4 34.667 -22 52 -54 52z" />
    <glyph glyph-name="igrave" unicode="&#xec;" horiz-adv-x="257" 
d="M122 690l111.002 -174c-6 -11.333 -17 -23 -33 -35s-30.333 -19.333 -43 -22l-130 159c5.33301 12 19.166 26.333 41.499 43c22.333 16.6719 40.166 26.3389 53.499 29zM202.002 400v-400c-48 -8.66699 -96.333 -8.66699 -145 0v400c48.667 8.66699 97 8.66699 145 0z
" />
    <glyph glyph-name="iacute" unicode="&#xed;" horiz-adv-x="257" 
d="M27 516l111.002 174.001c13.333 -2.66699 31.166 -12.334 53.499 -29.001s36.166 -31 41.499 -43l-130 -159c-12.667 2.66699 -27 10 -43 22s-27 23.667 -33 35zM202.002 400.001v-400c-48 -8.66699 -96.333 -8.66699 -145 0v400c48.667 8.66699 97 8.66699 145 0z" />
    <glyph glyph-name="icircumflex" unicode="&#xee;" horiz-adv-x="257" 
d="M150 680l145 -146c-5.33301 -12.667 -16.833 -27.5 -34.5 -44.5s-32.5 -27.167 -44.5 -30.5l-86 87l-86 -87c-12 3.33301 -26.833 13.5 -44.5 30.5s-29.167 31.833 -34.5 44.5l145 146c5.33301 4 12 6 20 6s14.667 -2 20 -6zM202 400v-400
c-48 -8.66699 -96.333 -8.66699 -145 0v400c48.667 8.66699 97 8.66699 145 0z" />
    <glyph glyph-name="idieresis" unicode="&#xef;" horiz-adv-x="257" 
d="M8 647c25.333 0 46.666 -8 63.999 -24s26 -36.333 26 -61c0 -24 -8.66699 -44 -26 -60s-38.666 -24 -63.999 -24s-46.666 8 -63.999 24s-26 36 -26 60c0 24.667 8.66699 45 26 61s38.666 24 63.999 24zM253 647c25.333 0 46.667 -8 64 -24s26 -36.333 26 -61
c0 -24 -8.66699 -44 -26 -60s-38.666 -24 -63.999 -24c-25.334 0 -46.667 8 -64 24s-26 36 -26 60c0 24.667 8.66699 45 26 61s38.666 24 63.999 24zM202.001 400v-400c-48 -8.66699 -96.333 -8.66699 -145 0v400c48.667 8.66699 97 8.66699 145 0z" />
    <glyph glyph-name="eth" unicode="&#xf0;" horiz-adv-x="521" 
d="M400 558l-35.999 -21.001c78 -74.667 117 -170.667 117 -288v-15c0 -75.333 -20.167 -135.666 -60.5 -180.999s-93.833 -68 -160.5 -68c-65.333 0 -118.833 20.667 -160.5 62s-62.5 93 -62.5 155c0 56 17 103.833 51 143.5s78.667 59.5 134 59.5
c46.667 0 84.667 -17 114 -51c-14 46 -44.333 83.667 -91 113l-112 -67c-8 26.667 -8 53.667 0 81l35 21c-24 7.33301 -48 13 -72 17c-4 11.333 -6.33301 34 -7 68c-0.666016 34 1.66699 55 7 63c79.333 -8 148.666 -30.333 207.999 -67l96 57c8 -26.667 8 -54 0 -82z
M337.001 202.999v14.999c0 15.333 -0.333008 25.333 -1 30c-22.667 21.333 -48.334 32 -77 32c-20 0 -37.833 -7.16699 -53.5 -21.5s-23.5 -34.833 -23.5 -61.5c0 -25.333 7.33301 -46.166 22 -62.499s33 -24.5 55 -24.5c23.334 0 42.167 7.5 56.5 22.5s21.5 38.5 21.5 70.5
z" />
    <glyph glyph-name="ntilde" unicode="&#xf1;" horiz-adv-x="512" 
d="M192 622c18 0 43 -7.33203 75 -21.999c18 -8 35.333 -12 52 -12c18.667 0 47.334 10 86.001 30c8 -37.333 8 -74 0 -110c-2 -0.674805 -6.33301 -2.8418 -13 -6.50098c-6.66992 -3.66699 -11.3369 -6.16699 -14.001 -7.5c-2.66699 -1.33301 -7 -3.33301 -13 -6
s-11 -4.5 -15 -5.5s-8.83301 -2 -14.5 -3s-11.167 -1.5 -16.5 -1.5c-18 0 -43 7.33301 -75 22c-18 8 -35.333 12 -52 12c-18.667 0 -47.334 -10 -86.001 -30c-8 37.333 -8 74 0 110c2 0.68457 6.33301 2.85156 13 6.5c6.66699 3.66699 11.334 6.16699 14.001 7.5
s7 3.33301 13 6s11 4.5 15 5.5s8.83301 2 14.5 3s11.167 1.5 16.5 1.5zM313 415.001c50.667 0 87.666 -15.167 110.999 -45.5s35 -66.5 35 -108.5v-261c-48.667 -8.66699 -97 -8.66699 -145 0v228c0 41.333 -17.333 62 -52 62c-23.333 0 -44 -9 -62 -27v-263
c-48.667 -8.66699 -97 -8.66699 -145 0v400c42 7.33301 83.667 7.33301 125 0l11 -47c36.667 41.333 77.334 62 122.001 62z" />
    <glyph glyph-name="ograve" unicode="&#xf2;" horiz-adv-x="524" 
d="M254 690l111.002 -174c-6 -11.333 -17 -23 -33 -35s-30.333 -19.333 -43 -22l-130 159c5.33301 12 19.166 26.333 41.499 43c22.333 16.6719 40.166 26.3389 53.499 29zM262.002 415c64.667 0 117.833 -20.667 159.5 -62s62.5 -92.333 62.5 -153
s-20.833 -111.667 -62.5 -153s-94.834 -62 -159.5 -62c-64.667 0 -117.834 20.667 -159.501 62s-62.5 92.333 -62.5 153s20.833 111.667 62.5 153s94.834 62 159.501 62zM262.001 290c-22 0 -40.333 -8 -55 -24s-22 -38 -22 -66s7.33301 -50 22 -66s33 -24 55 -24
s40.333 8 55 24s22 38 22 66s-7.33301 50 -22 66s-33 24 -55 24z" />
    <glyph glyph-name="oacute" unicode="&#xf3;" horiz-adv-x="524" 
d="M159 516l111 174.001c13.334 -2.66699 31.167 -12.334 53.5 -29.001c22.334 -16.667 36.167 -31 41.5 -43l-130 -159c-12.667 2.66699 -27 10 -43 22s-27 23.667 -33 35zM262 415.001c64.667 0 117.833 -20.667 159.5 -62s62.5 -92.333 62.5 -153
s-20.833 -111.667 -62.5 -153s-94.834 -62 -159.5 -62c-64.667 0 -117.834 20.667 -159.501 62s-62.5 92.333 -62.5 153s20.833 111.667 62.5 153s94.834 62 159.501 62zM261.999 290.001c-22 0 -40.333 -8 -55 -24s-22 -38 -22 -66s7.33301 -50 22 -66s33 -24 55 -24
s40.333 8 55 24s22 38 22 66s-7.33301 50 -22 66s-33 24 -55 24z" />
    <glyph glyph-name="ocircumflex" unicode="&#xf4;" horiz-adv-x="524" 
d="M282 680l145 -146c-5.33301 -12.667 -16.833 -27.5 -34.5 -44.5s-32.5 -27.167 -44.5 -30.5l-86 87l-86 -87c-12 3.33301 -26.833 13.5 -44.5 30.5s-29.167 31.833 -34.5 44.5l145 146c5.33301 4 12 6 20 6s14.667 -2 20 -6zM262 415c64.667 0 117.833 -20.667 159.5 -62
s62.5 -92.333 62.5 -153s-20.833 -111.667 -62.5 -153s-94.834 -62 -159.5 -62c-64.667 0 -117.834 20.667 -159.501 62s-62.5 92.333 -62.5 153s20.833 111.667 62.5 153s94.834 62 159.501 62zM261.999 290c-22 0 -40.333 -8 -55 -24s-22 -38 -22 -66s7.33301 -50 22 -66
s33 -24 55 -24s40.333 8 55 24s22 38 22 66s-7.33301 50 -22 66s-33 24 -55 24z" />
    <glyph glyph-name="otilde" unicode="&#xf5;" horiz-adv-x="524" 
d="M198 622c18 0 43.001 -7.33203 75.001 -21.999c18 -8 35.333 -12 52 -12c18.667 0 47.334 10 86.001 30c8 -37.333 8 -74 0 -110c-2 -0.674805 -6.33301 -2.8418 -13 -6.50098c-6.66992 -3.66699 -11.3369 -6.16699 -14.001 -7.5c-2.66699 -1.33301 -7 -3.33301 -13 -6
s-11 -4.5 -15 -5.5s-8.83301 -2 -14.5 -3s-11.167 -1.5 -16.5 -1.5c-18 0 -43 7.33301 -75 22c-18 8 -35.333 12 -52 12c-18.667 0 -47.334 -10 -86.001 -30c-8 37.333 -8 74 0 110c2 0.68457 6.33301 2.85156 13 6.5c6.66699 3.66699 11.334 6.16699 14 7.5
c2.66699 1.33301 7 3.33301 13 6s11 4.5 15 5.5s8.83301 2 14.5 3s11.167 1.5 16.5 1.5zM262.001 415.001c64.667 0 117.834 -20.667 159.501 -62s62.5 -92.333 62.5 -153s-20.833 -111.667 -62.5 -153s-94.834 -62 -159.501 -62s-117.834 20.667 -159.501 62
s-62.5 92.333 -62.5 153s20.833 111.667 62.5 153s94.834 62 159.501 62zM262.001 290.001c-22 0 -40.333 -8 -55 -24s-22 -38 -22 -66s7.33301 -50 22 -66s33 -24 55 -24s40.333 8 55 24s22 38 22 66s-7.33301 50 -22 66s-33 24 -55 24z" />
    <glyph glyph-name="odieresis" unicode="&#xf6;" horiz-adv-x="524" 
d="M140 647c25.333 0 46.666 -8 63.999 -24s26 -36.333 26 -61c0 -24 -8.66699 -44 -26 -60s-38.666 -24 -63.999 -24s-46.666 8 -63.999 24s-26 36 -26 60c0 24.667 8.66699 45 26 61s38.666 24 63.999 24zM385 647c25.334 0 46.666 -8 63.998 -24
c17.333 -16 26 -36.333 26 -61c0 -24 -8.66699 -44 -26 -60s-38.666 -24 -63.999 -24s-46.666 8 -63.999 24s-26 36 -26 60c0 24.667 8.66699 45 26 61c17.334 16 38.667 24 64 24zM261.999 415c64.667 0 117.834 -20.667 159.501 -62s62.5 -92.333 62.5 -153
s-20.833 -111.667 -62.5 -153s-94.834 -62 -159.501 -62s-117.834 20.667 -159.501 62s-62.5 92.333 -62.5 153s20.833 111.667 62.5 153s94.834 62 159.501 62zM261.999 290c-22 0 -40.333 -8 -55 -24s-22 -38 -22 -66s7.33301 -50 22 -66s33 -24 55 -24s40.333 8 55 24
s22 38 22 66s-7.33301 50 -22 66s-33 24 -55 24z" />
    <glyph glyph-name="divide" unicode="&#xf7;" horiz-adv-x="416" 
d="M208 510c25.333 0 46.667 -8 64 -24s26 -36.333 26 -61c0 -24 -8.66699 -44 -26 -60c-17.334 -16 -38.667 -24 -64 -24s-46.666 8 -63.999 24s-26 36 -26 60c0 24.667 8.66699 45 26 61s38.666 24 63.999 24zM36.001 310h344c8 -36 8 -72.667 0 -110l-344 1
c-8 36 -8 72.333 0 109zM208.001 169c25.333 0 46.668 -8 64.001 -24s26 -36.333 26 -61c0 -24 -8.66699 -44 -26 -60c-17.334 -16 -38.667 -24 -64 -24c-25.334 0 -46.667 8 -64 24s-26 36 -26 60c0 24.667 8.66699 45 26 61s38.666 24 63.999 24z" />
    <glyph glyph-name="oslash" unicode="&#xf8;" horiz-adv-x="524" 
d="M484 400l-51.002 -60c34 -39.333 51 -86 51 -140c0 -60.667 -20.833 -111.667 -62.5 -153s-94.834 -62 -159.5 -62c-38.667 0 -74.667 8.33301 -108 25l-8 -10c-35.333 -9.33301 -70.666 -9.33301 -105.999 0l51 60c-34 39.333 -51 86 -51 140
c0 60.667 20.833 111.667 62.5 153s94.834 62 159.501 62c38.667 0 74.667 -8.33301 108 -25l8 10c35.334 9.33301 70.667 9.33301 106 0zM184.998 200c0 -9.33398 1 -17.667 3 -25l95 112c-7.33301 2 -14.333 3 -21 3c-22 0 -40.333 -8 -55 -24s-22 -38 -22 -66z
M338.998 200c0 9.33301 -1 17.667 -3 25l-95 -112c7.33301 -2 14.333 -3 21 -3c22 0 40.333 8 55 24s22 38 22 66z" />
    <glyph glyph-name="ugrave" unicode="&#xf9;" horiz-adv-x="510" 
d="M247 690l111.002 -174c-6 -11.333 -17 -23 -33 -35s-30.333 -19.333 -43 -22l-130 159c5.33301 12 19.166 26.333 41.499 43c22.333 16.6719 40.166 26.3389 53.499 29zM312.002 137l0.000976562 263c48 8.66699 96.333 8.66699 145 0v-400
c-42 -7.33301 -83.667 -7.33301 -125 0l-11 47c-36.667 -41.333 -77.334 -62 -122.001 -62c-50.667 0 -87.667 15.167 -111 45.5s-35 66.5 -35 108.5v261c48 8.66699 96.333 8.66699 145 0v-228c0 -41.333 17.333 -62 52 -62c23.333 0 44 9 62 27z" />
    <glyph glyph-name="uacute" unicode="&#xfa;" horiz-adv-x="510" 
d="M152 516l111 174.001c13.334 -2.66699 31.167 -12.334 53.5 -29.001c22.334 -16.667 36.167 -31 41.5 -43l-130 -159c-12.667 2.66699 -27 10 -43 22s-27 23.667 -33 35zM312 137.001l0.000976562 263c48 8.66699 96.333 8.66699 145 0v-400
c-42 -7.33301 -83.667 -7.33301 -125 0l-11 47c-36.667 -41.333 -77.334 -62 -122.001 -62c-50.667 0 -87.667 15.167 -111 45.5s-35 66.5 -35 108.5v261c48 8.66699 96.333 8.66699 145 0v-228c0 -41.333 17.333 -62 52 -62c23.333 0 44 9 62 27z" />
    <glyph glyph-name="ucircumflex" unicode="&#xfb;" horiz-adv-x="510" 
d="M275 680l145.001 -146c-5.33301 -12.667 -16.833 -27.5 -34.5 -44.5s-32.5 -27.167 -44.5 -30.5l-86 87l-86 -87c-12 3.33301 -26.833 13.5 -44.5 30.5s-29.167 31.833 -34.5 44.5l145 146c5.33301 4 12.166 6 20.499 6s14.833 -2 19.5 -6zM312.001 137l0.000976562 263
c48 8.66699 96.333 8.66699 145 0v-400c-42 -7.33301 -83.667 -7.33301 -125 0l-11 47c-36.667 -41.333 -77.334 -62 -122.001 -62c-50.667 0 -87.667 15.167 -111 45.5s-35 66.5 -35 108.5v261c48 8.66699 96.333 8.66699 145 0v-228c0 -41.333 17.333 -62 52 -62
c23.333 0 44 9 62 27z" />
    <glyph glyph-name="udieresis" unicode="&#xfc;" horiz-adv-x="510" 
d="M133 647c25.333 0 46.667 -8 64 -24s26 -36.333 26 -61c0 -24 -8.66699 -44 -26 -60c-17.334 -16 -38.667 -24 -64 -24s-46.666 8 -63.999 24s-26 36 -26 60c0 24.667 8.66699 45 26 61s38.666 24 63.999 24zM378.001 647c25.334 0 46.665 -8 63.998 -24
s26 -36.333 26 -61c0 -24 -8.66699 -44 -26 -60s-38.666 -24 -63.999 -24s-46.666 8 -63.999 24s-26 36 -26 60c0 24.667 8.66699 45 26 61c17.334 16 38.667 24 64 24zM311.999 137l0.000976562 263c48 8.66699 96.333 8.66699 145 0v-400
c-42 -7.33301 -83.667 -7.33301 -125 0l-11 47c-36.667 -41.333 -77.334 -62 -122.001 -62c-50.667 0 -87.667 15.167 -111 45.5s-35 66.5 -35 108.5v261c48 8.66699 96.333 8.66699 145 0v-228c0 -41.333 17.333 -62 52 -62c23.333 0 44 9 62 27z" />
    <glyph glyph-name="yacute" unicode="&#xfd;" horiz-adv-x="527" 
d="M161 516l111 174.001c13.334 -2.66699 31.167 -12.334 53.5 -29.001c22.334 -16.667 36.167 -31 41.5 -43l-130 -159c-12.667 2.66699 -27 10 -43 22s-27 23.667 -33 35zM264 191.001l80.998 209c50.667 8.66699 101.334 8.66699 152.001 0l-246 -563
c-49.333 -8.66699 -98.333 -8.66699 -147 0l86 197l-160 366c50.667 8.66699 101.334 8.66699 152.001 0z" />
    <glyph glyph-name="thorn" unicode="&#xfe;" horiz-adv-x="541" 
d="M317 415c55.333 0 99.833 -20.5 133.5 -61.5s50.5 -92.167 50.5 -153.5s-16.833 -112.5 -50.5 -153.5s-78.167 -61.5 -133.5 -61.5c-48.667 0 -87 16.667 -115 50v-198c-48.667 -8.66699 -97 -8.66699 -145 0v813c48.667 8.66699 97 8.66699 145 0v-286
c28.667 34 67 51 115 51zM277 110c23.333 0 42.333 8 57 24s22 38 22 66s-7.33301 50 -22 66s-33.667 24 -57 24c-27.333 0 -52.333 -10.667 -75 -32v-116c22.667 -21.333 47.667 -32 75 -32z" />
    <glyph glyph-name="ydieresis" unicode="&#xff;" horiz-adv-x="527" 
d="M142 647c25.333 0 46.666 -8 63.999 -24s26 -36.333 26 -61c0 -24 -8.66699 -44 -26 -60s-38.666 -24 -63.999 -24s-46.666 8 -63.999 24s-26 36 -26 60c0 24.667 8.66699 45 26 61s38.666 24 63.999 24zM387 647c25.334 0 46.666 -8 63.998 -24
c17.333 -16 26 -36.333 26 -61c0 -24 -8.66699 -44 -26 -60s-38.666 -24 -63.999 -24s-46.666 8 -63.999 24s-26 36 -26 60c0 24.667 8.66699 45 26 61c17.334 16 38.667 24 64 24zM263.999 191l80.998 209c50.667 8.66699 101.334 8.66699 152.001 0l-246 -563
c-49.333 -8.66699 -98.333 -8.66699 -147 0l86 197l-160 366c50.667 8.66699 101.334 8.66699 152.001 0z" />
    <glyph glyph-name="Amacron" unicode="&#x100;" horiz-adv-x="724" 
d="M230 838h259c8 -36 8 -72.667 0 -110l-259 1c-8 36 -8 72.333 0 109zM428 650l264 -650c-54.667 -9.33301 -109.667 -9.33301 -165 0l-46 123h-238l-46 -123c-55.333 -9.33301 -110.333 -9.33301 -165 0l264 650c44 7.33301 88 7.33301 132 0zM293 258h138l-69 186z" />
    <glyph glyph-name="amacron" unicode="&#x101;" horiz-adv-x="474" 
d="M105 588h259c8 -36 8 -72.667 0 -110l-259 1c-8 36.667 -8 73 0 109zM228 415c67.333 0 116.332 -16.168 146.999 -48.501s46 -80.5 46 -144.5v-222c-42 -7.33301 -83.667 -7.33301 -125 0l-9 40c-31.333 -36.667 -69 -55 -113 -55c-37.333 0 -69.5 11.333 -96.5 34
s-40.5 54.334 -40.5 95.001c0 40 13.5 71.333 40.5 94s61.167 34 102.5 34s73.333 -9.66699 96 -29v22c0 22.667 -6.16699 39 -18.5 49s-32.5 15 -60.5 15c-38 0 -78.667 -11.667 -122 -35c-5.33301 8 -7.66602 26.5 -6.99902 55.5s3 49.167 7 60.5c38 23.333 89 35 153 35z
M218.999 153.999c-25.333 0 -38 -10 -38 -30c0 -8.66699 3.16699 -16 9.5 -22s15.5 -9 27.5 -9c22 0 41.333 5.66699 58 17v28c-14 10.667 -33 16 -57 16z" />
    <glyph glyph-name="Abreve" unicode="&#x102;" horiz-adv-x="724" 
d="M505 888c5.33301 -8 7.66797 -26.833 7.00098 -56.5s-3 -50.167 -7 -61.5c-37.333 -28 -85 -42 -143 -42s-105.667 14 -143 42c-4 11.333 -6.33301 31.833 -7 61.5s1.66602 48.5 6.99902 56.5c43.333 -25.333 91 -38 143 -38s99.667 12.667 143 38zM428.002 650l264 -650
c-54.667 -9.33301 -109.667 -9.33301 -165 0l-46 123h-238l-46 -123c-55.333 -9.33301 -110.333 -9.33301 -165 0l264 650c44 7.33301 88 7.33301 132 0zM293.002 258h138l-69 186z" />
    <glyph glyph-name="abreve" unicode="&#x103;" horiz-adv-x="474" 
d="M380 638c5.33887 -8 7.67285 -26.833 7 -56.5c-0.666992 -29.667 -3 -50.167 -7 -61.5c-37.333 -28 -85 -42 -143 -42s-105.667 14 -143 42c-4 11.333 -6.33301 31.833 -7 61.5c-0.666016 29.667 1.66699 48.5 7 56.5c43.333 -25.333 91 -38 143 -38
s99.667 12.667 143 38zM228.001 415c67.333 0 116.332 -16.168 146.999 -48.501s46 -80.5 46 -144.5v-222c-42 -7.33301 -83.667 -7.33301 -125 0l-9 40c-31.333 -36.667 -69 -55 -113 -55c-37.333 0 -69.5 11.333 -96.5 34s-40.5 54.334 -40.5 95.001
c0 40 13.5 71.333 40.5 94s61.167 34 102.5 34s73.333 -9.66699 96 -29v22c0 22.667 -6.16699 39 -18.5 49s-32.5 15 -60.5 15c-38 0 -78.667 -11.667 -122 -35c-5.33301 8 -7.66602 26.5 -6.99902 55.5s3 49.167 7 60.5c38 23.333 89 35 153 35zM219 153.999
c-25.333 0 -38 -10 -38 -30c0 -8.66699 3.16699 -16 9.5 -22s15.5 -9 27.5 -9c22 0 41.333 5.66699 58 17v28c-14 10.667 -33 16 -57 16z" />
    <glyph glyph-name="Aogonek" unicode="&#x104;" horiz-adv-x="724" 
d="M720 -122c8.66699 -28.667 8.66699 -57.999 0 -87.999c-12 -3.33301 -28 -5 -48 -5c-30 0 -55.167 8.5 -75.5 25.5s-30.5 40.833 -30.5 71.5c0 39.333 19.333 76.666 58 111.999c-37.334 -1.33301 -69.667 0.666992 -96.999 6l-46 123h-238l-46 -123
c-55.333 -9.33301 -110.333 -9.33301 -165 0l264 650c44 7.33301 88 7.33301 132 0l264 -650c-2.66699 -2.66699 -7.83398 -8 -15.501 -16s-13.5 -14.5 -17.5 -19.5s-8 -11.667 -12 -20s-6 -16.833 -6 -25.5c0 -13.333 4.66699 -24.333 14 -33s22.333 -13 39 -13
c12 0 20.667 1.66699 26 5zM431 258.001l-69 186l-69 -186h138z" />
    <glyph glyph-name="aogonek" unicode="&#x105;" horiz-adv-x="474" 
d="M449 -122c8.66699 -28.667 8.66602 -58 -0.000976562 -88c-12 -3.33301 -28 -5 -48 -5c-30 0 -55.167 8.5 -75.5 25.5s-30.5 40.833 -30.5 71.5c0 39.333 19.333 76.666 58 111.999c-16.667 0 -35.667 2 -57 6l-9 40c-31.333 -36.667 -69 -55 -113 -55
c-37.333 0 -69.5 11.333 -96.5 34s-40.5 54.334 -40.5 95.001c0 40 13.5 71.333 40.5 94s61.167 34 102.5 34s73.333 -9.66699 96 -29v22c0 22.667 -6.16699 39 -18.5 49s-32.5 15 -60.5 15c-38 0 -78.667 -11.667 -122 -35c-5.33301 8 -7.66602 26.5 -6.99902 55.5
s3 49.167 7 60.5c38 23.333 89 35 153 35c67.333 0 116.333 -16.167 147 -48.5s46 -80.5 46 -144.5v-222c-2.66699 -2.66699 -7.83398 -8 -15.5 -16c-7.66699 -8 -13.5 -14.5 -17.5 -19.5s-8 -11.667 -12 -20s-6 -16.833 -6 -25.5c0 -13.333 4.66699 -24.333 14 -33
s22.333 -13 39 -13c12 0 20.667 1.66699 26 5zM275.999 110v28c-14 10.667 -33 16 -57 16c-25.333 0 -38 -10 -38 -30c0 -8.66699 3.16699 -16 9.5 -22s15.5 -9 27.5 -9c22 0 41.333 5.66699 58 17z" />
    <glyph glyph-name="Cacute" unicode="&#x106;" horiz-adv-x="684" 
d="M308 766l111.002 174.001c13.334 -2.66699 31.167 -12.334 53.499 -29.001c22.334 -16.667 36.167 -31 41.499 -43l-130 -159c-12.667 2.66699 -27 10 -43 22s-27 23.667 -33 35zM421.002 118.001c58.667 0 121.667 20.668 189 62.001
c5.33301 -8 7.66602 -31.333 6.99902 -70s-3 -63.667 -7 -75c-54 -33.333 -120 -50 -198 -50c-110.667 0 -199.5 32.667 -266.5 98s-100.5 146 -100.5 242s33.5 176.667 100.5 242s155.833 98 266.5 98c78 0 144 -16.667 198 -50c4 -11.333 6.33301 -36.333 7 -75
c0.647461 -38.667 -1.68555 -62 -7 -70c-67.334 41.333 -130.334 62 -189 62c-60.667 0 -111.334 -18.833 -152 -56.5c-40.667 -37.667 -61 -87.834 -61 -150.5c0 -62.667 20.333 -112.834 61 -150.501s91.334 -56.5 152.001 -56.5z" />
    <glyph glyph-name="cacute" unicode="&#x107;" horiz-adv-x="460" 
d="M152 516l111 174.001c13.334 -2.66699 31.167 -12.334 53.5 -29.001c22.334 -16.667 36.167 -31 41.5 -43l-130 -159c-12.667 2.66699 -27 10 -43 22s-27 23.667 -33 35zM281 107.001c36 0 75.666 12.665 118.999 37.998c5.33984 -8 7.67285 -26.833 7 -56.5
c-0.666992 -29.667 -3 -50.167 -7 -61.5c-37.333 -28 -82 -42 -134 -42c-67.333 0 -121.833 19.833 -163.5 59.5s-62.5 91.5 -62.5 155.5s20.833 115.833 62.5 155.5s96.167 59.5 163.5 59.5c52 0 96.667 -14 134 -42c4 -11.333 6.33301 -31.833 7 -61.5
s-1.66602 -48.5 -6.99902 -56.5c-43.333 25.333 -83 38 -119 38c-28 0 -51 -8.16699 -69 -24.5s-27 -39.166 -27 -68.499s9 -52.166 27 -68.499s41 -24.5 69 -24.5z" />
    <glyph glyph-name="Cdotaccent" unicode="&#x10a;" horiz-adv-x="684" 
d="M411 728c-25.333 0 -46.667 8 -64 24s-26 36 -26 60c0 24.667 8.66699 45 26 61c17.334 16 38.667 24 64 24s46.666 -8 63.999 -24s26 -36.333 26 -61c0 -24 -8.66699 -44 -26 -60s-38.666 -24 -63.999 -24zM420.999 118c58.667 0 121.667 20.668 189 62.001
c5.33301 -8 7.66602 -31.333 6.99902 -70s-3 -63.667 -7 -75c-54 -33.333 -120 -50 -198 -50c-110.667 0 -199.5 32.667 -266.5 98s-100.5 146 -100.5 242s33.5 176.667 100.5 242s155.833 98 266.5 98c78 0 144 -16.667 198 -50c4 -11.333 6.33301 -36.333 7 -75
c0.647461 -38.667 -1.68555 -62 -7 -70c-67.334 41.333 -130.334 62 -189 62c-60.667 0 -111.334 -18.833 -152 -56.5c-40.667 -37.667 -61 -87.834 -61 -150.5c0 -62.667 20.333 -112.834 61 -150.501s91.334 -56.5 152.001 -56.5z" />
    <glyph glyph-name="cdotaccent" unicode="&#x10b;" horiz-adv-x="460" 
d="M255 478c-25.334 0 -46.667 8 -64 24s-26 36 -26 60c0 24.667 8.66699 45 26 61s38.666 24 63.999 24c25.334 0 46.667 -8 64 -24s26 -36.333 26 -61c0 -24 -8.66699 -44 -26 -60s-38.666 -24 -63.999 -24zM281 107c36 0 75.666 12.665 118.999 37.998
c5.33984 -8 7.67285 -26.833 7 -56.5c-0.666992 -29.667 -3 -50.167 -7 -61.5c-37.333 -28 -82 -42 -134 -42c-67.333 0 -121.833 19.833 -163.5 59.5s-62.5 91.5 -62.5 155.5s20.833 115.833 62.5 155.5s96.167 59.5 163.5 59.5c52 0 96.667 -14 134 -42
c4 -11.333 6.33301 -31.833 7 -61.5s-1.66602 -48.5 -6.99902 -56.5c-43.333 25.333 -83 38 -119 38c-28 0 -51 -8.16699 -69 -24.5s-27 -39.166 -27 -68.499s9 -52.166 27 -68.499s41 -24.5 69 -24.5z" />
    <glyph glyph-name="Ccaron" unicode="&#x10c;" horiz-adv-x="684" 
d="M411 843l85.999 87c12 -3.33301 26.833 -13.5 44.5 -30.5s29.167 -31.833 34.5 -44.5l-145 -146c-4.66699 -4 -11.167 -6 -19.5 -6s-15.166 2 -20.499 6l-145 146c5.33301 12.667 16.833 27.5 34.5 44.5s32.5 27.167 44.5 30.5zM420.999 118
c58.667 0 121.667 20.668 189 62.001c5.33301 -8 7.66602 -31.333 6.99902 -70s-3 -63.667 -7 -75c-54 -33.333 -120 -50 -198 -50c-110.667 0 -199.5 32.667 -266.5 98s-100.5 146 -100.5 242s33.5 176.667 100.5 242s155.833 98 266.5 98c78 0 144 -16.667 198 -50
c4 -11.333 6.33301 -36.333 7 -75c0.647461 -38.667 -1.68555 -62 -7 -70c-67.334 41.333 -130.334 62 -189 62c-60.667 0 -111.334 -18.833 -152 -56.5c-40.667 -37.667 -61 -87.834 -61 -150.5c0 -62.667 20.333 -112.834 61 -150.501s91.334 -56.5 152.001 -56.5z" />
    <glyph glyph-name="ccaron" unicode="&#x10d;" horiz-adv-x="460" 
d="M255 593l86 87c12 -3.33301 26.833 -13.5 44.5 -30.5s29.167 -31.833 34.5 -44.5l-145 -146c-4.66699 -4 -11.167 -6 -19.5 -6c-8.33398 0 -15.167 2 -20.5 6l-145 146c5.33301 12.667 16.833 27.5 34.5 44.5s32.5 27.167 44.5 30.5zM281 107
c36 0 75.666 12.665 118.999 37.998c5.33984 -8 7.67285 -26.833 7 -56.5c-0.666992 -29.667 -3 -50.167 -7 -61.5c-37.333 -28 -82 -42 -134 -42c-67.333 0 -121.833 19.833 -163.5 59.5s-62.5 91.5 -62.5 155.5s20.833 115.833 62.5 155.5s96.167 59.5 163.5 59.5
c52 0 96.667 -14 134 -42c4 -11.333 6.33301 -31.833 7 -61.5s-1.66602 -48.5 -6.99902 -56.5c-43.333 25.333 -83 38 -119 38c-28 0 -51 -8.16699 -69 -24.5s-27 -39.166 -27 -68.499s9 -52.166 27 -68.499s41 -24.5 69 -24.5z" />
    <glyph glyph-name="Dcaron" unicode="&#x10e;" horiz-adv-x="707" 
d="M317 843l85.999 87c12 -3.33301 26.833 -13.5 44.5 -30.5s29.167 -31.833 34.5 -44.5l-145 -146c-4.66699 -4 -11.167 -6 -19.5 -6s-15.166 2 -20.499 6l-145 146c5.33301 12.667 16.833 27.5 34.5 44.5s32.5 27.167 44.5 30.5zM69.999 650h247
c102 0 185 -30.5 249 -91.5s96 -138.833 96 -233.5s-32 -172.5 -96 -233.5s-147 -91.5 -249 -91.5h-247v650zM229.999 133h87c52 0 95.333 16.5 130 49.5s52 80.5 52 142.5s-17.333 109.5 -52 142.5s-78 49.5 -130 49.5h-87v-384z" />
    <glyph glyph-name="dcaron" unicode="&#x10f;" horiz-adv-x="695" 
d="M602 665c26 0 48.833 -9.00195 68.5 -27.002s29.5 -45.333 29.5 -82c0 -40 -11.167 -79.667 -33.5 -119c-22.3359 -39.333 -43.1689 -64.666 -62.5 -75.999c-25.333 -4.66699 -51 -4.66699 -77 0c37.333 34.667 69 80.334 95 137.001
c-9.33301 -1.33301 -16.333 -2 -21 -2c-24.667 0 -45.667 8 -63 24s-26 36 -26 60c0 24.667 8.83301 45 26.5 61c17.6689 16 38.8359 24 63.5 24zM339 364.998l-0.000976562 285c48 8.66699 96.333 8.66699 145 0v-650c-41.333 -7.33301 -83 -7.33301 -125 0l-11 47
c-31.333 -41.333 -72.666 -62 -123.999 -62c-55.333 0 -99.833 20.5 -133.5 61.5s-50.5 92.167 -50.5 153.5s16.833 112.5 50.5 153.5s78.167 61.5 133.5 61.5c48.667 0 87 -16.667 115 -50zM338.999 141.998v116c-22.667 21.333 -47.667 32 -75 32
c-23.333 0 -42.333 -8 -57 -24s-22 -38 -22 -66s7.33301 -50 22 -66s33.667 -24 57 -24c27.333 0 52.333 10.667 75 32z" />
    <glyph glyph-name="Dcroat" unicode="&#x110;" horiz-adv-x="707" 
d="M70 650h247c102 0 185 -30.5 249 -91.5s96 -138.833 96 -233.5s-32 -172.5 -96 -233.5s-147 -91.5 -249 -91.5h-247v272h-46c-8 36 -8 72.333 0 109h46v269zM230 133h87c52 0 95.333 16.5 130 49.5s52 80.5 52 142.5s-17.333 109.5 -52 142.5s-78 49.5 -130 49.5h-87
v-136h69c8 -36 8 -72.667 0 -110h-69v-138z" />
    <glyph glyph-name="dcroat" unicode="&#x111;" 
d="M484 569h39.999c8 -36 8 -72.667 0 -110h-40v-459c-41.333 -7.33301 -83 -7.33301 -125 0l-11 47c-31.333 -41.333 -72.666 -62 -123.999 -62c-55.333 0 -99.833 20.5 -133.5 61.5s-50.5 92.167 -50.5 153.5s16.833 112.5 50.5 153.5s78.167 61.5 133.5 61.5
c48.667 0 87 -16.667 115 -50v95h-74c-8 36.667 -8 73 0 109h74v81c48 8.66699 96.333 8.66699 145 0v-81zM338.999 142v116c-22.667 21.333 -47.667 32 -75 32c-23.333 0 -42.333 -8 -57 -24s-22 -38 -22 -66s7.33301 -50 22 -66s33.667 -24 57 -24
c27.333 0 52.333 10.667 75 32z" />
    <glyph glyph-name="Emacron" unicode="&#x112;" horiz-adv-x="564" 
d="M164 838h259c8 -36 8 -72.667 0 -110l-259 1c-8 36 -8 72.333 0 109zM230 133h293c8 -44 8 -88.333 0 -133h-453v650h453c8 -44.667 8 -89 0 -133h-293v-122h259c8 -44.667 8 -89 0 -133h-259v-129z" />
    <glyph glyph-name="emacron" unicode="&#x113;" horiz-adv-x="489" 
d="M125 588h259c8 -36 8 -72.667 0 -110l-259 1c-8 36.667 -8 73 0 109zM258 415c32 0 60.834 -5.50195 86.501 -16.502s45.5 -25 59.5 -42s25.667 -36.167 35 -57.5s13.5 -42.166 12.5 -62.499s-3.5 -39.166 -7.5 -56.499h-257c4 -23.333 14.667 -41.333 32 -54
s38.666 -19 63.999 -19c41.334 0 83.667 12.667 127 38c5.33984 -8 7.67285 -26.833 7 -56.5c-0.666992 -29.667 -3 -50.167 -7 -61.5c-37.333 -28 -85 -42 -143 -42c-68.667 0 -123.667 20 -165 60s-62 92 -62 156c0 62.667 20.5 114 61.5 154s93.167 60 156.5 60z
M259.001 305.998c-32.667 0 -54 -17.333 -64 -52h118c-4 34.667 -22 52 -54 52z" />
    <glyph glyph-name="Edotaccent" unicode="&#x116;" horiz-adv-x="564" 
d="M296 728c-25.333 0 -46.667 8 -64 24s-26 36 -26 60c0 24.667 8.66699 45 26 61s38.666 24 63.999 24c25.334 0 46.667 -8 64 -24s26 -36.333 26 -61c0 -24 -8.66699 -44 -26 -60s-38.666 -24 -63.999 -24zM229.999 133h293c8 -44 8 -88.333 0 -133h-453v650h453
c8 -44.667 8 -89 0 -133h-293v-122h259c8 -44.667 8 -89 0 -133h-259v-129z" />
    <glyph glyph-name="edotaccent" unicode="&#x117;" horiz-adv-x="489" 
d="M257 478c-25.334 0 -46.667 8 -64 24s-26 36 -26 60c0 24.667 8.66699 45 26 61s38.666 24 63.999 24c25.334 0 46.667 -8 64 -24s26 -36.333 26 -61c0 -24 -8.66699 -44 -26 -60s-38.666 -24 -63.999 -24zM258 415c32 0 60.834 -5.50195 86.501 -16.502
s45.5 -25 59.5 -42s25.667 -36.167 35 -57.5s13.5 -42.166 12.5 -62.499s-3.5 -39.166 -7.5 -56.499h-257c4 -23.333 14.667 -41.333 32 -54s38.666 -19 63.999 -19c41.334 0 83.667 12.667 127 38c5.33984 -8 7.67285 -26.833 7 -56.5
c-0.666992 -29.667 -3 -50.167 -7 -61.5c-37.333 -28 -85 -42 -143 -42c-68.667 0 -123.667 20 -165 60s-62 92 -62 156c0 62.667 20.5 114 61.5 154s93.167 60 156.5 60zM259.001 305.998c-32.667 0 -54 -17.333 -64 -52h118c-4 34.667 -22 52 -54 52z" />
    <glyph glyph-name="Eogonek" unicode="&#x118;" horiz-adv-x="564" 
d="M551 -122c8.66699 -28.667 8.66797 -58 0.000976562 -88c-12 -3.33301 -28 -5 -48 -5c-30 0 -55.167 8.5 -75.5 25.5s-30.5 40.833 -30.5 71.5c0 42 21.667 81.333 65 118h-392v650h453c8 -44.667 8 -89 0 -133h-293v-122h259c8 -44.667 8 -89 0 -133h-259v-129h293
c8 -44 8 -88.333 0 -133c-2.66699 -2.66699 -7.83398 -8 -15.501 -16s-13.5 -14.5 -17.5 -19.5s-8 -11.667 -12 -20s-6 -16.833 -6 -25.5c0 -13.333 4.66699 -24.333 14 -33s22.333 -13 39 -13c12 0 20.667 1.66699 26 5z" />
    <glyph glyph-name="eogonek" unicode="&#x119;" horiz-adv-x="489" 
d="M258 415c32 0 60.834 -5.50195 86.501 -16.502s45.5 -25 59.5 -42s25.667 -36.167 35 -57.5s13.5 -42.166 12.5 -62.499s-3.5 -39.166 -7.5 -56.499h-257c4 -23.333 14.667 -41.333 32 -54s38.666 -19 63.999 -19c41.334 0 83.667 12.667 127 38
c5.33984 -8 7.67285 -26.833 7 -56.5c-0.666992 -29.667 -3 -50.167 -7 -61.5c-14.667 -11.333 -32 -20.333 -52 -27c-2.66895 -2.66699 -7.83594 -8 -15.5 -16c-7.66699 -8 -13.5 -14.5 -17.5 -19.5s-8 -11.667 -12 -20s-6 -16.833 -6 -25.5
c0 -13.333 4.66699 -24.333 14 -33s22.333 -13 39 -13c12 0 20.667 1.66699 26 5c8.66699 -28.667 8.66699 -58 0 -88c-12 -3.33301 -28 -5 -48 -5c-30 0 -55.167 8.5 -75.5 25.5s-30.5 40.833 -30.5 71.5c0 36 16.333 70.333 49 103h-14c-68.667 0 -123.667 20 -165 60
s-62 92 -62 156c0 62.667 20.5 114 61.5 154s93.167 60 156.5 60zM195.001 253.998h118c-4 34.667 -22 52 -54 52c-32.667 0 -54 -17.333 -64 -52z" />
    <glyph glyph-name="Ecaron" unicode="&#x11a;" horiz-adv-x="564" 
d="M296 843l86 87c12 -3.33301 26.833 -13.5 44.5 -30.5s29.167 -31.833 34.5 -44.5l-145 -146c-5.33301 -4 -12 -6 -20 -6s-14.667 2 -20 6l-145 146c5.33301 12.667 16.833 27.5 34.5 44.5s32.5 27.167 44.5 30.5zM230 133h293c8 -44 8 -88.333 0 -133h-453v650h453
c8 -44.667 8 -89 0 -133h-293v-122h259c8 -44.667 8 -89 0 -133h-259v-129z" />
    <glyph glyph-name="ecaron" unicode="&#x11b;" horiz-adv-x="489" 
d="M257 593l85.999 87c12 -3.33301 26.833 -13.5 44.5 -30.5s29.167 -31.833 34.5 -44.5l-145 -146c-4.66699 -4 -11.167 -6 -19.5 -6c-8.33398 0 -15.167 2 -20.499 6l-145 146c5.33301 12.667 16.833 27.5 34.5 44.5s32.5 27.167 44.5 30.5zM257.999 415
c32 0 60.834 -5.50195 86.501 -16.502s45.5 -25 59.5 -42s25.667 -36.167 35 -57.5s13.5 -42.166 12.5 -62.499s-3.5 -39.166 -7.5 -56.499h-257c4 -23.333 14.667 -41.333 32 -54s38.666 -19 63.999 -19c41.334 0 83.667 12.667 127 38c5.33984 -8 7.67285 -26.833 7 -56.5
c-0.666992 -29.667 -3 -50.167 -7 -61.5c-37.333 -28 -85 -42 -143 -42c-68.667 0 -123.667 20 -165 60s-62 92 -62 156c0 62.667 20.5 114 61.5 154s93.167 60 156.5 60zM259 305.998c-32.667 0 -54 -17.333 -64 -52h118c-4 34.667 -22 52 -54 52z" />
    <glyph glyph-name="Gbreve" unicode="&#x11e;" horiz-adv-x="698" 
d="M555 888c5.33301 -8 7.66895 -26.833 7.00195 -56.5s-3 -50.167 -7 -61.5c-37.334 -28 -85.001 -42 -143.001 -42s-105.667 14 -143 42c-4 11.333 -6.33301 31.833 -7 61.5c-0.663086 29.667 1.66992 48.5 6.99902 56.5c43.333 -25.333 91 -38 143 -38
s99.667 12.667 143 38zM474.003 120l-0.000976562 197c52 9.33301 104.333 9.33301 157 0v-282c-21.333 -13.333 -52.333 -25 -93 -35s-82.667 -15 -126 -15c-110.667 0 -199.5 32.667 -266.5 98s-100.5 146 -100.5 242s33.5 176.667 100.5 242s155.833 98 266.5 98
c78 0 144 -16.667 198 -50c4 -11.333 6.33301 -36.333 7 -75c0.647461 -38.667 -1.68555 -62 -7 -70c-67.334 41.333 -130.334 62 -189 62c-60.667 0 -111.334 -18.833 -152 -56.5c-40.667 -37.667 -61 -87.834 -61 -150.5c0 -64 20.333 -115 61 -153
s91.334 -57 152.001 -57c15.333 0 33 1.66699 53 5z" />
    <glyph glyph-name="gbreve" unicode="&#x11f;" 
d="M413 638c5.33984 -8 7.67285 -26.833 7 -56.5c-0.666992 -29.667 -3 -50.167 -7 -61.5c-37.333 -28 -85 -42 -143 -42s-105.667 14 -143 42c-4 11.333 -6.33301 31.833 -7 61.5c-0.666016 29.667 1.66699 48.5 7 56.5c43.333 -25.333 91 -38 143 -38
s99.667 12.667 143 38zM224 415c51.334 0 92.667 -20.6689 124 -62.002l11 47c41.333 7.33301 83 7.33301 125 0v-378c0 -62 -19.5 -110.833 -58.5 -146.5s-92.167 -53.5 -159.5 -53.5c-34 0 -65.167 3.83301 -93.5 11.5c-28.333 7.66602 -49.833 16.833 -64.5 27.5
c-4 11.333 -6.33301 31.333 -7 60c-0.666016 28.667 1.66699 47 7 55c40 -23.333 82.333 -35 127 -35c69.333 0 104 24.333 104 73v31c-28 -33.333 -66.333 -50 -115 -50c-54.667 0 -99 20.333 -133 61s-51 90.334 -51 149.001s17 108.334 51 149.001s78.333 61 133 61z
M264 289.998c-22.667 0 -41.5 -7.83301 -56.5 -23.5s-22.5 -36.167 -22.5 -61.5s7.5 -45.833 22.5 -61.5s33.833 -23.5 56.5 -23.5c27.333 0 52.333 10.667 75 32v106c-22.667 21.333 -47.667 32 -75 32z" />
    <glyph glyph-name="Gdotaccent" unicode="&#x120;" horiz-adv-x="698" 
d="M412 728c-25.333 0 -46.667 8 -64 24s-26 36 -26 60c0 24.667 8.66699 45 26 61c17.334 16 38.667 24 64 24s46.666 -8 63.999 -24s26 -36.333 26 -61c0 -24 -8.66699 -44 -26 -60s-38.666 -24 -63.999 -24zM473.999 120l-0.000976562 197
c52 9.33301 104.333 9.33301 157 0v-282c-21.333 -13.333 -52.333 -25 -93 -35s-82.667 -15 -126 -15c-110.667 0 -199.5 32.667 -266.5 98s-100.5 146 -100.5 242s33.5 176.667 100.5 242s155.833 98 266.5 98c78 0 144 -16.667 198 -50c4 -11.333 6.33301 -36.333 7 -75
c0.647461 -38.667 -1.68555 -62 -7 -70c-67.334 41.333 -130.334 62 -189 62c-60.667 0 -111.334 -18.833 -152 -56.5c-40.667 -37.667 -61 -87.834 -61 -150.5c0 -64 20.333 -115 61 -153s91.334 -57 152.001 -57c15.333 0 33 1.66699 53 5z" />
    <glyph glyph-name="gdotaccent" unicode="&#x121;" 
d="M270 478c-25.334 0 -46.667 8 -64 24s-26 36 -26 60c0 24.667 8.66699 45 26 61s38.666 24 63.999 24c25.334 0 46.667 -8 64 -24s26 -36.333 26 -61c0 -24 -8.66699 -44 -26 -60s-38.666 -24 -63.999 -24zM224 415c51.334 0 92.667 -20.6689 124 -62.002l11 47
c41.333 7.33301 83 7.33301 125 0v-378c0 -62 -19.5 -110.833 -58.5 -146.5s-92.167 -53.5 -159.5 -53.5c-34 0 -65.167 3.83301 -93.5 11.5c-28.333 7.66602 -49.833 16.833 -64.5 27.5c-4 11.333 -6.33301 31.333 -7 60c-0.666016 28.667 1.66699 47 7 55
c40 -23.333 82.333 -35 127 -35c69.333 0 104 24.333 104 73v31c-28 -33.333 -66.333 -50 -115 -50c-54.667 0 -99 20.333 -133 61s-51 90.334 -51 149.001s17 108.334 51 149.001s78.333 61 133 61zM264 289.998c-22.667 0 -41.5 -7.83301 -56.5 -23.5
s-22.5 -36.167 -22.5 -61.5s7.5 -45.833 22.5 -61.5s33.833 -23.5 56.5 -23.5c27.333 0 52.333 10.667 75 32v106c-22.667 21.333 -47.667 32 -75 32z" />
    <glyph glyph-name="Gcommaaccent" unicode="&#x122;" horiz-adv-x="698" 
d="M474 120l-0.000976562 197c52 9.33301 104.333 9.33301 157 0v-282c-21.333 -13.333 -52.333 -25 -93 -35s-82.667 -15 -126 -15c-110.667 0 -199.5 32.667 -266.5 98s-100.5 146 -100.5 242s33.5 176.667 100.5 242s155.833 98 266.5 98c78 0 144 -16.667 198 -50
c4 -11.333 6.33301 -36.333 7 -75c0.647461 -38.667 -1.68555 -62 -7 -70c-67.334 41.333 -130.334 62 -189 62c-60.667 0 -111.334 -18.833 -152 -56.5c-40.667 -37.667 -61 -87.834 -61 -150.5c0 -64 20.333 -115 61 -153s91.334 -57 152.001 -57
c15.333 0 33 1.66699 53 5zM411.999 -59c26 0 48.8311 -9.00195 68.498 -27.002s29.5 -45.333 29.5 -82c0 -40 -11.167 -79.667 -33.5 -119s-43.166 -64.666 -62.499 -75.999c-25.333 -4.66699 -51 -4.66699 -77 0c37.333 34.667 69 80.334 95 137.001
c-9.33301 -1.33301 -16.333 -2 -21 -2c-24.667 0 -45.667 8 -63 24s-26 36 -26 60c0 24.667 8.83301 45 26.5 61s38.834 24 63.501 24z" />
    <glyph glyph-name="gcommaaccent" unicode="&#x123;" 
d="M353 782c-37.333 -34.667 -68.999 -80.332 -94.999 -136.999c9.33301 1.33301 16.333 2 21 2c24.667 0 45.667 -8 63 -24s26 -36 26 -60c0 -24.667 -8.83301 -45 -26.5 -61s-38.834 -24 -63.5 -24c-26 0 -48.833 9 -68.5 27s-29.5 45.333 -29.5 82
c0 40 11.167 79.667 33.5 119s43.166 64.666 62.499 75.999c25.333 4.66699 51 4.66699 77 0zM224.001 415.002c51.334 0 92.667 -20.6689 124 -62.002l11 47c41.333 7.33301 83 7.33301 125 0v-378c0 -62 -19.5 -110.833 -58.5 -146.5s-92.167 -53.5 -159.5 -53.5
c-34 0 -65.167 3.83301 -93.5 11.5c-28.333 7.66602 -49.833 16.833 -64.5 27.5c-4 11.333 -6.33301 31.333 -7 60c-0.666016 28.667 1.66699 47 7 55c40 -23.333 82.333 -35 127 -35c69.333 0 104 24.333 104 73v31c-28 -33.333 -66.333 -50 -115 -50
c-54.667 0 -99 20.333 -133 61s-51 90.334 -51 149.001s17 108.334 51 149.001s78.333 61 133 61zM264.001 290c-22.667 0 -41.5 -7.83301 -56.5 -23.5s-22.5 -36.167 -22.5 -61.5s7.5 -45.833 22.5 -61.5s33.833 -23.5 56.5 -23.5c27.333 0 52.333 10.667 75 32v106
c-22.667 21.333 -47.667 32 -75 32z" />
    <glyph glyph-name="Hbar" unicode="&#x126;" horiz-adv-x="729" 
d="M659 571h43.001c8 -36 8 -72.667 0 -110h-43v-461c-53.334 -9.33301 -106.667 -9.33301 -160 0v262h-269v-262c-53.333 -9.33301 -106.666 -9.33301 -159.999 0v462h-43c-8 36 -8 72.333 0 109h43v79c53.333 9.33301 106.666 9.33301 159.999 0v-79h269v79
c53.333 9.33301 106.666 9.33301 159.999 0v-79zM499.001 461l-269 1v-67h269v66z" />
    <glyph glyph-name="hbar" unicode="&#x127;" horiz-adv-x="509" 
d="M310 415c50.667 0 87.667 -15.167 111 -45.5s35 -66.5 35 -108.5v-261c-48.667 -8.66699 -97 -8.66699 -145 0v228c0 41.333 -17.333 62 -52 62c-21.333 0 -40.333 -7.66699 -57 -23v-267c-48 -8.66699 -96.333 -8.66699 -145 0v460h-40c-8 36 -8 72.333 0 109h40v81
c48.667 8.66699 97 8.66699 145 0v-81h74c8 -36 8 -72.667 0 -110h-74v-91c34.667 31.333 70.667 47 108 47z" />
    <glyph glyph-name="Imacron" unicode="&#x12a;" horiz-adv-x="300" 
d="M18 838h259c8 -36 8 -72.667 0 -110l-259 1c-8 36 -8 72.333 0 109zM230 650v-650c-53.333 -9.33301 -106.666 -9.33301 -159.999 0v650c53.333 9.33301 106.666 9.33301 159.999 0z" />
    <glyph glyph-name="imacron" unicode="&#x12b;" horiz-adv-x="257" 
d="M-2 588h259c8 -36 8 -72.667 0 -110l-259 1c-8 36.667 -8 73 0 109zM202 400v-400c-48 -8.66699 -96.333 -8.66699 -145 0v400c48.667 8.66699 97 8.66699 145 0z" />
    <glyph glyph-name="Iogonek" unicode="&#x12e;" horiz-adv-x="300" 
d="M258 -122c8.66699 -28.667 8.66992 -57.999 0.00292969 -87.999c-12 -3.33301 -28 -5 -48 -5c-30 0 -55.167 8.5 -75.5 25.5s-30.5 40.833 -30.5 71.5c0 39.333 19.333 76.666 58 111.999c-34.667 -1.33301 -65.334 0.666992 -92.001 6v650
c53.333 9.33301 106.666 9.33301 159.999 0v-650c-2.66699 -2.66699 -7.83398 -8 -15.501 -16s-13.5 -14.5 -17.5 -19.5s-8 -11.667 -12 -20s-6 -16.833 -6 -25.5c0 -13.333 4.66699 -24.333 14 -33s22.333 -13 39 -13c12 0 20.667 1.66699 26 5z" />
    <glyph glyph-name="iogonek" unicode="&#x12f;" horiz-adv-x="257" 
d="M130 478c-25.333 0 -46.665 8 -63.998 24s-26 36 -26 60c0 24.667 8.66699 45 26 61s38.666 24 63.999 24s46.666 -8 63.999 -24s26 -36.333 26 -61c0 -24 -8.66699 -44 -26 -60c-17.334 -16 -38.667 -24 -64 -24zM230.001 -122
c8.66699 -28.667 8.66797 -57.999 0.000976562 -87.999c-12 -3.33301 -28 -5 -48 -5c-30 0 -55.167 8.5 -75.5 25.5s-30.5 40.833 -30.5 71.5c0 39.333 19.333 76.666 58 111.999c-27.333 0 -53 2 -77 6v400c48.667 8.66699 97 8.66699 145 0v-400
c-2.66699 -2.66699 -7.83398 -8 -15.501 -16s-13.5 -14.5 -17.5 -19.5s-8 -11.667 -12 -20s-6 -16.833 -6 -25.5c0 -13.333 4.66699 -24.333 14 -33s22.333 -13 39 -13c12 0 20.667 1.66699 26 5z" />
    <glyph glyph-name="Idotaccent" unicode="&#x130;" horiz-adv-x="300" 
d="M150 728c-25.333 0 -46.665 8 -63.998 24s-26 36 -26 60c0 24.667 8.66699 45 26 61s38.666 24 63.999 24s46.666 -8 63.999 -24s26 -36.333 26 -61c0 -24 -8.66699 -44 -26 -60c-17.334 -16 -38.667 -24 -64 -24zM230.001 650v-650
c-53.333 -9.33301 -106.666 -9.33301 -159.999 0v650c53.333 9.33301 106.666 9.33301 159.999 0z" />
    <glyph glyph-name="dotlessi" unicode="&#x131;" horiz-adv-x="257" 
d="M202 400v-400c-48 -8.66699 -96.333 -8.66699 -145 0v400c48.667 8.66699 97 8.66699 145 0z" />
    <glyph glyph-name="IJ" unicode="&#x132;" horiz-adv-x="708" 
d="M230 650v-650c-53.333 -9.33301 -106.666 -9.33301 -159.999 0v650c53.333 9.33301 106.666 9.33301 159.999 0zM638 650l0.000976562 -465.999c0 -62.667 -16 -111.5 -48 -146.5s-76 -52.5 -132 -52.5c-46.667 0 -86.334 10.333 -119 31
c-4 11.333 -6.33301 33.666 -7 66.999c-0.661133 33.333 1.67188 54 7 62c30.667 -11.333 55 -17 73 -17c44 0 66 23.667 66 71v451c53.333 9.33301 106.666 9.33301 159.999 0z" />
    <glyph glyph-name="ij" unicode="&#x133;" horiz-adv-x="602" 
d="M147 665c25.333 0 46.667 -8 64 -24s26 -36.333 26 -61c0 -24 -8.66699 -44 -26 -60c-17.334 -16 -38.667 -24 -64 -24s-46.666 8 -63.999 24s-26 36 -26 60c0 24.667 8.66699 45 26 61s38.666 24 63.999 24zM457.001 665c25.334 0 46.666 -8 63.998 -24
c17.333 -16 26 -36.333 26 -61c0 -24 -8.66699 -44 -26 -60s-38.666 -24 -63.999 -24s-46.666 8 -63.999 24s-26 36 -26 60c0 24.667 8.66699 45 26 61c17.334 16 38.667 24 64 24zM219 400v-400c-48.667 -8.66699 -97 -8.66699 -145 0v400c48.667 8.66699 97 8.66699 145 0
zM529 400v-433.999c0 -46.667 -11 -82.334 -33 -107.001s-53 -37 -93 -37c-36.667 0 -70 6 -100 18c-4 11.333 -6.33301 32 -7 62c-0.662109 30 1.6709 49 7 57c26.667 -10 46.667 -15 60 -15c10 0 16 2.83301 18 8.5s3 17.167 3 34.5v413c48.667 8.66699 97 8.66699 145 0z
" />
    <glyph glyph-name="Kcommaaccent" unicode="&#x136;" horiz-adv-x="675" 
d="M401 334l242 -334c-23.333 -4 -55 -6 -95 -6s-71.333 2 -94 6l-224 312v-312c-53.333 -9.33301 -106.666 -9.33301 -159.999 0v650c53.333 9.33301 106.666 9.33301 159.999 0v-294l216 294c23.333 4 54.833 6 94.5 6s71.167 -2 94.5 -6zM338 -59
c26 0 48.8311 -9.00195 68.498 -27.002s29.5 -45.333 29.5 -82c0 -40 -11.167 -79.667 -33.5 -119s-43.166 -64.666 -62.499 -75.999c-25.333 -4.66699 -51 -4.66699 -77 0c37.333 34.667 69 80.334 95 137.001c-9.33301 -1.33301 -16.333 -2 -21 -2
c-24.667 0 -45.667 8 -63 24s-26 36 -26 60c0 24.667 8.83301 45 26.5 61s38.834 24 63.501 24z" />
    <glyph glyph-name="kcommaaccent" unicode="&#x137;" horiz-adv-x="511" 
d="M347 210l134 -210c-54 -9.33301 -108 -9.33301 -162 0l-117 190v-190c-48 -8.66699 -96.333 -8.66699 -145 0v650c48.667 8.66699 97 8.66699 145 0v-422l113 172c54 9.33301 108 9.33301 162 0zM256 -59c26 0 48.832 -9.00195 68.499 -27.002s29.5 -45.333 29.5 -82
c0 -40 -11.167 -79.667 -33.5 -119s-43.166 -64.666 -62.499 -75.999c-25.333 -4.66699 -51 -4.66699 -77 0c37.333 34.667 69 80.334 95 137.001c-9.33301 -1.33301 -16.333 -2 -21 -2c-24.667 0 -45.667 8 -63 24s-26 36 -26 60c0 24.667 8.83301 45 26.5 61
s38.834 24 63.5 24z" />
    <glyph glyph-name="Lacute" unicode="&#x139;" horiz-adv-x="536" 
d="M179 766l111 174.001c13.334 -2.66699 31.167 -12.334 53.5 -29.001c22.335 -16.667 36.168 -31 41.5 -43l-130 -159c-12.667 2.66699 -27 10 -43 22s-27 23.667 -33 35zM230 133.001h268.001c8 -44 8 -88.333 0 -133h-428v650c53.333 9.33301 106.666 9.33301 159.999 0
v-517z" />
    <glyph glyph-name="lacute" unicode="&#x13a;" horiz-adv-x="255" 
d="M27 766l111.002 174.001c13.333 -2.66699 31.166 -12.334 53.499 -29.001s36.166 -31 41.499 -43l-130 -159c-12.667 2.66699 -27 10 -43 22s-27 23.667 -33 35zM202.002 650.001v-650c-48 -8.66699 -96.333 -8.66699 -145 0v650c48.667 8.66699 97 8.66699 145 0z" />
    <glyph glyph-name="Lcommaaccent" unicode="&#x13b;" horiz-adv-x="536" 
d="M230 133h268.001c8 -44 8 -88.333 0 -133h-428v650c53.333 9.33301 106.666 9.33301 159.999 0v-517zM289.001 -59c26 0 48.8311 -9.00195 68.498 -27.002s29.5 -45.333 29.5 -82c0 -40 -11.167 -79.667 -33.5 -119s-43.166 -64.666 -62.499 -75.999
c-25.333 -4.66699 -51 -4.66699 -77 0c37.333 34.667 69 80.334 95 137.001c-9.33301 -1.33301 -16.333 -2 -21 -2c-24.667 0 -45.667 8 -63 24s-26 36 -26 60c0 24.667 8.83301 45 26.5 61s38.834 24 63.501 24z" />
    <glyph glyph-name="lcommaaccent" unicode="&#x13c;" horiz-adv-x="255" 
d="M202 650v-650c-48 -8.66699 -96.333 -8.66699 -145 0v650c48.667 8.66699 97 8.66699 145 0zM128 -59c26 0 48.8311 -9.00195 68.498 -27.002s29.5 -45.333 29.5 -82c0 -40 -11.167 -79.667 -33.5 -119s-43.166 -64.666 -62.499 -75.999
c-25.333 -4.66699 -51 -4.66699 -77 0c37.333 34.667 69 80.334 95 137.001c-9.33301 -1.33301 -16.333 -2 -21 -2c-24.667 0 -45.667 8 -63 24s-26 36 -26 60c0 24.667 8.83301 45 26.5 61s38.834 24 63.501 24z" />
    <glyph glyph-name="Lcaron" unicode="&#x13d;" horiz-adv-x="536" 
d="M400 665c26 0 48.8311 -9.00195 68.498 -27.002s29.5 -45.333 29.5 -82c0 -40 -11.167 -79.667 -33.5 -119s-43.166 -64.666 -62.499 -75.999c-25.333 -4.66699 -51 -4.66699 -77 0c37.333 34.667 69 80.334 95 137.001c-9.33301 -1.33301 -16.333 -2 -21 -2
c-24.667 0 -45.667 8 -63 24s-26 36 -26 60c0 24.667 8.83301 45 26.5 61s38.834 24 63.501 24zM229.998 132.998h268.001c8 -44 8 -88.333 0 -133h-428v650c53.333 9.33301 106.666 9.33301 159.999 0v-517z" />
    <glyph glyph-name="lcaron" unicode="&#x13e;" horiz-adv-x="423" 
d="M320 665c26 0 48.8311 -9.00195 68.498 -27.002s29.5 -45.333 29.5 -82c0 -40 -11.167 -79.667 -33.5 -119s-43.166 -64.666 -62.499 -75.999c-25.333 -4.66699 -51 -4.66699 -77 0c37.333 34.667 69 80.334 95 137.001c-9.33301 -1.33301 -16.333 -2 -21 -2
c-24.667 0 -45.667 8 -63 24s-26 36 -26 60c0 24.667 8.83301 45 26.5 61s38.834 24 63.501 24zM201.998 649.998v-650c-48 -8.66699 -96.333 -8.66699 -145 0v650c48.667 8.66699 97 8.66699 145 0z" />
    <glyph glyph-name="Ldot" unicode="&#x13f;" horiz-adv-x="536" 
d="M230 133h268.001c8 -44 8 -88.333 0 -133h-428v650c53.333 9.33301 106.666 9.33301 159.999 0v-517zM408.001 231c-25.333 0 -46.667 8 -64 24s-26 36 -26 60c0 24.667 8.66699 45 26 61c17.334 16 38.667 24 64 24c25.334 0 46.667 -8 63.999 -24
c17.333 -16 26 -36.333 26 -61c0 -24 -8.66699 -44 -26 -60s-38.666 -24 -63.999 -24z" />
    <glyph glyph-name="ldot" unicode="&#x140;" horiz-adv-x="415" 
d="M202 650v-650c-48 -8.66699 -96.333 -8.66699 -145 0v650c48.667 8.66699 97 8.66699 145 0zM320 231c-25.333 0 -46.668 8 -64.001 24s-26 36 -26 60c0 24.667 8.66699 45 26 61c17.334 16 38.667 24 64 24c25.334 0 46.667 -8 64 -24s26 -36.333 26 -61
c0 -24 -8.66699 -44 -26 -60s-38.666 -24 -63.999 -24z" />
    <glyph glyph-name="Lslash" unicode="&#x141;" horiz-adv-x="536" 
d="M230 133h268.001c8 -44 8 -88.333 0 -133h-428v288l-46 -16c-8 36 -8 72.333 0 109l46 16v253c53.333 9.33301 106.666 9.33301 159.999 0v-199l69 24c8 -36 8 -72.667 0 -110l-69 -23v-209z" />
    <glyph glyph-name="lslash" unicode="&#x142;" horiz-adv-x="255" 
d="M202 414l35 10c8 -36 8 -72.667 0 -110l-35 -10v-304c-48 -8.66699 -96.333 -8.66699 -145 0v265l-35 -10c-8 36.667 -8 73 0 109l35 10v276c48.667 8.66699 97 8.66699 145 0v-236z" />
    <glyph glyph-name="Nacute" unicode="&#x143;" horiz-adv-x="722" 
d="M258 766l111 174.001c13.334 -2.66699 31.167 -12.334 53.5 -29.001c22.335 -16.667 36.168 -31 41.5 -43l-130 -159c-12.667 2.66699 -27 10 -43 22s-27 23.667 -33 35zM655 650.001v-650c-42 -7.33301 -83.667 -7.33301 -125 0l-303 381v-381
c-53.333 -9.33301 -106.666 -9.33301 -159.999 0v650c42 7.33301 83.667 7.33301 125 0l303 -381v381c53.333 9.33301 106.666 9.33301 159.999 0z" />
    <glyph glyph-name="nacute" unicode="&#x144;" horiz-adv-x="512" 
d="M153 516l111 174.001c13.334 -2.66699 31.167 -12.334 53.5 -29.001c22.334 -16.667 36.167 -31 41.5 -43l-130 -159c-12.667 2.66699 -27 10 -43 22s-27 23.667 -33 35zM313 415.001c50.667 0 87.666 -15.167 110.999 -45.5s35 -66.5 35 -108.5v-261
c-48.667 -8.66699 -97 -8.66699 -145 0v228c0 41.333 -17.333 62 -52 62c-23.333 0 -44 -9 -62 -27v-263c-48.667 -8.66699 -97 -8.66699 -145 0v400c42 7.33301 83.667 7.33301 125 0l11 -47c36.667 41.333 77.334 62 122.001 62z" />
    <glyph glyph-name="Ncommaaccent" unicode="&#x145;" horiz-adv-x="722" 
d="M655 650v-650c-42 -7.33301 -83.667 -7.33301 -125 0l-303 381v-381c-53.333 -9.33301 -106.666 -9.33301 -159.999 0v650c42 7.33301 83.667 7.33301 125 0l303 -381v381c53.333 9.33301 106.666 9.33301 159.999 0zM361 -59c26 0 48.8311 -9.00195 68.498 -27.002
s29.5 -45.333 29.5 -82c0 -40 -11.167 -79.667 -33.5 -119s-43.166 -64.666 -62.499 -75.999c-25.333 -4.66699 -51 -4.66699 -77 0c37.333 34.667 69 80.334 95 137.001c-9.33301 -1.33301 -16.333 -2 -21 -2c-24.667 0 -45.667 8 -63 24s-26 36 -26 60
c0 24.667 8.83301 45 26.5 61s38.834 24 63.501 24z" />
    <glyph glyph-name="ncommaaccent" unicode="&#x146;" horiz-adv-x="512" 
d="M313 415c50.667 0 87.666 -15.167 110.999 -45.5s35 -66.5 35 -108.5v-261c-48.667 -8.66699 -97 -8.66699 -145 0v228c0 41.333 -17.333 62 -52 62c-23.333 0 -44 -9 -62 -27v-263c-48.667 -8.66699 -97 -8.66699 -145 0v400c42 7.33301 83.667 7.33301 125 0l11 -47
c36.667 41.333 77.334 62 122.001 62zM255.999 -59c26 0 48.832 -9.00195 68.499 -27.002s29.5 -45.333 29.5 -82c0 -40 -11.167 -79.667 -33.5 -119s-43.166 -64.666 -62.499 -75.999c-25.333 -4.66699 -51 -4.66699 -77 0c37.333 34.667 69 80.334 95 137.001
c-9.33301 -1.33301 -16.333 -2 -21 -2c-24.667 0 -45.667 8 -63 24s-26 36 -26 60c0 24.667 8.83301 45 26.5 61s38.834 24 63.5 24z" />
    <glyph glyph-name="Ncaron" unicode="&#x147;" horiz-adv-x="722" 
d="M361 843l85.999 87c12 -3.33301 26.833 -13.5 44.5 -30.5s29.167 -31.833 34.5 -44.5l-145 -146c-4.66699 -4 -11.167 -6 -19.5 -6s-15.166 2 -20.499 6l-145 146c5.33301 12.667 16.833 27.5 34.5 44.5s32.5 27.167 44.5 30.5zM654.999 650v-650
c-42 -7.33301 -83.667 -7.33301 -125 0l-303 381v-381c-53.333 -9.33301 -106.666 -9.33301 -159.999 0v650c42 7.33301 83.667 7.33301 125 0l303 -381v381c53.333 9.33301 106.666 9.33301 159.999 0z" />
    <glyph glyph-name="ncaron" unicode="&#x148;" horiz-adv-x="512" 
d="M256 593l86 87c12 -3.33301 26.833 -13.5 44.5 -30.5s29.167 -31.833 34.5 -44.5l-145 -146c-5.33301 -4 -12 -6 -20 -6s-14.667 2 -20 6l-145 146c5.33301 12.667 16.833 27.5 34.5 44.5s32.5 27.167 44.5 30.5zM313 415c50.667 0 87.666 -15.167 110.999 -45.5
s35 -66.5 35 -108.5v-261c-48.667 -8.66699 -97 -8.66699 -145 0v228c0 41.333 -17.333 62 -52 62c-23.333 0 -44 -9 -62 -27v-263c-48.667 -8.66699 -97 -8.66699 -145 0v400c42 7.33301 83.667 7.33301 125 0l11 -47c36.667 41.333 77.334 62 122.001 62z" />
    <glyph glyph-name="Eng" unicode="&#x14a;" horiz-adv-x="722" 
d="M495 269v381.001c53.333 9.33301 106.666 9.33301 159.999 0v-684c0 -46.667 -11 -82.334 -33 -107.001s-53 -37 -93 -37c-36.667 0 -70 6 -100 18c-4 11.333 -6.33301 32 -7 62c-0.660156 30 1.67285 49 7 57c26.667 -10 46.667 -15 60 -15c10 0 16 2.83301 18 8.5
s3 17.167 3 34.5v38l-283 356v-381c-53.333 -9.33301 -106.666 -9.33301 -159.999 0v650c42 7.33301 83.667 7.33301 125 0z" />
    <glyph glyph-name="eng" unicode="&#x14b;" horiz-adv-x="512" 
d="M313 415c50.667 0 87.667 -15.166 111 -45.499s35 -66.5 35 -108.5v-295c0 -46.667 -11 -82.334 -33 -107.001s-53 -37 -93 -37c-36.667 0 -70 6 -100 18c-4 11.333 -6.33301 32 -7 62s1.66602 49 6.99902 57c26.667 -10 46.667 -15 60 -15c10 0 16 2.83301 18 8.5
s3 17.167 3 34.5v241c0 41.333 -17.333 62 -52 62c-23.333 0 -44 -9 -62 -27v-263c-48.667 -8.66699 -97 -8.66699 -145 0v400c42 7.33301 83.667 7.33301 125 0l11 -47c36.667 41.333 77.334 62 122.001 62z" />
    <glyph glyph-name="Omacron" unicode="&#x14c;" horiz-adv-x="780" 
d="M258 838h259c8 -36 8 -72.667 0 -110l-259 1c-8 36 -8 72.333 0 109zM390 665c101.333 0 184.166 -32.833 248.499 -98.5s96.5 -146.167 96.5 -241.5s-32.167 -175.833 -96.5 -241.5s-147.166 -98.5 -248.499 -98.5s-184.166 32.833 -248.499 98.5
s-96.5 146.167 -96.5 241.5s32.167 175.833 96.5 241.5s147.166 98.5 248.499 98.5zM390 532c-50.667 0 -93.667 -18.834 -129 -56.501s-53 -87.834 -53 -150.5c0 -62.667 17.667 -112.834 53 -150.501s78.333 -56.5 129 -56.5s93.667 18.833 129 56.5s53 87.834 53 150.501
s-17.667 112.834 -53 150.501s-78.333 56.5 -129 56.5z" />
    <glyph glyph-name="omacron" unicode="&#x14d;" horiz-adv-x="524" 
d="M130 588h259c8 -36 8 -72.667 0 -110l-259 1c-8 36.667 -8 73 0 109zM262 415c64.667 0 117.833 -20.667 159.5 -62s62.5 -92.333 62.5 -153s-20.833 -111.667 -62.5 -153s-94.834 -62 -159.5 -62c-64.667 0 -117.834 20.667 -159.501 62s-62.5 92.333 -62.5 153
s20.833 111.667 62.5 153s94.834 62 159.501 62zM261.999 290c-22 0 -40.333 -8 -55 -24s-22 -38 -22 -66s7.33301 -50 22 -66s33 -24 55 -24s40.333 8 55 24s22 38 22 66s-7.33301 50 -22 66s-33 24 -55 24z" />
    <glyph glyph-name="Ohungarumlaut" unicode="&#x150;" horiz-adv-x="780" 
d="M231 766l111.001 174.001c13.334 -2.66699 31.167 -12.334 53.5 -29.001c22.334 -16.667 36.167 -31 41.499 -43l-130 -159c-12.667 2.66699 -27 10 -43 22s-27 23.667 -33 35zM400.001 766.001l111.002 174.001c13.333 -2.66699 31.166 -12.334 53.499 -29.001
s36.166 -31 41.499 -43l-130 -159c-12.667 2.66699 -27 10 -43 22s-27 23.667 -33 35zM390.003 665.002c101.333 0 184.166 -32.833 248.499 -98.5s96.5 -146.167 96.5 -241.5s-32.167 -175.833 -96.5 -241.5s-147.166 -98.5 -248.499 -98.5s-184.166 32.833 -248.499 98.5
s-96.5 146.167 -96.5 241.5s32.167 175.833 96.5 241.5s147.166 98.5 248.499 98.5zM390.003 532.002c-50.667 0 -93.667 -18.834 -129 -56.501s-53 -87.834 -53 -150.5c0 -62.667 17.667 -112.834 53 -150.501s78.333 -56.5 129 -56.5s93.667 18.833 129 56.5
s53 87.834 53 150.501s-17.667 112.834 -53 150.501s-78.333 56.5 -129 56.5z" />
    <glyph glyph-name="ohungarumlaut" unicode="&#x151;" horiz-adv-x="524" 
d="M103 516l111.001 174.001c13.333 -2.66699 31.166 -12.334 53.499 -29.001c22.334 -16.667 36.167 -31 41.5 -43l-130 -159c-12.667 2.66699 -27 10 -43 22s-27 23.667 -33 35zM272.001 516.001l111.001 174.001c13.334 -2.66699 31.167 -12.334 53.5 -29.001
c22.334 -16.667 36.167 -31 41.499 -43l-130 -159c-12.667 2.66699 -27 10 -43 22s-27 23.667 -33 35zM262.002 415.002c64.667 0 117.833 -20.667 159.5 -62s62.5 -92.333 62.5 -153s-20.833 -111.667 -62.5 -153s-94.834 -62 -159.5 -62
c-64.667 0 -117.834 20.667 -159.501 62s-62.5 92.333 -62.5 153s20.833 111.667 62.5 153s94.834 62 159.501 62zM262.001 290.002c-22 0 -40.333 -8 -55 -24s-22 -38 -22 -66s7.33301 -50 22 -66s33 -24 55 -24s40.333 8 55 24s22 38 22 66s-7.33301 50 -22 66
s-33 24 -55 24z" />
    <glyph glyph-name="OE" unicode="&#x152;" horiz-adv-x="1069" 
d="M735 133h293c8 -44 8 -88.333 0 -133h-453v34c-54.667 -32.667 -116.334 -49 -185.001 -49c-101.333 0 -184.166 32.833 -248.499 98.5s-96.5 146.167 -96.5 241.5s32.167 175.833 96.5 241.5s147.166 98.5 248.499 98.5c68.667 0 130.334 -16.333 185.001 -49v34h453
c8 -44.667 8 -89 0 -133h-293v-122h259c8 -44.667 8 -89 0 -133h-259v-129zM390 118c50.667 0 93.667 18.832 129 56.499s53 87.834 53 150.501s-17.667 112.834 -53 150.501s-78.333 56.5 -129 56.5s-93.667 -18.833 -129 -56.5s-53 -87.834 -53 -150.5
c0 -62.667 17.667 -112.834 53 -150.501s78.333 -56.5 129 -56.5z" />
    <glyph glyph-name="oe" unicode="&#x153;" horiz-adv-x="788" 
d="M557 415c32 0 60.8359 -5.50195 86.5029 -16.502s45.5 -25 59.5 -42s25.667 -36.167 35 -57.5s13.5 -42.166 12.5 -62.499s-3.5 -39.166 -7.5 -56.499h-257c4 -23.333 14.667 -41.333 32 -54s38.666 -19 63.999 -19c41.333 0 83.666 12.667 126.999 38
c5.33301 -8 7.66602 -26.833 6.99902 -56.5s-3 -50.167 -7 -61.5c-37.333 -28 -85 -42 -143 -42c-63.333 0 -115.333 17.333 -156 52c-40 -34.667 -89.333 -52 -148 -52c-64.667 0 -117.834 20.667 -159.501 62s-62.5 92.333 -62.5 153s20.833 111.667 62.5 153
s94.834 62 159.501 62c58.667 0 108 -17.333 148 -52c40 34.667 89 52 147 52zM558.003 305.998c-32.667 0 -54 -17.333 -64 -52h118c-4 34.667 -22 52 -54 52zM262.003 289.998c-22 0 -40.333 -8 -55 -24s-22 -38 -22 -66s7.33301 -50 22 -66s33 -24 55 -24s40.333 8 55 24
s22 38 22 66s-7.33301 50 -22 66s-33 24 -55 24z" />
    <glyph glyph-name="Racute" unicode="&#x154;" horiz-adv-x="641" 
d="M191 766l111.001 174.001c13.334 -2.66699 31.167 -12.334 53.5 -29.001s36.166 -31 41.499 -43l-130 -159c-12.667 2.66699 -27 10 -43 22s-27 23.667 -33 35zM70.001 650.001l259.999 -0.00195312c72.667 0 131.667 -19.833 177 -59.5s68 -91.5 68 -155.5
c0 -43.333 -11 -81.666 -33 -114.999s-52.333 -58.666 -91 -75.999l158 -244c-23.333 -4 -52.5 -6 -87.5 -6s-63.833 2 -86.5 6l-143 220h-62v-220c-53.333 -9.33301 -106.666 -9.33301 -159.999 0v650zM230 516.999v-164h100c23.333 0 42.833 7 58.5 21
s23.5 34.333 23.5 61s-7.83301 47 -23.5 61s-35.167 21 -58.5 21h-100z" />
    <glyph glyph-name="racute" unicode="&#x155;" horiz-adv-x="413" 
d="M104 516l111.001 174.001c13.333 -2.66699 31.166 -12.334 53.499 -29.001c22.334 -16.667 36.167 -31 41.5 -43l-130 -159c-12.667 2.66699 -27 10 -43 22s-27 23.667 -33 35zM376.001 397.001c5.33887 -8 7.67285 -31.833 7 -71.5
c-0.666992 -39.667 -3 -65.167 -7 -76.5c-33.333 22 -62.333 33 -87 33c-16.667 0 -33 -5.66699 -49 -17c-16 -11.334 -29.333 -27.667 -40 -49v-216c-48.667 -8.66699 -97 -8.66699 -145 0v400c42 7.33301 83.667 7.33301 125 0l16 -70c30.667 56.667 69.334 85 116.001 85
c29.333 0 50.666 -6 63.999 -18z" />
    <glyph glyph-name="Rcommaaccent" unicode="&#x156;" horiz-adv-x="641" 
d="M70 650l259.999 -0.00195312c72.667 0 131.667 -19.833 177 -59.5s68 -91.5 68 -155.5c0 -43.333 -11 -81.666 -33 -114.999s-52.333 -58.666 -91 -75.999l158 -244c-23.333 -4 -52.5 -6 -87.5 -6s-63.833 2 -86.5 6l-143 220h-62v-220
c-53.333 -9.33301 -106.666 -9.33301 -159.999 0v650zM229.999 516.998v-164h100c23.333 0 42.833 7 58.5 21s23.5 34.333 23.5 61s-7.83301 47 -23.5 61s-35.167 21 -58.5 21h-100zM320.999 -59.002c26 0 48.8311 -9.00195 68.498 -27.002s29.5 -45.333 29.5 -82
c0 -40 -11.167 -79.667 -33.5 -119s-43.166 -64.666 -62.499 -75.999c-25.333 -4.66699 -51 -4.66699 -77 0c37.333 34.667 69 80.334 95 137.001c-9.33301 -1.33301 -16.333 -2 -21 -2c-24.667 0 -45.667 8 -63 24s-26 36 -26 60c0 24.667 8.83301 45 26.5 61
s38.834 24 63.501 24z" />
    <glyph glyph-name="rcommaaccent" unicode="&#x157;" horiz-adv-x="413" 
d="M376 397c5.33887 -8 7.67188 -31.833 6.99902 -71.5c-0.666992 -39.667 -3 -65.167 -7 -76.5c-33.333 22 -62.333 33 -87 33c-16.667 0 -33 -5.66699 -49 -17c-16 -11.334 -29.333 -27.667 -40 -49v-216c-48.667 -8.66699 -97 -8.66699 -145 0v400
c42 7.33301 83.667 7.33301 125 0l16 -70c30.667 56.667 69.334 85 116.001 85c29.334 0 50.667 -6 64 -18zM207 -59c26 0 48.832 -9.00195 68.499 -27.002s29.5 -45.333 29.5 -82c0 -40 -11.167 -79.667 -33.5 -119s-43.166 -64.666 -62.499 -75.999
c-25.333 -4.66699 -51 -4.66699 -77 0c37.333 34.667 69 80.334 95 137.001c-9.33301 -1.33301 -16.333 -2 -21 -2c-24.667 0 -45.667 8 -63 24s-26 36 -26 60c0 24.667 8.83301 45 26.5 61s38.834 24 63.5 24z" />
    <glyph glyph-name="Rcaron" unicode="&#x158;" horiz-adv-x="641" 
d="M294 843l85.999 87c12 -3.33301 26.833 -13.5 44.5 -30.5s29.167 -31.833 34.5 -44.5l-145 -146c-4.66699 -4 -11.167 -6 -19.5 -6s-15.166 2 -20.499 6l-145 146c5.33301 12.667 16.833 27.5 34.5 44.5s32.5 27.167 44.5 30.5zM69.999 650l259.999 -0.00195312
c72.667 0 131.667 -19.833 177 -59.5s68 -91.5 68 -155.5c0 -43.333 -11 -81.666 -33 -114.999s-52.333 -58.666 -91 -75.999l158 -244c-23.333 -4 -52.5 -6 -87.5 -6s-63.833 2 -86.5 6l-143 220h-62v-220c-53.333 -9.33301 -106.666 -9.33301 -159.999 0v650z
M229.998 516.998v-164h100c23.333 0 42.833 7 58.5 21s23.5 34.333 23.5 61s-7.83301 47 -23.5 61s-35.167 21 -58.5 21h-100z" />
    <glyph glyph-name="rcaron" unicode="&#x159;" horiz-adv-x="413" 
d="M207 593l86 87c12 -3.33301 26.833 -13.5 44.5 -30.5s29.167 -31.833 34.5 -44.5l-145 -146c-4.66699 -4 -11.167 -6 -19.5 -6c-8.33398 0 -15.167 2 -20.5 6l-145 146c5.33301 12.667 16.833 27.5 34.5 44.5s32.5 27.167 44.5 30.5zM376 397
c5.33887 -8 7.67188 -31.833 6.99902 -71.5c-0.666992 -39.667 -3 -65.167 -7 -76.5c-33.333 22 -62.333 33 -87 33c-16.667 0 -33 -5.66699 -49 -17c-16 -11.334 -29.333 -27.667 -40 -49v-216c-48.667 -8.66699 -97 -8.66699 -145 0v400c42 7.33301 83.667 7.33301 125 0
l16 -70c30.667 56.667 69.334 85 116.001 85c29.334 0 50.667 -6 64 -18z" />
    <glyph glyph-name="Sacute" unicode="&#x15a;" horiz-adv-x="552" 
d="M173 766l111 174.001c13.334 -2.66699 31.167 -12.334 53.5 -29.001c22.334 -16.667 36.167 -31 41.5 -43l-130 -159c-12.667 2.66699 -27 10 -43 22s-27 23.667 -33 35zM280 665.001c63.333 0 123.33 -16.665 179.997 -49.998c4 -12.667 6.33301 -39.167 7 -79.5
s-1.66602 -64.5 -6.99902 -72.5c-78 46 -137.667 69 -179 69c-22.667 0 -40.667 -5.33301 -54 -16c-13.333 -10.668 -20 -25.335 -20 -44.001c0 -18.668 8 -32.835 24 -42.501c16 -9.66699 46.667 -21.5 92 -35.5c24.667 -8 45.834 -16.167 63.501 -24.5s36.667 -20 57 -35
s36 -34.667 47 -59s16.5 -52.5 16.5 -84.5c0 -66 -22.5 -116.833 -67.5 -152.5s-102.167 -53.5 -171.5 -53.5c-75.333 0 -140.666 16.667 -195.999 50c-4 11.333 -6.33301 37.5 -7 78.5c-0.666016 41 1.66699 65.5 7 73.5c78 -46 141.333 -69 190 -69
c27.333 0 48 5.5 62 16.5s21 25.833 21 44.5c0 18 -7.66699 31.667 -23 41s-47.666 22 -96.999 38c-23.333 8 -44 16.333 -62 25s-36.833 20.667 -56.5 36c-19.667 15.334 -34.834 34.667 -45.501 58c-10.667 23.334 -16 49.667 -16 79c0 59.333 20.833 109 62.5 149
s99.167 60 172.5 60z" />
    <glyph glyph-name="sacute" unicode="&#x15b;" horiz-adv-x="406" 
d="M100 516l111.001 174.001c13.333 -2.66699 31.166 -12.334 53.499 -29.001c22.334 -16.667 36.167 -31 41.5 -43l-130 -159c-12.667 2.66699 -27 10 -43 22s-27 23.667 -33 35zM246.001 256.001c40 -12.667 70.8301 -29.3359 92.4971 -50.0029s32.5 -48.667 32.5 -84
c0 -44 -16.667 -77.833 -50 -101.5s-75 -35.5 -125 -35.5c-25.333 0 -51.833 2.83301 -79.5 8.5s-48.167 13.167 -61.5 22.5c-4 11.333 -6.33301 30.166 -7 56.499s1.66602 43.5 6.99902 51.5c52.667 -30.667 97.334 -46 134.001 -46c24.667 0 37 8.33301 37 25
c0 2 -0.166992 3.83301 -0.5 5.5c-0.339844 1.66699 -1.17285 3.33398 -2.49902 5.00098c-1.33496 1.66699 -2.66797 3 -4 4c-1.33301 1 -3.33301 2.16699 -6 3.5s-5.16699 2.5 -7.5 3.5s-5.5 2.16699 -9.5 3.5l-10.5 3.5c-3 1 -7.33301 2.33301 -13 4
s-10.5 3.16699 -14.5 4.5c-38 12.667 -68 29 -90 49s-33 48.667 -33 86c0 43.333 15.167 77.5 45.5 102.5s71.5 37.5 123.5 37.5c61.333 0 107.333 -10.333 138 -31c4 -11.333 6.33301 -30.166 7 -56.499s-1.66602 -43.5 -6.99902 -51.5c-52.667 30.667 -94.667 46 -126 46
c-24.667 0 -37 -9.33301 -37 -28c0 -4 0.833008 -7.66699 2.5 -11s5 -6.16602 10 -8.49902s9.33301 -4.16602 13 -5.49902s10.334 -3.5 20 -6.5c9.66797 -3 16.835 -5.16699 21.501 -6.5z" />
    <glyph glyph-name="Scedilla" unicode="&#x15e;" horiz-adv-x="552" 
d="M507 191c0 -60.667 -19.334 -108.666 -58.001 -143.999s-88.667 -55.666 -150 -60.999v-32c19.333 0 36.833 -7.16699 52.5 -21.5s23.5 -33.833 23.5 -58.5c0 -26 -9.16699 -47.333 -27.5 -64s-42.5 -25 -72.5 -25s-56.667 7.66699 -80 23c-3.33301 8.66699 -5 21 -5 37
s1.66699 27.667 5 35c27.333 -18.667 50.666 -28 69.999 -28c12 0 21.5 2.83301 28.5 8.5s10.5 13.167 10.5 22.5c0 14 -7.16699 23.667 -21.5 29s-31.5 4 -51.5 -4v79c-62 5.33301 -115 21.333 -159 48c-4 11.333 -6.33301 37.5 -7 78.5c-0.666016 41 1.66699 65.5 7 73.5
c78 -46 141.333 -69 190 -69c27.333 0 48 5.5 62 16.5s21 25.833 21 44.5c0 18 -7.66699 31.667 -23 41s-47.666 22 -96.999 38c-23.333 8 -44 16.333 -62 25s-36.833 20.667 -56.5 36c-19.667 15.334 -34.834 34.667 -45.501 58c-10.667 23.334 -16 49.667 -16 79
c0 59.333 20.833 109 62.5 149s99.167 60 172.5 60c63.333 0 123.333 -16.667 180 -50c4 -12.667 6.33301 -39.167 7 -79.5s-1.66602 -64.5 -6.99902 -72.5c-78 46 -137.667 69 -179 69c-22.667 0 -40.667 -5.33301 -54 -16c-13.333 -10.668 -20 -25.335 -20 -44.001
c0 -18.668 8 -32.835 24 -42.501c16 -9.66699 46.667 -21.5 92 -35.5c24.667 -8 45.834 -16.167 63.501 -24.5s36.667 -20 57 -35s36 -34.667 47 -59s16.5 -52.5 16.5 -84.5z" />
    <glyph glyph-name="scedilla" unicode="&#x15f;" horiz-adv-x="406" 
d="M371 122c0 -40 -13.835 -71.6689 -41.502 -95.002s-63.167 -37 -106.5 -41v-32c19.333 0 36.833 -7.16699 52.5 -21.5s23.5 -33.833 23.5 -58.5c0 -26 -9.16699 -47.333 -27.5 -64s-42.5 -25 -72.5 -25s-56.667 7.66699 -80 23c-3.33301 8.66699 -5 21 -5 37
s1.66699 27.667 5 35c27.333 -18.667 50.666 -28 69.999 -28c12 0 21.5 2.83301 28.5 8.5s10.5 13.167 10.5 22.5c0 14 -7.16699 23.667 -21.5 29s-31.5 4 -51.5 -4v79c-46.667 6 -80 15.667 -100 29c-4 11.333 -6.33301 30.166 -7 56.499s1.66602 43.5 6.99902 51.5
c52.667 -30.667 97.334 -46 134.001 -46c24.667 0 37 8.33301 37 25c0 2 -0.166992 3.83301 -0.5 5.5c-0.339844 1.66699 -1.17285 3.33398 -2.49902 5.00098c-1.33496 1.66699 -2.66797 3 -4 4c-1.33301 1 -3.33301 2.16699 -6 3.5s-5.16699 2.5 -7.5 3.5
s-5.5 2.16699 -9.5 3.5l-10.5 3.5c-3 1 -7.33301 2.33301 -13 4s-10.5 3.16699 -14.5 4.5c-38 12.667 -68 29 -90 49s-33 48.667 -33 86c0 43.333 15.167 77.5 45.5 102.5s71.5 37.5 123.5 37.5c61.333 0 107.333 -10.333 138 -31c4 -11.333 6.33301 -30.166 7 -56.499
s-1.66602 -43.5 -6.99902 -51.5c-52.667 30.667 -94.667 46 -126 46c-24.667 0 -37 -9.33301 -37 -28c0 -4 0.833008 -7.66699 2.5 -11s5 -6.16602 10 -8.49902s9.33301 -4.16602 13 -5.49902s10.334 -3.5 20 -6.5c9.66797 -3 16.835 -5.16699 21.501 -6.5
c40 -12.667 70.833 -29.334 92.5 -50.001s32.5 -48.667 32.5 -84z" />
    <glyph glyph-name="Scaron" unicode="&#x160;" horiz-adv-x="552" 
d="M276 843l86 87c12 -3.33301 26.833 -13.5 44.5 -30.5s29.167 -31.833 34.5 -44.5l-145 -146c-5.33301 -4 -12 -6 -20 -6s-14.667 2 -20 6l-145 146c5.33301 12.667 16.833 27.5 34.5 44.5s32.5 27.167 44.5 30.5zM280 665c63.333 0 123.33 -16.665 179.997 -49.998
c4 -12.667 6.33301 -39.167 7 -79.5s-1.66602 -64.5 -6.99902 -72.5c-78 46 -137.667 69 -179 69c-22.667 0 -40.667 -5.33301 -54 -16c-13.333 -10.668 -20 -25.335 -20 -44.001c0 -18.668 8 -32.835 24 -42.501c16 -9.66699 46.667 -21.5 92 -35.5
c24.667 -8 45.834 -16.167 63.501 -24.5s36.667 -20 57 -35s36 -34.667 47 -59s16.5 -52.5 16.5 -84.5c0 -66 -22.5 -116.833 -67.5 -152.5s-102.167 -53.5 -171.5 -53.5c-75.333 0 -140.666 16.667 -195.999 50c-4 11.333 -6.33301 37.5 -7 78.5
c-0.666016 41 1.66699 65.5 7 73.5c78 -46 141.333 -69 190 -69c27.333 0 48 5.5 62 16.5s21 25.833 21 44.5c0 18 -7.66699 31.667 -23 41s-47.666 22 -96.999 38c-23.333 8 -44 16.333 -62 25s-36.833 20.667 -56.5 36c-19.667 15.334 -34.834 34.667 -45.501 58
c-10.667 23.334 -16 49.667 -16 79c0 59.333 20.833 109 62.5 149s99.167 60 172.5 60z" />
    <glyph glyph-name="scaron" unicode="&#x161;" horiz-adv-x="406" 
d="M203 593l86 87c12 -3.33301 26.833 -13.5 44.5 -30.5s29.167 -31.833 34.5 -44.5l-145 -146c-5.33301 -4 -12 -6 -20 -6s-14.667 2 -20 6l-145 146c5.33301 12.667 16.833 27.5 34.5 44.5s32.5 27.167 44.5 30.5zM246 256c40 -12.667 70.8301 -29.3359 92.4971 -50.0029
s32.5 -48.667 32.5 -84c0 -44 -16.667 -77.833 -50 -101.5s-75 -35.5 -125 -35.5c-25.333 0 -51.833 2.83301 -79.5 8.5s-48.167 13.167 -61.5 22.5c-4 11.333 -6.33301 30.166 -7 56.499s1.66602 43.5 6.99902 51.5c52.667 -30.667 97.334 -46 134.001 -46
c24.667 0 37 8.33301 37 25c0 2 -0.166992 3.83301 -0.5 5.5c-0.339844 1.66699 -1.17285 3.33398 -2.49902 5.00098c-1.33496 1.66699 -2.66797 3 -4 4c-1.33301 1 -3.33301 2.16699 -6 3.5s-5.16699 2.5 -7.5 3.5s-5.5 2.16699 -9.5 3.5l-10.5 3.5
c-3 1 -7.33301 2.33301 -13 4s-10.5 3.16699 -14.5 4.5c-38 12.667 -68 29 -90 49s-33 48.667 -33 86c0 43.333 15.167 77.5 45.5 102.5s71.5 37.5 123.5 37.5c61.333 0 107.333 -10.333 138 -31c4 -11.333 6.33301 -30.166 7 -56.499s-1.66602 -43.5 -6.99902 -51.5
c-52.667 30.667 -94.667 46 -126 46c-24.667 0 -37 -9.33301 -37 -28c0 -4 0.833008 -7.66699 2.5 -11s5 -6.16602 10 -8.49902s9.33301 -4.16602 13 -5.49902s10.334 -3.5 20 -6.5c9.66797 -3 16.835 -5.16699 21.501 -6.5z" />
    <glyph glyph-name="Tcedilla" unicode="&#x162;" horiz-adv-x="588" 
d="M374 517l0.00195312 -517c-17.333 -2.66699 -33.333 -4.33398 -48 -5.00098v-41c19.333 0 36.833 -7.16699 52.5 -21.5s23.5 -33.833 23.5 -58.5c0 -26 -9.16699 -47.333 -27.5 -64s-42.5 -25 -72.5 -25s-56.667 7.66699 -80 23c-3.33301 8.66699 -5 21 -5 37
s1.66699 27.667 5 35c27.333 -18.667 50.666 -28 69.999 -28c12 0 21.5 2.83301 28.5 8.5s10.5 13.167 10.5 22.5c0 14 -7.16699 23.667 -21.5 29s-31.5 4 -51.5 -4v87c-12.667 0.666992 -27.334 2.33398 -44.001 5.00098v517h-176c-8 44.667 -8 89 0 133h512
c8 -44.667 8 -89 0 -133h-176z" />
    <glyph glyph-name="tcedilla" unicode="&#x163;" horiz-adv-x="393" 
d="M338 145c5.33887 -8 7.67285 -26.833 7.00098 -56.5c-0.666992 -29.667 -3 -50.167 -7 -61.5c-18.667 -22.667 -48.667 -36.334 -90 -41.001v-32c19.333 0 36.833 -7.16699 52.5 -21.5s23.5 -33.833 23.5 -58.5c0 -26 -9.16699 -47.333 -27.5 -64s-42.5 -25 -72.5 -25
s-56.667 7.66699 -80 23c-3.33301 8.66699 -5 21 -5 37s1.66699 27.667 5 35c27.333 -18.667 50.666 -28 69.999 -28c12 0 21.5 2.83301 28.5 8.5s10.5 13.167 10.5 22.5c0 14 -7.16699 23.667 -21.5 29s-31.5 4 -51.5 -4v83c-58.667 16 -88 62 -88 138v149h-56
c-8.66699 40.667 -8.66699 81.334 0 122.001h56v130c48 8.66699 96.333 8.66699 145 0v-130h101c8.66699 -40.667 8.66699 -81.334 0 -122h-101v-128c0 -14.667 1.66699 -25.5 5 -32.5s10.666 -10.5 21.999 -10.5c18.667 0 43.334 12.667 74.001 38z" />
    <glyph glyph-name="Tcaron" unicode="&#x164;" horiz-adv-x="588" 
d="M294 843l85.999 87c12 -3.33301 26.833 -13.5 44.5 -30.5s29.167 -31.833 34.5 -44.5l-145 -146c-4.66699 -4 -11.167 -6 -19.5 -6s-15.166 2 -20.499 6l-145 146c5.33301 12.667 16.833 27.5 34.5 44.5s32.5 27.167 44.5 30.5zM37.999 650h511.999
c8 -44.667 8 -89 0 -133h-176v-517c-53.333 -9.33301 -106.666 -9.33301 -159.999 0v517h-176c-8 44.667 -8 89 0 133z" />
    <glyph glyph-name="tcaron" unicode="&#x165;" horiz-adv-x="393" 
d="M354 665c26 0 48.999 -9.00293 68.999 -27.0029s30 -44 30 -78c0 -19.335 -3.5 -37.168 -10.5 -53.499c-7 -16.333 -16.167 -30.166 -27.5 -41.499s-21.5 -20.166 -30.5 -26.499s-18.167 -11.833 -27.5 -16.5c-25.333 -4.66699 -51 -4.66699 -77 0
c52.667 31.334 84.334 56.667 95.001 76c-9.33301 -1.33301 -16.333 -2 -21 -2c-24.667 0 -45.667 8 -63 24s-26 36 -26 60c0 24.667 8.66699 45 26 61s38.333 24 63 24zM337.999 144.997c5.33887 -8 7.67188 -26.835 7 -56.502c-0.666992 -29.667 -3 -50.167 -7 -61.5
c-24 -28 -61.667 -42 -113 -42c-42 0 -74.667 12.333 -98 37s-35 60.334 -35 107.001v149h-56c-8.66699 40.667 -8.66699 81.334 0 122.001h56v130c48 8.66699 96.333 8.66699 145 0v-130h101c8.66699 -40.667 8.66699 -81.334 0 -122h-101v-128
c0 -14.667 1.66699 -25.5 5 -32.5s10.666 -10.5 21.999 -10.5c18.667 0 43.334 12.667 74.001 38z" />
    <glyph glyph-name="Tbar" unicode="&#x166;" horiz-adv-x="588" 
d="M374 517l-0.000976562 -117h72c8 -36 8 -72.667 0 -110h-72v-290c-53.333 -9.33301 -106.666 -9.33301 -159.999 0v291h-72c-8 36.667 -8 73 0 109h72v117h-176c-8 44.667 -8 89 0 133h512c8 -44.667 8 -89 0 -133h-176z" />
    <glyph glyph-name="tbar" unicode="&#x167;" horiz-adv-x="393" 
d="M338 145c5.33887 -8 7.67188 -26.835 7 -56.502c-0.666992 -29.667 -3 -50.167 -7 -61.5c-24 -28 -61.667 -42 -113 -42c-42 0 -74.667 12.333 -98 37s-35 60.334 -35 107.001v30h-56c-7.33301 32.667 -7.33301 65.667 0 99h56v20h-56
c-8.66699 40.667 -8.66699 81.334 0 122.001h56v130c48 8.66699 96.333 8.66699 145 0v-130h101c8.66699 -40.667 8.66699 -81.334 0 -122h-101v-20h101c7.33301 -32.667 7.33301 -66 0 -100h-101v-8c0 -14.667 1.66699 -25.5 5 -32.5s10.666 -10.5 21.999 -10.5
c18.667 0 43.334 12.667 74.001 38z" />
    <glyph glyph-name="Umacron" unicode="&#x16a;" horiz-adv-x="691" 
d="M214 838h259c8 -36 8 -72.667 0 -110l-259 1c-8 36 -8 72.333 0 109zM461 248l-0.00195312 402c54 9.33301 108.333 9.33301 163 0v-377c0 -192 -92.333 -288 -277 -288s-277 96 -277 288v377c54 9.33301 108.333 9.33301 163 0v-402c0 -38.667 9.83301 -70 29.5 -94
s47.834 -36 84.501 -36s64.834 12 84.501 36s29.5 55.333 29.5 94z" />
    <glyph glyph-name="umacron" unicode="&#x16b;" horiz-adv-x="510" 
d="M123 588h259c8 -36 8 -72.667 0 -110l-259 1c-8 36.667 -8 73 0 109zM312 137l0.000976562 263c48 8.66699 96.333 8.66699 145 0v-400c-42 -7.33301 -83.667 -7.33301 -125 0l-11 47c-36.667 -41.333 -77.334 -62 -122.001 -62c-50.667 0 -87.667 15.167 -111 45.5
s-35 66.5 -35 108.5v261c48 8.66699 96.333 8.66699 145 0v-228c0 -41.333 17.333 -62 52 -62c23.333 0 44 9 62 27z" />
    <glyph glyph-name="Uring" unicode="&#x16e;" horiz-adv-x="691" 
d="M346 933c28 0 52 -10 72 -30s30 -44 30 -72c0 -28.667 -10 -53 -30 -73s-44 -30 -72 -30c-28.667 0 -53 10 -73 30s-30 44.333 -30 73c0 28 10 52 30 72s44.333 30 73 30zM346 856c-7.33301 0 -13.5 -2.5 -18.5 -7.5s-7.5 -10.833 -7.5 -17.5
c0 -7.33301 2.66699 -13.5 8 -18.5s11.333 -7.5 18 -7.5s12.5 2.5 17.5 7.5s7.5 11.167 7.5 18.5s-2.5 13.333 -7.5 18s-10.833 7 -17.5 7zM461 248l-0.00195312 402c54 9.33301 108.333 9.33301 163 0v-377c0 -192 -92.333 -288 -277 -288s-277 96 -277 288v377
c54 9.33301 108.333 9.33301 163 0v-402c0 -38.667 9.83301 -70 29.5 -94s47.834 -36 84.501 -36s64.834 12 84.501 36s29.5 55.333 29.5 94z" />
    <glyph glyph-name="uring" unicode="&#x16f;" horiz-adv-x="510" 
d="M255 683c28 0 52 -10 72 -30s30 -44 30 -72c0 -28.667 -10 -53 -30 -73s-44 -30 -72 -30c-28.667 0 -53 10 -73 30s-30 44.333 -30 73c0 28 10 52 30 72s44.333 30 73 30zM255 606c-7.33301 0 -13.5 -2.5 -18.5 -7.5s-7.5 -10.833 -7.5 -17.5
c0 -7.33301 2.5 -13.5 7.5 -18.5s11.167 -7.5 18.5 -7.5c6.66699 0 12.5 2.5 17.5 7.5s7.5 11.167 7.5 18.5s-2.33301 13.333 -7 18s-10.667 7 -18 7zM312 137l0.000976562 263c48 8.66699 96.333 8.66699 145 0v-400c-42 -7.33301 -83.667 -7.33301 -125 0l-11 47
c-36.667 -41.333 -77.334 -62 -122.001 -62c-50.667 0 -87.667 15.167 -111 45.5s-35 66.5 -35 108.5v261c48 8.66699 96.333 8.66699 145 0v-228c0 -41.333 17.333 -62 52 -62c23.333 0 44 9 62 27z" />
    <glyph glyph-name="Uhungarumlaut" unicode="&#x170;" horiz-adv-x="691" 
d="M187 766l111.001 174.001c13.333 -2.66699 31.166 -12.334 53.499 -29.001c22.335 -16.667 36.168 -31 41.5 -43l-130 -159c-12.667 2.66699 -27 10 -43 22s-27 23.667 -33 35zM356.001 766.001l111.002 174.001c13.334 -2.66699 31.167 -12.334 53.499 -29.001
c22.333 -16.667 36.166 -31 41.499 -43l-130 -159c-12.667 2.66699 -27 10 -43 22s-27 23.667 -33 35zM461.003 248.002l-0.00195312 402c54 9.33301 108.333 9.33301 163 0v-377c0 -192 -92.333 -288 -277 -288s-277 96 -277 288v377c54 9.33301 108.333 9.33301 163 0
v-402c0 -38.667 9.83301 -70 29.5 -94s47.834 -36 84.501 -36s64.834 12 84.501 36s29.5 55.333 29.5 94z" />
    <glyph glyph-name="uhungarumlaut" unicode="&#x171;" horiz-adv-x="510" 
d="M96 516l111.001 174.001c13.333 -2.66699 31.166 -12.334 53.499 -29.001c22.334 -16.667 36.167 -31 41.5 -43l-130 -159c-12.667 2.66699 -27 10 -43 22s-27 23.667 -33 35zM265.001 516.001l111.001 174.001c13.334 -2.66699 31.167 -12.334 53.5 -29.001
c22.334 -16.667 36.167 -31 41.499 -43l-130 -159c-12.667 2.66699 -27 10 -43 22s-27 23.667 -33 35zM312.002 137.002l0.000976562 263c48 8.66699 96.333 8.66699 145 0v-400c-42 -7.33301 -83.667 -7.33301 -125 0l-11 47c-36.667 -41.333 -77.334 -62 -122.001 -62
c-50.667 0 -87.667 15.167 -111 45.5s-35 66.5 -35 108.5v261c48 8.66699 96.333 8.66699 145 0v-228c0 -41.333 17.333 -62 52 -62c23.333 0 44 9 62 27z" />
    <glyph glyph-name="Uogonek" unicode="&#x172;" horiz-adv-x="691" 
d="M461 248l-0.00292969 402c54 9.33301 108.333 9.33301 163 0v-377c0 -135.333 -46 -223 -138 -263c-2.66992 -2.66699 -7.83691 -8 -15.5 -16c-7.66699 -8 -13.5 -14.5 -17.5 -19.5s-8 -11.667 -12 -20s-6 -16.833 -6 -25.5c0 -13.333 4.66699 -24.333 14 -33
s22.333 -13 39 -13c12 0 20.667 1.66699 26 5c8.66699 -28.667 8.66699 -58 0 -88c-12 -3.33301 -28 -5 -48 -5c-30 0 -55.167 8.5 -75.5 25.5s-30.5 40.833 -30.5 71.5c0 34.667 14 66.667 42 96c-17.333 -2 -35.666 -3 -54.999 -3c-184.667 0 -277 96 -277 288v377
c54 9.33301 108.333 9.33301 163 0v-402c0 -38.667 9.83301 -70 29.5 -94s47.834 -36 84.501 -36s64.834 12 84.501 36s29.5 55.333 29.5 94z" />
    <glyph glyph-name="uogonek" unicode="&#x173;" horiz-adv-x="510" 
d="M485 -122c8.66699 -28.667 8.66797 -57.999 0.000976562 -87.999c-12 -3.33301 -28 -5 -48 -5c-30 0 -55.167 8.5 -75.5 25.5s-30.5 40.833 -30.5 71.5c0 39.333 19.333 76.666 58 111.999c-16.667 0 -35.667 2 -57 6l-11 47c-36.667 -41.333 -77.334 -62 -122.001 -62
c-50.667 0 -87.667 15.167 -111 45.5s-35 66.5 -35 108.5v261c48 8.66699 96.333 8.66699 145 0v-228c0 -41.333 17.333 -62 52 -62c23.333 0 44 9 62 27v263c48 8.66699 96.333 8.66699 145 0v-400c-2.66797 -2.66699 -7.83496 -8 -15.5 -16
c-7.66699 -8 -13.5 -14.5 -17.5 -19.5s-8 -11.667 -12 -20s-6 -16.833 -6 -25.5c0 -13.333 4.66699 -24.333 14 -33s22.333 -13 39 -13c12 0 20.667 1.66699 26 5z" />
    <glyph glyph-name="Wcircumflex" unicode="&#x174;" horiz-adv-x="1026" 
d="M533 930l145.001 -146c-5.33301 -12.667 -16.833 -27.5 -34.5 -44.5s-32.5 -27.167 -44.5 -30.5l-86 87l-86 -87c-12 3.33301 -26.833 13.5 -44.5 30.5s-29.167 31.833 -34.5 44.5l145 146c5.33691 4 12.1699 6 20.499 6c8.33301 0 14.833 -2 19.5 -6zM994.001 650
l-224 -650c-44 -7.33301 -88 -7.33301 -132 0l-125 384l-125 -384c-44 -7.33301 -88 -7.33301 -132 0l-224 650c55.333 9.33301 110.333 9.33301 165 0l125 -412l125 412c44 7.33301 88 7.33301 132 0l125 -412l125 412c55.333 9.33301 110.333 9.33301 165 0z" />
    <glyph glyph-name="wcircumflex" unicode="&#x175;" horiz-adv-x="774" 
d="M407 680l145 -146c-5.33301 -12.667 -16.833 -27.5 -34.5 -44.5s-32.5 -27.167 -44.5 -30.5l-86 87l-86 -87c-12 3.33301 -26.833 13.5 -44.5 30.5s-29.167 31.833 -34.5 44.5l145 146c5.33398 4 12.167 6 20.5 6s14.833 -2 19.5 -6zM188 0l-157.997 400
c51.333 8.66699 102.666 8.66699 153.999 0l64 -209l80 209c39.333 8.66699 78.666 8.66699 117.999 0l80 -209l64 209c51.333 8.66699 102.666 8.66699 153.999 0l-158 -400c-38.667 -8.66699 -77.667 -8.66699 -117 0l-82 219l-82 -219
c-39.333 -8.66699 -78.333 -8.66699 -117 0z" />
    <glyph glyph-name="Ycircumflex" unicode="&#x176;" horiz-adv-x="698" 
d="M369 930l145 -146c-5.33301 -12.667 -16.833 -27.5 -34.5 -44.5s-32.5 -27.167 -44.5 -30.5l-86 87l-86 -87c-12 3.33301 -26.833 13.5 -44.5 30.5s-29.167 31.833 -34.5 44.5l145 146c5.33594 4 12.1689 6 20.5 6c8.33301 0 14.833 -2 19.5 -6zM429 225
l-0.000976562 -225c-53.333 -9.33301 -106.666 -9.33301 -159.999 0v225l-237 425c23.333 4 52 6 86 6s62.333 -2 85 -6l146 -276l146 276c23.333 4 52 6 86 6s62.333 -2 85 -6z" />
    <glyph glyph-name="ycircumflex" unicode="&#x177;" horiz-adv-x="527" 
d="M284 680l145.001 -146c-5.33301 -12.667 -16.833 -27.5 -34.5 -44.5s-32.5 -27.167 -44.5 -30.5l-86 87l-86 -87c-12 3.33301 -26.833 13.5 -44.5 30.5s-29.167 31.833 -34.5 44.5l145 146c5.33301 4 12.166 6 20.499 6s14.833 -2 19.5 -6zM264.001 191l80.998 209
c50.667 8.66699 101.334 8.66699 152.001 0l-246 -563c-49.333 -8.66699 -98.333 -8.66699 -147 0l86 197l-160 366c50.667 8.66699 101.334 8.66699 152.001 0z" />
    <glyph glyph-name="Ydieresis" unicode="&#x178;" horiz-adv-x="698" 
d="M227 897c25.333 0 46.666 -8 63.999 -24s26 -36.333 26 -61c0 -24 -8.66699 -44 -26 -60s-38.666 -24 -63.999 -24s-46.666 8 -63.999 24s-26 36 -26 60c0 24.667 8.66699 45 26 61s38.666 24 63.999 24zM472 897c25.333 0 46.666 -8 63.999 -24s26 -36.333 26 -61
c0 -24 -8.66699 -44 -26 -60s-38.666 -24 -63.999 -24s-46.666 8 -63.999 24s-26 36 -26 60c0 24.667 8.66699 45 26 61c17.334 16 38.667 24 63.999 24zM429 225l-0.000976562 -225c-53.333 -9.33301 -106.666 -9.33301 -159.999 0v225l-237 425c23.333 4 52 6 86 6
s62.333 -2 85 -6l146 -276l146 276c23.333 4 52 6 86 6s62.333 -2 85 -6z" />
    <glyph glyph-name="Zacute" unicode="&#x179;" horiz-adv-x="563" 
d="M179 766l111 174.001c13.334 -2.66699 31.167 -12.334 53.5 -29.001c22.335 -16.667 36.168 -31 41.5 -43l-130 -159c-12.667 2.66699 -27 10 -43 22s-27 23.667 -33 35zM270 133.001h252c8 -44 8 -88.333 0 -133h-487v10l258 507h-240c-8 44.667 -8 89 0 133h475v-10z
" />
    <glyph glyph-name="zacute" unicode="&#x17a;" horiz-adv-x="437" 
d="M116 516l111.001 174.001c13.333 -2.66699 31.166 -12.334 53.499 -29.001c22.334 -16.667 36.167 -31 41.5 -43l-130 -159c-12.667 2.66699 -27 10 -43 22s-27 23.667 -33 35zM249.001 125.001l147 1c7.33301 -41.333 7.33301 -83.333 0 -126h-361v9l153 266h-136
c-7.33301 42 -7.33301 83.667 0 125h350v-9z" />
    <glyph glyph-name="Zdotaccent" unicode="&#x17b;" horiz-adv-x="563" 
d="M282 728c-25.333 0 -46.666 8 -63.999 24s-26 36 -26 60c0 24.667 8.66699 45 26 61s38.666 24 63.999 24s46.666 -8 63.999 -24s26 -36.333 26 -61c0 -24 -8.66699 -44 -26 -60s-38.666 -24 -63.999 -24zM270 133h252c8 -44 8 -88.333 0 -133h-487v10l258 507h-240
c-8 44.667 -8 89 0 133h475v-10z" />
    <glyph glyph-name="zdotaccent" unicode="&#x17c;" horiz-adv-x="437" 
d="M219 478c-25.334 0 -46.666 8 -63.999 24s-26 36 -26 60c0 24.667 8.66699 45 26 61s38.666 24 63.999 24s46.666 -8 63.999 -24s26 -36.333 26 -61c0 -24 -8.66699 -44 -26 -60s-38.666 -24 -63.999 -24zM249.001 125l147 1c7.33301 -41.333 7.33301 -83.333 0 -126
h-361v9l153 266h-136c-7.33301 42 -7.33301 83.667 0 125h350v-9z" />
    <glyph glyph-name="Zcaron" unicode="&#x17d;" horiz-adv-x="563" 
d="M282 843l86 87c12 -3.33301 26.833 -13.5 44.5 -30.5s29.167 -31.833 34.5 -44.5l-145 -146c-5.33301 -4 -12 -6 -20 -6s-14.667 2 -20 6l-145 146c5.33301 12.667 16.833 27.5 34.5 44.5s32.5 27.167 44.5 30.5zM270 133h252c8 -44 8 -88.333 0 -133h-487v10l258 507
h-240c-8 44.667 -8 89 0 133h475v-10z" />
    <glyph glyph-name="zcaron" unicode="&#x17e;" horiz-adv-x="437" 
d="M219 593l85.999 87c12 -3.33301 26.833 -13.5 44.5 -30.5s29.167 -31.833 34.5 -44.5l-145 -146c-4.66699 -4 -11.167 -6 -19.5 -6s-15.166 2 -20.499 6l-145 146c5.33301 12.667 16.833 27.5 34.5 44.5s32.5 27.167 44.5 30.5zM248.999 125l147 1
c7.33301 -41.333 7.33301 -83.333 0 -126h-361v9l153 266h-136c-7.33301 42 -7.33301 83.667 0 125h350v-9z" />
    <glyph glyph-name="Acaron" unicode="&#x1cd;" horiz-adv-x="724" 
d="M362 843l86 87c12 -3.33301 26.833 -13.5 44.5 -30.5s29.167 -31.833 34.5 -44.5l-145 -146c-5.33301 -4 -12 -6 -20 -6s-14.667 2 -20 6l-145 146c5.33301 12.667 16.833 27.5 34.5 44.5s32.5 27.167 44.5 30.5zM428 650l264 -650
c-54.667 -9.33301 -109.667 -9.33301 -165 0l-46 123h-238l-46 -123c-55.333 -9.33301 -110.333 -9.33301 -165 0l264 650c44 7.33301 88 7.33301 132 0zM293 258h138l-69 186z" />
    <glyph glyph-name="acaron" unicode="&#x1ce;" horiz-adv-x="474" 
d="M237 593l85.999 87c12 -3.33301 26.833 -13.5 44.5 -30.5s29.167 -31.833 34.5 -44.5l-145 -146c-4.66699 -4 -11.167 -6 -19.5 -6c-8.33398 0 -15.167 2 -20.499 6l-145 146c5.33301 12.667 16.833 27.5 34.5 44.5s32.5 27.167 44.5 30.5zM227.999 415
c67.333 0 116.332 -16.168 146.999 -48.501s46 -80.5 46 -144.5v-222c-42 -7.33301 -83.667 -7.33301 -125 0l-9 40c-31.333 -36.667 -69 -55 -113 -55c-37.333 0 -69.5 11.333 -96.5 34s-40.5 54.334 -40.5 95.001c0 40 13.5 71.333 40.5 94s61.167 34 102.5 34
s73.333 -9.66699 96 -29v22c0 22.667 -6.16699 39 -18.5 49s-32.5 15 -60.5 15c-38 0 -78.667 -11.667 -122 -35c-5.33301 8 -7.66602 26.5 -6.99902 55.5s3 49.167 7 60.5c38 23.333 89 35 153 35zM218.998 153.999c-25.333 0 -38 -10 -38 -30
c0 -8.66699 3.16699 -16 9.5 -22s15.5 -9 27.5 -9c22 0 41.333 5.66699 58 17v28c-14 10.667 -33 16 -57 16z" />
    <glyph glyph-name="Icaron" unicode="&#x1cf;" horiz-adv-x="300" 
d="M150 843l86 87c12 -3.33301 26.833 -13.5 44.5 -30.5s29.167 -31.833 34.5 -44.5l-145 -146c-5.33301 -4 -12 -6 -20 -6s-14.667 2 -20 6l-145 146c5.33301 12.667 16.833 27.5 34.5 44.5s32.5 27.167 44.5 30.5zM230 650v-650
c-53.333 -9.33301 -106.666 -9.33301 -159.999 0v650c53.333 9.33301 106.666 9.33301 159.999 0z" />
    <glyph glyph-name="icaron" unicode="&#x1d0;" horiz-adv-x="257" 
d="M130 593l86 87c12 -3.33301 26.833 -13.5 44.5 -30.5s29.167 -31.833 34.5 -44.5l-145 -146c-5.33301 -4 -12 -6 -20 -6s-14.667 2 -20 6l-145 146c5.33301 12.667 16.833 27.5 34.5 44.5s32.5 27.167 44.5 30.5zM202 400v-400c-48 -8.66699 -96.333 -8.66699 -145 0v400
c48.667 8.66699 97 8.66699 145 0z" />
    <glyph glyph-name="Ocaron" unicode="&#x1d1;" horiz-adv-x="780" 
d="M390 843l86 87c12 -3.33301 26.833 -13.5 44.5 -30.5s29.167 -31.833 34.5 -44.5l-145 -146c-5.33301 -4 -12 -6 -20 -6s-14.667 2 -20 6l-145 146c5.33301 12.667 16.833 27.5 34.5 44.5s32.5 27.167 44.5 30.5zM390 665c101.333 0 184.166 -32.833 248.499 -98.5
s96.5 -146.167 96.5 -241.5s-32.167 -175.833 -96.5 -241.5s-147.166 -98.5 -248.499 -98.5s-184.166 32.833 -248.499 98.5s-96.5 146.167 -96.5 241.5s32.167 175.833 96.5 241.5s147.166 98.5 248.499 98.5zM390 532c-50.667 0 -93.667 -18.834 -129 -56.501
s-53 -87.834 -53 -150.5c0 -62.667 17.667 -112.834 53 -150.501s78.333 -56.5 129 -56.5s93.667 18.833 129 56.5s53 87.834 53 150.501s-17.667 112.834 -53 150.501s-78.333 56.5 -129 56.5z" />
    <glyph glyph-name="ocaron" unicode="&#x1d2;" horiz-adv-x="524" 
d="M262 593l86 87c12 -3.33301 26.833 -13.5 44.5 -30.5s29.167 -31.833 34.5 -44.5l-145 -146c-5.33301 -4 -12 -6 -20 -6s-14.667 2 -20 6l-145 146c5.33301 12.667 16.833 27.5 34.5 44.5s32.5 27.167 44.5 30.5zM262 415c64.667 0 117.833 -20.667 159.5 -62
s62.5 -92.333 62.5 -153s-20.833 -111.667 -62.5 -153s-94.834 -62 -159.5 -62c-64.667 0 -117.834 20.667 -159.501 62s-62.5 92.333 -62.5 153s20.833 111.667 62.5 153s94.834 62 159.501 62zM261.999 290c-22 0 -40.333 -8 -55 -24s-22 -38 -22 -66s7.33301 -50 22 -66
s33 -24 55 -24s40.333 8 55 24s22 38 22 66s-7.33301 50 -22 66s-33 24 -55 24z" />
    <glyph glyph-name="Ucaron" unicode="&#x1d3;" horiz-adv-x="691" 
d="M346 843l86 87c12 -3.33301 26.833 -13.5 44.5 -30.5s29.167 -31.833 34.5 -44.5l-145 -146c-5.33301 -4 -12 -6 -20 -6s-14.667 2 -20 6l-145 146c5.33301 12.667 16.833 27.5 34.5 44.5s32.5 27.167 44.5 30.5zM461 248l-0.00195312 402
c54 9.33301 108.333 9.33301 163 0v-377c0 -192 -92.333 -288 -277 -288s-277 96 -277 288v377c54 9.33301 108.333 9.33301 163 0v-402c0 -38.667 9.83301 -70 29.5 -94s47.834 -36 84.501 -36s64.834 12 84.501 36s29.5 55.333 29.5 94z" />
    <glyph glyph-name="ucaron" unicode="&#x1d4;" horiz-adv-x="510" 
d="M255 593l86 87c12 -3.33301 26.833 -13.5 44.5 -30.5s29.167 -31.833 34.5 -44.5l-145 -146c-4.66699 -4 -11.167 -6 -19.5 -6c-8.33398 0 -15.167 2 -20.5 6l-145 146c5.33301 12.667 16.833 27.5 34.5 44.5s32.5 27.167 44.5 30.5zM312 137l0.000976562 263
c48 8.66699 96.333 8.66699 145 0v-400c-42 -7.33301 -83.667 -7.33301 -125 0l-11 47c-36.667 -41.333 -77.334 -62 -122.001 -62c-50.667 0 -87.667 15.167 -111 45.5s-35 66.5 -35 108.5v261c48 8.66699 96.333 8.66699 145 0v-228c0 -41.333 17.333 -62 52 -62
c23.333 0 44 9 62 27z" />
    <glyph glyph-name="Udieresismacron" unicode="&#x1d5;" horiz-adv-x="691" 
d="M214 1058h259c8 -36 8 -72.667 0 -110l-259 1c-8 36.667 -8 73 0 109zM224 897c25.333 0 46.667 -8 64 -24s26 -36.333 26 -61c0 -24 -8.66699 -44 -26 -60s-38.666 -24 -63.999 -24c-25.334 0 -46.667 8 -64 24s-26 36 -26 60c0 24.667 8.66699 45 26 61
s38.666 24 63.999 24zM469.001 897c25.333 0 46.665 -8 63.998 -24s26 -36.333 26 -61c0 -24 -8.66699 -44 -26 -60s-38.666 -24 -63.999 -24s-46.666 8 -63.999 24s-26 36 -26 60c0 24.667 8.66699 45 26 61c17.334 16 38.667 24 64 24zM461 248l-0.00195312 402
c54 9.33301 108.333 9.33301 163 0v-377c0 -192 -92.333 -288 -277 -288s-277 96 -277 288v377c54 9.33301 108.333 9.33301 163 0v-402c0 -38.667 9.83301 -70 29.5 -94s47.834 -36 84.501 -36s64.834 12 84.501 36s29.5 55.333 29.5 94z" />
    <glyph glyph-name="udieresismacron" unicode="&#x1d6;" horiz-adv-x="510" 
d="M123 807h259c8 -36 8 -72.667 0 -110l-259 1c-8 36 -8 72.333 0 109zM133 647c25.333 0 46.667 -8 64 -24s26 -36.333 26 -61c0 -24 -8.66699 -44 -26 -60c-17.334 -16 -38.667 -24 -64 -24s-46.666 8 -63.999 24s-26 36 -26 60c0 24.667 8.66699 45 26 61
s38.666 24 63.999 24zM378.001 647c25.334 0 46.665 -8 63.998 -24s26 -36.333 26 -61c0 -24 -8.66699 -44 -26 -60s-38.666 -24 -63.999 -24s-46.666 8 -63.999 24s-26 36 -26 60c0 24.667 8.66699 45 26 61c17.334 16 38.667 24 64 24zM311.999 137l0.000976562 263
c48 8.66699 96.333 8.66699 145 0v-400c-42 -7.33301 -83.667 -7.33301 -125 0l-11 47c-36.667 -41.333 -77.334 -62 -122.001 -62c-50.667 0 -87.667 15.167 -111 45.5s-35 66.5 -35 108.5v261c48 8.66699 96.333 8.66699 145 0v-228c0 -41.333 17.333 -62 52 -62
c23.333 0 44 9 62 27z" />
    <glyph glyph-name="Udieresisacute" unicode="&#x1d7;" horiz-adv-x="691" 
d="M243 996l111 174c13.334 -2.68457 31.167 -12.3516 53.5 -29c22.335 -16.667 36.168 -31 41.5 -43l-130 -159c-12.667 2.66699 -27 10 -43 22s-27 23.667 -33 35zM224 897c25.333 0 46.667 -8 64 -24s26 -36.333 26 -61c0 -24 -8.66699 -44 -26 -60
s-38.666 -24 -63.999 -24c-25.334 0 -46.667 8 -64 24s-26 36 -26 60c0 24.667 8.66699 45 26 61s38.666 24 63.999 24zM469.001 897c25.333 0 46.665 -8 63.998 -24s26 -36.333 26 -61c0 -24 -8.66699 -44 -26 -60s-38.666 -24 -63.999 -24s-46.666 8 -63.999 24
s-26 36 -26 60c0 24.667 8.66699 45 26 61c17.334 16 38.667 24 64 24zM461 248l-0.00195312 402c54 9.33301 108.333 9.33301 163 0v-377c0 -192 -92.333 -288 -277 -288s-277 96 -277 288v377c54 9.33301 108.333 9.33301 163 0v-402c0 -38.667 9.83301 -70 29.5 -94
s47.834 -36 84.501 -36s64.834 12 84.501 36s29.5 55.333 29.5 94z" />
    <glyph glyph-name="udieresisacute" unicode="&#x1d8;" horiz-adv-x="510" 
d="M152 745l111 174.001c13.334 -2.66699 31.167 -12.334 53.5 -29.001c22.334 -16.667 36.167 -31 41.5 -43l-130 -159c-12.667 2.66699 -27 10 -43 22s-27 23.667 -33 35zM133 647.001c25.333 0 46.667 -8 64 -24s26 -36.333 26 -61c0 -24 -8.66699 -44 -26 -60
c-17.334 -16 -38.667 -24 -64 -24s-46.666 8 -63.999 24s-26 36 -26 60c0 24.667 8.66699 45 26 61s38.666 24 63.999 24zM378.001 647.001c25.334 0 46.665 -8 63.998 -24s26 -36.333 26 -61c0 -24 -8.66699 -44 -26 -60s-38.666 -24 -63.999 -24s-46.666 8 -63.999 24
s-26 36 -26 60c0 24.667 8.66699 45 26 61c17.334 16 38.667 24 64 24zM311.999 137.001l0.000976562 263c48 8.66699 96.333 8.66699 145 0v-400c-42 -7.33301 -83.667 -7.33301 -125 0l-11 47c-36.667 -41.333 -77.334 -62 -122.001 -62
c-50.667 0 -87.667 15.167 -111 45.5s-35 66.5 -35 108.5v261c48 8.66699 96.333 8.66699 145 0v-228c0 -41.333 17.333 -62 52 -62c23.333 0 44 9 62 27z" />
    <glyph glyph-name="Udieresiscaron" unicode="&#x1d9;" horiz-adv-x="691" 
d="M346 1073l86 87c12 -3.33301 26.833 -13.5 44.5 -30.5s29.167 -31.833 34.5 -44.5l-145 -146c-5.33301 -4 -12 -6 -20 -6s-14.667 2 -20 6l-145 146c5.33301 12.667 16.833 27.5 34.5 44.5s32.5 27.167 44.5 30.5zM224 897c25.333 0 46.667 -8 64 -24s26 -36.333 26 -61
c0 -24 -8.66699 -44 -26 -60s-38.666 -24 -63.999 -24c-25.334 0 -46.667 8 -64 24s-26 36 -26 60c0 24.667 8.66699 45 26 61s38.666 24 63.999 24zM469.001 897c25.333 0 46.665 -8 63.998 -24s26 -36.333 26 -61c0 -24 -8.66699 -44 -26 -60s-38.666 -24 -63.999 -24
s-46.666 8 -63.999 24s-26 36 -26 60c0 24.667 8.66699 45 26 61c17.334 16 38.667 24 64 24zM461 248l-0.00195312 402c54 9.33301 108.333 9.33301 163 0v-377c0 -192 -92.333 -288 -277 -288s-277 96 -277 288v377c54 9.33301 108.333 9.33301 163 0v-402
c0 -38.667 9.83301 -70 29.5 -94s47.834 -36 84.501 -36s64.834 12 84.501 36s29.5 55.333 29.5 94z" />
    <glyph glyph-name="udieresiscaron" unicode="&#x1da;" horiz-adv-x="510" 
d="M255 823l86 87c12 -3.33301 26.833 -13.5 44.5 -30.5s29.167 -31.833 34.5 -44.5l-145 -146c-4.66699 -4 -11.167 -6 -19.5 -6c-8.33398 0 -15.167 2 -20.5 6l-145 146c5.33301 12.667 16.833 27.5 34.5 44.5s32.5 27.167 44.5 30.5zM133 647c25.333 0 46.667 -8 64 -24
s26 -36.333 26 -61c0 -24 -8.66699 -44 -26 -60c-17.334 -16 -38.667 -24 -64 -24s-46.666 8 -63.999 24s-26 36 -26 60c0 24.667 8.66699 45 26 61s38.666 24 63.999 24zM378.001 647c25.334 0 46.665 -8 63.998 -24s26 -36.333 26 -61c0 -24 -8.66699 -44 -26 -60
s-38.666 -24 -63.999 -24s-46.666 8 -63.999 24s-26 36 -26 60c0 24.667 8.66699 45 26 61c17.334 16 38.667 24 64 24zM311.999 137l0.000976562 263c48 8.66699 96.333 8.66699 145 0v-400c-42 -7.33301 -83.667 -7.33301 -125 0l-11 47
c-36.667 -41.333 -77.334 -62 -122.001 -62c-50.667 0 -87.667 15.167 -111 45.5s-35 66.5 -35 108.5v261c48 8.66699 96.333 8.66699 145 0v-228c0 -41.333 17.333 -62 52 -62c23.333 0 44 9 62 27z" />
    <glyph glyph-name="Udieresisgrave" unicode="&#x1db;" horiz-adv-x="691" 
d="M338 1170l111.001 -174.001c-6 -11.333 -17 -23 -33 -35s-30.333 -19.333 -43 -22l-130 159c5.33301 12 19.166 26.333 41.499 43c22.334 16.667 40.167 26.334 53.5 29.001zM224.001 896.999c25.333 0 46.667 -8 64 -24s26 -36.333 26 -61c0 -24 -8.66699 -44 -26 -60
s-38.666 -24 -63.999 -24c-25.334 0 -46.667 8 -64 24s-26 36 -26 60c0 24.667 8.66699 45 26 61s38.666 24 63.999 24zM469.002 896.999c25.333 0 46.665 -8 63.998 -24s26 -36.333 26 -61c0 -24 -8.66699 -44 -26 -60s-38.666 -24 -63.999 -24s-46.666 8 -63.999 24
s-26 36 -26 60c0 24.667 8.66699 45 26 61c17.334 16 38.667 24 64 24zM461.001 247.999l-0.00195312 402c54 9.33301 108.333 9.33301 163 0v-377c0 -192 -92.333 -288 -277 -288s-277 96 -277 288v377c54 9.33301 108.333 9.33301 163 0v-402
c0 -38.667 9.83301 -70 29.5 -94s47.834 -36 84.501 -36s64.834 12 84.501 36s29.5 55.333 29.5 94z" />
    <glyph glyph-name="udieresisgrave" unicode="&#x1dc;" horiz-adv-x="510" 
d="M247 920l111.002 -174c-6 -11.333 -17 -23 -33 -35s-30.333 -19.333 -43 -22l-130 159c5.33301 12 19.166 26.333 41.499 43c22.333 16.668 40.166 26.335 53.499 29zM133.002 647c25.333 0 46.667 -8 64 -24s26 -36.333 26 -61c0 -24 -8.66699 -44 -26 -60
c-17.334 -16 -38.667 -24 -64 -24s-46.666 8 -63.999 24s-26 36 -26 60c0 24.667 8.66699 45 26 61s38.666 24 63.999 24zM378.003 647c25.334 0 46.665 -8 63.998 -24s26 -36.333 26 -61c0 -24 -8.66699 -44 -26 -60s-38.666 -24 -63.999 -24s-46.666 8 -63.999 24
s-26 36 -26 60c0 24.667 8.66699 45 26 61c17.334 16 38.667 24 64 24zM312.001 137l0.000976562 263c48 8.66699 96.333 8.66699 145 0v-400c-42 -7.33301 -83.667 -7.33301 -125 0l-11 47c-36.667 -41.333 -77.334 -62 -122.001 -62c-50.667 0 -87.667 15.167 -111 45.5
s-35 66.5 -35 108.5v261c48 8.66699 96.333 8.66699 145 0v-228c0 -41.333 17.333 -62 52 -62c23.333 0 44 9 62 27z" />
    <glyph glyph-name="Scommaaccent" unicode="&#x218;" horiz-adv-x="552" 
d="M280 665c63.333 0 123.33 -16.665 179.997 -49.998c4 -12.667 6.33301 -39.167 7 -79.5s-1.66602 -64.5 -6.99902 -72.5c-78 46 -137.667 69 -179 69c-22.667 0 -40.667 -5.33301 -54 -16c-13.333 -10.668 -20 -25.335 -20 -44.001c0 -18.668 8 -32.835 24 -42.501
c16 -9.66699 46.667 -21.5 92 -35.5c24.667 -8 45.834 -16.167 63.501 -24.5s36.667 -20 57 -35s36 -34.667 47 -59s16.5 -52.5 16.5 -84.5c0 -66 -22.5 -116.833 -67.5 -152.5s-102.167 -53.5 -171.5 -53.5c-75.333 0 -140.666 16.667 -195.999 50
c-4 11.333 -6.33301 37.5 -7 78.5c-0.666016 41 1.66699 65.5 7 73.5c78 -46 141.333 -69 190 -69c27.333 0 48 5.5 62 16.5s21 25.833 21 44.5c0 18 -7.66699 31.667 -23 41s-47.666 22 -96.999 38c-23.333 8 -44 16.333 -62 25s-36.833 20.667 -56.5 36
c-19.667 15.334 -34.834 34.667 -45.501 58c-10.667 23.334 -16 49.667 -16 79c0 59.333 20.833 109 62.5 149s99.167 60 172.5 60zM266.997 -58.998c26 0 48.832 -9.00195 68.499 -27.002s29.5 -45.333 29.5 -82c0 -40 -11.167 -79.667 -33.5 -119
s-43.166 -64.666 -62.499 -75.999c-25.333 -4.66699 -51 -4.66699 -77 0c37.333 34.667 69 80.334 95 137.001c-9.33301 -1.33301 -16.333 -2 -21 -2c-24.667 0 -45.667 8 -63 24s-26 36 -26 60c0 24.667 8.83301 45 26.5 61s38.834 24 63.5 24z" />
    <glyph glyph-name="scommaaccent" unicode="&#x219;" horiz-adv-x="406" 
d="M246 256c40 -12.667 70.8301 -29.3359 92.4971 -50.0029s32.5 -48.667 32.5 -84c0 -44 -16.667 -77.833 -50 -101.5s-75 -35.5 -125 -35.5c-25.333 0 -51.833 2.83301 -79.5 8.5s-48.167 13.167 -61.5 22.5c-4 11.333 -6.33301 30.166 -7 56.499
s1.66602 43.5 6.99902 51.5c52.667 -30.667 97.334 -46 134.001 -46c24.667 0 37 8.33301 37 25c0 2 -0.166992 3.83301 -0.5 5.5c-0.339844 1.66699 -1.17285 3.33398 -2.49902 5.00098c-1.33496 1.66699 -2.66797 3 -4 4c-1.33301 1 -3.33301 2.16699 -6 3.5
s-5.16699 2.5 -7.5 3.5s-5.5 2.16699 -9.5 3.5l-10.5 3.5c-3 1 -7.33301 2.33301 -13 4s-10.5 3.16699 -14.5 4.5c-38 12.667 -68 29 -90 49s-33 48.667 -33 86c0 43.333 15.167 77.5 45.5 102.5s71.5 37.5 123.5 37.5c61.333 0 107.333 -10.333 138 -31
c4 -11.333 6.33301 -30.166 7 -56.499s-1.66602 -43.5 -6.99902 -51.5c-52.667 30.667 -94.667 46 -126 46c-24.667 0 -37 -9.33301 -37 -28c0 -4 0.833008 -7.66699 2.5 -11s5 -6.16602 10 -8.49902s9.33301 -4.16602 13 -5.49902s10.334 -3.5 20 -6.5
c9.66797 -3 16.835 -5.16699 21.501 -6.5zM190.997 -59.002c26 0 48.8311 -9.00195 68.498 -27.002s29.5 -45.333 29.5 -82c0 -40 -11.167 -79.667 -33.5 -119s-43.166 -64.666 -62.499 -75.999c-25.333 -4.66699 -51 -4.66699 -77 0c37.333 34.667 69 80.334 95 137.001
c-9.33301 -1.33301 -16.333 -2 -21 -2c-24.667 0 -45.667 8 -63 24s-26 36 -26 60c0 24.667 8.83301 45 26.5 61s38.834 24 63.501 24z" />
    <glyph glyph-name="uni021A" unicode="&#x21a;" horiz-adv-x="588" 
d="M38 650h511.999c8 -44.667 8 -89 0 -133h-176v-517c-53.333 -9.33301 -106.666 -9.33301 -159.999 0v517h-176c-8 44.667 -8 89 0 133zM293.999 -59c26 0 48.8311 -9.00195 68.498 -27.002s29.5 -45.333 29.5 -82c0 -40 -11.167 -79.667 -33.5 -119
s-43.166 -64.666 -62.499 -75.999c-25.333 -4.66699 -51 -4.66699 -77 0c37.333 34.667 69 80.334 95 137.001c-9.33301 -1.33301 -16.333 -2 -21 -2c-24.667 0 -45.667 8 -63 24s-26 36 -26 60c0 24.667 8.83301 45 26.5 61s38.834 24 63.501 24z" />
    <glyph glyph-name="uni021B" unicode="&#x21b;" horiz-adv-x="393" 
d="M338 145c5.33887 -8 7.67188 -26.835 7 -56.502c-0.666992 -29.667 -3 -50.167 -7 -61.5c-24 -28 -61.667 -42 -113 -42c-42 0 -74.667 12.333 -98 37s-35 60.334 -35 107.001v149h-56c-8.66699 40.667 -8.66699 81.334 0 122.001h56v130
c48 8.66699 96.333 8.66699 145 0v-130h101c8.66699 -40.667 8.66699 -81.334 0 -122h-101v-128c0 -14.667 1.66699 -25.5 5 -32.5s10.666 -10.5 21.999 -10.5c18.667 0 43.334 12.667 74.001 38zM216 -59.002c26 0 48.832 -9.00195 68.499 -27.002s29.5 -45.333 29.5 -82
c0 -40 -11.167 -79.667 -33.5 -119s-43.166 -64.666 -62.499 -75.999c-25.333 -4.66699 -51 -4.66699 -77 0c37.333 34.667 69 80.334 95 137.001c-9.33301 -1.33301 -16.333 -2 -21 -2c-24.667 0 -45.667 8 -63 24s-26 36 -26 60c0 24.667 8.83301 45 26.5 61
s38.834 24 63.5 24z" />
    <glyph glyph-name="circumflex" unicode="&#x2c6;" horiz-adv-x="390" 
d="M215 930l145.001 -146c-5.33301 -12.667 -16.833 -27.5 -34.5 -44.5s-32.5 -27.167 -44.5 -30.5l-86 87l-86 -87c-12 3.33301 -26.833 13.5 -44.5 30.5s-29.167 31.833 -34.5 44.5l145 146c5.33301 4 12.166 6 20.499 6s14.833 -2 19.5 -6z" />
    <glyph glyph-name="caron" unicode="&#x2c7;" horiz-adv-x="390" 
d="M195 843l86 87c12 -3.33301 26.833 -13.5 44.5 -30.5s29.167 -31.833 34.5 -44.5l-145 -146c-4.66699 -4 -11.167 -6 -19.5 -6c-8.33398 0 -15.167 2 -20.5 6l-145 146c5.33301 12.667 16.833 27.5 34.5 44.5s32.5 27.167 44.5 30.5z" />
    <glyph glyph-name="breve" unicode="&#x2d8;" horiz-adv-x="360" 
d="M323 888c5.33789 -8 7.67285 -26.833 7.00098 -56.5c-0.666992 -29.667 -3 -50.167 -7 -61.5c-37.333 -28 -85 -42 -143 -42s-105.667 14 -143 42c-4 11.333 -6.33301 31.833 -7 61.5s1.66602 48.5 6.99902 56.5c43.333 -25.333 91 -38 143 -38s99.667 12.667 143 38z
" />
    <glyph glyph-name="dotaccent" unicode="&#x2d9;" horiz-adv-x="240" 
d="M120 728c-25.333 0 -46.666 8 -63.999 24s-26 36 -26 60c0 24.667 8.66699 45 26 61s38.666 24 63.999 24s46.666 -8 63.999 -24s26 -36.333 26 -61c0 -24 -8.66699 -44 -26 -60s-38.666 -24 -63.999 -24z" />
    <glyph glyph-name="ring" unicode="&#x2da;" horiz-adv-x="265" 
d="M133 933c28 0 52 -10 72 -30s30 -44 30 -72c0 -28.667 -10 -53 -30 -73s-44 -30 -72 -30c-28.667 0 -53 10 -73 30s-30 44.333 -30 73c0 28 10 52 30 72s44.333 30 73 30zM133 856c-7.33301 0 -13.5 -2.5 -18.5 -7.5s-7.5 -10.833 -7.5 -17.5
c0 -7.33301 2.5 -13.5 7.5 -18.5s11.167 -7.5 18.5 -7.5c6.66699 0 12.5 2.5 17.5 7.5s7.5 11.167 7.5 18.5s-2.33301 13.333 -7 18s-10.667 7 -18 7z" />
    <glyph glyph-name="ogonek" unicode="&#x2db;" horiz-adv-x="220" 
d="M95 0h61.001c-2.66699 -2.66699 -7.83398 -8 -15.501 -16s-13.5 -14.5 -17.5 -19.5s-8 -11.667 -12 -20s-6 -16.833 -6 -25.5c0 -13.333 4.66699 -24.333 14 -33s22.333 -13 39 -13c12 0 20.667 1.66699 26 5c8.66699 -28.667 8.66699 -58 0 -88
c-12 -3.33301 -28 -5 -48 -5c-30 0 -55.167 8.5 -75.5 25.5s-30.5 40.833 -30.5 71.5c0 42 21.667 81.333 65 118z" />
    <glyph glyph-name="tilde" unicode="&#x2dc;" horiz-adv-x="371" 
d="M122 872c18 0 42.999 -7.33203 74.999 -21.999c18 -8 35.333 -12 52 -12c18.667 0 47.334 10 86.001 30c8 -37.333 8 -74 0 -110c-2 -0.666992 -6.33301 -2.83398 -13 -6.50098c-6.66895 -3.66699 -11.3359 -6.16699 -14 -7.5c-2.66699 -1.33301 -7 -3.33301 -13 -6
s-11 -4.5 -15 -5.5s-8.83301 -2 -14.5 -3s-11.167 -1.5 -16.5 -1.5c-18 0 -43 7.33301 -75 22c-18 8 -35.333 12 -52 12c-18.667 0 -47.334 -10 -86.001 -30c-8 37.333 -8 74 0 110c2 0.692383 6.33301 2.85938 13 6.5c6.66699 3.66699 11.334 6.16699 14.001 7.5
s7 3.33301 13 6s11 4.5 15 5.5s8.83301 2 14.5 3s11.167 1.5 16.5 1.5z" />
    <glyph glyph-name="hungarumlaut" unicode="&#x2dd;" horiz-adv-x="435" 
d="M30 766l111.002 174.001c13.333 -2.66699 31.166 -12.334 53.499 -29.001s36.166 -31 41.499 -43l-130 -159c-12.667 2.66699 -27 10 -43 22s-27 23.667 -33 35zM199.002 766.001l111 174.001c13.334 -2.66699 31.167 -12.334 53.5 -29.001
c22.334 -16.667 36.167 -31 41.5 -43l-130 -159c-12.667 2.66699 -27 10 -43 22s-27 23.667 -33 35z" />
    <glyph glyph-name="uni0326" unicode="&#x326;" horiz-adv-x="0" 
d="M120 -59c26 0 48.8311 -9.00195 68.498 -27.002s29.5 -45.333 29.5 -82c0 -40 -11.167 -79.667 -33.5 -119s-43.166 -64.666 -62.499 -75.999c-25.333 -4.66699 -51 -4.66699 -77 0c37.333 34.667 69 80.334 95 137.001c-9.33398 -1.33301 -16.334 -2 -21 -2
c-24.667 0 -45.667 8 -63 24s-26 36 -26 60c0 24.667 8.83301 45 26.5 61s38.834 24 63.501 24z" />
    <glyph glyph-name="uni0401" unicode="&#x401;" horiz-adv-x="564" 
d="M183 897c25.333 0 46.667 -8 64 -24s26 -36.333 26 -61c0 -24 -8.66699 -44 -26 -60c-17.334 -16 -38.667 -24 -64 -24s-46.666 8 -63.999 24s-26 36 -26 60c0 24.667 8.66699 45 26 61s38.666 24 63.999 24zM408.001 897c25.334 0 46.666 -8 63.998 -24
c17.333 -16 26 -36.333 26 -61c0 -24 -8.66699 -44 -26 -60s-38.666 -24 -63.999 -24s-46.666 8 -63.999 24s-26 36 -26 60c0 24.667 8.66699 45 26 61c17.334 16 38.667 24 64 24zM70 650h453c8 -44.667 8 -89 0 -133h-293v-122h259c8 -44.667 8 -89 0 -133h-259v-129h293
c8 -44 8 -88.333 0 -133h-453v650z" />
    <glyph glyph-name="uni0410" unicode="&#x410;" horiz-adv-x="724" 
d="M428 650l264 -650c-54.667 -9.33301 -109.667 -9.33301 -165 0l-46 123h-238l-46 -123c-55.333 -9.33301 -110.333 -9.33301 -165 0l264 650c44 7.33301 88 7.33301 132 0zM293 258h138l-69 186z" />
    <glyph glyph-name="uni0411" unicode="&#x411;" horiz-adv-x="610" 
d="M230 418l95 -0.000976562c72.667 0 131.667 -19.333 177 -58s68 -88.667 68 -150s-22.833 -111.666 -68.5 -150.999s-104.5 -59 -176.5 -59h-255v650h437c8 -44.667 8 -89 0 -133h-277v-99zM230 132.999h95c23.333 0 42.833 6.66699 58.5 20s23.5 32.333 23.5 57
s-7.83301 43.667 -23.5 57s-35.167 20 -58.5 20h-95v-154z" />
    <glyph glyph-name="uni0412" unicode="&#x412;" horiz-adv-x="610" 
d="M70 650h280.001c62.667 0 113.667 -15.833 153 -47.5s59 -72.5 59 -122.5c0 -66 -29.667 -114 -89 -144c31.333 -14 56.166 -34 74.499 -60s27.5 -56.667 27.5 -92c0 -57.333 -20.167 -102.333 -60.5 -135s-94.5 -49 -162.5 -49h-282v650zM230.001 517v-134h102
c21.333 0 38.333 5.83301 51 17.5s19 28.167 19 49.5c0 44.667 -23.333 67 -70 67h-102zM230.001 271v-138h112c46.667 0 70 23.333 70 70c0 45.333 -25.333 68 -76 68h-106z" />
    <glyph glyph-name="uni0413" unicode="&#x413;" horiz-adv-x="536" 
d="M70 650h427.999c8 -44.667 8 -89 0 -133h-268v-517c-53.333 -9.33301 -106.666 -9.33301 -159.999 0v650z" />
    <glyph glyph-name="uni0414" unicode="&#x414;" horiz-adv-x="788" 
d="M756 133l-0.00195312 -234c-53.334 -9.33301 -106.667 -9.33301 -160 0v101h-404v-101c-53.333 -9.33301 -106.666 -9.33301 -159.999 0v234h59c40.667 17.333 65.334 66.333 74.001 147l39 370h470v-517h82zM513.998 517h-164l-25 -237
c-7.33301 -71.333 -24 -120.333 -50 -147h239v384z" />
    <glyph glyph-name="uni0415" unicode="&#x415;" horiz-adv-x="564" 
d="M230 133h293c8 -44 8 -88.333 0 -133h-453v650h453c8 -44.667 8 -89 0 -133h-293v-122h259c8 -44.667 8 -89 0 -133h-259v-129z" />
    <glyph glyph-name="uni0416" unicode="&#x416;" horiz-adv-x="948" 
d="M715 334l200.998 -334c-23.335 -4 -53.168 -6 -89.5 -6c-36.3359 0 -66.1689 2 -89.499 6l-183 307v-307c-53.333 -9.33301 -106.666 -9.33301 -159.999 0v307l-183 -307c-23.333 -4 -53.333 -6 -90 -6s-66.334 2 -89.001 6l201 334l-193 316c22.667 4 52.334 6 89.001 6
s66.667 -2 90 -6l175 -290v290c53.334 9.33301 106.667 9.33301 160 0v-290l175 290c22.667 4 52.5 6 89.5 6s66.833 -2 89.5 -6z" />
    <glyph glyph-name="uni0417" unicode="&#x417;" horiz-adv-x="563" 
d="M426 334c32 -14.667 56.999 -35.832 74.999 -63.498c18 -27.667 27 -59.834 27 -96.501c0 -59.333 -23.5 -105.833 -70.5 -139.5s-107.833 -50.5 -182.5 -50.5c-80 0 -147 16.667 -201 50c-4 11.333 -6.33301 36.333 -7 75c-0.666016 38.667 1.66699 62 7 70
c67.333 -41.333 131.333 -62 192 -62c26 0 49 6.33301 69 19s30 32 30 58c0 46 -25.333 69 -76 69h-99c-7.33301 42 -7.33301 84 0 126h95c21.333 0 38.333 6.16699 51 18.5s19 29.833 19 52.5c0 23.334 -7.5 41.167 -22.5 53.499c-15 12.333 -34.833 18.5 -59.5 18.5
c-58.667 0 -121.667 -20.667 -189 -62c-5.33301 8 -7.66602 31.333 -6.99902 70s3 63.667 7 75c54 33.333 120 50 198 50c71.333 0 128 -16.167 170 -48.5s63 -75.5 63 -129.5c0 -34 -8 -64.333 -24 -91s-37.667 -47.334 -65 -62z" />
    <glyph glyph-name="uni0418" unicode="&#x418;" horiz-adv-x="722" 
d="M655 650l0.000976562 -650c-53.334 -9.33301 -106.667 -9.33301 -160 0v381l-303 -381c-41.333 -7.33301 -83 -7.33301 -125 0v650c53.333 9.33301 106.666 9.33301 159.999 0v-381l303 381c41.333 7.33301 83 7.33301 125 0z" />
    <glyph glyph-name="uni0419" unicode="&#x419;" horiz-adv-x="722" 
d="M504 888c5.34082 -8 7.67578 -26.833 7.00098 -56.5c-0.666992 -29.667 -3 -50.167 -7 -61.5c-37.333 -28 -85 -42 -143 -42s-105.667 14 -143 42c-4 11.333 -6.33301 31.833 -7 61.5s1.66602 48.5 6.99902 56.5c43.333 -25.333 91 -38 143 -38s99.667 12.667 143 38z
M655.002 650l0.000976562 -650c-53.334 -9.33301 -106.667 -9.33301 -160 0v381l-303 -381c-41.333 -7.33301 -83 -7.33301 -125 0v650c53.333 9.33301 106.666 9.33301 159.999 0v-381l303 381c41.333 7.33301 83 7.33301 125 0z" />
    <glyph glyph-name="uni041A" unicode="&#x41a;" horiz-adv-x="675" 
d="M401 334l242 -334c-23.333 -4 -55 -6 -95 -6s-71.333 2 -94 6l-224 312v-312c-53.333 -9.33301 -106.666 -9.33301 -159.999 0v650c53.333 9.33301 106.666 9.33301 159.999 0v-294l216 294c23.333 4 54.833 6 94.5 6s71.167 -2 94.5 -6z" />
    <glyph glyph-name="uni041B" unicode="&#x41b;" horiz-adv-x="722" 
d="M652 650l0.000976562 -650c-53.334 -9.33301 -106.667 -9.33301 -160 0v517h-166l-34 -333c-14 -132.667 -74 -199 -180 -199c-26 0 -50.667 3.66699 -74 11c-8 44.667 -8 89.667 0 135c9.33301 -2 18.666 -3 27.999 -3c38.667 0 60.667 23.667 66 71l47 451h473z" />
    <glyph glyph-name="uni041C" unicode="&#x41c;" horiz-adv-x="928" 
d="M742 650l153.999 -650c-52 -9.33301 -104 -9.33301 -156 0l-80 365l-132 -365c-42.667 -7.33301 -85.334 -7.33301 -128 0l-132 365l-80 -365c-52 -9.33301 -104 -9.33301 -156 0l154 650c44.667 8 89.334 8 134.001 0l144 -398l144 398c44.667 8 89.334 8 134 0z" />
    <glyph glyph-name="uni041D" unicode="&#x41d;" horiz-adv-x="729" 
d="M499 395l0.000976562 255c53.333 9.33301 106.666 9.33301 159.999 0v-650c-53.334 -9.33301 -106.667 -9.33301 -160 0v262h-269v-262c-53.333 -9.33301 -106.666 -9.33301 -159.999 0v650c53.333 9.33301 106.666 9.33301 159.999 0v-255h269z" />
    <glyph glyph-name="uni041E" unicode="&#x41e;" horiz-adv-x="780" 
d="M390 665c101.333 0 184.166 -32.833 248.499 -98.5s96.5 -146.167 96.5 -241.5s-32.167 -175.833 -96.5 -241.5s-147.166 -98.5 -248.499 -98.5s-184.166 32.833 -248.499 98.5s-96.5 146.167 -96.5 241.5s32.167 175.833 96.5 241.5s147.166 98.5 248.499 98.5zM390 532
c-50.667 0 -93.667 -18.834 -129 -56.501s-53 -87.834 -53 -150.5c0 -62.667 17.667 -112.834 53 -150.501s78.333 -56.5 129 -56.5s93.667 18.833 129 56.5s53 87.834 53 150.501s-17.667 112.834 -53 150.501s-78.333 56.5 -129 56.5z" />
    <glyph glyph-name="uni041F" unicode="&#x41f;" horiz-adv-x="729" 
d="M659 650l-0.000976562 -650c-53.334 -9.33301 -106.667 -9.33301 -160 0v517h-269v-517c-53.333 -9.33301 -106.666 -9.33301 -159.999 0v650h589z" />
    <glyph glyph-name="uni0420" unicode="&#x420;" horiz-adv-x="615" 
d="M70 650h254.999c72.667 0 131.667 -20 177 -60s68 -92.667 68 -158s-22.667 -118 -68 -158s-104.333 -60 -177 -60h-95v-214c-53.333 -9.33301 -106.666 -9.33301 -159.999 0v650zM229.999 347h95c23.333 0 42.833 7.16699 58.5 21.5s23.5 35.5 23.5 63.5
s-7.83301 49.167 -23.5 63.5s-35.167 21.5 -58.5 21.5h-95v-170z" />
    <glyph glyph-name="uni0421" unicode="&#x421;" horiz-adv-x="684" 
d="M421 118c58.667 0 121.667 20.668 189 62.001c5.33301 -8 7.66602 -31.333 6.99902 -70s-3 -63.667 -7 -75c-54 -33.333 -120 -50 -198 -50c-110.667 0 -199.5 32.667 -266.5 98s-100.5 146 -100.5 242s33.5 176.667 100.5 242s155.833 98 266.5 98
c78 0 144 -16.667 198 -50c4 -11.333 6.33301 -36.333 7 -75c0.647461 -38.667 -1.68555 -62 -7 -70c-67.334 41.333 -130.334 62 -189 62c-60.667 0 -111.334 -18.833 -152 -56.5c-40.667 -37.667 -61 -87.834 -61 -150.5c0 -62.667 20.333 -112.834 61 -150.501
s91.334 -56.5 152.001 -56.5z" />
    <glyph glyph-name="uni0422" unicode="&#x422;" horiz-adv-x="588" 
d="M38 650h511.999c8 -44.667 8 -89 0 -133h-176v-517c-53.333 -9.33301 -106.666 -9.33301 -159.999 0v517h-176c-8 44.667 -8 89 0 133z" />
    <glyph glyph-name="uni0423" unicode="&#x423;" horiz-adv-x="698" 
d="M349 374l146 276c23.333 4 52 6 86 6s62.333 -2 85 -6l-362 -650c-22.667 -4 -51 -6 -85 -6s-62.667 2 -86 6l131 234l-232 416c23.333 4 52 6 86 6s62.333 -2 85 -6z" />
    <glyph glyph-name="uni0424" unicode="&#x424;" horiz-adv-x="906" 
d="M533 587h33c92 0 164.167 -25.833 216.5 -77.5s78.5 -113.167 78.5 -184.5s-26.167 -132.833 -78.5 -184.5s-124.5 -77.5 -216.5 -77.5h-33v-63c-53.333 -9.33301 -106.666 -9.33301 -159.999 0v63h-33c-92 0 -164.167 25.833 -216.5 77.5s-78.5 113.167 -78.5 184.5
s26.167 132.833 78.5 184.5s124.5 77.5 216.5 77.5h33v63c53.333 9.33301 106.666 9.33301 159.999 0v-63zM373 454l-36 -0.00195312c-38 0 -69 -12.167 -93 -36.5s-36 -55.166 -36 -92.499s12 -68.166 36 -92.499s55 -36.5 93 -36.5h36v258zM533 195.998h36
c38 0 69 12.167 93 36.5c24 24.334 36 55.167 36 92.5c0 37.334 -12 68.167 -36 92.5s-55 36.5 -93 36.5h-36v-258z" />
    <glyph glyph-name="uni0425" unicode="&#x425;" horiz-adv-x="683" 
d="M449 334l202 -334c-23.333 -4 -54 -6 -92 -6s-68.333 2 -91 6l-132 222l-121 -222c-23.333 -4 -54 -6 -92 -6s-68.333 2 -91 6l202 334l-194 316c22.667 4 53 6 91 6s68.667 -2 92 -6l124 -206l113 206c22.667 4 53.167 6 91.5 6s68.833 -2 91.5 -6z" />
    <glyph glyph-name="uni0426" unicode="&#x426;" horiz-adv-x="754" 
d="M722 133l0.00195312 -234c-53.334 -9.33301 -106.667 -9.33301 -160 0v101h-492v650c53.333 9.33301 106.666 9.33301 159.999 0v-517h250v517c53.333 9.33301 106.666 9.33301 159.999 0v-517h82z" />
    <glyph glyph-name="uni0427" unicode="&#x427;" horiz-adv-x="659" 
d="M429 389v261.001c53.333 9.33301 106.666 9.33301 159.999 0v-650c-53.333 -9.33301 -106.666 -9.33301 -159.999 0v270c-18.667 -18.667 -43.834 -34.334 -75.5 -47.001c-31.667 -12.667 -65.834 -19 -102.5 -19c-61.333 0 -110.166 19.833 -146.499 59.5
s-54.5 92.5 -54.5 158.5v228c53.333 9.33301 106.666 9.33301 159.999 0v-203c0 -73.333 32.333 -110 97 -110c49.333 0 90 17.333 122 52z" />
    <glyph glyph-name="uni0428" unicode="&#x428;" horiz-adv-x="982" 
d="M752 133l0.00292969 517c53.333 9.33301 106.666 9.33301 159.999 0v-650h-842v650c53.333 9.33301 106.666 9.33301 159.999 0v-517h181v517c53.333 9.33301 106.666 9.33301 159.999 0v-517h181z" />
    <glyph glyph-name="uni0429" unicode="&#x429;" horiz-adv-x="1026" 
d="M994 133l0.00292969 -234c-53.335 -9.33301 -106.668 -9.33301 -160 0v101h-764v650c53.333 9.33301 106.666 9.33301 159.999 0v-517h181v517c53.333 9.33301 106.666 9.33301 159.999 0v-517h181v517c53.333 9.33301 106.666 9.33301 159.999 0v-517h82z" />
    <glyph glyph-name="uni042A" unicode="&#x42a;" horiz-adv-x="693" 
d="M308 436h95c72.667 0 131.667 -20 177 -60s68 -92.667 68 -158s-22.667 -118 -68 -158c-45.334 -40 -104.334 -60 -177 -60h-255v517h-110c-8 44.667 -8 89 0 133h270v-214zM308 133h95c23.333 0 42.833 7.16699 58.5 21.5s23.5 35.5 23.5 63.5
s-7.83301 49.167 -23.5 63.5s-35.167 21.5 -58.5 21.5h-95v-170z" />
    <glyph glyph-name="uni042B" unicode="&#x42b;" horiz-adv-x="857" 
d="M230 436h95.001c72.667 0 131.667 -20 177 -60s68 -92.667 68 -158s-22.667 -118 -68 -158s-104.333 -60 -177 -60h-255v650c53.333 9.33301 106.666 9.33301 159.999 0v-214zM627.001 0l0.000976562 650c53.333 9.33301 106.666 9.33301 159.999 0v-650
c-53.334 -9.33301 -106.667 -9.33301 -160 0zM230.002 133h95c23.333 0 42.833 7.16699 58.5 21.5s23.5 35.5 23.5 63.5s-7.83301 49.167 -23.5 63.5s-35.167 21.5 -58.5 21.5h-95v-170z" />
    <glyph glyph-name="uni042C" unicode="&#x42c;" horiz-adv-x="615" 
d="M230 436h95.001c72.667 0 131.667 -20 177 -60s68 -92.667 68 -158s-22.667 -118 -68 -158s-104.333 -60 -177 -60h-255v650c53.333 9.33301 106.666 9.33301 159.999 0v-214zM230.001 133h95c23.333 0 42.833 7.16699 58.5 21.5s23.5 35.5 23.5 63.5
s-7.83301 49.167 -23.5 63.5s-35.167 21.5 -58.5 21.5h-95v-170z" />
    <glyph glyph-name="uni042D" unicode="&#x42d;" horiz-adv-x="684" 
d="M272 665c116.667 0 206.998 -32.167 270.998 -96.5s96 -145.5 96 -243.5s-32 -179.167 -96 -243.5s-154.333 -96.5 -271 -96.5c-78 0 -144 16.667 -198 50c-4 11.333 -6.33301 36.333 -7 75c-0.666016 38.667 1.66699 62 7 70c67.333 -41.333 130.333 -62 189 -62
c54 0 98.833 12.333 134.5 37s59.167 59.667 70.5 105h-241c-8 44 -8 88.333 0 133h241c-12.667 44 -36.667 78.167 -72 102.5s-79.666 36.5 -132.999 36.5c-58.667 0 -121.667 -20.667 -189 -62c-5.33301 8 -7.66602 31.333 -6.99902 70s3 63.667 7 75
c54 33.333 120 50 198 50z" />
    <glyph glyph-name="uni042E" unicode="&#x42e;" horiz-adv-x="1043" 
d="M653 665c101.333 0 184.167 -32.833 248.5 -98.5s96.5 -146.167 96.5 -241.5s-32.167 -175.833 -96.5 -241.5c-64.334 -65.667 -147.167 -98.5 -248.5 -98.5c-88.667 0 -163.667 25.833 -225 77.5s-99.333 117.5 -114 197.5h-84v-260
c-53.333 -9.33301 -106.666 -9.33301 -159.999 0v650c53.333 9.33301 106.666 9.33301 159.999 0v-257h84c15.334 79.333 53.667 144.5 115 195.5s136 76.5 224 76.5zM653.001 118c50.667 0 93.667 18.832 129 56.499s53 87.834 53 150.501s-17.667 112.834 -53 150.501
s-78.333 56.5 -129 56.5s-93.667 -18.833 -129 -56.5s-53 -87.834 -53 -150.5c0 -62.667 17.667 -112.834 53 -150.501s78.333 -56.5 129 -56.5z" />
    <glyph glyph-name="uni042F" unicode="&#x42f;" horiz-adv-x="641" 
d="M571 650l-0.000976562 -650c-53.333 -9.33301 -106.666 -9.33301 -159.999 0v220h-62l-143 -220c-23.333 -4 -52.5 -6 -87.5 -6s-63.833 2 -86.5 6l158 244c-38.667 17.334 -69 42.667 -91 76c-22 33.334 -33 71.667 -33 115c0 64 22.167 115.833 66.5 155.5
s102.833 59.5 175.5 59.5h263zM410.999 517h-100c-23.333 0 -42.833 -7 -58.5 -21s-23.5 -34.333 -23.5 -61s7.83301 -47 23.5 -61s35.167 -21 58.5 -21h100v164z" />
    <glyph glyph-name="uni0430" unicode="&#x430;" horiz-adv-x="474" 
d="M228 415c67.333 0 116.332 -16.168 146.999 -48.501s46 -80.5 46 -144.5v-222c-42 -7.33301 -83.667 -7.33301 -125 0l-9 40c-31.333 -36.667 -69 -55 -113 -55c-37.333 0 -69.5 11.333 -96.5 34s-40.5 54.334 -40.5 95.001c0 40 13.5 71.333 40.5 94s61.167 34 102.5 34
s73.333 -9.66699 96 -29v22c0 22.667 -6.16699 39 -18.5 49s-32.5 15 -60.5 15c-38 0 -78.667 -11.667 -122 -35c-5.33301 8 -7.66602 26.5 -6.99902 55.5s3 49.167 7 60.5c38 23.333 89 35 153 35zM218.999 153.999c-25.333 0 -38 -10 -38 -30
c0 -8.66699 3.16699 -16 9.5 -22s15.5 -9 27.5 -9c22 0 41.333 5.66699 58 17v28c-14 10.667 -33 16 -57 16z" />
    <glyph glyph-name="uni0431" unicode="&#x431;" horiz-adv-x="521" 
d="M299 405c55.333 0 100.001 -19.833 134.001 -59.5s51 -87.5 51 -143.5c0 -62 -20.833 -113.667 -62.5 -155s-95.167 -62 -160.5 -62c-66 0 -119.333 22.333 -160 67s-61 105.334 -61 182.001v53c0 98 21 171.833 63 221.5s111 82.5 207 98.5
c58.667 9.33301 105 23.666 139 42.999c5.33984 -8 7.67285 -30 6.99902 -66c-0.666992 -36 -3 -59.667 -7 -71c-22 -14.667 -42.333 -24.5 -61 -29.5s-51 -10.833 -97 -17.5c-40 -6 -67.667 -17.167 -83 -33.5s-23 -42.5 -23 -78.5c29.333 34 67.333 51 114 51z
M262.001 110c22 0 40.334 8.16797 55.001 24.501s22 37.166 22 62.499c0 26.667 -7.83301 47.167 -23.5 61.5s-33.5 21.5 -53.5 21.5c-28.667 0 -54.334 -10.667 -77.001 -32v-45c0 -32 7 -55.5 21 -70.5s32.667 -22.5 56 -22.5z" />
    <glyph glyph-name="uni0432" unicode="&#x432;" horiz-adv-x="479" 
d="M55 400h208.999c50.667 0 90.334 -7.83301 119.001 -23.5s43 -43.5 43 -83.5s-19.667 -67.667 -59 -83c48 -18 72 -50 72 -96c0 -76 -54 -114 -162 -114h-222v400zM199.999 298v-55h51c22 0 33 9 33 27c0 18.667 -11 28 -33 28h-51zM199.999 161v-59h59
c23.333 0 35 9.33301 35 28c0 20.667 -11.667 31 -35 31h-59z" />
    <glyph glyph-name="uni0433" unicode="&#x433;" horiz-adv-x="413" 
d="M55 400h322c7.33301 -41.333 7.33301 -83.333 0 -126l-177 1v-275c-48.667 -8.66699 -97 -8.66699 -145 0v400z" />
    <glyph glyph-name="uni0434" unicode="&#x434;" horiz-adv-x="606" 
d="M576 121l-0.00195312 -222c-47.333 -8 -94.666 -8 -141.999 0v101h-262v-101c-47.333 -8 -94.666 -8 -141.999 0v222h55c24.667 14 40 51.333 46 112l17 167h361v-279h67zM363.998 279l-83 1l-5 -47c-6.66699 -58 -20.667 -95.333 -42 -112h130v158z" />
    <glyph glyph-name="uni0435" unicode="&#x435;" horiz-adv-x="489" 
d="M258 415c32 0 60.834 -5.50195 86.501 -16.502s45.5 -25 59.5 -42s25.667 -36.167 35 -57.5s13.5 -42.166 12.5 -62.499s-3.5 -39.166 -7.5 -56.499h-257c4 -23.333 14.667 -41.333 32 -54s38.666 -19 63.999 -19c41.334 0 83.667 12.667 127 38
c5.33984 -8 7.67285 -26.833 7 -56.5c-0.666992 -29.667 -3 -50.167 -7 -61.5c-37.333 -28 -85 -42 -143 -42c-68.667 0 -123.667 20 -165 60s-62 92 -62 156c0 62.667 20.5 114 61.5 154s93.167 60 156.5 60zM259.001 305.998c-32.667 0 -54 -17.333 -64 -52h118
c-4 34.667 -22 52 -54 52z" />
    <glyph glyph-name="uni0436" unicode="&#x436;" horiz-adv-x="743" 
d="M587 210l126.001 -210c-53.334 -9.33301 -106.667 -9.33301 -160 0l-109 189v-189c-48 -8.66699 -96.333 -8.66699 -145 0v189l-109 -189c-53.333 -9.33301 -106.666 -9.33301 -159.999 0l126 210l-122 190c53.333 9.33301 106.666 9.33301 159.999 0l105 -171v171
c48.667 8.66699 97 8.66699 145 0v-171l105 171c53.333 9.33301 106.666 9.33301 159.999 0z" />
    <glyph glyph-name="uni0437" unicode="&#x437;" horiz-adv-x="411" 
d="M189 415c46 0 85.666 -10.668 118.999 -32.001s50 -51.333 50 -90c0 -40 -19.667 -67.667 -59 -83c48 -18 72 -50 72 -96c0 -41.333 -17.167 -73.166 -51.5 -95.499s-75.833 -33.5 -124.5 -33.5c-61.333 0 -110.666 14 -147.999 42c-4 11.333 -6.33301 29.833 -7 55.5
s1.66602 42.5 6.99902 50.5c43.333 -25.333 84 -38 122 -38s57 12.333 57 37c0 19.333 -11.667 29 -35 29h-70c-4 18 -6 31.667 -6 41s2 23 6 41h61c22.667 0 34 9.66699 34 29c0 10 -4.5 18 -13.5 24s-21.5 9 -37.5 9c-33.333 0 -71.666 -12.667 -114.999 -38
c-5.33301 8 -7.66602 24.833 -6.99902 50.5s3 44.167 7 55.5c37.333 28 83.666 42 138.999 42z" />
    <glyph glyph-name="uni0438" unicode="&#x438;" horiz-adv-x="547" 
d="M200 204l183.999 196c23.334 4 41.667 6 55 6s31.333 -2 54 -6v-400c-48.667 -8.66699 -97 -8.66699 -145 0v196l-184 -196c-22.667 -4 -40.667 -6 -54 -6s-31.666 2 -54.999 6v400c48.667 8.66699 97 8.66699 145 0v-196z" />
    <glyph glyph-name="uni0439" unicode="&#x439;" horiz-adv-x="546" 
d="M274 478c-58 0 -105.667 14 -143 42c-4 11.333 -6.33301 31.833 -7 61.5c-0.666016 29.667 1.66699 48.5 7 56.5c43.333 -25.333 91 -38 143 -38s99.667 12.667 143 38c5.33984 -8 7.67285 -26.833 7 -56.5c-0.666992 -29.667 -3 -50.167 -7 -61.5
c-37.333 -28 -85 -42 -143 -42zM200 204l183.999 196c23.334 4 41.667 6 55 6s31.333 -2 54 -6v-400c-48.667 -8.66699 -97 -8.66699 -145 0v196l-184 -196c-22.667 -4 -40.667 -6 -54 -6s-31.666 2 -54.999 6v400c48.667 8.66699 97 8.66699 145 0v-196z" />
    <glyph glyph-name="uni043A" unicode="&#x43a;" horiz-adv-x="509" 
d="M345 210l134 -210c-54 -9.33301 -108 -9.33301 -162 0l-117 190v-190c-48.667 -8.66699 -97 -8.66699 -145 0v400c48.667 8.66699 97 8.66699 145 0v-172l113 172c54 9.33301 108 9.33301 162 0z" />
    <glyph glyph-name="uni043B" unicode="&#x43b;" horiz-adv-x="541" 
d="M487 400l0.000976562 -400.001c-48.667 -8.66699 -97 -8.66699 -145 0v279l-83 1l-13 -124c-6 -55.333 -22.667 -97.666 -50 -126.999s-61.333 -44 -102 -44c-14 0 -33 2 -57 6c-4 11.333 -6.33301 32 -7 62s1.66602 49 6.99902 57c6 -2 12 -3 18 -3
c14.667 0 25.5 4 32.5 12s11.5 21.333 13.5 40l25 241h361z" />
    <glyph glyph-name="uni043C" unicode="&#x43c;" horiz-adv-x="675" 
d="M534 400l110.999 -400c-46 -8 -92.333 -8 -139 0l-42 184l-72 -184c-22.667 -4 -40.667 -6 -54 -6s-31.666 2 -54.999 6l-72 184l-42 -184c-46 -8 -92.333 -8 -139 0l111 400c22.667 4 40.834 6 54.501 6s31.834 -2 54.5 -6l88 -211l87 211c23.334 4 41.667 6 54.999 6
c13.333 0 31.333 -2 54 -6z" />
    <glyph glyph-name="uni043D" unicode="&#x43d;" horiz-adv-x="548" 
d="M349 268v132c48.667 8.66699 97 8.66699 145 0v-400c-48 -8.66699 -96.333 -8.66699 -145 0v142l-149 1v-143c-48.667 -8.66699 -97 -8.66699 -145 0v400c48.667 8.66699 97 8.66699 145 0v-132h149z" />
    <glyph glyph-name="uni043E" unicode="&#x43e;" horiz-adv-x="524" 
d="M262 415c64.667 0 117.833 -20.667 159.5 -62s62.5 -92.333 62.5 -153s-20.833 -111.667 -62.5 -153s-94.834 -62 -159.5 -62c-64.667 0 -117.834 20.667 -159.501 62s-62.5 92.333 -62.5 153s20.833 111.667 62.5 153s94.834 62 159.501 62zM261.999 290
c-22 0 -40.333 -8 -55 -24s-22 -38 -22 -66s7.33301 -50 22 -66s33 -24 55 -24s40.333 8 55 24s22 38 22 66s-7.33301 50 -22 66s-33 24 -55 24z" />
    <glyph glyph-name="uni043F" unicode="&#x43f;" horiz-adv-x="543" 
d="M489 400v-400c-48 -8.66699 -96.333 -8.66699 -145 0v279l-144 1v-280c-48.667 -8.66699 -97 -8.66699 -145 0v400h434z" />
    <glyph glyph-name="uni0440" unicode="&#x440;" horiz-adv-x="541" 
d="M317 415c55.333 0 99.834 -20.5 133.501 -61.5s50.5 -92.167 50.5 -153.5s-16.833 -112.5 -50.5 -153.5s-78.167 -61.5 -133.5 -61.5c-48.667 0 -87 16.667 -115 50v-198c-48.667 -8.66699 -97 -8.66699 -145 0v563c42 7.33301 83.667 7.33301 125 0l11 -47
c31.333 41.333 72.666 62 123.999 62zM277.001 110c23.333 0 42.333 8 57 24s22 38 22 66s-7.33301 50 -22 66s-33.667 24 -57 24c-27.333 0 -52.333 -10.667 -75 -32v-116c22.667 -21.333 47.667 -32 75 -32z" />
    <glyph glyph-name="uni0441" unicode="&#x441;" horiz-adv-x="460" 
d="M281 107c36 0 75.666 12.665 118.999 37.998c5.33984 -8 7.67285 -26.833 7 -56.5c-0.666992 -29.667 -3 -50.167 -7 -61.5c-37.333 -28 -82 -42 -134 -42c-67.333 0 -121.833 19.833 -163.5 59.5s-62.5 91.5 -62.5 155.5s20.833 115.833 62.5 155.5
s96.167 59.5 163.5 59.5c52 0 96.667 -14 134 -42c4 -11.333 6.33301 -31.833 7 -61.5s-1.66602 -48.5 -6.99902 -56.5c-43.333 25.333 -83 38 -119 38c-28 0 -51 -8.16699 -69 -24.5s-27 -39.166 -27 -68.499s9 -52.166 27 -68.499s41 -24.5 69 -24.5z" />
    <glyph glyph-name="uni0442" unicode="&#x442;" horiz-adv-x="465" 
d="M36 400h393c7.33301 -41.333 7.33301 -83.333 0 -126h-124v-274c-48.667 -8.66699 -97 -8.66699 -145 0v275h-124c-7.33301 42 -7.33301 83.667 0 125z" />
    <glyph glyph-name="uni0443" unicode="&#x443;" horiz-adv-x="527" 
d="M264 191l80.998 209c50.667 8.66699 101.334 8.66699 152.001 0l-246 -563c-49.333 -8.66699 -98.333 -8.66699 -147 0l86 197l-160 366c50.667 8.66699 101.334 8.66699 152.001 0z" />
    <glyph glyph-name="uni0444" unicode="&#x444;" horiz-adv-x="713" 
d="M434 415h22c66.667 0 121.167 -20.667 163.5 -62s63.5 -92.333 63.5 -153s-21.167 -111.667 -63.5 -153s-96.833 -62 -163.5 -62h-22v-148c-48 -8.66699 -96.333 -8.66699 -145 0v148h-22c-66.667 0 -121.167 20.667 -163.5 62s-63.5 92.333 -63.5 153
s21.167 111.667 63.5 153s96.833 62 163.5 62h22v235c48 8.66699 96.333 8.66699 145 0v-235zM289 293l-22 -0.00195312c-24.667 0 -44.5 -8.16699 -59.5 -24.5s-22.5 -39.166 -22.5 -68.499s7.5 -52.166 22.5 -68.499s34.833 -24.5 59.5 -24.5h22v186zM434 292.998
v-185.998h22c24.667 0 44.5 8.16699 59.5 24.5s22.5 39.166 22.5 68.499s-7.5 52.166 -22.5 68.499s-34.833 24.5 -59.5 24.5h-22z" />
    <glyph glyph-name="uni0445" unicode="&#x445;" horiz-adv-x="518" 
d="M357 210l131 -210c-54 -9.33301 -108 -9.33301 -162 0l-71 116l-66 -116c-52.667 -9.33301 -105.667 -9.33301 -159 0l132 210l-124 190c54 9.33301 108 9.33301 162 0l64 -103l58 103c53.333 9.33301 106.333 9.33301 159 0z" />
    <glyph glyph-name="uni0446" unicode="&#x446;" horiz-adv-x="569" 
d="M539 121l-0.000976562 -222c-47.333 -8 -94.666 -8 -141.999 0v101h-342v400c48.667 8.66699 97 8.66699 145 0v-280h127v280c48.667 8.66699 97 8.66699 145 0v-279h67z" />
    </font>
</defs>
</svg>
